<svg width="56" height="56" viewBox="0 0 56 56" fill="none" xmlns="http://www.w3.org/2000/svg">
<rect width="56" height="56" fill="#26D7A0"/>
<path fill-rule="evenodd" clip-rule="evenodd" d="M47.9051 29.9611L45.9145 29.7674C45.971 29.1864 46 28.5969 46 28C46 27.4031 45.971 26.8136 45.9145 26.2326L47.9051 26.0389C47.9679 26.6841 48 27.3383 48 28C48 28.6617 47.9679 29.3159 47.9051 29.9611ZM47.1437 22.1923L45.2297 22.7722C44.8851 21.635 44.4308 20.5451 43.8789 19.5147L45.642 18.5704C46.2554 19.7156 46.7605 20.9275 47.1437 22.1923ZM43.4608 15.3119L41.9155 16.5816C41.1666 15.6701 40.3299 14.8334 39.4184 14.0845L40.6881 12.5392C41.7002 13.3708 42.6292 14.2998 43.4608 15.3119ZM37.4296 10.358L36.4853 12.1211C35.4549 11.5692 34.365 11.1149 33.2277 10.7703L33.8077 8.85626C35.0725 9.23948 36.2844 9.74463 37.4296 10.358ZM29.9611 8.09493L29.7674 10.0855C29.1864 10.029 28.5969 10 28 10C27.4031 10 26.8136 10.029 26.2326 10.0855L26.0389 8.09493C26.6841 8.03213 27.3383 8 28 8C28.6617 8 29.3159 8.03213 29.9611 8.09493ZM22.1923 8.85626L22.7722 10.7703C21.635 11.1149 20.5451 11.5692 19.5147 12.1211L18.5704 10.358C19.7156 9.74463 20.9275 9.23948 22.1923 8.85626ZM15.3119 12.5392L16.5816 14.0845C15.6701 14.8334 14.8334 15.6701 14.0845 16.5816L12.5392 15.3119C13.3708 14.2998 14.2998 13.3708 15.3119 12.5392ZM10.358 18.5704L12.1211 19.5147C11.5692 20.5451 11.1149 21.635 10.7703 22.7723L8.85626 22.1923C9.23948 20.9275 9.74463 19.7156 10.358 18.5704ZM8.09493 26.0389C8.03213 26.6841 8 27.3383 8 28C8 28.6617 8.03213 29.3159 8.09493 29.9611L10.0855 29.7674C10.029 29.1864 10 28.5969 10 28C10 27.4031 10.029 26.8136 10.0855 26.2326L8.09493 26.0389ZM8.85626 33.8077L10.7703 33.2278C11.1149 34.365 11.5692 35.4549 12.1211 36.4853L10.358 37.4296C9.74463 36.2844 9.23948 35.0725 8.85626 33.8077ZM12.5392 40.6881L14.0845 39.4184C14.8334 40.3299 15.6701 41.1666 16.5816 41.9155L15.3119 43.4608C14.2998 42.6292 13.3708 41.7002 12.5392 40.6881ZM18.5704 45.642L19.5147 43.8789C20.5451 44.4308 21.635 44.8851 22.7723 45.2297L22.1923 47.1437C20.9275 46.7605 19.7156 46.2554 18.5704 45.642ZM26.0389 47.9051L26.2326 45.9145C26.8136 45.971 27.4031 46 28 46C28.5969 46 29.1864 45.971 29.7674 45.9145L29.9611 47.9051C29.3159 47.9679 28.6617 48 28 48C27.3383 48 26.6841 47.9679 26.0389 47.9051ZM33.8077 47.1437L33.2278 45.2297C34.365 44.8851 35.4549 44.4308 36.4853 43.8789L37.4296 45.642C36.2844 46.2554 35.0725 46.7605 33.8077 47.1437ZM40.6881 43.4608L39.4184 41.9155C40.3299 41.1666 41.1666 40.3299 41.9155 39.4184L43.4608 40.6881C42.6292 41.7002 41.7002 42.6292 40.6881 43.4608ZM45.642 37.4296L43.8789 36.4853C44.4308 35.4549 44.8851 34.365 45.2297 33.2277L47.1437 33.8077C46.7605 35.0725 46.2554 36.2844 45.642 37.4296Z" fill="#273747"/>
<path d="M20 24.1156C20 28.6705 23.1302 31.8266 27.5404 31.8266C28.2036 31.8266 28.832 31.711 29.4138 31.5607L23.6422 40H28.704L34.2196 31.8844C36.2676 28.8555 37.2567 26.5087 37.28 24.0116C37.2916 18.9249 33.2887 16 28.5527 16C23.584 16 20 19.2486 20 24.1156ZM24.8407 23.9422C24.8407 21.5954 26.3767 19.9075 28.576 19.9075C30.7869 19.9075 32.3462 21.5954 32.3462 23.9653C32.3462 26.3121 30.7869 27.9769 28.576 27.9769C26.3767 27.9769 24.8407 26.3121 24.8407 23.9422Z" fill="#273747"/>
</svg>
