<?xml version="1.0" encoding="UTF-8"?>
<!DOCTYPE svg PUBLIC "-//W3C//DTD SVG 1.1//EN" "http://www.w3.org/Graphics/SVG/1.1/DTD/svg11.dtd">
<svg xmlns="http://www.w3.org/2000/svg" version="1.1" width="300px" height="300px" style="shape-rendering:geometricPrecision; text-rendering:geometricPrecision; image-rendering:optimizeQuality; fill-rule:evenodd; clip-rule:evenodd" xmlns:xlink="http://www.w3.org/1999/xlink">
<g><path style="opacity:0.006" fill="#040d0d" d="M 221.5,6.5 C 220.036,4.37032 218.036,3.03699 215.5,2.5C 215.649,3.55198 215.483,4.55198 215,5.5C 214.667,5.16667 214.333,4.83333 214,4.5C 213.722,5.4158 213.222,6.08247 212.5,6.5C 212.418,3.41514 213.918,1.74847 217,1.5C 220.082,1.74847 221.582,3.41514 221.5,6.5 Z"/></g>
<g><path style="opacity:0.124" fill="#0e3f2a" d="M 227.5,-0.5 C 229.167,-0.5 230.833,-0.5 232.5,-0.5C 232.177,5.68996 232.51,11.69 233.5,17.5C 233.53,18.4972 233.03,19.1639 232,19.5C 230.662,18.4939 229.329,17.4939 228,16.5C 227.501,10.8431 227.334,5.17645 227.5,-0.5 Z"/></g>
<g><path style="opacity:0.63" fill="#26d19c" d="M 252.5,0.5 C 255.5,0.5 258.5,0.5 261.5,0.5C 261.5,2.16667 261.5,3.83333 261.5,5.5C 263.167,5.5 264.833,5.5 266.5,5.5C 266.5,7.16667 266.5,8.83333 266.5,10.5C 268.144,10.2865 269.644,10.6198 271,11.5C 271.499,15.1516 271.665,18.8183 271.5,22.5C 269.833,22.5 268.167,22.5 266.5,22.5C 266.5,25.8333 266.5,29.1667 266.5,32.5C 263.5,32.5 260.5,32.5 257.5,32.5C 257.5,30.8333 257.5,29.1667 257.5,27.5C 255.833,27.5 254.167,27.5 252.5,27.5C 252.5,18.5 252.5,9.5 252.5,0.5 Z"/></g>
<g><path style="opacity:0.008" fill="#000404" d="M 212.5,6.5 C 212.762,7.97782 212.429,9.31116 211.5,10.5C 210.135,9.19314 208.802,9.19314 207.5,10.5C 207.5,9.16667 207.5,7.83333 207.5,6.5C 209.167,6.5 210.833,6.5 212.5,6.5 Z"/></g>
<g><path style="opacity:0.672" fill="#24ce99" d="M 232.5,-0.5 C 237.167,-0.5 241.833,-0.5 246.5,-0.5C 246.5,5.5 246.5,11.5 246.5,17.5C 243.5,17.5 240.5,17.5 237.5,17.5C 236.167,17.5 234.833,17.5 233.5,17.5C 232.51,11.69 232.177,5.68996 232.5,-0.5 Z"/></g>
<g><path style="opacity:0.756" fill="#25cd98" d="M 221.5,6.5 C 221.5,7.5 221.5,8.5 221.5,9.5C 221.5,15.5 221.5,21.5 221.5,27.5C 219.833,27.5 218.167,27.5 216.5,27.5C 216.5,29.1667 216.5,30.8333 216.5,32.5C 213.5,33.8333 210.5,33.8333 207.5,32.5C 207.5,25.1667 207.5,17.8333 207.5,10.5C 208.802,9.19314 210.135,9.19314 211.5,10.5C 212.429,9.31116 212.762,7.97782 212.5,6.5C 213.222,6.08247 213.722,5.4158 214,4.5C 214.333,4.83333 214.667,5.16667 215,5.5C 215.483,4.55198 215.649,3.55198 215.5,2.5C 218.036,3.03699 220.036,4.37032 221.5,6.5 Z"/></g>
<g><path style="opacity:0.12" fill="#198361" d="M 221.5,9.5 C 223.144,9.28649 224.644,9.61983 226,10.5C 226.499,16.1569 226.666,21.8236 226.5,27.5C 224.833,27.5 223.167,27.5 221.5,27.5C 221.5,21.5 221.5,15.5 221.5,9.5 Z"/></g>
<g><path style="opacity:0.006" fill="#040d0c" d="M 237.5,17.5 C 240.5,17.5 243.5,17.5 246.5,17.5C 245.243,22.466 242.576,23.466 238.5,20.5C 237.873,19.5832 237.539,18.5832 237.5,17.5 Z"/></g>
<g><path style="opacity:0.005" fill="#000000" d="M 207.5,32.5 C 210.5,33.8333 213.5,33.8333 216.5,32.5C 215.766,33.7079 215.433,35.0413 215.5,36.5C 213.167,36.5 210.833,36.5 208.5,36.5C 208.567,35.0413 208.234,33.7079 207.5,32.5 Z"/></g>
<g><path style="opacity:0.051" fill="#10301f" d="M 201.5,35.5 C 198.5,35.5 195.5,35.5 192.5,35.5C 191.741,31.7597 193.241,30.093 197,30.5C 200.759,30.093 202.259,31.7597 201.5,35.5 Z"/></g>
<g><path style="opacity:0.635" fill="#25d69f" d="M 281.5,36.5 C 281.787,39.4841 283.454,40.8174 286.5,40.5C 286.666,49.1731 286.5,57.8397 286,66.5C 283.333,67.8333 280.667,67.8333 278,66.5C 277.502,63.5184 277.335,60.5184 277.5,57.5C 275.833,57.5 274.167,57.5 272.5,57.5C 272.5,48.5 272.5,39.5 272.5,30.5C 275.5,30.5 278.5,30.5 281.5,30.5C 281.5,32.5 281.5,34.5 281.5,36.5 Z"/></g>
<g><path style="opacity:0.008" fill="#000000" d="M 281.5,36.5 C 284.069,36.7377 285.735,38.071 286.5,40.5C 283.454,40.8174 281.787,39.4841 281.5,36.5 Z"/></g>
<g><path style="opacity:0.641" fill="#24cd99" d="M 192.5,35.5 C 195.5,35.5 198.5,35.5 201.5,35.5C 203.167,35.5 204.833,35.5 206.5,35.5C 206.5,41.1667 206.5,46.8333 206.5,52.5C 204.833,52.5 203.167,52.5 201.5,52.5C 201.5,55.5 201.5,58.5 201.5,61.5C 198.287,61.19 195.287,61.5233 192.5,62.5C 190.833,62.5 189.167,62.5 187.5,62.5C 187.5,56.8333 187.5,51.1667 187.5,45.5C 189.167,45.5 190.833,45.5 192.5,45.5C 192.5,42.1667 192.5,38.8333 192.5,35.5 Z"/></g>
<g><path style="opacity:0.901" fill="#25d39d" d="M 271.5,125.5 C 269.934,124.939 268.601,125.606 267.5,127.5C 266.523,138.419 266.19,149.419 266.5,160.5C 264.5,160.5 262.5,160.5 260.5,160.5C 260.298,162.95 260.631,165.283 261.5,167.5C 261.5,172.5 261.5,177.5 261.5,182.5C 259.833,182.5 258.167,182.5 256.5,182.5C 256.5,184.167 256.5,185.833 256.5,187.5C 256.5,192.5 256.5,197.5 256.5,202.5C 254.833,202.5 253.167,202.5 251.5,202.5C 251.5,208.833 251.5,215.167 251.5,221.5C 249.833,221.5 248.167,221.5 246.5,221.5C 246.5,227.167 246.5,232.833 246.5,238.5C 245.07,238.421 243.736,238.754 242.5,239.5C 241.859,241.296 240.859,242.796 239.5,244C 234.113,244.784 228.78,244.618 223.5,243.5C 222.167,238.167 222.167,232.833 223.5,227.5C 224.736,226.754 226.07,226.421 227.5,226.5C 227.5,221.833 227.5,217.167 227.5,212.5C 229.167,212.5 230.833,212.5 232.5,212.5C 232.5,210.167 232.5,207.833 232.5,205.5C 232.5,200.5 232.5,195.5 232.5,190.5C 234.167,190.5 235.833,190.5 237.5,190.5C 237.5,187.833 237.5,185.167 237.5,182.5C 234.167,182.5 230.833,182.5 227.5,182.5C 227.5,180.833 227.5,179.167 227.5,177.5C 225.833,177.5 224.167,177.5 222.5,177.5C 222.5,175.833 222.5,174.167 222.5,172.5C 222.5,170.833 222.5,169.167 222.5,167.5C 220.833,167.5 219.167,167.5 217.5,167.5C 217.5,164.5 217.5,161.5 217.5,158.5C 216.07,158.579 214.736,158.246 213.5,157.5C 212.5,134.176 212.167,110.843 212.5,87.5C 214.167,87.5 215.833,87.5 217.5,87.5C 217.5,85.5 217.5,83.5 217.5,81.5C 217.5,78.5 217.5,75.5 217.5,72.5C 219.167,72.5 220.833,72.5 222.5,72.5C 222.5,70.8333 222.5,69.1667 222.5,67.5C 221.454,63.2214 222.954,60.5548 227,59.5C 227.49,58.2068 227.657,56.8734 227.5,55.5C 234.805,54.4833 242.139,54.3167 249.5,55C 251.107,56.049 251.773,57.549 251.5,59.5C 255.446,59.4877 257.113,61.4877 256.5,65.5C 258.167,65.5 259.833,65.5 261.5,65.5C 261.5,69.5 261.5,73.5 261.5,77.5C 263.167,77.5 264.833,77.5 266.5,77.5C 266.5,88.8333 266.5,100.167 266.5,111.5C 268.144,111.286 269.644,111.62 271,112.5C 271.499,116.821 271.666,121.154 271.5,125.5 Z M 241.5,94.5 C 242.434,95.5676 242.768,96.901 242.5,98.5C 244.144,98.2865 245.644,98.6198 247,99.5C 247.5,111.829 247.667,124.162 247.5,136.5C 243.5,135.833 241.833,137.5 242.5,141.5C 240.5,141.5 238.5,141.5 236.5,141.5C 236.5,139.833 236.5,138.167 236.5,136.5C 234.856,136.714 233.356,136.38 232,135.5C 231.5,124.839 231.333,114.172 231.5,103.5C 233.167,103.5 234.833,103.5 236.5,103.5C 236.5,101.167 236.5,98.8333 236.5,96.5C 238.306,95.9759 239.972,95.3092 241.5,94.5 Z"/></g>
<g><path style="opacity:0.047" fill="#146a59" d="M 201.5,61.5 C 201.5,63.1667 201.5,64.8333 201.5,66.5C 198.5,67.8333 195.5,67.8333 192.5,66.5C 192.5,65.1667 192.5,63.8333 192.5,62.5C 195.287,61.5233 198.287,61.19 201.5,61.5 Z"/></g>
<g><path style="opacity:0.008" fill="#091613" d="M 222.5,67.5 C 222.5,69.1667 222.5,70.8333 222.5,72.5C 220.833,72.5 219.167,72.5 217.5,72.5C 216.833,68.5 218.5,66.8333 222.5,67.5 Z"/></g>
<g><path style="opacity:0.039" fill="#06211d" d="M -0.5,67.5 C 3.18174,67.3347 6.84841,67.5014 10.5,68C 11.3802,69.3561 11.7135,70.8561 11.5,72.5C 9.5,72.5 7.5,72.5 5.5,72.5C 3.5,72.5 1.5,72.5 -0.5,72.5C -0.5,70.8333 -0.5,69.1667 -0.5,67.5 Z"/></g>
<g><path style="opacity:0.974" fill="#25d59d" d="M -0.5,75.5 C 0.822066,75.33 1.98873,75.6634 3,76.5C 3.33333,127.167 3.66667,177.833 4,228.5C 6.78477,229.907 9.28477,229.574 11.5,227.5C 11.5,227.167 11.5,226.833 11.5,226.5C 22.8382,226.333 34.1716,226.5 45.5,227C 46.4788,233.744 46.8122,240.578 46.5,247.5C 30.8811,246.531 15.2145,246.197 -0.5,246.5C -0.5,189.5 -0.5,132.5 -0.5,75.5 Z"/></g>
<g><path style="opacity:0.305" fill="#1b9771" d="M 5.5,72.5 C 7.5,72.5 9.5,72.5 11.5,72.5C 11.5,123.833 11.5,175.167 11.5,226.5C 11.5,226.833 11.5,227.167 11.5,227.5C 9.83333,227.5 8.16667,227.5 6.5,227.5C 6.82854,175.762 6.4952,124.095 5.5,72.5 Z"/></g>
<g><path style="opacity:0.776" fill="#21bf8d" d="M -0.5,72.5 C 1.5,72.5 3.5,72.5 5.5,72.5C 6.4952,124.095 6.82854,175.762 6.5,227.5C 8.16667,227.5 9.83333,227.5 11.5,227.5C 9.28477,229.574 6.78477,229.907 4,228.5C 3.66667,177.833 3.33333,127.167 3,76.5C 1.98873,75.6634 0.822066,75.33 -0.5,75.5C -0.5,74.5 -0.5,73.5 -0.5,72.5 Z"/></g>
<g><path style="opacity:0.688" fill="#25d19b" d="M 296.5,97.5 C 296.5,102.5 296.5,107.5 296.5,112.5C 293.713,113.477 290.713,113.81 287.5,113.5C 287.5,107.5 287.5,101.5 287.5,95.5C 287.058,92.6679 285.725,91.6679 283.5,92.5C 282.359,89.3601 282.192,86.0267 283,82.5C 284.356,81.6198 285.856,81.2865 287.5,81.5C 287.286,79.8561 287.62,78.3561 288.5,77C 291.099,76.231 293.599,76.3977 296,77.5C 296.5,84.1583 296.666,90.825 296.5,97.5 Z"/></g>
<g><path style="opacity:0.086" fill="#1f966d" d="M 217.5,81.5 C 217.5,83.5 217.5,85.5 217.5,87.5C 215.833,87.5 214.167,87.5 212.5,87.5C 212.5,85.8333 212.5,84.1667 212.5,82.5C 214.216,82.3713 215.883,82.038 217.5,81.5 Z"/></g>
<g><path style="opacity:0.102" fill="#0a2519" d="M 186.5,87.5 C 182.014,87.2854 177.347,87.2854 172.5,87.5C 172.5,85.8333 172.5,84.1667 172.5,82.5C 176.469,81.6357 180.469,81.8023 184.5,83C 186.107,84.049 186.773,85.549 186.5,87.5 Z"/></g>
<g><path style="opacity:0.773" fill="#25d49d" d="M 186.5,87.5 C 186.5,95.5 186.5,103.5 186.5,111.5C 191.5,111.5 196.5,111.5 201.5,111.5C 202.136,120.565 201.47,129.231 199.5,137.5C 199.703,135.61 199.037,134.11 197.5,133C 193.848,132.501 190.182,132.335 186.5,132.5C 186.5,134.167 186.5,135.833 186.5,137.5C 190.371,137.185 194.038,137.518 197.5,138.5C 193.833,138.5 190.167,138.5 186.5,138.5C 186.5,167.833 186.5,197.167 186.5,226.5C 188.5,226.5 190.5,226.5 192.5,226.5C 195.287,227.477 198.287,227.81 201.5,227.5C 201.5,234.5 201.5,241.5 201.5,248.5C 200.167,248.5 198.833,248.5 197.5,248.5C 193.146,246.652 188.48,245.985 183.5,246.5C 183.5,248.5 183.5,250.5 183.5,252.5C 182.566,251.432 182.232,250.099 182.5,248.5C 180.833,248.5 179.167,248.5 177.5,248.5C 177.5,245.167 177.5,241.833 177.5,238.5C 175.856,238.714 174.356,238.38 173,237.5C 172.5,204.502 172.333,171.502 172.5,138.5C 169.119,138.54 165.786,138.207 162.5,137.5C 162.5,128.833 162.5,120.167 162.5,111.5C 165.833,111.5 169.167,111.5 172.5,111.5C 172.5,103.5 172.5,95.5 172.5,87.5C 177.347,87.2854 182.014,87.2854 186.5,87.5 Z"/></g>
<g><path style="opacity:0.012" fill="#114747" d="M 241.5,94.5 C 239.972,95.3092 238.306,95.9759 236.5,96.5C 236.5,95.5 236.5,94.5 236.5,93.5C 238.415,93.2155 240.081,93.5489 241.5,94.5 Z"/></g>
<g><path style="opacity:0.004" fill="#101f1f" d="M 287.5,95.5 C 285.381,95.5323 284.048,94.5323 283.5,92.5C 285.725,91.6679 287.058,92.6679 287.5,95.5 Z"/></g>
<g><path style="opacity:0.044" fill="#031919" d="M 296.5,97.5 C 297.5,97.5 298.5,97.5 299.5,97.5C 299.5,102.5 299.5,107.5 299.5,112.5C 298.5,112.5 297.5,112.5 296.5,112.5C 296.5,107.5 296.5,102.5 296.5,97.5 Z"/></g>
<g><path style="opacity:0.004" fill="#000000" d="M 67.5,112.5 C 67.5,113.833 67.5,115.167 67.5,116.5C 66.1667,116.5 64.8333,116.5 63.5,116.5C 64.5812,114.866 65.9145,113.533 67.5,112.5 Z"/></g>
<g><path style="opacity:0.832" fill="#25d09a" d="M 86.5,111.5 C 86.5,113.167 86.5,114.833 86.5,116.5C 88.1667,116.5 89.8333,116.5 91.5,116.5C 91.3398,118.199 91.5065,119.866 92,121.5C 92.6914,119.109 93.6914,119.109 95,121.5C 95.3826,120.944 95.8826,120.611 96.5,120.5C 96.5,122.833 96.5,125.167 96.5,127.5C 96.5,128.833 96.5,130.167 96.5,131.5C 97.8333,131.5 99.1667,131.5 100.5,131.5C 101.499,169.996 101.832,208.663 101.5,247.5C 98.5701,246.701 95.5701,246.368 92.5,246.5C 92.5,245.5 92.5,244.5 92.5,243.5C 92.6655,239.486 92.4988,235.486 92,231.5C 91.5017,234.817 91.335,238.15 91.5,241.5C 89.0672,241.273 87.4006,242.273 86.5,244.5C 86.5,244.833 86.5,245.167 86.5,245.5C 86.5,246.5 86.5,247.5 86.5,248.5C 84.7085,248.366 83.0418,248.699 81.5,249.5C 81.8633,247.089 80.8633,245.589 78.5,245C 74.7973,244.421 71.1306,244.588 67.5,245.5C 67.5,246.833 67.5,248.167 67.5,249.5C 65.9582,248.699 64.2915,248.366 62.5,248.5C 62.6841,245.679 61.3507,244.012 58.5,243.5C 57.8328,240.023 57.1661,236.689 56.5,233.5C 57.2186,231.236 57.552,228.903 57.5,226.5C 55.8333,226.5 54.1667,226.5 52.5,226.5C 52.5,212.833 52.5,199.167 52.5,185.5C 54.1667,185.5 55.8333,185.5 57.5,185.5C 57.1872,181.958 57.5206,178.625 58.5,175.5C 60.4832,175.843 61.8166,175.176 62.5,173.5C 62.5,172.5 62.5,171.5 62.5,170.5C 64.1667,170.5 65.8333,170.5 67.5,170.5C 67.8417,171.338 68.5084,171.672 69.5,171.5C 72.7681,172.822 76.4348,173.489 80.5,173.5C 84.1667,173.333 87.8333,173.167 91.5,173C 92,172.5 92.5,172 93,171.5C 93.6667,166.5 93.6667,161.5 93,156.5C 91.3005,155.594 89.4672,155.261 87.5,155.5C 87.5,151.5 87.5,147.5 87.5,143.5C 83.5,144.167 81.8333,142.5 82.5,138.5C 78.6246,139.126 76.7913,137.459 77,133.5C 76.5065,135.134 76.3398,136.801 76.5,138.5C 74.8333,138.5 73.1667,138.5 71.5,138.5C 69.8333,138.5 68.1667,138.5 66.5,138.5C 66.5,140.167 66.5,141.833 66.5,143.5C 66.5,145.167 66.5,146.833 66.5,148.5C 63.5,148.5 60.5,148.5 57.5,148.5C 57.5,146.5 57.5,144.5 57.5,142.5C 57.5,141.167 57.5,139.833 57.5,138.5C 57.5,134.5 57.5,130.5 57.5,126.5C 57.5,124.833 57.5,123.167 57.5,121.5C 59.1667,121.5 60.8333,121.5 62.5,121.5C 62.2155,119.585 62.5489,117.919 63.5,116.5C 64.8333,116.5 66.1667,116.5 67.5,116.5C 67.5,115.167 67.5,113.833 67.5,112.5C 73.6446,111.51 79.9779,111.177 86.5,111.5 Z M 71.5,192.5 C 76.8333,192.5 82.1667,192.5 87.5,192.5C 87.5,197.5 87.5,202.5 87.5,207.5C 87.5,210.833 87.5,214.167 87.5,217.5C 84.2984,217.537 82.6317,219.203 82.5,222.5C 82.5,223.833 82.5,225.167 82.5,226.5C 81.1667,226.5 79.8333,226.5 78.5,226.5C 77.8333,226.833 77.1667,227.167 76.5,227.5C 75.0813,226.549 73.4147,226.216 71.5,226.5C 71.5,225.167 71.5,223.833 71.5,222.5C 69.8333,222.5 68.1667,222.5 66.5,222.5C 66.5,212.5 66.5,202.5 66.5,192.5C 68.1667,192.5 69.8333,192.5 71.5,192.5 Z"/></g>
<g><path style="opacity:0.816" fill="#25ce99" d="M 127.5,111.5 C 133.833,111.5 140.167,111.5 146.5,111.5C 146.5,113.167 146.5,114.833 146.5,116.5C 148.167,116.5 149.833,116.5 151.5,116.5C 153.167,116.5 154.833,116.5 156.5,116.5C 156.5,125.167 156.5,133.833 156.5,142.5C 153.5,142.5 150.5,142.5 147.5,142.5C 147.719,141.325 147.386,140.325 146.5,139.5C 143.833,138.833 141.167,138.167 138.5,137.5C 137.719,136.271 137.219,134.938 137,133.5C 137.209,137.459 135.375,139.126 131.5,138.5C 132.167,142.5 130.5,144.167 126.5,143.5C 126.5,149.167 126.5,154.833 126.5,160.5C 128.167,160.5 129.833,160.5 131.5,160.5C 131.5,162.167 131.5,163.833 131.5,165.5C 133.884,165.443 136.218,165.777 138.5,166.5C 140.596,169.133 143.263,170.8 146.5,171.5C 146.5,172.833 146.5,174.167 146.5,175.5C 148.167,175.5 149.833,175.5 151.5,175.5C 151.5,177.167 151.5,178.833 151.5,180.5C 153.167,180.5 154.833,180.5 156.5,180.5C 156.187,184.042 156.521,187.375 157.5,190.5C 156.781,192.764 156.448,195.097 156.5,197.5C 158.554,197.635 160.221,196.968 161.5,195.5C 161.5,205.833 161.5,216.167 161.5,226.5C 159.833,226.5 158.167,226.5 156.5,226.5C 156.666,231.844 156.499,237.177 156,242.5C 154.644,243.38 153.144,243.714 151.5,243.5C 151.5,245.167 151.5,246.833 151.5,248.5C 149.833,248.5 148.167,248.5 146.5,248.5C 144.189,246.932 141.522,246.098 138.5,246C 134.618,245.11 130.952,245.61 127.5,247.5C 128.309,249.071 128.643,250.738 128.5,252.5C 127.587,249.7 125.587,248.367 122.5,248.5C 122.785,246.712 122.452,245.045 121.5,243.5C 120.575,244.641 119.741,244.641 119,243.5C 118.722,244.416 118.222,245.082 117.5,245.5C 117.5,244.167 117.5,242.833 117.5,241.5C 116.965,239.554 115.632,238.554 113.5,238.5C 112.343,230.344 112.177,222.01 113,213.5C 115.401,212.398 117.901,212.231 120.5,213C 121.099,214.622 121.766,216.122 122.5,217.5C 121.699,219.042 121.366,220.708 121.5,222.5C 123.167,222.5 124.833,222.5 126.5,222.5C 129.95,221.756 131.616,223.09 131.5,226.5C 135.167,226.5 138.833,226.5 142.5,226.5C 141.848,222.44 143.515,220.44 147.5,220.5C 147.5,214.5 147.5,208.5 147.5,202.5C 145.833,202.5 144.167,202.5 142.5,202.5C 142.5,200.833 142.5,199.167 142.5,197.5C 140.833,197.5 139.167,197.5 137.5,197.5C 137.5,195.833 137.5,194.167 137.5,192.5C 134.167,192.5 130.833,192.5 127.5,192.5C 127.5,190.833 127.5,189.167 127.5,187.5C 125.833,187.5 124.167,187.5 122.5,187.5C 122.5,185.833 122.5,184.167 122.5,182.5C 120.833,182.5 119.167,182.5 117.5,182.5C 117.5,179.167 117.5,175.833 117.5,172.5C 116.852,170.914 116.352,169.247 116,167.5C 114.908,169.931 113.741,169.931 112.5,167.5C 112.5,157.167 112.5,146.833 112.5,136.5C 114.167,136.5 115.833,136.5 117.5,136.5C 117.5,135.167 117.5,133.833 117.5,132.5C 117.5,128.833 117.5,125.167 117.5,121.5C 119.167,121.5 120.833,121.5 122.5,121.5C 122.5,119.833 122.5,118.167 122.5,116.5C 124.167,116.5 125.833,116.5 127.5,116.5C 127.5,114.833 127.5,113.167 127.5,111.5 Z"/></g>
<g><path style="opacity:0.039" fill="#061c14" d="M 86.5,111.5 C 90.5,110.833 92.1667,112.5 91.5,116.5C 89.8333,116.5 88.1667,116.5 86.5,116.5C 86.5,114.833 86.5,113.167 86.5,111.5 Z"/></g>
<g><path style="opacity:0.031" fill="#071c1c" d="M 146.5,111.5 C 150.5,110.833 152.167,112.5 151.5,116.5C 149.833,116.5 148.167,116.5 146.5,116.5C 146.5,114.833 146.5,113.167 146.5,111.5 Z"/></g>
<g><path style="opacity:0.035" fill="#0a270d" d="M 127.5,111.5 C 127.5,113.167 127.5,114.833 127.5,116.5C 125.833,116.5 124.167,116.5 122.5,116.5C 122.162,112.849 123.828,111.183 127.5,111.5 Z"/></g>
<g><path style="opacity:0.008" fill="#206e58" d="M 91.5,116.5 C 94.5876,116.197 96.2542,117.53 96.5,120.5C 95.8826,120.611 95.3826,120.944 95,121.5C 93.6914,119.109 92.6914,119.109 92,121.5C 91.5065,119.866 91.3398,118.199 91.5,116.5 Z"/></g>
<g><path style="opacity:0.004" fill="#20b5b5" d="M 271.5,125.5 C 270.817,127.176 269.483,127.843 267.5,127.5C 268.601,125.606 269.934,124.939 271.5,125.5 Z"/></g>
<g><path style="opacity:0.005" fill="#000000" d="M 96.5,127.5 C 98.1336,128.581 99.467,129.915 100.5,131.5C 99.1667,131.5 97.8333,131.5 96.5,131.5C 96.5,130.167 96.5,128.833 96.5,127.5 Z"/></g>
<g><path style="opacity:0.194" fill="#1a7f60" d="M 57.5,126.5 C 57.5,130.5 57.5,134.5 57.5,138.5C 56.0413,138.567 54.7079,138.234 53.5,137.5C 52.5184,134.038 52.185,130.371 52.5,126.5C 54.1667,126.5 55.8333,126.5 57.5,126.5 Z"/></g>
<g><path style="opacity:0.006" fill="#000000" d="M 117.5,132.5 C 117.5,133.833 117.5,135.167 117.5,136.5C 115.833,136.5 114.167,136.5 112.5,136.5C 113.265,134.071 114.931,132.738 117.5,132.5 Z"/></g>
<g><path style="opacity:0.016" fill="#2fab89" d="M 199.5,137.5 C 198.833,137.833 198.167,138.167 197.5,138.5C 194.038,137.518 190.371,137.185 186.5,137.5C 186.5,135.833 186.5,134.167 186.5,132.5C 190.182,132.335 193.848,132.501 197.5,133C 199.037,134.11 199.703,135.61 199.5,137.5 Z"/></g>
<g><path style="opacity:0.005" fill="#000000" d="M 53.5,137.5 C 54.7079,138.234 56.0413,138.567 57.5,138.5C 57.5,139.833 57.5,141.167 57.5,142.5C 55.6127,141.344 54.2794,139.677 53.5,137.5 Z"/></g>
<g><path style="opacity:0.01" fill="#0b1908" d="M 71.5,138.5 C 71.5,139.833 71.5,141.167 71.5,142.5C 69.7839,142.629 68.1172,142.962 66.5,143.5C 66.5,141.833 66.5,140.167 66.5,138.5C 68.1667,138.5 69.8333,138.5 71.5,138.5 Z"/></g>
<g><path style="opacity:0.102" fill="#124c3f" d="M 147.5,142.5 C 150.5,142.5 153.5,142.5 156.5,142.5C 155.836,148.248 153.003,149.581 148,146.5C 147.51,145.207 147.343,143.873 147.5,142.5 Z"/></g>
<g><path style="opacity:0.999" fill="#25d79f" d="M 299.5,131.5 C 299.5,143.5 299.5,155.5 299.5,167.5C 297.167,167.5 294.833,167.5 292.5,167.5C 292.5,155.5 292.5,143.5 292.5,131.5C 294.833,131.5 297.167,131.5 299.5,131.5 Z"/></g>
<g><path style="opacity:0.035" fill="#0f4730" d="M 247.5,136.5 C 246.153,140.127 244.487,143.46 242.5,146.5C 240.5,146.5 238.5,146.5 236.5,146.5C 236.5,144.833 236.5,143.167 236.5,141.5C 238.5,141.5 240.5,141.5 242.5,141.5C 241.833,137.5 243.5,135.833 247.5,136.5 Z"/></g>
<g><path style="opacity:0.302" fill="#178664" d="M 266.5,160.5 C 266.5,162.833 266.5,165.167 266.5,167.5C 264.833,167.5 263.167,167.5 261.5,167.5C 260.631,165.283 260.298,162.95 260.5,160.5C 262.5,160.5 264.5,160.5 266.5,160.5 Z"/></g>
<g><path style="opacity:0.075" fill="#13684d" d="M 87.5,157.5 C 89.1667,157.5 90.8333,157.5 92.5,157.5C 92.8256,161.884 92.4922,166.217 91.5,170.5C 84.224,171.465 76.8907,171.799 69.5,171.5C 68.5084,171.672 67.8417,171.338 67.5,170.5C 67.5,168.833 67.5,167.167 67.5,165.5C 74.1667,165.5 80.8333,165.5 87.5,165.5C 87.5,162.833 87.5,160.167 87.5,157.5 Z"/></g>
<g><path style="opacity:0.006" fill="#010606" d="M 112.5,167.5 C 113.741,169.931 114.908,169.931 116,167.5C 116.352,169.247 116.852,170.914 117.5,172.5C 113.5,173.167 111.833,171.5 112.5,167.5 Z"/></g>
<g><path style="opacity:0.122" fill="#11513a" d="M 217.5,167.5 C 219.167,167.5 220.833,167.5 222.5,167.5C 222.5,169.167 222.5,170.833 222.5,172.5C 220.833,172.5 219.167,172.5 217.5,172.5C 217.5,170.833 217.5,169.167 217.5,167.5 Z"/></g>
<g><path style="opacity:0.006" fill="#030909" d="M 146.5,171.5 C 147.833,171.5 149.167,171.5 150.5,171.5C 150.433,172.959 150.766,174.292 151.5,175.5C 149.833,175.5 148.167,175.5 146.5,175.5C 146.5,174.167 146.5,172.833 146.5,171.5 Z"/></g>
<g><path style="opacity:0.502" fill="#1b956e" d="M 87.5,155.5 C 89.4672,155.261 91.3005,155.594 93,156.5C 93.6667,161.5 93.6667,166.5 93,171.5C 92.5,172 92,172.5 91.5,173C 87.8333,173.167 84.1667,173.333 80.5,173.5C 76.4348,173.489 72.7681,172.822 69.5,171.5C 76.8907,171.799 84.224,171.465 91.5,170.5C 92.4922,166.217 92.8256,161.884 92.5,157.5C 90.8333,157.5 89.1667,157.5 87.5,157.5C 87.5,156.833 87.5,156.167 87.5,155.5 Z"/></g>
<g><path style="opacity:0.005" fill="#000000" d="M 62.5,173.5 C 61.8166,175.176 60.4832,175.843 58.5,175.5C 59.5137,174.326 60.847,173.66 62.5,173.5 Z"/></g>
<g><path style="opacity:0.012" fill="#0d2c09" d="M 261.5,182.5 C 261.5,183.833 261.5,185.167 261.5,186.5C 259.784,186.629 258.117,186.962 256.5,187.5C 256.5,185.833 256.5,184.167 256.5,182.5C 258.167,182.5 259.833,182.5 261.5,182.5 Z"/></g>
<g><path style="opacity:0.684" fill="#25d19b" d="M 296.5,186.5 C 296.5,191.5 296.5,196.5 296.5,201.5C 296.666,208.175 296.5,214.842 296,221.5C 293.599,222.602 291.099,222.769 288.5,222C 287.62,220.644 287.286,219.144 287.5,217.5C 285.856,217.714 284.356,217.38 283,216.5C 282.192,212.973 282.359,209.64 283.5,206.5C 285.725,207.332 287.058,206.332 287.5,203.5C 287.5,197.5 287.5,191.5 287.5,185.5C 290.713,185.19 293.713,185.523 296.5,186.5 Z"/></g>
<g><path style="opacity:0.16" fill="#145b44" d="M 87.5,207.5 C 87.5,202.5 87.5,197.5 87.5,192.5C 82.1667,192.5 76.8333,192.5 71.5,192.5C 71.5,190.833 71.5,189.167 71.5,187.5C 78.5,187.5 85.5,187.5 92.5,187.5C 92.5,194.167 92.5,200.833 92.5,207.5C 90.8333,207.5 89.1667,207.5 87.5,207.5 Z"/></g>
<g><path style="opacity:0.029" fill="#051e0d" d="M 296.5,186.5 C 297.5,186.5 298.5,186.5 299.5,186.5C 299.5,191.5 299.5,196.5 299.5,201.5C 298.5,201.5 297.5,201.5 296.5,201.5C 296.5,196.5 296.5,191.5 296.5,186.5 Z"/></g>
<g><path style="opacity:0.092" fill="#18775a" d="M 157.5,190.5 C 160.91,190.384 162.244,192.05 161.5,195.5C 160.221,196.968 158.554,197.635 156.5,197.5C 156.448,195.097 156.781,192.764 157.5,190.5 Z"/></g>
<g><path style="opacity:0.012" fill="#113433" d="M 287.5,203.5 C 287.058,206.332 285.725,207.332 283.5,206.5C 284.048,204.468 285.381,203.468 287.5,203.5 Z"/></g>
<g><path style="opacity:0.122" fill="#0b4435" d="M 232.5,205.5 C 232.5,207.833 232.5,210.167 232.5,212.5C 230.833,212.5 229.167,212.5 227.5,212.5C 226.492,208.183 228.159,205.85 232.5,205.5 Z"/></g>
<g><path style="opacity:0.012" fill="#123717" d="M 87.5,217.5 C 87.5,219.167 87.5,220.833 87.5,222.5C 85.8333,222.5 84.1667,222.5 82.5,222.5C 82.6317,219.203 84.2984,217.537 87.5,217.5 Z"/></g>
<g><path style="opacity:0.035" fill="#0a3221" d="M 122.5,217.5 C 123.833,217.5 125.167,217.5 126.5,217.5C 126.5,219.167 126.5,220.833 126.5,222.5C 124.833,222.5 123.167,222.5 121.5,222.5C 121.366,220.708 121.699,219.042 122.5,217.5 Z"/></g>
<g><path style="opacity:0.12" fill="#0b3121" d="M 66.5,222.5 C 68.1667,222.5 69.8333,222.5 71.5,222.5C 71.5,223.833 71.5,225.167 71.5,226.5C 73.4147,226.216 75.0813,226.549 76.5,227.5C 74.5,227.5 72.5,227.5 70.5,227.5C 69.1667,227.5 67.8333,227.5 66.5,227.5C 66.5,225.833 66.5,224.167 66.5,222.5 Z"/></g>
<g><path style="opacity:0.165" fill="#166651" d="M 201.5,227.5 C 198.287,227.81 195.287,227.477 192.5,226.5C 192.5,225.167 192.5,223.833 192.5,222.5C 195.5,222.5 198.5,222.5 201.5,222.5C 201.5,224.167 201.5,225.833 201.5,227.5 Z"/></g>
<g><path style="opacity:0.11" fill="#1f7757" d="M 52.5,226.5 C 54.1667,226.5 55.8333,226.5 57.5,226.5C 57.552,228.903 57.2186,231.236 56.5,233.5C 55.325,233.719 54.325,233.386 53.5,232.5C 52.6518,230.591 52.3184,228.591 52.5,226.5 Z"/></g>
<g><path style="opacity:0.231" fill="#146e52" d="M 78.5,226.5 C 77.8505,228.435 77.5172,230.435 77.5,232.5C 75.1667,232.5 72.8333,232.5 70.5,232.5C 70.5,230.833 70.5,229.167 70.5,227.5C 72.5,227.5 74.5,227.5 76.5,227.5C 77.1667,227.167 77.8333,226.833 78.5,226.5 Z"/></g>
<g><path style="opacity:0.252" fill="#15674c" d="M 286.5,237.5 C 283.5,237.5 280.5,237.5 277.5,237.5C 276.508,233.43 278.008,231.43 282,231.5C 285.992,231.43 287.492,233.43 286.5,237.5 Z"/></g>
<g><path style="opacity:0.004" fill="#000000" d="M 113.5,238.5 C 115.632,238.554 116.965,239.554 117.5,241.5C 115.545,241.201 114.211,240.201 113.5,238.5 Z"/></g>
<g><path style="opacity:0.676" fill="#25d29d" d="M 277.5,237.5 C 280.5,237.5 283.5,237.5 286.5,237.5C 286.5,244.5 286.5,251.5 286.5,258.5C 283.454,258.183 281.787,259.516 281.5,262.5C 281.5,264.5 281.5,266.5 281.5,268.5C 278.5,268.5 275.5,268.5 272.5,268.5C 272.5,259.5 272.5,250.5 272.5,241.5C 274.167,241.5 275.833,241.5 277.5,241.5C 277.5,240.167 277.5,238.833 277.5,237.5 Z"/></g>
<g><path style="opacity:0.039" fill="#13644a" d="M 92.5,243.5 C 90.6965,243.424 88.6965,243.757 86.5,244.5C 87.4006,242.273 89.0672,241.273 91.5,241.5C 91.335,238.15 91.5017,234.817 92,231.5C 92.4988,235.486 92.6655,239.486 92.5,243.5 Z"/></g>
<g><path style="opacity:0.008" fill="#040c0b" d="M 92.5,243.5 C 92.5,244.5 92.5,245.5 92.5,246.5C 92.5,247.833 92.5,249.167 92.5,250.5C 91.1667,250.5 89.8333,250.5 88.5,250.5C 88.5979,248.447 87.9313,246.78 86.5,245.5C 86.5,245.167 86.5,244.833 86.5,244.5C 88.6965,243.757 90.6965,243.424 92.5,243.5 Z"/></g>
<g><path style="opacity:0.008" fill="#030f0c" d="M 122.5,248.5 C 120.326,248.25 118.659,247.25 117.5,245.5C 118.222,245.082 118.722,244.416 119,243.5C 119.741,244.641 120.575,244.641 121.5,243.5C 122.452,245.045 122.785,246.712 122.5,248.5 Z"/></g>
<g><path style="opacity:0.176" fill="#1d8762" d="M -0.5,246.5 C 15.2145,246.197 30.8811,246.531 46.5,247.5C 46.9227,249.781 46.256,251.448 44.5,252.5C 43.8592,251.518 43.1925,250.518 42.5,249.5C 28.1821,248.501 13.8488,248.167 -0.5,248.5C -0.5,247.833 -0.5,247.167 -0.5,246.5 Z"/></g>
<g><path style="opacity:0.078" fill="#1a6a4c" d="M 92.5,246.5 C 95.5701,246.368 98.5701,246.701 101.5,247.5C 101.864,252.659 99.5304,254.492 94.5,253C 93.244,252.583 92.5774,251.75 92.5,250.5C 92.5,249.167 92.5,247.833 92.5,246.5 Z"/></g>
<g><path style="opacity:0.201" fill="#157557" d="M 81.5,249.5 C 81.5,250.833 81.5,252.167 81.5,253.5C 76.8333,253.5 72.1667,253.5 67.5,253.5C 67.5,252.167 67.5,250.833 67.5,249.5C 67.5,248.167 67.5,246.833 67.5,245.5C 71.1306,244.588 74.7973,244.421 78.5,245C 80.8633,245.589 81.8633,247.089 81.5,249.5 Z"/></g>
<g><path style="opacity:0.225" fill="#177052" d="M 146.5,248.5 C 146.773,250.451 146.107,251.951 144.5,253C 138.984,253.817 133.65,253.651 128.5,252.5C 128.643,250.738 128.309,249.071 127.5,247.5C 130.952,245.61 134.618,245.11 138.5,246C 141.522,246.098 144.189,246.932 146.5,248.5 Z"/></g>
<g><path style="opacity:0.051" fill="#155a4a" d="M -0.5,248.5 C 13.8488,248.167 28.1821,248.501 42.5,249.5C 43.1925,250.518 43.8592,251.518 44.5,252.5C 29.676,253.496 14.676,253.829 -0.5,253.5C -0.5,251.833 -0.5,250.167 -0.5,248.5 Z"/></g>
<g><path style="opacity:0.094" fill="#156b53" d="M 197.5,248.5 C 196.699,250.042 196.366,251.708 196.5,253.5C 191.968,253.818 187.634,253.485 183.5,252.5C 183.5,250.5 183.5,248.5 183.5,246.5C 188.48,245.985 193.146,246.652 197.5,248.5 Z"/></g>
<g><path style="opacity:0.008" fill="#000000" d="M 286.5,258.5 C 285.735,260.929 284.069,262.262 281.5,262.5C 281.787,259.516 283.454,258.183 286.5,258.5 Z"/></g>
<g><path style="opacity:0.004" fill="#000000" d="M 215.5,266.5 C 213.167,266.5 210.833,266.5 208.5,266.5C 209.806,265.533 210.473,264.199 210.5,262.5C 211.5,262.5 212.5,262.5 213.5,262.5C 213.527,264.199 214.194,265.533 215.5,266.5 Z"/></g>
<g><path style="opacity:0.78" fill="#25cf99" d="M 208.5,266.5 C 210.833,266.5 213.167,266.5 215.5,266.5C 216.451,267.919 216.784,269.585 216.5,271.5C 218.167,271.5 219.833,271.5 221.5,271.5C 220.738,277.687 221.738,283.354 224.5,288.5C 223.5,288.5 222.5,288.5 221.5,288.5C 221.5,289.833 221.5,291.167 221.5,292.5C 220.778,292.918 220.278,293.584 220,294.5C 219.667,294.167 219.333,293.833 219,293.5C 218.517,294.448 218.351,295.448 218.5,296.5C 217.5,296.5 216.5,296.5 215.5,296.5C 215.649,295.448 215.483,294.448 215,293.5C 214.667,293.833 214.333,294.167 214,294.5C 213.722,293.584 213.222,292.918 212.5,292.5C 212.5,291.167 212.5,289.833 212.5,288.5C 210.833,288.5 209.167,288.5 207.5,288.5C 207.175,280.981 207.508,273.648 208.5,266.5 Z"/></g>
<g><path style="opacity:0.006" fill="#050f0e" d="M 246.5,281.5 C 243.5,281.5 240.5,281.5 237.5,281.5C 238.757,276.534 241.424,275.534 245.5,278.5C 246.127,279.417 246.461,280.417 246.5,281.5 Z"/></g>
<g><path style="opacity:0.216" fill="#1a926c" d="M 221.5,271.5 C 223.167,271.5 224.833,271.5 226.5,271.5C 227.117,277.598 226.45,283.265 224.5,288.5C 221.738,283.354 220.738,277.687 221.5,271.5 Z"/></g>
<g><path style="opacity:0.753" fill="#25cb97" d="M 257.5,266.5 C 260.5,266.5 263.5,266.5 266.5,266.5C 266.5,269.833 266.5,273.167 266.5,276.5C 268.167,276.5 269.833,276.5 271.5,276.5C 271.5,280.5 271.5,284.5 271.5,288.5C 269.833,288.5 268.167,288.5 266.5,288.5C 266.5,290.167 266.5,291.833 266.5,293.5C 264.833,293.5 263.167,293.5 261.5,293.5C 261.5,295.167 261.5,296.833 261.5,298.5C 258.5,298.5 255.5,298.5 252.5,298.5C 252.5,289.5 252.5,280.5 252.5,271.5C 254.167,271.5 255.833,271.5 257.5,271.5C 257.5,269.833 257.5,268.167 257.5,266.5 Z"/></g>
<g><path style="opacity:0.897" fill="#25d39d" d="M 233.5,281.5 C 234.833,281.5 236.167,281.5 237.5,281.5C 240.5,281.5 243.5,281.5 246.5,281.5C 246.5,287.5 246.5,293.5 246.5,299.5C 241.833,299.5 237.167,299.5 232.5,299.5C 232.177,293.31 232.51,287.31 233.5,281.5 Z"/></g>
<g><path style="opacity:0.007" fill="#020908" d="M 207.5,288.5 C 209.167,288.5 210.833,288.5 212.5,288.5C 212.5,289.833 212.5,291.167 212.5,292.5C 211.167,292.5 209.833,292.5 208.5,292.5C 208.567,291.041 208.234,289.708 207.5,288.5 Z"/></g>
<g><path style="opacity:0.051" fill="#0f3e27" d="M 233.5,281.5 C 232.51,287.31 232.177,293.31 232.5,299.5C 230.833,299.5 229.167,299.5 227.5,299.5C 227.334,293.824 227.501,288.157 228,282.5C 229.329,281.506 230.662,280.506 232,279.5C 233.03,279.836 233.53,280.503 233.5,281.5 Z"/></g>
<g><path style="opacity:0.006" fill="#061010" d="M 212.5,292.5 C 213.222,292.918 213.722,293.584 214,294.5C 214.333,294.167 214.667,293.833 215,293.5C 215.483,294.448 215.649,295.448 215.5,296.5C 216.5,296.5 217.5,296.5 218.5,296.5C 218.351,295.448 218.517,294.448 219,293.5C 219.333,293.833 219.667,294.167 220,294.5C 220.278,293.584 220.778,292.918 221.5,292.5C 221.582,295.585 220.082,297.252 217,297.5C 213.918,297.252 212.418,295.585 212.5,292.5 Z"/></g>
</svg>
