<svg width="557" height="163" viewBox="0 0 557 163" fill="none" xmlns="http://www.w3.org/2000/svg">
<path d="M121.934 139.911L0.0774994 121.579L121.934 162.281L162.97 145.192V17.1856L121.934 0.71875V139.911Z" fill="#0078D7"/>
<path d="M101.335 40.375L78.9838 44.4495V94.2824L20.6225 86.7605L44.5259 115.281V103.371L78.9838 115.281L101.025 96.7897" fill="#0078D7"/>
<path d="M77.855 44.7812C73.5397 41.4053 50.4214 24.2188 50.4214 24.2188V33.7327L19.289 46.0088L10.35 57.6711V82.8372L19.9055 85.9062V55.5228L77.855 44.7812Z" fill="#0078D7"/>
<path d="M240.334 100.594H235.136L230.887 89.35H213.897L209.901 100.594H204.675L220.045 60.4857H224.907L240.334 100.594ZM229.351 85.1266L223.063 68.0374C222.859 67.478 222.653 66.5831 222.448 65.3524H222.336C222.15 66.4898 221.936 67.3847 221.693 68.0374L215.462 85.1266H229.351Z" fill="#0078D7"/>
<path d="M265.186 73.2677L248.251 96.6781H265.017V100.594H241.515V99.1673L258.45 75.8688H243.109V71.9531H265.186V73.2677Z" fill="#0078D7"/>
<path d="M293.837 100.594H289.254V96.0627H289.143C287.242 99.531 284.299 101.265 280.313 101.265C273.493 101.265 270.084 97.2002 270.084 89.0704V71.9531H274.639V88.3432C274.639 94.3846 276.949 97.4052 281.569 97.4052C283.805 97.4052 285.64 96.5848 287.075 94.9439C288.528 93.2844 289.254 91.1215 289.254 88.4551V71.9531H293.837V100.594Z" fill="#0078D7"/>
<path d="M317.628 76.596C316.827 75.9807 315.672 75.673 314.162 75.673C312.206 75.673 310.567 76.596 309.245 78.4421C307.94 80.288 307.288 82.8053 307.288 85.9938V100.594H302.705V71.9531H307.288V77.8547H307.4C308.051 75.8409 309.048 74.2746 310.389 73.1557C311.73 72.0183 313.23 71.4496 314.889 71.4496C316.082 71.4496 316.994 71.5802 317.628 71.8412V76.596Z" fill="#0078D7"/>
<path d="M345.191 87.4203H324.985C325.06 90.6088 325.917 93.0699 327.556 94.8041C329.197 96.5382 331.451 97.4053 334.32 97.4053C337.542 97.4053 340.505 96.3425 343.205 94.2168V98.524C340.692 100.351 337.365 101.265 333.229 101.265C329.186 101.265 326.011 99.9691 323.699 97.3773C321.39 94.7668 320.235 91.1029 320.235 86.3854C320.235 81.9289 321.492 78.3023 324.008 75.5053C326.542 72.6897 329.681 71.2819 333.425 71.2819C337.17 71.2819 340.066 72.4939 342.117 74.918C344.165 77.3418 345.191 80.7075 345.191 85.0149V87.4203ZM340.495 83.5325C340.477 80.8848 339.835 78.8242 338.567 77.3512C337.319 75.8782 335.577 75.1416 333.341 75.1416C331.181 75.1416 329.345 75.9155 327.836 77.4632C326.328 79.0108 325.396 81.0338 325.042 83.5325H340.495Z" fill="#0078D7"/>
<path d="M367.647 100.594V60.4857H378.713C392.835 60.4857 399.896 67.0026 399.896 80.0363C399.896 86.2269 397.931 91.2054 394 94.972C390.088 98.7198 384.843 100.594 378.267 100.594H367.647ZM372.343 64.737V96.3425H378.323C383.576 96.3425 387.665 94.9347 390.591 92.1191C393.516 89.3035 394.977 85.3132 394.977 80.1482C394.977 69.8741 389.52 64.737 378.601 64.737H372.343Z" fill="#0078D7"/>
<path d="M429.75 87.4203H409.545C409.62 90.6088 410.477 93.0699 412.116 94.8041C413.757 96.5382 416.011 97.4053 418.88 97.4053C422.103 97.4053 425.066 96.3425 427.766 94.2168V98.524C425.252 100.351 421.925 101.265 417.79 101.265C413.747 101.265 410.571 99.9691 408.26 97.3773C405.95 94.7668 404.795 91.1029 404.795 86.3854C404.795 81.9289 406.053 78.3023 408.568 75.5053C411.101 72.6897 414.241 71.2819 417.985 71.2819C421.73 71.2819 424.627 72.4939 426.677 74.918C428.725 77.3418 429.75 80.7075 429.75 85.0149V87.4203ZM425.055 83.5325C425.038 80.8848 424.395 78.8242 423.127 77.3512C421.88 75.8782 420.138 75.1416 417.901 75.1416C415.741 75.1416 413.905 75.9155 412.397 77.4632C410.887 79.0108 409.956 81.0338 409.601 83.5325H425.055Z" fill="#0078D7"/>
<path d="M458.795 71.9531L447.392 100.594H442.893L432.051 71.9531H437.08L444.347 92.7624C444.887 94.2913 445.222 95.6245 445.352 96.7619H445.464C445.65 95.3262 445.948 94.0302 446.359 92.8742L453.959 71.9531H458.795Z" fill="#0078D7"/>
<path d="M480.097 101.265C474.415 101.265 469.859 99.3912 466.431 95.6432C463.022 91.8952 461.317 87.0193 461.317 81.0152C461.317 74.5636 463.059 69.4172 466.543 65.5761C470.027 61.7351 474.768 59.8145 480.767 59.8145C486.301 59.8145 490.754 61.6791 494.126 65.4083C497.516 69.1376 499.212 74.0135 499.212 80.0363C499.212 86.5812 497.479 91.7554 494.015 95.5593C490.548 99.3631 485.91 101.265 480.097 101.265ZM480.433 64.0658C476.221 64.0658 472.803 65.5855 470.176 68.6248C467.55 71.6641 466.236 75.6544 466.236 80.5957C466.236 85.5369 467.511 89.5179 470.065 92.5386C472.636 95.5407 475.979 97.0416 480.097 97.0416C484.493 97.0416 487.96 95.6059 490.492 92.7343C493.027 89.8628 494.293 85.8446 494.293 80.6796C494.293 75.384 493.064 71.2912 490.604 68.401C488.145 65.5109 484.755 64.0658 480.433 64.0658Z" fill="#0078D7"/>
<path d="M510.762 96.4542H510.65V113.767H506.067V71.9531H510.65V76.9876H510.762C513.016 73.1838 516.313 71.2819 520.654 71.2819C524.343 71.2819 527.221 72.5684 529.289 75.1416C531.358 77.6962 532.391 81.1271 532.391 85.4344C532.391 90.2265 531.227 94.0675 528.898 96.9577C526.57 99.8293 523.384 101.265 519.341 101.265C515.634 101.265 512.774 99.6614 510.762 96.4542ZM510.65 84.903V88.9025C510.65 91.2706 511.413 93.2844 512.941 94.9439C514.488 96.5848 516.444 97.4053 518.809 97.4053C521.586 97.4053 523.756 96.3425 525.321 94.2168C526.904 92.091 527.697 89.1356 527.697 85.3505C527.697 82.162 526.96 79.6633 525.489 77.8547C524.018 76.046 522.023 75.1416 519.508 75.1416C516.844 75.1416 514.702 76.074 513.08 77.9386C511.46 79.7845 510.65 82.106 510.65 84.903Z" fill="#0078D7"/>
<path d="M537.57 99.5589V94.6362C540.066 96.4823 542.813 97.4053 545.813 97.4053C549.838 97.4053 551.85 96.0627 551.85 93.3776C551.85 92.6132 551.673 91.9699 551.319 91.4477C550.983 90.9071 550.518 90.4316 549.922 90.0214C549.344 89.6112 548.654 89.2475 547.854 88.9306C547.07 88.595 546.224 88.2499 545.311 87.8957C544.043 87.3922 542.926 86.8887 541.956 86.3854C541.007 85.8632 540.206 85.2851 539.554 84.6512C538.92 83.9987 538.436 83.2621 538.101 82.4416C537.784 81.6212 537.626 80.6609 537.626 79.5608C537.626 78.2182 537.932 77.0343 538.547 76.0087C539.162 74.9645 539.982 74.0975 541.007 73.4075C542.031 72.699 543.196 72.1676 544.499 71.8133C545.823 71.4591 547.183 71.2819 548.581 71.2819C551.058 71.2819 553.275 71.7108 555.231 72.5684V77.2114C553.125 75.8315 550.704 75.1416 547.966 75.1416C547.109 75.1416 546.335 75.2442 545.646 75.4494C544.956 75.6357 544.36 75.9061 543.857 76.2604C543.372 76.6147 542.991 77.0435 542.712 77.547C542.451 78.0319 542.32 78.5725 542.32 79.1693C542.32 79.9151 542.451 80.5398 542.712 81.0432C542.991 81.5466 543.391 81.9941 543.914 82.3857C544.435 82.7772 545.069 83.1315 545.813 83.4486C546.558 83.7656 547.407 84.1104 548.356 84.4833C549.624 84.9682 550.76 85.4717 551.766 85.9938C552.772 86.4971 553.629 87.0752 554.338 87.7278C555.045 88.3619 555.585 89.0983 555.958 89.9374C556.35 90.7765 556.545 91.7741 556.545 92.9301C556.545 94.3473 556.228 95.578 555.594 96.6221C554.98 97.6662 554.151 98.5334 553.108 99.2233C552.064 99.9131 550.862 100.426 549.502 100.762C548.142 101.097 546.717 101.265 545.227 101.265C542.283 101.265 539.73 100.696 537.57 99.5589Z" fill="#0078D7"/>
</svg>
