<svg width="682" height="257" viewBox="0 0 682 257" fill="none" xmlns="http://www.w3.org/2000/svg">
<g clip-path="url(#clip0)">
<path fill-rule="evenodd" clip-rule="evenodd" d="M81.0718 40.5376L81.5699 44.904L147.236 46.7188L147.305 45.6476V45.6681L147.421 43.7578L147.523 41.8475L147.571 40.8924L124.374 27.452C121.246 25.65 117.699 24.7015 114.089 24.7015C110.479 24.7015 106.933 25.65 103.804 27.452L81.0718 40.5376ZM85.6565 69.233L144.808 71.157L144.93 70.2564L144.924 70.2837L145.026 69.5469L145.21 68.1824L145.347 67.0703L145.497 65.9514L145.688 64.4164L145.872 62.8676L146.377 58.0441L146.807 52.975L82.948 54.7352L85.6634 69.2808L85.6565 69.233ZM92.7519 93.3369L140.632 95.1313L141.826 89.3321L142.413 86.0778L142.515 85.532L142.618 84.9589L143.013 82.6393L143.259 81.036L143.511 79.6715L143.88 77.42L88.0717 79.2348L89.8319 85.2182L92.7246 93.4256L92.7519 93.3369ZM122.791 122.551C124.013 122.274 125.183 121.804 126.257 121.159C127.117 120.654 127.915 120.068 128.672 119.413C129.559 118.648 130.378 117.802 131.129 116.888L131.695 116.172L132.036 115.715L132.554 114.998C133.114 114.2 133.626 113.375 134.103 112.522L134.24 112.283L134.39 112.037L136.109 108.797L137.05 106.641L137.46 105.617L138.115 103.871L138.988 101.196L97.0842 102.766L99.1105 106.279C100.427 108.326 101.874 110.427 103.511 112.304C105.762 114.896 108.423 117.216 111.562 118.676C112.449 119.085 113.363 119.44 114.304 119.699L115.191 119.924L116.044 120.108L116.59 120.245L118.207 120.695C119.264 121.023 120.308 121.405 121.325 121.855L122.791 122.537V122.551ZM84.3125 177.452L139.179 175.419L137.392 169.278L134.13 160.027L87.7374 158.014L87.4986 159.017L86.291 165.021L85.6634 168.589L85.4996 169.476L85.1994 171.25L84.831 173.638L84.6059 175.002L84.2306 177.363L84.3125 177.452ZM81.3788 201.849L144.473 199.911L141.881 186.471L141.656 185.461L83.4324 183.387L82.7501 189.118L81.4402 201.849H81.3788ZM66.7241 208.153L67.0789 204.059L67.188 203.036L67.2972 202.081L67.7338 198.376L68.9482 189.643L69.4804 186.355L69.5691 185.836L71.2747 177.609L71.5476 176.517L72.4618 173.065L72.8302 171.734L73.0349 171.018L74.6928 166.106L74.8088 165.778L76.7191 161.037L76.7873 160.9L79.3798 155.579L81.0445 152.474L81.181 152.229L84.217 147.487L85.4041 145.802L85.9021 145.12C87.3731 143.187 88.966 141.35 90.6711 139.621L90.9167 139.389L91.1418 139.184L92.2539 138.215L93.8913 136.892L94.3689 136.551L95.0511 136.128L97.0979 134.804L98.5101 134.122L100.284 133.344C101.103 133.017 101.956 132.744 102.808 132.539C103.402 132.389 104.009 132.28 104.616 132.218C104.998 132.177 105.38 132.15 105.762 132.177H105.783L105.872 132.273L105.776 132.355L105.592 132.362L105.271 132.396C104.072 132.586 102.914 132.978 101.846 133.556C100.918 134.047 100.072 134.647 99.2674 135.329L98.3123 136.182C97.7119 136.762 97.1525 137.376 96.6339 138.024L96.0881 138.754L95.9108 139L95.2422 139.935L93.864 142.2L93.7276 142.439L93.5911 142.684L92.3153 145.072L90.9849 148.108L90.712 148.811L90.0639 150.557L89.484 152.304L129.703 150.557C128.693 148.667 127.588 146.832 126.36 145.058C125.2 143.38 123.944 141.77 122.539 140.283C120.615 138.249 118.398 136.435 115.853 135.261C115.123 134.92 114.366 134.579 113.588 134.429L112.073 134.088L111.527 133.951L109.617 133.426C108.457 133.064 107.318 132.641 106.206 132.15C105.106 131.665 104.033 131.121 102.993 130.52L100.659 129.053C95.8562 125.764 91.8923 121.371 88.6107 116.588L87.2121 114.459L85.3018 111.273L83.0094 106.927L80.4578 101.319L77.4832 93.5416L74.2971 83.2533L71.0223 69.5605L68.034 52.1631L67.5428 48.4517L31.7042 69.1443C28.5866 70.9411 25.9958 73.5255 24.1913 76.6387C22.3869 79.7519 21.4321 83.2845 21.4227 86.8829V170.165C21.4201 173.775 22.3692 177.322 24.1743 180.448C25.9793 183.574 28.5765 186.169 31.7042 187.972L66.7241 208.153ZM160.356 208.699L196.379 187.904C199.497 186.107 202.087 183.523 203.892 180.409C205.696 177.296 206.651 173.763 206.66 170.165V86.9306C206.663 83.3207 205.714 79.774 203.909 76.6478C202.104 73.5216 199.507 70.9264 196.379 69.1239L161.257 48.8474L161.086 50.8464L158.63 69.1034L158.412 70.2769L157.334 75.5097L156.924 77.3177L156.665 78.3411L156.304 79.7192L155.198 83.6967L155.13 83.9014L153.329 89.1411L153.09 89.8234L152.64 90.9559L151.037 94.7765L150.791 95.2882L149.836 97.2531L147.912 100.937L146.957 102.643L146.875 102.793L143.771 107.535L142.577 109.192L142.085 109.847C140.598 111.758 138.988 113.572 137.276 115.285L137.023 115.517L136.341 116.117L134.171 117.891L133.967 118.048C132.561 119.071 131.081 119.986 129.546 120.791L128.386 121.35L126.462 122.128C125.78 122.401 124.934 122.619 124.142 122.79L123.173 122.96L124.033 123.424L125.909 124.55C130.685 127.654 134.628 131.918 137.89 136.558L139.459 138.911L141.383 142.104L143.702 146.484L146.309 152.161L149.379 160.075L152.79 171.209L156.358 185.918L159.647 204.441L160.274 208.924L160.356 208.699ZM80.5055 216.06L103.798 229.5C106.923 231.309 110.471 232.262 114.083 232.262C117.694 232.262 121.242 231.309 124.367 229.5L146.882 216.497L146.036 209.811L80.9899 207.819L80.4987 216.04L80.5055 216.06ZM159.053 22.8195L217.747 56.7683C220.866 58.5642 223.458 61.1483 225.264 64.2615C227.069 67.3747 228.025 70.9079 228.035 74.5068V182.412C228.049 186.034 227.105 189.595 225.298 192.734C223.491 195.874 220.886 198.479 217.747 200.287L124.306 254.239C121.18 256.048 117.633 257 114.021 257C110.41 257 106.862 256.048 103.736 254.239L10.2883 200.321C3.92294 196.636 2.66609e-06 189.848 2.66609e-06 182.582V74.5819C-0.00183687 70.9713 0.94828 67.4241 2.75456 64.2979C4.56084 61.1716 7.15943 58.5768 10.2883 56.7752L103.736 2.82961C106.864 1.02756 110.411 0.0790405 114.021 0.0790405C117.631 0.0790405 121.178 1.02756 124.306 2.82961L157.736 22.1373L158.118 22.226L159.06 22.9082L159.053 22.8195Z" fill="#DB0A5B"/>
<path fill-rule="evenodd" clip-rule="evenodd" d="M303.929 161.104C304.018 161.902 303.752 162.469 303.131 162.571C301.839 163.024 300.496 163.315 299.133 163.437L295.401 163.642C291.491 163.642 288.892 162.646 287.609 160.64C286.327 158.634 285.679 155.824 285.679 152.18V66.4624C285.679 65.6641 286.088 65.2684 286.879 65.2684H290.741C291.628 65.2684 292.071 65.6778 292.071 66.4624V150.106C292.071 152.944 292.413 154.964 293.067 156.165C293.722 157.365 295.223 157.966 297.529 157.966C298.375 157.968 299.22 157.922 300.061 157.829C300.859 157.741 301.616 157.611 302.326 157.42C302.571 157.42 302.817 157.44 303.056 157.488C303.294 157.536 303.431 157.775 303.52 158.218L303.929 161.104ZM364.936 127.674C364.943 123.765 364.595 119.862 363.871 116.021C363.162 112.248 361.825 108.939 360.071 106.094C358.318 103.249 355.828 100.964 352.812 99.2309C349.797 97.4979 345.976 96.6383 341.35 96.6383C337.086 96.6383 333.47 97.4843 330.434 99.1626C327.513 100.799 325.042 103.133 323.243 105.958C321.357 108.967 320.004 112.279 319.245 115.748C318.399 119.432 317.976 123.273 317.976 127.346C317.976 131.781 318.386 135.915 319.177 139.736C319.969 143.557 321.306 146.886 323.175 149.731C324.993 152.529 327.49 154.82 330.434 156.39C333.409 157.986 337.073 158.791 341.35 158.791C345.88 158.791 349.653 157.857 352.676 156.062C355.628 154.264 358.097 151.773 359.867 148.803C361.687 145.711 362.971 142.335 363.667 138.815C364.414 135.199 364.793 131.516 364.799 127.824L364.936 127.674ZM371.062 127.415C371.062 139.49 368.442 148.66 363.203 154.923C357.963 161.186 350.595 164.318 341.098 164.318C331.683 164.318 324.424 161.179 319.32 154.923C314.217 148.667 311.788 139.559 311.788 127.749C311.788 115.85 314.497 106.79 319.975 100.575C325.454 94.3596 332.631 91.2485 341.691 91.2485C351.195 91.2485 358.495 94.3869 363.605 100.643C368.715 106.899 371.267 115.81 371.267 127.353L371.062 127.415ZM413.225 158.532L417.087 158.327C418.683 158.191 420.416 157.952 422.286 157.597L428.085 156.335C430.029 155.858 431.926 155.216 433.747 154.404V99.9609C430.35 98.7138 426.82 97.8645 423.227 97.4297L413.901 96.7611C410.61 96.7238 407.346 97.3575 404.308 98.6237C401.375 99.8722 398.85 101.762 396.715 104.286C394.579 106.811 392.894 110.058 391.653 114.008C390.411 117.959 389.79 122.646 389.79 128.063C389.79 138.01 391.878 145.562 396.053 150.713C400.229 155.864 405.946 158.443 413.246 158.443L413.225 158.532ZM413.914 91.1735C417.646 91.1735 421.692 91.4464 426.038 91.9717C430.473 92.5175 434.812 93.6432 438.96 95.3011C439.758 95.6559 440.161 96.2767 440.161 97.1705V158.573C440.161 164.522 439.478 169.475 437.896 173.426C436.313 177.376 434.232 180.589 431.435 183.079C428.502 185.646 425.082 187.595 421.378 188.81C417.131 190.23 412.762 191.257 408.327 191.88C407.44 191.969 406.949 191.703 406.86 191.082L406.328 187.221C406.328 186.538 406.683 186.245 407.392 186.156L417.981 183.632C421.012 182.761 423.857 181.339 426.372 179.436C428.768 177.563 430.649 175.112 431.837 172.314C433.202 169.38 433.768 165.607 433.768 160.988V160.053L428.972 161.589C427.198 162.08 425.356 162.475 423.514 162.782L417.851 163.581C416.127 163.798 414.39 163.912 412.652 163.922C407.501 163.922 403.08 163.035 399.403 161.193C395.726 159.351 392.676 156.929 390.274 153.736C387.873 150.543 386.181 146.763 385.021 142.41C383.882 137.792 383.316 133.05 383.356 128.288C383.319 123.346 383.925 118.419 385.158 113.633C386.224 109.384 388.1 105.382 390.684 101.844C393.187 98.5026 396.452 95.8079 400.208 93.9843C404.07 92.074 408.668 91.1189 413.99 91.1189L413.914 91.1735ZM477.725 128.888C477.725 135.984 479.124 140.964 481.921 143.809C484.718 146.654 488.607 148.073 493.574 148.073C495.246 148.04 496.913 147.903 498.568 147.664C500.656 147.391 502.409 146.995 503.821 146.463V109.301C501.802 108.823 499.755 108.462 497.695 108.237L492.899 107.964C488.368 107.964 484.712 109.601 481.983 112.89C479.254 116.178 477.787 121.506 477.787 128.875L477.725 128.888ZM457.674 128.602C457.674 123.621 458.356 118.88 459.537 114.274C460.717 109.669 462.689 105.774 465.267 102.356C467.846 98.9375 471.176 96.229 475.256 94.1686C479.335 92.1082 484.179 91.1667 489.774 91.1667L496.501 91.4396C498.684 91.6169 501.14 92.0195 503.896 92.6403V68.2635C503.896 67.1992 504.101 66.4897 504.497 66.1349C504.893 65.7801 505.67 65.6027 506.83 65.6027H520.421C521.396 65.6027 522.126 65.7597 522.617 66.0667C523.109 66.3737 523.347 67.1105 523.347 68.2635V153.518C523.349 154.522 523.26 155.524 523.081 156.513C522.993 157.488 522.399 158.375 521.082 159.242C519.766 160.108 518.258 160.729 516.354 161.309C514.451 161.889 512.315 162.4 509.962 162.837L502.969 163.84L496.439 164.372L491.377 164.577C484.985 164.577 479.642 163.69 475.324 161.848C471.005 160.006 467.546 157.584 464.933 154.391C462.32 151.198 460.451 147.418 459.339 143.065C458.179 138.29 457.633 133.514 457.674 128.67V128.602ZM569.174 107.356L565.374 107.425C563.737 107.472 561.976 107.67 560.121 108.025V160.64C560.121 161.616 559.964 162.264 559.643 162.571C559.322 162.878 558.552 163.035 557.31 163.035H543.665C542.689 163.035 541.98 162.878 541.536 162.571C541.093 162.264 540.868 161.616 540.868 160.64V103.495C540.868 100.473 541.4 98.0369 542.464 96.3722C543.528 94.7075 545.753 93.4181 549.123 92.7085C550.378 92.4834 551.647 92.3333 552.916 92.2446L558.17 91.8353L563.627 91.4941L568.355 91.3577C574.496 91.3577 579.954 92.0399 584.477 93.2202C589 94.4005 592.76 96.4405 595.734 99.1558C598.709 101.871 600.919 105.419 602.393 109.813C603.867 114.206 604.59 119.555 604.59 125.866V160.633C604.59 161.609 604.433 162.257 604.112 162.564C603.792 162.871 603.021 163.028 601.779 163.028H587.929C586.954 163.028 586.244 162.871 585.801 162.564C585.357 162.257 585.132 161.609 585.132 160.633V124.658C585.173 122.107 584.927 119.562 584.402 117.065C583.911 114.936 583.072 113.135 581.878 111.607C580.684 110.079 579.04 109.055 576.952 108.346C574.864 107.636 572.265 107.281 569.161 107.281L569.174 107.356ZM661.947 131.256H651.426C650.089 131.263 648.752 131.351 647.428 131.529C646.009 131.706 644.699 132.129 643.499 132.798C642.276 133.487 641.246 134.472 640.503 135.663C639.705 136.905 639.303 138.597 639.303 140.725C639.303 143.836 640.347 146.013 642.441 147.254C644.536 148.496 647.353 149.117 650.901 149.117L653.03 149.049L655.895 148.776L659.033 148.244C660.035 148.041 661.016 147.751 661.967 147.377L661.947 131.256ZM681.391 154.302C681.391 155.462 681.234 156.438 680.913 157.236C680.593 158.034 679.822 158.791 678.58 159.501C676.463 160.507 674.257 161.311 671.989 161.902C669.621 162.524 667.221 163.014 664.798 163.369L657.403 164.167L650.342 164.44C644.304 164.44 639.31 163.867 635.352 162.707C631.395 161.548 628.23 159.978 625.828 157.979C623.531 156.129 621.781 153.688 620.766 150.918C619.776 148.114 619.28 145.159 619.299 142.185C619.299 138.72 619.879 135.547 621.032 132.661C622.185 129.775 623.918 127.203 626.217 125.136C628.516 123.069 631.436 121.343 634.95 120.142C638.464 118.941 642.612 118.341 647.408 118.341H662.063V116.212C662.063 114.97 661.926 113.77 661.653 112.617C661.38 111.464 660.835 110.461 659.989 109.615C659.143 108.769 657.969 108.086 656.461 107.547C654.954 107.009 652.955 106.749 650.457 106.749L645.927 106.954L640.865 107.486L635.939 108.284L631.675 109.28C630.515 109.553 629.724 109.553 629.287 109.28C628.851 109.008 628.605 108.434 628.353 107.547L626.224 98.2211C625.951 97.2455 625.937 96.5564 626.156 96.1539C626.374 95.7514 626.838 95.4239 627.554 95.1578C631.634 93.7251 635.857 92.6881 640.142 92.0877C644.488 91.4737 648.875 91.1598 653.262 91.153C662.95 91.153 670.045 93.2202 674.575 97.3478C679.105 101.475 681.37 107.582 681.37 115.666L681.391 154.302Z" fill="#383838"/>
</g>
<defs>
<clipPath id="clip0">
<rect width="682" height="257" fill="white"/>
</clipPath>
</defs>
</svg>
