<svg width="380" height="429" viewBox="0 0 380 429" fill="none" xmlns="http://www.w3.org/2000/svg">
<path fill-rule="evenodd" clip-rule="evenodd" d="M135.243 67.898L136.079 75.1549L245.431 78.1752L245.545 76.3844V76.4178L245.732 73.2504L245.906 70.063L245.986 68.4793L207.24 46.1207C196.642 40.0065 183.584 40.0065 172.98 46.1207L135.243 67.898ZM142.879 115.662L241.386 118.87L241.587 117.373V117.413L241.754 116.184L242.061 113.798L242.289 111.947L242.536 110.076L242.857 107.517L243.165 104.937L244 96.9188L244.709 88.4792L138.352 91.4194L142.872 115.629L142.879 115.662ZM154.687 155.776L234.426 158.763L236.418 149.107L237.395 143.761L237.568 142.839L237.742 141.883L238.411 138.008L238.825 135.335L239.247 132.956L239.915 129.201L146.991 132.221L149.933 142.244L154.747 155.909L154.687 155.776ZM204.713 204.395L204.846 204.369C206.833 203.905 208.734 203.134 210.483 202.083C211.906 201.238 213.248 200.265 214.494 199.177C215.973 197.901 217.338 196.499 218.573 194.987L219.509 193.784L220.933 191.833L223.507 187.717L223.748 187.316L223.995 186.915L226.857 181.516L228.422 177.927L229.117 176.243L230.214 173.337L231.671 168.879L161.888 171.552L165.264 177.399C167.451 180.914 169.864 184.302 172.599 187.423C176.363 191.726 180.789 195.575 185.998 198.034C187.468 198.73 188.993 199.302 190.558 199.745L192.049 200.119L193.473 200.426L194.382 200.64L197.084 201.388C198.849 201.923 200.581 202.578 202.272 203.313L204.719 204.449L204.713 204.395ZM140.632 295.775L232.005 292.52L229.03 282.41L223.681 267.014L146.55 263.673L146.148 265.344L144.143 275.347L143.1 281.361L142.832 282.831L142.331 285.771L141.716 289.754L141.341 291.919L140.713 295.848L140.632 295.775ZM135.751 336.382L240.831 333.162L236.505 310.79L236.131 309.106L139.168 305.651L137.924 315.186L135.745 336.369L135.751 336.382ZM111.347 346.873L112.016 340.058L112.196 338.34L112.37 336.757L113.092 330.589L115.118 316.042L116.007 310.576L116.154 309.72L118.983 296.022L119.437 294.204L120.962 288.458L121.577 286.252L121.911 285.063L124.666 276.877L124.866 276.343L128.049 268.458L128.156 268.217L132.462 259.37L135.23 254.205L135.457 253.804L140.519 245.905L142.498 243.099L143.327 241.976C145.779 238.76 148.432 235.702 151.27 232.822L151.685 232.441L152.059 232.107L153.911 230.503L156.586 228.298L157.375 227.736L158.397 227.028L161.941 224.823L164.295 223.486L167.237 222.19C168.607 221.656 170.018 221.201 171.449 220.854C172.441 220.607 173.448 220.428 174.464 220.319C175.099 220.247 175.738 220.224 176.377 220.252H176.417L176.564 220.413L176.41 220.546L176.102 220.56C176.062 220.56 175.955 220.566 175.995 220.566L175.568 220.62C173.562 220.9 171.643 221.622 169.871 222.624C168.333 223.446 166.896 224.429 165.572 225.565L163.987 226.981C162.984 227.944 162.048 228.973 161.192 230.055L160.27 231.258L159.975 231.659L158.859 233.216L156.318 237.385L156.077 237.786L153.951 241.762L151.745 246.814L151.277 247.983L150.194 250.884L149.231 253.784L216.213 250.877C214.528 247.736 212.669 244.662 210.663 241.722C208.734 238.906 206.611 236.227 204.311 233.704C201.102 230.322 197.425 227.289 193.159 225.351C191.942 224.79 190.685 224.328 189.388 223.968L185.945 223.166L182.755 222.284C180.824 221.685 178.928 220.976 177.079 220.159C175.247 219.357 173.468 218.448 171.73 217.446L167.852 215C159.848 209.521 153.249 202.21 147.78 194.259L145.44 190.717L142.27 185.411L138.446 178.174L134.194 168.839L129.246 155.876L123.944 138.749L118.494 116.03L113.513 87.096L112.684 80.9216L53.0035 115.355C42.4059 121.469 35.8735 132.776 35.8735 145.004V283.506C35.8714 289.516 37.4536 295.421 40.4607 300.626C43.4679 305.831 47.794 310.152 53.0035 313.155L111.347 346.873ZM267.282 347.796L327.257 313.182C337.854 307.068 344.387 295.761 344.387 283.526V145.024C344.389 139.014 342.807 133.109 339.799 127.904C336.792 122.699 332.466 118.378 327.257 115.375L268.773 81.6299L268.485 84.971L264.393 115.362L264.026 117.313L262.234 126.02L261.552 129.027L261.117 130.737L260.448 133.036L258.61 139.718L258.509 140.052L255.514 148.773L255.113 149.775L254.357 151.659L252.164 156.892L251.282 158.763L249.677 162.104L246.468 168.231L244.883 171.058L244.749 171.305L239.581 179.19L237.588 181.95L236.773 183.032C234.299 186.213 231.624 189.234 228.763 192.087C228.629 192.22 228.482 192.341 228.341 192.468L227.205 193.47L223.594 196.41L223.247 196.677C220.893 198.348 218.453 199.912 215.892 201.248L213.886 202.184L210.677 203.48C209.42 203.928 208.136 204.302 206.825 204.583L205.207 204.863L206.638 205.632L209.761 207.503C217.731 212.668 224.283 219.765 229.712 227.496L232.333 231.412L235.542 236.724L239.42 244.074L243.766 253.516L248.868 266.694L254.685 285.23L260.703 309.707L266.185 340.532L267.235 347.989L267.282 347.796ZM134.194 360.057L172.973 382.443C183.571 388.557 196.629 388.557 207.233 382.443L244.676 360.806L243.339 349.693L135.023 346.379L134.2 360.064L134.194 360.057ZM265.109 38.4428L362.86 94.8407C373.458 100.955 379.99 112.261 379.99 124.49V304.087C379.99 316.316 373.458 327.622 362.86 333.736L207.24 423.518C196.642 429.633 183.584 429.633 172.98 423.518L17.3595 333.723C12.1488 330.721 7.82138 326.4 4.813 321.195C1.80461 315.99 0.221439 310.085 0.222871 304.074V124.483C0.222871 112.254 6.75526 100.948 17.3528 94.834L172.98 5.0318C183.578 -1.08242 196.636 -1.08242 207.24 5.0318L262.989 37.1064L263.624 37.2534L265.189 38.376L265.109 38.4428Z" fill="#DB0A5B"/>
</svg>
