<svg width="183" height="32" viewBox="0 0 183 32" fill="none" xmlns="http://www.w3.org/2000/svg">
<g id="logo-gradient-blue-confluence">
<g id="Confluence">
<path d="M48.2333 25.4279C46.9423 26.2865 44.8982 26.6442 42.7465 26.6442C35.9329 26.6442 32.0957 22.5661 32.0957 16.0197C32.0957 9.72365 35.9329 5.32359 42.7106 5.32359C44.7189 5.32359 46.763 5.71709 48.2333 6.7545V9.50901C46.763 8.57892 45.1133 8.0781 42.7106 8.0781C37.8335 8.0781 34.9646 11.2977 34.9646 16.0554C34.9646 20.8132 37.9769 23.9613 42.8899 23.9613C45.0775 23.9613 46.763 23.4604 48.2691 22.7092V25.4279H48.2333Z" fill="#253858"/>
<path d="M50.2056 18.4522C50.2056 13.7302 52.967 10.296 57.7006 10.296C62.3985 10.296 65.1598 13.7302 65.1598 18.4522C65.1598 23.1743 62.3985 26.68 57.7006 26.68C53.0028 26.6442 50.2056 23.1743 50.2056 18.4522ZM52.8594 18.4522C52.8594 21.4572 54.3297 24.1401 57.7365 24.1401C61.0716 24.1401 62.5419 21.4214 62.5419 18.4522C62.5419 15.4831 61.1075 12.8001 57.7365 12.8001C54.3297 12.8001 52.8594 15.4473 52.8594 18.4522Z" fill="#253858"/>
<path d="M81.7277 26.358H79.0023V16.8425C79.0023 14.0164 77.8547 12.7643 75.2727 12.7643C72.7624 12.7643 71.0052 14.4457 71.0052 17.6295V26.3938H68.2798V10.6537H71.0052V13.2294C72.0093 11.3692 73.8741 10.3318 75.9899 10.3318C79.6119 10.3318 81.6919 12.8359 81.6919 17.1644V26.358H81.7277Z" fill="#253858"/>
<path d="M93.3826 10.618V13.1221H89.2944V26.358H86.6407V13.1221H84.0945V10.618H86.6407V8.90088C86.6407 5.96751 88.2903 4 91.6613 4C92.4861 4 93.024 4.14309 93.4902 4.25041V6.75451C93.024 6.64719 92.4143 6.61142 91.7688 6.61142C90.0834 6.61142 89.2586 7.57729 89.2586 9.0082V10.618H93.3826Z" fill="#253858"/>
<path d="M100.519 26.4296C97.937 26.4296 96.2874 25.2133 96.2874 22.3157V4.03577H99.0128V21.9938C99.0128 23.4247 99.9452 23.9255 101.129 23.9255C101.416 23.9255 101.595 23.9255 101.918 23.8897V26.3223C101.667 26.3938 101.2 26.4296 100.519 26.4296Z" fill="#253858"/>
<path d="M104.213 10.618H106.938V20.1336C106.938 22.9596 108.086 24.2117 110.668 24.2117C113.178 24.2117 114.935 22.5303 114.935 19.3466V10.618H117.661V26.358H114.935V23.7824C113.931 25.6426 112.066 26.68 109.95 26.68C106.328 26.68 104.249 24.1759 104.249 19.8474V10.618H104.213Z" fill="#253858"/>
<path d="M129.28 26.6442C123.363 26.6442 120.781 23.2458 120.781 18.4165C120.781 13.6587 123.434 10.2603 128.24 10.2603C133.117 10.2603 135.053 13.6229 135.053 18.4165V19.6327H123.542C123.936 22.3157 125.658 24.0328 129.387 24.0328C131.216 24.0328 132.758 23.6751 134.193 23.1743V25.6784C132.866 26.3938 130.858 26.6442 129.28 26.6442ZM123.47 17.3433H132.292C132.149 14.4099 130.822 12.7644 128.096 12.7644C125.227 12.7644 123.757 14.5888 123.47 17.3433Z" fill="#253858"/>
<path d="M151.657 26.358H148.932V16.8425C148.932 14.0164 147.784 12.7643 145.202 12.7643C142.692 12.7643 140.935 14.4457 140.935 17.6295V26.3938H138.209V10.6537H140.935V13.2294C141.939 11.3692 143.804 10.3318 145.919 10.3318C149.541 10.3318 151.621 12.8359 151.621 17.1644V26.358H151.657Z" fill="#253858"/>
<path d="M166.611 25.9288C165.679 26.4296 164.209 26.6442 162.774 26.6442C157.144 26.6442 154.526 23.2458 154.526 18.4165C154.526 13.6587 157.144 10.2603 162.774 10.2603C164.209 10.2603 165.284 10.4391 166.54 11.0115V13.5156C165.535 13.0505 164.46 12.7644 162.989 12.7644C158.901 12.7644 157.216 15.34 157.216 18.4165C157.216 21.4929 158.937 24.0686 163.061 24.0686C164.675 24.0686 165.679 23.8539 166.647 23.4962V25.9288H166.611Z" fill="#253858"/>
<path d="M177.226 26.6442C171.309 26.6442 168.727 23.2458 168.727 18.4165C168.727 13.6587 171.381 10.2603 176.186 10.2603C181.063 10.2603 183 13.6229 183 18.4165V19.6327H171.488C171.883 22.3157 173.604 24.0328 177.334 24.0328C179.163 24.0328 180.705 23.6751 182.139 23.1743V25.6784C180.812 26.3938 178.84 26.6442 177.226 26.6442ZM171.453 17.3433H180.274C180.131 14.4099 178.804 12.7644 176.079 12.7644C173.174 12.7644 171.739 14.5888 171.453 17.3433Z" fill="#253858"/>
</g>
<g id="Icon">
<path id="Vector" d="M0.789051 21.8975C0.573883 22.2975 0.286993 22.7338 0.0718255 23.0974C-0.143342 23.4246 -0.0357583 23.8609 0.322854 24.0791L4.98482 26.9878C5.34343 27.2059 5.77377 27.0968 5.98893 26.7332C6.16824 26.406 6.41927 26.0061 6.6703 25.5698C8.53508 22.4793 10.364 22.8429 13.735 24.479L18.3611 26.6969C18.7197 26.8787 19.15 26.6969 19.3293 26.3333L21.5527 21.2431C21.6962 20.8795 21.5527 20.4432 21.1941 20.2978C20.2259 19.8251 18.2893 18.9161 16.5321 18.0435C10.2206 14.9894 4.87723 15.1712 0.789051 21.8975Z" fill="url(#paint0_linear)"/>
<path id="Vector_2" d="M21.6961 10.3718C21.9113 9.97188 22.1982 9.53557 22.4133 9.17199C22.6285 8.84476 22.5209 8.40845 22.1623 8.1903L17.5003 5.28161C17.1417 5.06346 16.7114 5.17253 16.4962 5.53612C16.3169 5.86335 16.0659 6.26329 15.8149 6.6996C13.9501 9.79008 12.1212 9.4265 8.75019 7.79036L4.15995 5.53612C3.80134 5.35433 3.371 5.53612 3.1917 5.89971L0.968299 10.9899C0.824854 11.3535 0.968299 11.7898 1.32691 11.9352C2.29517 12.4079 4.23167 13.3169 5.98888 14.1895C12.2646 17.28 17.6079 17.0982 21.6961 10.3718Z" fill="url(#paint1_linear)"/>
</g>
</g>
<defs>
<linearGradient id="paint0_linear" x1="21.403" y1="28.4975" x2="7.20258" y2="20.4492" gradientUnits="userSpaceOnUse">
<stop stop-color="#0052CC"/>
<stop offset="0.9182" stop-color="#2380FB"/>
<stop offset="1" stop-color="#2684FF"/>
</linearGradient>
<linearGradient id="paint1_linear" x1="1.10109" y1="3.76862" x2="15.3015" y2="11.8169" gradientUnits="userSpaceOnUse">
<stop stop-color="#0052CC"/>
<stop offset="0.9182" stop-color="#2380FB"/>
<stop offset="1" stop-color="#2684FF"/>
</linearGradient>
</defs>
</svg>
