<?xml version="1.0" encoding="utf-8"?>
<!-- Generator: Adobe Illustrator 24.0.0, SVG Export Plug-In . SVG Version: 6.00 Build 0)  -->
<svg version="1.1" id="Layer_1" xmlns="http://www.w3.org/2000/svg" xmlns:xlink="http://www.w3.org/1999/xlink" x="0px" y="0px"
	 viewBox="0 0 300 73" style="enable-background:new 0 0 300 73;" xml:space="preserve">
<style type="text/css">
	.st0{fill:#232736;}
</style>
<symbol  id="A" viewBox="-54.9 -13 109.8 26.1">
	<path class="st0" d="M54.7-2.1c-0.5-0.8-1.4-1-2.2-1c-1.1,0-2.3,0.5-2.3,1.7c0,1.3,1.1,1.6,2.3,1.7c0.8,0.1,1.5,0.3,1.5,1
		c0,0.8-0.8,1-1.5,1c-0.7,0-1.4-0.3-1.9-1l-0.7,0.5c0.6,1,1.4,1.4,2.6,1.4c1.2,0,2.5-0.5,2.5-1.8c0-1.3-1.2-1.7-2.4-1.9
		c-0.8-0.1-1.4-0.3-1.4-0.9c0-0.6,0.6-0.9,1.4-0.9c0.6,0,1.2,0.3,1.5,0.7L54.7-2.1z M33.9,3h0.4c0.3,0,0.6-0.3,0.6-0.6V-3h-1.1
		l-2,2.8l-2-2.8h-1.1v6h0.4c0.3,0,0.6-0.3,0.6-0.6v-4l2,2.8h0.2l2-2.8L33.9,3z M24.1,0.9h-2.5L22.8-2L24.1,0.9z M25,3h1l-2.7-6h-1
		l-2.7,6h1l0.6-1.3h3.2L25,3z M12.6-3h-0.7v6h0.4c0.3,0,0.6-0.3,0.6-0.6v-3.7L16.3,3H17v-6h-0.4c-0.3,0-0.6,0.3-0.6,0.6v3.7L12.6-3z
		 M4.7-3H3.6v0l2.3,3.5V3h0.4c0.3,0,0.6-0.3,0.6-0.6V0.6l2.4-3.5v0H8.1L6.4-0.3L4.7-3z M-2.6-2.1h1.3c1.4,0,2,1,2.1,2
		c0,1.1-0.6,2.1-2.1,2.1h-1.3V-2.1z M-3.5-3v6h2.3c2.1,0,3-1.5,3-3c0-1.5-1-2.9-3-2.9L-3.5-3L-3.5-3z M-8.4,1.2c2.9,0,2.8-4.2,0-4.2
		h-2.8v6h0.4c0.3,0,0.6-0.3,0.6-0.6V1.2L-8.4,1.2z M-10.2-2.1h1.8c1.6,0,1.6,2.4,0,2.4h-1.8L-10.2-2.1z M-16,1.2
		c2.9,0,2.8-4.2,0-4.2h-2.8v6h0.4c0.3,0,0.6-0.3,0.6-0.6V1.2L-16,1.2z M-17.8-2.1h1.8c1.6,0,1.6,2.4,0,2.4h-1.8V-2.1z M-23.4,0.9
		h-2.5l1.3-2.8L-23.4,0.9z M-22.5,3h1l-2.7-6h-1l-2.7,6h1l0.6-1.3h3.3L-22.5,3z M38.2-2.4V3h0.4c0.3,0,0.6-0.3,0.6-0.6V-3h-0.4
		C38.5-3,38.2-2.7,38.2-2.4 M45.2,2.2C44,2.2,43,1.2,43,0s1-2.2,2.2-2.2c0.6,0,1.1,0.2,1.6,0.6l0.7-0.7c-0.6-0.6-1.3-0.9-2.2-0.9
		c-1.7,0-3.1,1.4-3.1,3.1c0,1.7,1.4,3.1,3.1,3.1c0.9,0,1.6-0.3,2.2-0.9l-0.7-0.7C46.3,2,45.8,2.2,45.2,2.2 M-44.3,10.4l-7.6-15.9
		c-1.8,1.7-3,4.1-3,6.8c0,5.1,4.1,9.2,9.2,9.2C-45.2,10.5-44.8,10.5-44.3,10.4 M-47.4-7.7c0.6-0.1,1.1-0.2,1.7-0.2
		c5.1,0,9.2,4.1,9.2,9.2c0,2.7-1.2,5.3-3.2,7l2.3,4.7c3.7-2.6,6.1-6.9,6.1-11.7c0-7.9-6.4-14.4-14.3-14.4c-1.4,0-2.7,0.2-3.9,0.6
		L-47.4-7.7z"/>
</symbol>
<use xlink:href="#A"  width="109.8" height="26.1" x="-54.9" y="-13" transform="matrix(2.7027 0 0 2.7027 149.7784 36.7541)" style="overflow:visible;"/>
</svg>
