
<svg width="98" height="28" viewBox="0 0 98 28" fill="none" xmlns="http://www.w3.org/2000/svg">
<path fill-rule="evenodd" clip-rule="evenodd" d="M5.47939 10.9208H9.77953V8.33941H5.47939V5.72695C5.47939 4.04751 6.24835 3.3944 7.59403 3.3944C8.55523 3.3944 9.26011 3.6743 10.0291 4.17191V1.34175C9.22807 0.875237 8.36299 0.657532 7.24159 0.657532C4.26188 0.657532 2.33948 2.33697 2.33948 5.75805V8.33941H0.128723V10.9208H2.33948V22.117H5.47939V10.9208ZM23.2993 8.33941H20.1594V19.6912C19.3264 19.8156 18.4293 19.8778 17.7244 19.8778C15.6418 19.8778 14.3602 19.1314 14.3602 17.0787V8.33941H11.2203V17.2964C11.2203 21.1529 13.7194 22.428 17.7885 22.428C19.4545 22.428 21.6333 22.2103 23.2993 21.806V8.33941ZM29.5258 0.968539H26.3538V22.117H29.5258V0.968539ZM35.7202 0.968539H32.5482V22.117H35.7202V0.968539ZM38.1018 21.3084C39.1591 21.9926 40.8252 22.428 42.4913 22.428C45.5671 22.428 47.8419 21.1218 47.8419 18.2294C47.8419 15.7414 46.4322 14.5596 43.1961 13.8753C41.5621 13.4399 40.9533 12.9734 40.9533 12.0715C40.9533 11.1696 41.6903 10.5165 43.068 10.5165C44.5739 10.5165 45.7914 11.0452 47.0409 11.916V9.08583C45.8555 8.37051 44.5739 8.02841 42.9719 8.02841C40.0883 8.02841 37.9096 9.39684 37.9096 12.1959C37.9096 14.5907 39.1591 15.7414 42.1068 16.3945C43.9331 16.861 44.7661 17.2653 44.7661 18.385C44.7661 19.4735 43.8369 19.94 42.4272 19.94C40.9854 19.94 39.4154 19.3491 38.1018 18.385V21.3084ZM48.0128 10.9208H50.1595V18.1672C50.1595 21.3084 52.1139 22.428 54.4208 22.428C55.7665 22.428 56.9199 22.1481 57.8491 21.6816V18.9137C56.984 19.4113 56.183 19.6912 55.2538 19.6912C54.0363 19.6912 53.2994 19.1314 53.2994 17.483V10.9208H57.3364V8.33941H53.2994V4.98053H50.1595V8.33941H48.0128V10.9208ZM58.3724 15.2438C58.3724 19.5046 61.4482 22.428 65.6775 22.428C69.9388 22.428 73.0146 19.5046 73.0146 15.2438C73.0146 10.9519 69.9388 8.02841 65.6775 8.02841C61.4482 8.02841 58.3724 10.9519 58.3724 15.2438V15.2438ZM69.8106 15.2438C69.8106 18.0117 68.1125 19.7845 65.6775 19.7845C63.3065 19.7845 61.5764 18.0117 61.5764 15.2438C61.5764 12.4447 63.3065 10.672 65.6775 10.672C68.1125 10.672 69.8106 12.4447 69.8106 15.2438V15.2438ZM78.1517 11.4495C78.7925 11.2007 79.5615 11.0141 80.5227 11.0141C81.0357 11.0141 82.0304 11.1566 82.0304 11.1566L80.8783 8.12913C80.8783 8.12913 80.6817 8.12171 80.5227 8.12171C78.5042 8.12171 76.5177 8.65042 74.9798 9.49014V22.117H78.1517V11.4495ZM86.0122 8.33941H82.616L88.4793 22.7391L86.4928 27.7152H89.6007L97.2902 8.33941H94.0222L90.0492 19.1936L86.0122 8.33941Z" fill="black"/>
</svg>
