<svg width="87" height="87" viewBox="0 0 87 87" fill="none" xmlns="http://www.w3.org/2000/svg">
<circle cx="44.9512" cy="43.7006" r="42" fill="black"/>
<rect x="0.951172" y="0.700607" width="86" height="86" fill="black"/>
<path fill-rule="evenodd" clip-rule="evenodd" d="M44.1172 36.6378C42.2265 37.9807 40.911 39.9029 40.3472 42.3292H36.8409V67.0149H30.311V42.3292H25.7134V36.6378H30.311V30.9463C30.311 23.4035 34.3089 19.7006 40.5057 19.7006C42.8378 19.7006 44.6369 20.1806 46.3027 21.2092V27.4492C44.7035 26.352 43.2376 25.7349 41.2387 25.7349C38.4401 25.7349 36.8409 27.1749 36.8409 30.8778V36.6378H44.1172Z" fill="white"/>
<path fill-rule="evenodd" clip-rule="evenodd" d="M41.9329 65.232C44.1318 66.7406 47.5967 67.7006 51.0615 67.7006C57.4582 67.7006 62.1891 64.8206 62.1891 58.4435C62.1891 52.9578 59.2573 50.352 52.5274 48.8435C49.1292 47.8835 47.8632 46.8549 47.8632 44.8663C47.8632 42.8777 49.3957 41.4377 52.2609 41.4377C55.3926 41.4377 57.9246 42.6035 60.5233 44.5235V38.2835C58.0579 36.7063 55.3926 35.952 52.061 35.952C46.0641 35.952 41.5331 38.9692 41.5331 45.1406C41.5331 50.4206 44.1318 52.9578 50.262 54.3978C54.06 55.4263 55.7924 56.3178 55.7924 58.7863C55.7924 61.1863 53.8601 62.2149 50.9283 62.2149C47.9298 62.2149 44.6649 60.912 41.9329 58.7863V65.232Z" fill="white"/>
</svg>
