<?xml version="1.0" encoding="utf-8"?>
<!-- Generator: Adobe Illustrator 19.2.1, SVG Export Plug-In . SVG Version: 6.00 Build 0)  -->
<svg version="1.1" id="layer" xmlns="http://www.w3.org/2000/svg" xmlns:xlink="http://www.w3.org/1999/xlink" x="0px" y="0px"
	 viewBox="0 0 652 652" style="enable-background:new 0 0 652 652;" xml:space="preserve">
<style type="text/css">
	.st0{fill:#1C1F2A;}
</style>
<path class="st0" d="M219.1,314.3c1.3-8.4,8.8-18.9,23.1-18.9c13.4,0,21,9.7,22.3,18.9H219.1z M200.7,321c0,23.5,17.2,39.5,42,39.5
	c16.4,0,27.3-8,33.6-15.1c0.8-0.8,0.8-1.7,0-2.5l-8.8-8c-0.8-0.8-2.1-0.8-2.5,0c-4.6,3.8-11.3,10.1-21.8,10.1
	c-12.2,0-21-7.6-23.1-17.2h60.9c1.7,0,2.5-0.8,2.5-2.5v-3.8c0-22.7-14.7-41.2-39.5-41.2C216.6,280.3,200.7,298.3,200.7,321
	L200.7,321z M293.9,357.6c0,1.3,0.8,2.1,2.1,2.1h13c1.3,0,2.1-0.8,2.1-2.1V249.2c-0.4-0.8-0.8-1.7-2.1-1.7h-13.4
	c-1.3,0-1.7,0.8-1.7,1.7V357.6z M173.8,357.6c0,1.3,0.8,2.1,2.1,2.1h12.6c1.3,0,2.1-0.8,2.1-2.1v-43.7c0-18.5-10.9-33.6-34-33.6
	h-0.4c-11.3,0-19.7,3.8-24.8,8V284c0-1.3-0.8-2.1-2.1-2.1h-13c-1.3,0-2.1,0.8-2.1,2.1v73.1c0,1.3,0.8,2.1,2.1,2.1h13
	c1.3,0,2.1-0.8,2.1-2.1v-40.3c0-12.6,6.3-21.8,21.4-21.8c15.1,0,21,9.2,21,21.8C173.8,316.8,173.8,357.6,173.8,357.6z M419.6,380.3
	c5.9,7.1,18.5,15.5,36.1,15.5c24.8,0,39.5-15.1,39.5-39.1v-72.3c0-1.3-0.8-2.1-2.1-2.1h-12.2c-1.3,0-2.1,0.8-2.1,2.1v4.2
	c-5.5-4.6-12.6-8-24.4-8c-22.3,0-41.6,16.4-41.6,40.3c0,24.4,18.9,40.3,41.6,40.3c10.9,0,18.1-3.8,23.5-8v5c0,13.4-8,22.7-22.7,22.7
	c-12.2,0-20.2-6.7-25.6-11.8c-0.8-0.8-2.5-0.8-3.4,0l-6.7,7.6C418.3,377.7,418.3,379,419.6,380.3L419.6,380.3z M85.9,320.6
	C85.9,334,75.9,345,62,345s-23.1-11.8-23.1-24.4v-0.8c0-13,9.7-23.9,23.1-23.9S85.9,306.7,85.9,320.6L85.9,320.6z M20.4,320.6
	c0,21.8,17.6,40.3,41.6,40.3s41.6-18.5,41.6-40.3v-0.8c0-21.8-17.6-39.5-41.6-39.5S20.4,297.9,20.4,320.6L20.4,320.6z M386.4,320.6
	c0,13.4-10.1,24.4-23.9,24.4c-13.4,0-23.1-11.8-23.1-24.4v-0.8c0-13,9.7-23.9,23.1-23.9C376.3,295.8,386.4,306.7,386.4,320.6
	L386.4,320.6z M320.8,320.6c0,21.8,17.6,40.3,41.6,40.3c23.9,0,41.6-18.5,41.6-40.3v-0.8c0-21.8-17.6-39.5-41.6-39.5
	C338.5,280.3,320.8,297.9,320.8,320.6L320.8,320.6z M511.2,357.6c0,1.3,0.8,2.1,2.1,2.1h13c1.3,0,2.1-0.8,2.1-2.1V284
	c0-0.8-0.4-1.7-1.7-1.7h-13.4c-1.3,0-1.7,0.8-1.7,1.7v73.5H511.2z M511.2,263c0,1.3,0.8,2.1,2.1,2.1h13c1.3,0,2.1-0.8,2.1-2.1v-13.9
	c0-0.8-0.4-1.7-1.7-1.7h-13.4c-1.3,0-1.7,0.8-1.7,1.7V263H511.2z M603.2,357.6c0,1.3,0.8,2.1,2.1,2.1h13c1.3,0,2.1-0.8,2.1-2.1
	v-43.7c0-18.5-10.9-33.6-34-33.6h-0.4c-11.3,0-19.7,3.8-24.8,8V284c0-1.3-0.8-2.1-2.1-2.1h-13c-1.3,0-2.1,0.8-2.1,2.1v73.1
	c0,1.3,0.8,2.1,2.1,2.1h13c1.3,0,2.1-0.8,2.1-2.1v-40.3c0-12.6,6.3-21.8,21.4-21.8c15.1,0,21,9.2,21,21.8v40.8H603.2z M478.4,320.6
	c0,13.4-10.1,24.4-23.9,24.4c-13.9,0-23.1-11.8-23.1-24.4v-0.8c0-13,9.7-23.9,23.1-23.9S478.4,306.7,478.4,320.6z"/>
</svg>
