<svg width="337" height="55" viewBox="0 0 337 55" fill="none" xmlns="http://www.w3.org/2000/svg">
<path d="M0 2.61905C0 1.17259 1.17259 0 2.61905 0H53.4286C54.2964 0 55 0.703553 55 1.57143V52.3809C55 53.8274 53.8274 55 52.3809 55C23.4517 55 0 31.5483 0 2.61905Z" fill="#105ED5"/>
<path d="M74.4226 24.9708C74.0105 24.9222 74.1651 24.4848 74.3194 24.096C74.7315 22.9297 74.8344 22.1036 74.8344 21.1802V19.6292C74.8344 19.4122 74.6585 19.2363 74.4415 19.2363H71.1071C70.8902 19.2363 70.7143 19.4122 70.7143 19.6292V43.7253C70.7143 43.9423 70.8902 44.1181 71.1071 44.1181H74.4415C74.6585 44.1181 74.8344 43.9423 74.8344 43.7253V31.4342C74.8344 25.0431 76.9677 22.4435 84.3012 22.8086C84.5277 22.8199 84.723 22.6407 84.723 22.414V19.2404C84.723 19.0234 84.5436 18.8473 84.3267 18.8496C78.0228 18.9172 76.6532 20.6299 74.9376 24.582C74.8344 24.7764 74.7315 25.0194 74.4226 24.9708Z" fill="#2E2E2E"/>
<path d="M97.9211 44.3929C102.716 44.3929 106.26 41.0882 107.146 38.6098C107.198 38.464 107.406 38.1724 107.719 38.2696C108.136 38.4155 107.875 38.8528 107.719 39.2415C107.302 40.262 107.198 41.0397 107.198 41.9144V43.6113C107.198 43.8282 107.374 44.0041 107.591 44.0041H110.974C111.191 44.0041 111.367 43.8282 111.367 43.6113V19.5151C111.367 19.2982 111.191 19.1223 110.974 19.1223H107.591C107.374 19.1223 107.198 19.2982 107.198 19.5151V31.5146C107.198 37.4434 102.768 41.0882 98.7027 41.0882C95.0026 41.0882 92.1883 39.4845 92.1883 33.7015V19.5151C92.1883 19.2982 92.0124 19.1223 91.7954 19.1223H88.412C88.195 19.1223 88.0191 19.2982 88.0191 19.5151V33.8959C88.0191 41.1855 91.7713 44.3929 97.9211 44.3929Z" fill="#2E2E2E"/>
<path d="M136.16 10.6071C135.943 10.6071 135.768 10.783 135.768 11V20.7514C135.768 21.638 135.872 22.4753 136.236 23.4604C136.393 23.9036 136.705 24.3469 136.236 24.4946C135.924 24.5932 135.716 24.1499 135.664 24.0021C134.466 20.6037 130.977 18.3873 126.707 18.3873C119.781 18.3873 114.938 23.9036 114.938 31.3901C114.938 38.8765 119.781 44.3928 126.707 44.3928C130.873 44.3928 134.414 42.2258 135.664 38.6794C135.716 38.5317 135.924 38.1377 136.288 38.2854C136.601 38.4331 136.445 38.8271 136.288 39.2214C135.872 40.3048 135.768 40.9944 135.768 41.8318V43.606C135.768 43.823 135.943 43.9988 136.16 43.9988H139.541C139.758 43.9988 139.934 43.823 139.934 43.606V11C139.934 10.783 139.758 10.6071 139.541 10.6071H136.16ZM127.332 40.8467C121.916 40.8467 119.104 36.5124 119.104 31.3901C119.104 26.2678 121.916 21.9335 127.332 21.9335C132.279 21.9335 135.768 26.2678 135.768 31.3901C135.768 36.5124 132.279 40.8467 127.332 40.8467Z" fill="#2E2E2E"/>
<path d="M164.269 10.6071C164.052 10.6071 163.877 10.783 163.877 11V20.7514C163.877 21.638 163.979 22.4753 164.335 23.4604C164.488 23.9036 164.793 24.3469 164.335 24.4946C164.029 24.5932 163.826 24.1499 163.775 24.0021C162.603 20.6037 159.191 18.3873 155.015 18.3873C148.241 18.3873 143.505 23.9036 143.505 31.3901C143.505 38.8765 148.241 44.3928 155.015 44.3928C159.089 44.3928 162.553 42.2258 163.775 38.6794C163.826 38.5317 164.029 38.1377 164.386 38.2854C164.692 38.4331 164.539 38.8271 164.386 39.2214C163.979 40.3048 163.877 40.9944 163.877 41.8318V43.606C163.877 43.823 164.052 43.9988 164.269 43.9988H167.558C167.775 43.9988 167.951 43.823 167.951 43.606V11C167.951 10.783 167.775 10.6071 167.558 10.6071H164.269ZM155.626 40.8467C150.329 40.8467 147.579 36.5124 147.579 31.3901C147.579 26.2678 150.329 21.9335 155.626 21.9335C160.464 21.9335 163.877 26.2678 163.877 31.3901C163.877 36.5124 160.464 40.8467 155.626 40.8467Z" fill="#2E2E2E"/>
<path d="M196.518 30.8945C196.518 22.3794 190.391 18.8475 184.53 18.8475C176.965 18.8475 171.797 24.0243 171.797 31.6202C171.797 38.4421 176.325 44.3928 184.637 44.3928C191.09 44.3928 194.786 40.3245 195.915 36.3565C195.984 36.1131 195.796 35.8777 195.543 35.8777H191.844C191.676 35.8777 191.527 35.9848 191.469 36.1424C190.481 38.8224 188.563 40.9095 184.797 40.9095C179.534 40.9095 176.37 37.1889 175.982 32.9993C175.961 32.7758 176.14 32.5878 176.365 32.5878H196.064C196.262 32.5878 196.43 32.4398 196.45 32.2422C196.488 31.862 196.518 31.4058 196.518 30.8945ZM184.85 22.1375C188.978 22.1375 191.707 24.7696 192.213 29.0671C192.24 29.2951 192.059 29.4914 191.829 29.4914H176.619C176.38 29.4914 176.196 29.2789 176.238 29.0434C176.926 25.1883 179.258 22.1375 184.85 22.1375Z" fill="#2E2E2E"/>
<path d="M215.372 19.3278C215.422 19.0793 215.232 18.8473 214.978 18.8504C213.594 18.867 212.436 18.9553 211.453 19.1207C210.221 19.3283 209.265 19.6571 208.485 20.118C206.919 21.0442 206.065 22.5033 205.11 24.582C205.102 24.5949 205.095 24.6081 205.088 24.6214C204.985 24.8075 204.87 25.0161 204.564 24.9707C204.128 24.9221 204.292 24.4848 204.455 24.096C204.892 22.9297 205 22.1035 205 21.1802V19.6378C205 19.416 204.821 19.2363 204.599 19.2363H201.04C200.818 19.2363 200.638 19.416 200.638 19.6378V43.7166C200.638 43.9383 200.818 44.1181 201.04 44.1181H204.599C204.821 44.1181 205 43.9383 205 43.7166V31.4342C205 27.8347 205.717 25.4379 207.73 24.096C208.669 23.4699 209.891 23.0735 211.453 22.8917C212.309 22.7921 213.267 22.7569 214.338 22.7837C214.534 22.7886 214.707 22.6523 214.746 22.4592L215.372 19.3278Z" fill="#2E2E2E"/>
<path d="M217.531 35.4907C217.306 35.4907 217.127 35.6788 217.146 35.9022C217.579 41.1296 221.561 44.3928 228.055 44.3928C234.77 44.3928 239.093 41.3448 239.093 36.3132C239.093 32.3459 235.228 30.5074 229.073 29.7817C222.409 29.0076 221.951 27.411 221.951 26.008C221.951 24.363 223.528 22.1375 228.055 22.1375C232.59 22.1375 234.014 24.3573 234.279 26.6088C234.303 26.8146 234.473 26.9756 234.68 26.9756H237.906C238.135 26.9756 238.316 26.7806 238.289 26.5534C237.763 22.1215 234.372 18.8475 228.208 18.8475C221.494 18.8475 217.882 22.7664 217.882 26.4918C217.882 29.7333 220.781 32.3459 226.377 32.9749C233.295 33.749 235.024 34.6198 235.024 37.0389C235.024 38.6354 233.447 41.1028 228.259 41.1028C223.222 41.1028 221.321 38.4281 221.106 35.8754C221.088 35.6621 220.915 35.4907 220.701 35.4907H217.531Z" fill="#2E2E2E"/>
<path d="M255.447 18.7809C255.669 18.7809 255.849 18.9607 255.849 19.1824V21.7444C255.849 21.9662 255.669 22.146 255.447 22.146H250.482C250.261 22.146 250.081 22.3258 250.081 22.5475V36.992C250.081 39.8623 250.699 40.753 253.583 40.753C254.415 40.753 255.165 40.6342 255.735 40.5049C255.962 40.4534 256.191 40.5945 256.237 40.8226L256.665 42.9609C256.7 43.1387 256.613 43.3188 256.447 43.3921C255.905 43.6318 254.849 44.0244 253.583 44.1181C248.139 44.5215 245.96 42.5841 245.96 36.6951V22.5475C245.96 22.3258 245.781 22.146 245.559 22.146H241.418C241.196 22.146 241.016 21.9662 241.016 21.7444V19.1824C241.016 18.9607 241.196 18.7809 241.418 18.7809H245.559C245.781 18.7809 245.96 18.6011 245.96 18.3793V11.7604C245.96 11.5689 246.096 11.4041 246.283 11.3666L249.6 10.7032C249.849 10.6535 250.081 10.8435 250.081 11.0969V18.3793C250.081 18.6011 250.261 18.7809 250.482 18.7809H255.447Z" fill="#2E2E2E"/>
<path d="M258.596 37.0873C258.596 41.3448 262.656 44.3928 267.454 44.3928C272.411 44.3928 276.471 41.9737 277.894 38.0549C277.947 37.8614 278.105 37.5227 278.422 37.6194C278.844 37.7162 278.685 38.1517 278.527 38.5386C278.158 39.5548 278 40.2803 278 41.2479V43.613C278 43.8299 278.176 44.0058 278.393 44.0058H281.825C282.042 44.0058 282.218 43.8299 282.218 43.613V29.8784C282.218 20.7828 277.209 18.8475 271.145 18.8475C265.51 18.8475 260.671 20.994 259.53 26.1299C259.477 26.3679 259.663 26.5885 259.906 26.5885H263.219C263.411 26.5885 263.574 26.4492 263.619 26.2624C264.129 24.1507 266.21 22.1375 270.723 22.1375C276.893 22.1375 277.947 24.8468 278 26.7821C278.053 29.5398 273.043 29.1527 268.087 29.5398C263.341 29.9268 258.596 31.6202 258.596 37.0873ZM277.21 30.7874C277.518 30.6054 277.987 30.8203 277.965 31.1776C277.574 37.3947 274.002 40.6894 269.194 41.1028C264.818 41.4899 262.814 39.2161 262.814 36.8454C262.814 34.2811 264.923 33.1684 268.192 32.6846C271.739 32.1421 275.287 31.9236 277.21 30.7874Z" fill="#2E2E2E"/>
<path d="M285.789 31.6202C285.789 38.6354 290.636 44.3928 298.592 44.3928C305.491 44.3928 309.564 40.1141 310.188 35.5303C310.219 35.3017 310.037 35.1036 309.806 35.1036H306.462C306.268 35.1036 306.105 35.2446 306.067 35.4342C305.429 38.6037 302.925 40.9095 298.697 40.9095C292.691 40.9095 290.004 36.6518 290.004 31.6202C290.004 26.5885 292.691 22.331 298.697 22.331C302.925 22.331 305.429 24.6368 306.067 27.8062C306.105 27.9957 306.268 28.1367 306.462 28.1367H309.806C310.037 28.1367 310.219 27.9387 310.188 27.7101C309.561 23.1263 305.44 18.8475 298.592 18.8475C290.478 18.8475 285.789 24.6049 285.789 31.6202Z" fill="#2E2E2E"/>
<path d="M336.032 44.1181C336.367 44.1181 336.548 43.7267 336.332 43.4714L324.61 29.6297C324.472 29.4677 324.489 29.2259 324.647 29.0839L335.296 19.4953C335.564 19.2544 335.393 18.8105 335.033 18.8105H330.753C330.652 18.8105 330.554 18.8497 330.481 18.92L318.287 30.624C318.082 30.8217 317.873 31.0689 317.617 30.8712C317.308 30.6734 317.514 30.3769 317.72 30.1297C318.493 29.1412 318.749 28.3009 318.749 27.0157V11C318.749 10.783 318.573 10.6071 318.356 10.6071H315.023C314.806 10.6071 314.631 10.783 314.631 11V43.7253C314.631 43.9423 314.806 44.1181 315.023 44.1181H318.356C318.573 44.1181 318.749 43.9423 318.749 43.7253V34.5546C318.749 34.4438 318.796 34.3382 318.878 34.2637L321.329 32.039C321.496 31.8878 321.755 31.9071 321.897 32.0814L331.612 43.9738C331.686 44.0652 331.798 44.1181 331.916 44.1181H336.032Z" fill="#2E2E2E"/>
</svg>
