<svg width="857" height="140" viewBox="0 0 857 140" fill="none" xmlns="http://www.w3.org/2000/svg">
<path d="M0 6.66667C0 2.98478 2.98477 0 6.66667 0H136C138.209 0 140 1.79086 140 4V133.333C140 137.015 137.015 140 133.333 140C59.6954 140 0 80.3046 0 6.66667Z" fill="white"/>
<path d="M189.439 63.562C188.39 63.4383 188.784 62.325 189.177 61.3354C190.226 58.3666 190.488 56.2636 190.488 53.9133V49.9652C190.488 49.4129 190.04 48.9652 189.488 48.9652H181C180.448 48.9652 180 49.4129 180 49.9652V111.301C180 111.853 180.448 112.301 181 112.301H189.488C190.04 112.301 190.488 111.853 190.488 111.301V80.0144C190.488 63.746 195.918 57.129 214.585 58.0583C215.161 58.087 215.659 57.631 215.659 57.0538V48.9756C215.659 48.4233 215.202 47.975 214.65 47.9809C198.604 48.153 195.117 52.5126 190.75 62.5724C190.488 63.0673 190.226 63.6857 189.439 63.562Z" fill="white"/>
<path d="M249.254 113C261.458 113 270.479 104.588 272.735 98.2794C272.867 97.9085 273.398 97.1661 274.194 97.4136C275.255 97.785 274.592 98.898 274.194 99.8875C273.132 102.485 272.867 104.465 272.867 106.691V111.011C272.867 111.563 273.315 112.011 273.867 112.011H282.48C283.032 112.011 283.48 111.563 283.48 111.011V49.6749C283.48 49.1226 283.032 48.6749 282.48 48.6749H273.867C273.315 48.6749 272.867 49.1226 272.867 49.6749V80.2189C272.867 95.3106 261.591 104.588 251.243 104.588C241.825 104.588 234.661 100.506 234.661 85.7856V49.6749C234.661 49.1226 234.213 48.6749 233.661 48.6749H225.049C224.496 48.6749 224.049 49.1226 224.049 49.6749V86.2804C224.049 104.836 233.6 113 249.254 113Z" fill="white"/>
<path d="M346.59 27C346.038 27 345.59 27.4477 345.59 28V52.8219C345.59 55.0786 345.856 57.2099 346.783 59.7173C347.181 60.8456 347.976 61.974 346.783 62.35C345.988 62.6008 345.458 61.4725 345.325 61.0964C342.277 52.4458 333.395 46.8041 322.526 46.8041C304.896 46.8041 292.569 60.8456 292.569 79.902C292.569 98.9585 304.896 113 322.526 113C333.13 113 342.144 107.484 345.325 98.4567C345.458 98.0808 345.988 97.0778 346.916 97.4539C347.711 97.8298 347.313 98.8327 346.916 99.8363C345.856 102.594 345.59 104.35 345.59 106.481V110.997C345.59 111.549 346.038 111.997 346.59 111.997H355.195C355.747 111.997 356.195 111.549 356.195 110.997V28C356.195 27.4477 355.747 27 355.195 27H346.59ZM324.117 103.974C310.331 103.974 303.174 92.9406 303.174 79.902C303.174 66.8634 310.331 55.8308 324.117 55.8308C336.71 55.8308 345.59 66.8634 345.59 79.902C345.59 92.9406 336.71 103.974 324.117 103.974Z" fill="white"/>
<path d="M418.14 27C417.588 27 417.14 27.4477 417.14 28V52.8219C417.14 55.0786 417.4 57.2099 418.307 59.7173C418.696 60.8456 419.474 61.974 418.307 62.35C417.53 62.6008 417.011 61.4725 416.881 61.0964C413.9 52.4458 405.213 46.8041 394.583 46.8041C377.341 46.8041 365.284 60.8456 365.284 79.902C365.284 98.9585 377.341 113 394.583 113C404.954 113 413.77 107.484 416.881 98.4567C417.011 98.0808 417.53 97.0778 418.437 97.4539C419.215 97.8298 418.826 98.8327 418.437 99.8363C417.4 102.594 417.14 104.35 417.14 106.481V110.997C417.14 111.549 417.588 111.997 418.14 111.997H426.512C427.064 111.997 427.512 111.549 427.512 110.997V28C427.512 27.4477 427.064 27 426.512 27H418.14ZM396.139 103.974C382.656 103.974 375.656 92.9406 375.656 79.902C375.656 66.8634 382.656 55.8308 396.139 55.8308C408.455 55.8308 417.14 66.8634 417.14 79.902C417.14 92.9406 408.455 103.974 396.139 103.974Z" fill="white"/>
<path d="M500.227 78.6405C500.227 56.9657 484.631 47.9756 469.713 47.9756C450.455 47.9756 437.301 61.1529 437.301 80.4877C437.301 97.8526 448.828 113 469.984 113C486.411 113 495.819 102.644 498.691 92.5438C498.868 91.9244 498.391 91.3251 497.747 91.3251H488.33C487.902 91.3251 487.524 91.5977 487.376 91.9989C484.86 98.8207 479.978 104.133 470.391 104.133C456.996 104.133 448.941 94.6627 447.953 83.9983C447.9 83.4293 448.357 82.9508 448.929 82.9508H499.071C499.577 82.9508 500.004 82.574 500.054 82.0711C500.15 81.1033 500.227 79.942 500.227 78.6405ZM470.527 56.3499C481.035 56.3499 487.981 63.05 489.27 73.989C489.339 74.5695 488.877 75.0691 488.293 75.0691H449.576C448.967 75.0691 448.498 74.5282 448.605 73.9287C450.357 64.1158 456.292 56.3499 470.527 56.3499Z" fill="white"/>
<path d="M548.22 49.1981C548.347 48.5656 547.862 47.9751 547.217 47.9828C543.693 48.0251 540.745 48.2499 538.245 48.671C535.107 49.1992 532.674 50.0364 530.69 51.2096C526.704 53.567 524.529 57.2812 522.098 62.5723C522.079 62.6053 522.06 62.6389 522.042 62.6728C521.78 63.1464 521.487 63.6773 520.709 63.5619C519.599 63.4382 520.015 62.3249 520.432 61.3352C521.542 58.3664 521.819 56.2635 521.819 53.9132V49.9871C521.819 49.4227 521.362 48.965 520.797 48.965H511.737C511.173 48.965 510.715 49.4227 510.715 49.9872V111.279C510.715 111.843 511.173 112.301 511.737 112.301H520.797C521.362 112.301 521.819 111.843 521.819 111.279V80.0143C521.819 70.8519 523.643 64.7509 528.767 61.3352C531.158 59.7417 534.267 58.7326 538.245 58.2698C540.423 58.0164 542.862 57.9268 545.586 57.9948C546.088 58.0073 546.528 57.6605 546.626 57.169L548.22 49.1981Z" fill="white"/>
<path d="M553.714 90.34C553.144 90.34 552.687 90.8189 552.734 91.3875C553.836 104.693 563.972 113 580.505 113C597.596 113 608.602 105.241 608.602 92.4335C608.602 82.335 598.761 77.6553 583.094 75.808C566.133 73.8376 564.967 69.7735 564.967 66.2021C564.967 62.0149 568.981 56.3499 580.505 56.3499C592.049 56.3499 595.672 62.0003 596.346 67.7316C596.408 68.2553 596.841 68.6652 597.368 68.6652H605.58C606.162 68.6652 606.623 68.1688 606.555 67.5905C605.216 56.3093 596.584 47.9756 580.893 47.9756C563.802 47.9756 554.609 57.9509 554.609 67.4336C554.609 75.6849 561.989 82.335 576.232 83.936C593.841 85.9065 598.243 88.1232 598.243 94.2808C598.243 98.3448 594.229 104.625 581.023 104.625C568.203 104.625 563.363 97.8169 562.816 91.3191C562.771 90.7762 562.33 90.34 561.785 90.34H553.714Z" fill="white"/>
<path d="M650.23 47.8059C650.794 47.8059 651.252 48.2635 651.252 48.828V55.3495C651.252 55.914 650.794 56.3716 650.23 56.3716H637.591C637.027 56.3716 636.569 56.8292 636.569 57.3937V94.1615C636.569 101.468 638.142 103.735 645.484 103.735C647.602 103.735 649.512 103.433 650.963 103.103C651.54 102.972 652.123 103.332 652.24 103.912L653.328 109.355C653.419 109.808 653.196 110.266 652.774 110.453C651.393 111.063 648.706 112.062 645.484 112.301C631.626 113.327 626.081 108.396 626.081 93.4057V57.3937C626.081 56.8292 625.624 56.3716 625.059 56.3716H614.518C613.953 56.3716 613.496 55.914 613.496 55.3495V48.828C613.496 48.2635 613.953 47.8059 614.518 47.8059H625.059C625.624 47.8059 626.081 47.3483 626.081 46.7838V29.9355C626.081 29.4483 626.425 29.0288 626.903 28.9332L635.347 27.2445C635.979 27.118 636.569 27.6017 636.569 28.2467V46.7838C636.569 47.3483 637.027 47.8059 637.591 47.8059H650.23Z" fill="white"/>
<path d="M658.244 94.404C658.244 105.241 668.579 113 680.793 113C693.409 113 703.744 106.842 707.368 96.867C707.502 96.3744 707.905 95.5123 708.71 95.7586C709.784 96.0049 709.381 97.1133 708.978 98.0983C708.039 100.685 707.636 102.532 707.636 104.995V111.015C707.636 111.567 708.084 112.015 708.636 112.015H717.374C717.926 112.015 718.374 111.567 718.374 111.015V76.0543C718.374 52.9016 705.623 47.9756 690.188 47.9756C675.843 47.9756 663.527 53.4392 660.622 66.5125C660.487 67.1184 660.959 67.6799 661.58 67.6799H670.013C670.502 67.6799 670.914 67.3252 671.029 66.8497C672.328 61.4745 677.625 56.3499 689.114 56.3499C704.818 56.3499 707.502 63.2464 707.636 68.1725C707.771 75.1922 695.02 74.207 682.403 75.1922C670.324 76.1774 658.244 80.4877 658.244 94.404ZM705.625 78.368C706.41 77.9046 707.604 78.4518 707.547 79.3611C706.551 95.1865 697.461 103.573 685.222 104.625C674.082 105.611 668.981 99.8228 668.981 93.7882C668.981 87.2611 674.35 84.4287 682.672 83.1971C691.701 81.8164 700.729 81.26 705.625 78.368Z" fill="white"/>
<path d="M727.463 80.4877C727.463 98.3448 739.801 113 760.052 113C777.613 113 787.982 102.109 789.569 90.4407C789.648 89.8588 789.185 89.3547 788.598 89.3547H780.085C779.592 89.3547 779.176 89.7137 779.079 90.1961C777.455 98.2639 771.081 104.133 760.32 104.133C745.032 104.133 738.192 93.2956 738.192 80.4877C738.192 67.6799 745.032 56.8426 760.32 56.8426C771.081 56.8426 777.455 62.712 779.079 70.7795C779.176 71.2619 779.592 71.6208 780.085 71.6208H788.598C789.185 71.6208 789.648 71.1167 789.568 70.5349C787.974 58.8669 777.483 47.9756 760.052 47.9756C739.399 47.9756 727.463 62.6307 727.463 80.4877Z" fill="white"/>
<path d="M855.355 112.301C856.206 112.301 856.668 111.304 856.118 110.654L826.279 75.4211C825.93 75.0087 825.971 74.3933 826.373 74.0317L853.481 49.6245C854.162 49.0113 853.728 47.8814 852.812 47.8814H841.917C841.659 47.8814 841.411 47.9812 841.225 48.1599L810.186 77.9521C809.662 78.4554 809.131 79.0845 808.48 78.5812C807.694 78.0779 808.218 77.323 808.742 76.6939C810.71 74.1775 811.361 72.0386 811.361 68.7673V28C811.361 27.4477 810.913 27 810.361 27H801.878C801.326 27 800.878 27.4477 800.878 28V111.301C800.878 111.853 801.326 112.301 801.878 112.301H810.361C810.913 112.301 811.361 111.853 811.361 111.301V87.9572C811.361 87.6752 811.48 87.4062 811.689 87.2167L817.928 81.5539C818.352 81.169 819.012 81.2182 819.375 81.6618L844.103 111.933C844.293 112.166 844.577 112.301 844.877 112.301H855.355Z" fill="white"/>
</svg>
