<?xml version="1.0" encoding="utf-8"?>
<!-- Generator: Adobe Illustrator 25.2.3, SVG Export Plug-In . SVG Version: 6.00 Build 0)  -->
<svg version="1.1" id="Layer_1" xmlns="http://www.w3.org/2000/svg" xmlns:xlink="http://www.w3.org/1999/xlink" x="0px" y="0px"
	 viewBox="0 0 307.3 116.7" style="enable-background:new 0 0 307.3 116.7;" xml:space="preserve">
<style type="text/css">
	.st0{fill:#F9C600;}
	.st1{fill:#0B2330;}
	.st2{fill:#FFFFFF;}
</style>
<g>
	<path class="st0" d="M34.1,41.5L34.1,41.5c-12.8-2.9-19.4-7.9-19.4-15c0-7.3,6.9-12.9,16.2-12.9c9.5,0,16.7,6.1,16.7,14.1v0.6h13.1
		v-0.6C60.7,13,48,1.9,31.1,1.9c-8.1,0-15.6,2.5-21,7.1c-5.5,4.7-8.5,11.2-8.5,18.3c0,6.7,2.6,12.4,7.7,16.9c4.6,4,11,7,19.2,8.8
		c13.8,3.1,20.8,8.3,20.8,15.5c0,7.8-7.6,13.7-17.7,13.7c-10.4,0-18.3-6.6-18.3-15.3v-0.6H0v0.6c0,15.4,13.5,27,31.3,27
		c8.5,0,16.4-2.6,22.1-7.4c5.8-4.9,9-11.6,9-19.1C62.4,54.5,52.9,45.8,34.1,41.5z"/>
	<path class="st0" d="M107.6,23.6c-10.2,0-19.3,4.6-25.2,12.7V25.2H70v91.4h12.5V81.8c5.9,8.1,14.9,12.7,25.2,12.7
		c19.4,0,34-15.2,34-35.4C141.6,38.9,127,23.6,107.6,23.6z M128.6,61.7c-1,10.8-9.6,19.5-20.4,20.6c-7,0.7-13.5-1.3-18.3-5.7
		c-4.8-4.4-7.5-10.6-7.5-17.5c0-13.3,9.9-23.3,23.1-23.3c6.8,0,12.9,2.6,17.3,7.4C127.2,48,129.3,54.6,128.6,61.7z"/>
	<path class="st0" d="M294.8,25.2v11.1c-5.9-8.1-15-12.6-25.3-12.6c-19.3,0-33.9,14.9-33.9,34.8c0,19.8,14.6,34.8,33.9,34.8
		c10.3,0,19.4-4.5,25.3-12.5v1.7c0,13.8-8.6,22.7-22,22.7c-9,0-16.6-4-20.1-10.6l-0.2-0.3h-12.9l0.3,0.9c2.3,6.6,6.5,12.1,12.1,15.9
		c5.7,3.8,12.9,5.8,20.8,5.8c10.2,0,18.8-3.2,25-9.4c6.2-6.1,9.5-14.7,9.5-24.8V25.2H294.8z M287.8,75.5c-5.3,5.1-12.9,7.2-20.8,5.8
		c-9.5-1.6-16.9-9.3-18.2-19.1c-1.1-7.9,1.3-15.4,6.5-20.6c4.3-4.2,10.1-6.5,16.5-6.5c1.5,0,2.9,0.1,4.4,0.4
		c9.5,1.5,17.1,9.4,18.3,19.2C295.6,62.8,293.2,70.4,287.8,75.5z"/>
	<path class="st0" d="M221.9,0.2c-3.1-0.7-6.3,0.2-8.6,2.4c-2.2,2.2-3.1,5.4-2.4,8.6c0.7,3.3,3.5,6.1,6.8,6.8
		c0.7,0.2,1.4,0.2,2.1,0.2c2.4,0,4.8-0.9,6.5-2.7c2.2-2.2,3.1-5.4,2.4-8.6C228,3.7,225.3,1,221.9,0.2z"/>
	<path class="st0" d="M213.6,80.8h-10.8c-7.7,0-12.3-5.2-12.3-13.9c0-8.5,4.1-18.7,12.5-31l0.1-0.2v-3.5l-35.8-5.1
		c0-3-1.6-5.9-4.2-7.3c-3.2-1.8-6.7-1.8-9.6-0.1c-2.8,1.6-4.5,4.7-4.5,7.9c0,3.7,2.2,7,5.6,8.4l-11.1,56.8h12.4l10.3-54l19.3,3.3
		c-5.2,9.3-7.8,18-7.8,25.8c0,14.4,8.7,23.9,22.8,24.8v0.1h25.5V25.4h-12.5V80.8z"/>
</g>
</svg>
