<svg viewBox="0 0 83 83" fill="none" xmlns="http://www.w3.org/2000/svg">
<path d="M70.1124 19.2943C70.1124 22.852 67.2245 25.7301 63.6681 25.7301C60.1118 25.7301 57.2239 22.852 57.2239 19.2943C57.2239 15.7366 60.1118 12.8717 63.6681 12.8717C67.2245 12.8717 70.1124 15.7499 70.1124 19.2943ZM83.0009 35.817V2.75823C83.0009 1.2392 81.7575 0 80.2334 0H47.0762C45.552 0 44.3086 1.2392 44.3086 2.75823V35.817C44.3086 37.336 45.552 38.5752 47.0762 38.5752H80.2334C81.7709 38.5752 83.0009 37.336 83.0009 35.817Z" fill="#2459D1"/>
<path d="M19.3462 0.0136719C8.66366 0.0136719 0 8.64812 0 19.2946C0 29.9411 8.66366 38.5756 19.3462 38.5756C30.0287 38.5756 38.6923 29.9411 38.6923 19.2946C38.679 8.64812 30.0287 0.0136719 19.3462 0.0136719Z" fill="#29B57D"/>
<path d="M35.9248 44.4238H2.76756C1.2434 44.4238 0 45.663 0 47.1821V63.7048C0 74.3513 8.66366 82.9857 19.3462 82.9857C30.0287 82.9857 38.6923 74.3513 38.6923 63.7048V47.1821C38.679 45.663 37.4489 44.4238 35.9248 44.4238Z" fill="#F7C22E"/>
<path d="M83.0009 63.7851V63.7184C83.0009 53.072 74.3373 44.4375 63.6548 44.4375C52.9723 44.4375 44.3086 53.072 44.3086 63.7184C44.3086 74.3649 52.9723 82.9994 63.6548 82.9994H80.2334C81.7575 82.9994 83.0009 81.7602 83.0009 80.2412V63.7851V63.7851Z" fill="#ED475C"/>
</svg>
