<?xml version="1.0" encoding="UTF-8"?>
<svg id="Layer_1" xmlns="http://www.w3.org/2000/svg" version="1.1" viewBox="0 0 655 655">
  <!-- Generator: Adobe Illustrator 29.2.1, SVG Export Plug-In . SVG Version: 2.1.0 Build 116)  -->
  <defs>
    <style>
      .st0 {
        fill: #0d1a28;
      }

      .st1 {
        fill: #59b281;
      }

      .st2 {
        fill: #c8463a;
      }
    </style>
  </defs>
  <path class="st0" d="M601.5,0H54.5C24.6,0,.5,24.3.5,54.1v547c0,29.8,24.2,54,54,54h547c29.8,0,54-24.2,54-54V54.1c0-29.8-24.2-54-54-54h0ZM545.7,515.1h-144.7c-9.3,0-18.1-4.4-23.7-11.9l-123.9-163.7c-2-2.6-4.7-6.9-4.7-11.1s3.2-9.2,5.2-11.7l123.4-164.8c5.6-7.4,14.4-11.8,23.7-11.8h144.7c12.3,0,19.2,14.2,11.8,24l-123.4,164.3,123.4,162.5c7.5,9.9.5,24.2-11.8,24.2Z"/>
  <path class="st1" d="M182.3,140.1c-48.1,0-87,39-87,87s39,87,87,87,87-39,87-87-39-87-87-87h0Z"/>
  <path class="st2" d="M182.3,515.1c-48.1,0-87-38.9-87-87s39-87,87-87,87,38.9,87,87-39,87-87,87h0Z"/>
</svg>
