<?xml version="1.0" standalone="no"?>
<!DOCTYPE svg PUBLIC "-//W3C//DTD SVG 20010904//EN"
 "http://www.w3.org/TR/2001/REC-SVG-20010904/DTD/svg10.dtd">
<svg version="1.0" xmlns="http://www.w3.org/2000/svg"
 width="2558.000000pt" height="950.000000pt" viewBox="0 0 2558.000000 950.000000"
 preserveAspectRatio="xMidYMid meet">

<g transform="translate(0.000000,950.000000) scale(0.100000,-0.100000)"
fill="#000000" stroke="none">
<path d="M2895 7403 c-11 -3 -27 -11 -35 -18 -8 -7 -37 -25 -65 -40 -27 -14
-68 -37 -90 -50 -22 -13 -56 -33 -75 -43 -19 -10 -81 -46 -138 -80 -56 -34
-106 -62 -111 -62 -4 0 -28 -16 -54 -36 -71 -56 -78 -83 -76 -303 2 -243 -13
-296 -111 -385 -127 -115 -288 -121 -455 -17 -22 13 -89 51 -148 83 -89 48
-117 58 -156 58 -30 0 -53 -6 -61 -15 -6 -8 -22 -17 -33 -21 -12 -4 -38 -17
-57 -30 -19 -13 -42 -24 -51 -24 -9 0 -22 -6 -28 -14 -7 -8 -58 -40 -114 -72
-56 -31 -118 -67 -137 -79 -19 -12 -61 -37 -93 -55 -35 -19 -68 -47 -84 -71
l-25 -38 1 -353 2 -353 25 -36 c22 -33 153 -116 361 -229 15 -9 62 -35 103
-60 188 -111 201 -112 329 -44 47 25 93 52 101 60 15 13 81 50 145 82 17 8 37
21 45 28 8 7 47 29 85 49 189 100 189 101 190 381 l0 211 31 59 c41 78 95 132
167 166 52 25 70 28 153 28 l94 0 93 -51 c50 -29 120 -69 154 -91 99 -61 154
-79 199 -66 38 10 190 92 359 194 50 30 107 61 128 70 20 9 37 20 37 24 0 5 9
12 21 15 29 10 87 63 105 96 11 23 14 91 14 372 l0 344 -29 39 c-25 35 -126
103 -274 184 -15 8 -78 44 -139 80 -195 114 -209 120 -247 119 -20 -1 -45 -4
-56 -6z"/>
<path d="M4425 6494 c-20 -15 -145 -87 -255 -147 -30 -17 -68 -39 -83 -49 -15
-11 -53 -34 -85 -50 -96 -51 -139 -81 -163 -117 -23 -33 -24 -43 -29 -256 l-5
-221 -34 -65 c-44 -84 -53 -93 -141 -145 -72 -43 -77 -44 -160 -44 -73 0 -94
4 -145 28 -56 27 -226 123 -280 158 -37 24 -91 33 -133 22 -32 -9 -83 -36
-212 -111 -19 -11 -55 -31 -80 -44 -25 -13 -63 -35 -85 -48 -22 -14 -50 -29
-63 -35 -13 -5 -43 -24 -67 -40 -24 -17 -48 -30 -53 -30 -22 0 -89 -91 -96
-127 -3 -21 -6 -176 -6 -344 0 -338 2 -349 62 -409 18 -18 47 -39 65 -46 17
-8 34 -18 37 -23 3 -5 17 -11 30 -15 13 -3 48 -22 77 -42 30 -20 74 -47 99
-60 117 -63 178 -97 210 -119 19 -13 54 -29 76 -35 51 -15 113 2 192 55 29 19
72 44 95 55 23 11 62 31 87 45 119 66 239 71 345 15 65 -34 115 -76 115 -96 0
-7 11 -25 23 -41 38 -45 47 -107 47 -306 0 -273 -8 -259 230 -390 30 -16 79
-45 109 -64 29 -19 86 -52 125 -72 96 -52 147 -81 171 -97 11 -8 33 -14 50
-14 32 0 133 47 215 100 25 16 63 38 85 49 22 12 58 32 80 45 22 13 72 41 110
63 221 125 205 85 205 524 0 339 0 345 -23 381 -26 43 -60 71 -119 98 -24 11
-61 32 -83 45 -22 14 -53 32 -70 40 -16 8 -59 33 -95 55 -196 119 -258 150
-297 150 -34 0 -203 -81 -248 -119 -11 -10 -55 -35 -97 -56 -107 -53 -195 -59
-296 -21 -207 80 -286 324 -163 510 47 72 109 115 195 138 88 23 119 23 187
-1 67 -23 143 -63 316 -165 80 -47 125 -47 208 0 33 18 75 40 93 49 17 8 56
31 85 49 30 19 71 44 92 56 222 125 264 152 289 190 l26 40 0 352 c0 403 4
382 -94 447 -28 19 -70 47 -93 63 -23 15 -47 28 -54 28 -6 0 -42 20 -78 44
-36 24 -125 75 -196 115 -113 62 -137 71 -180 71 -29 -1 -58 -7 -70 -16z"/>
<path d="M17187 6424 c-57 -18 -120 -77 -148 -137 -28 -62 -25 -160 5 -229 88
-198 398 -201 497 -6 24 47 29 70 29 129 0 95 -37 163 -117 216 -50 34 -61 37
-136 40 -54 2 -98 -2 -130 -13z"/>
<path d="M19502 6424 c-66 -17 -134 -71 -161 -128 -15 -31 -21 -62 -21 -115 0
-63 4 -82 32 -133 47 -88 104 -125 209 -134 96 -9 197 23 239 76 48 61 70 118
70 187 0 130 -73 225 -194 250 -76 16 -107 15 -174 -3z"/>
<path d="M8080 6370 c-96 -13 -345 -86 -375 -110 -5 -4 -41 -24 -80 -45 -38
-20 -79 -44 -90 -54 -11 -9 -32 -25 -46 -34 -57 -35 -187 -165 -254 -253 -100
-132 -192 -321 -229 -469 -9 -33 -22 -82 -29 -110 -26 -90 -50 -379 -43 -505
9 -147 34 -354 46 -383 6 -12 19 -53 29 -92 50 -184 125 -340 230 -476 64 -81
215 -224 288 -272 93 -61 255 -147 276 -147 9 0 58 -13 109 -29 109 -34 257
-51 443 -51 155 0 372 23 411 43 16 8 51 19 77 26 71 17 221 92 307 153 93 66
244 223 290 303 57 99 140 310 140 357 0 46 -11 48 -230 48 -203 0 -207 0
-228 -23 -12 -13 -22 -28 -22 -34 0 -14 -59 -137 -85 -178 -65 -101 -195 -212
-295 -253 -141 -56 -195 -66 -375 -65 -143 0 -184 4 -255 22 -101 27 -122 35
-272 112 -20 10 -77 57 -125 103 -134 127 -220 281 -277 496 -69 262 -63 601
15 875 45 156 122 294 228 409 48 51 176 147 232 174 152 72 248 92 443 92
214 -1 324 -25 447 -98 144 -85 279 -255 318 -398 16 -60 32 -64 262 -64 l199
0 12 25 c9 20 7 37 -11 90 -11 36 -21 72 -21 80 0 20 -107 228 -150 290 -72
106 -258 262 -380 318 -136 62 -170 75 -221 87 -30 6 -76 19 -104 27 -59 18
-498 27 -605 13z"/>
<path d="M18325 6042 c-108 -2 -143 -6 -156 -18 -13 -11 -19 -41 -24 -117 -13
-178 -41 -356 -61 -378 -15 -17 -31 -19 -159 -19 -192 0 -183 8 -186 -178 -3
-122 -1 -145 14 -159 14 -14 43 -18 172 -21 101 -3 158 -8 164 -16 6 -7 11
-255 14 -636 4 -612 4 -627 26 -700 12 -41 34 -99 49 -129 29 -57 173 -211
198 -211 8 0 32 -9 53 -19 54 -28 238 -52 446 -58 174 -5 181 -5 208 17 l27
21 0 149 c0 125 -3 150 -17 161 -12 10 -65 15 -197 19 -171 5 -184 7 -231 32
-65 34 -99 71 -119 132 -14 44 -16 120 -16 632 0 510 2 583 15 594 12 10 74
13 248 12 128 -1 252 2 277 6 l45 7 5 154 c4 117 2 158 -8 172 -12 18 -31 19
-281 19 -247 0 -269 1 -284 18 -15 16 -17 49 -17 248 0 241 -3 257 -45 265
-11 2 -83 3 -160 1z"/>
<path d="M10688 5549 c-216 -28 -415 -127 -576 -287 -277 -274 -379 -721 -266
-1166 65 -261 243 -494 476 -626 160 -92 322 -130 551 -130 202 0 375 46 536
142 92 55 266 220 318 300 82 128 135 267 172 453 17 84 10 384 -12 500 -39
204 -179 444 -339 584 -135 117 -318 200 -508 230 -76 13 -255 12 -352 0z
m324 -375 c198 -63 292 -142 379 -321 70 -145 93 -263 85 -448 -10 -244 -85
-422 -233 -555 -72 -65 -126 -94 -228 -125 -81 -25 -100 -27 -195 -22 -115 6
-192 30 -279 89 -157 105 -244 247 -285 463 -52 268 -7 513 127 698 82 113
197 188 347 226 107 28 183 26 282 -5z"/>
<path d="M13011 5549 c-72 -9 -196 -45 -292 -87 -72 -31 -177 -107 -263 -191
-208 -199 -309 -441 -323 -771 -8 -205 41 -424 132 -590 60 -107 75 -129 149
-214 121 -136 315 -254 491 -297 67 -16 131 -23 248 -27 140 -4 168 -2 250 19
95 23 211 68 256 98 14 10 45 30 68 46 23 15 76 63 117 107 41 44 81 78 88 76
10 -4 14 -41 16 -154 5 -236 -32 -377 -139 -535 -68 -101 -167 -172 -299 -214
-122 -39 -308 -47 -408 -16 -39 11 -76 21 -84 21 -29 0 -175 79 -221 120 -57
51 -143 169 -152 210 -13 60 -29 65 -224 68 -163 3 -179 2 -201 -16 -23 -19
-24 -21 -12 -73 31 -135 107 -278 203 -383 77 -84 136 -128 259 -193 337 -179
841 -190 1150 -25 30 16 75 40 99 53 63 34 232 205 284 286 81 128 141 298
156 445 7 62 11 477 11 1131 0 989 -1 1035 -18 1050 -16 14 -43 17 -175 17
-206 0 -191 13 -214 -200 -8 -71 -9 -75 -34 -78 -21 -2 -34 6 -65 43 -73 90
-215 182 -355 231 -141 49 -314 64 -498 43z m408 -378 c177 -37 347 -169 429
-333 54 -109 69 -170 77 -319 8 -149 -6 -272 -41 -345 -13 -28 -24 -55 -24
-61 0 -16 -79 -125 -128 -177 -71 -73 -140 -120 -228 -156 -70 -28 -93 -33
-205 -37 -190 -8 -289 16 -435 109 -82 53 -178 167 -227 272 -85 184 -89 470
-10 660 45 107 141 225 238 293 146 100 355 135 554 94z"/>
<path d="M15720 5548 c-41 -5 -84 -15 -96 -23 -11 -7 -41 -19 -65 -25 -24 -7
-50 -17 -58 -23 -7 -6 -28 -18 -47 -27 -49 -22 -155 -117 -199 -177 -21 -29
-45 -53 -52 -53 -21 0 -32 42 -39 147 -10 142 -11 143 -202 143 -112 0 -153
-3 -168 -14 -19 -14 -19 -38 -22 -1018 -1 -552 0 -1017 3 -1035 11 -60 19 -63
204 -63 161 0 168 1 189 23 21 22 21 26 25 642 4 592 5 623 25 693 30 109 87
216 150 284 73 78 119 108 225 146 76 28 101 32 187 32 85 0 110 -4 180 -30
45 -17 91 -37 103 -45 91 -64 163 -177 193 -305 16 -67 18 -146 21 -720 2
-355 5 -655 8 -667 11 -47 23 -50 207 -52 167 -2 175 -1 193 20 19 21 20 40
19 703 -1 716 -6 817 -46 926 -74 202 -124 275 -270 391 -141 113 -395 161
-668 127z"/>
<path d="M21016 5549 c-43 -5 -106 -17 -140 -28 -34 -10 -74 -22 -91 -26 -16
-4 -37 -12 -45 -19 -8 -7 -35 -21 -60 -30 -25 -10 -47 -21 -50 -25 -3 -3 -31
-24 -63 -45 -160 -110 -331 -338 -373 -501 -7 -27 -23 -77 -35 -110 -18 -51
-22 -89 -27 -256 -5 -218 4 -317 45 -444 25 -80 36 -107 51 -135 5 -8 24 -44
42 -80 52 -101 157 -225 260 -304 55 -43 192 -118 285 -155 75 -30 227 -51
366 -51 139 1 324 28 360 54 13 9 30 16 38 16 23 0 121 49 195 98 88 57 235
205 278 280 56 98 66 116 78 142 7 14 20 43 31 65 10 22 23 60 28 85 5 25 16
77 25 115 11 50 16 124 16 256 0 163 -3 200 -25 297 -14 60 -34 131 -45 157
-11 26 -20 51 -20 57 0 5 -33 60 -74 121 -175 266 -395 411 -700 466 -68 12
-233 12 -350 0z m294 -369 c34 -11 70 -20 79 -20 30 0 178 -99 222 -149 87
-97 160 -252 179 -381 22 -146 8 -393 -25 -456 -8 -16 -15 -35 -15 -43 0 -8
-15 -46 -34 -85 -42 -89 -162 -220 -243 -267 -196 -113 -445 -102 -629 27
-222 156 -322 459 -270 813 17 111 29 149 83 256 81 161 232 272 423 310 95
19 159 18 230 -5z"/>
<path d="M23516 5550 c-79 -10 -125 -25 -244 -82 -64 -30 -102 -57 -167 -119
-47 -45 -87 -89 -90 -99 -7 -23 -35 -34 -49 -20 -12 12 -35 151 -36 212 0 61
-20 68 -191 68 -130 0 -150 -2 -170 -19 l-24 -19 -3 -1021 -3 -1021 25 -25
c25 -25 26 -25 206 -25 l180 0 10 26 c6 15 10 250 10 597 0 318 5 599 10 632
29 181 70 279 157 378 41 47 144 124 189 141 101 39 163 49 262 43 193 -11
332 -101 409 -264 57 -118 62 -198 63 -895 0 -419 3 -604 11 -622 6 -13 21
-27 33 -30 31 -9 339 -7 353 2 6 4 16 19 21 32 6 16 7 300 2 755 l-8 730 -30
100 c-52 174 -94 245 -214 362 -132 128 -275 181 -508 188 -74 2 -166 0 -204
-5z"/>
<path d="M17120 5503 c-14 -3 -28 -10 -32 -17 -4 -6 -8 -473 -8 -1037 0 -861
2 -1028 14 -1044 12 -17 31 -20 180 -23 91 -3 176 -2 189 2 13 3 29 17 35 31
9 19 12 287 12 1045 l0 1019 -22 15 c-18 13 -52 16 -183 15 -88 -1 -171 -4
-185 -6z"/>
<path d="M19417 5503 c-10 -3 -22 -16 -28 -29 -5 -15 -9 -423 -9 -1025 0
-1083 -2 -1051 53 -1064 12 -3 93 -4 180 -2 122 3 162 7 173 19 13 12 15 151
14 1049 0 957 -1 1035 -17 1047 -12 8 -64 12 -182 11 -91 -1 -174 -3 -184 -6z"/>
<path d="M1314 4697 c-22 -12 -65 -35 -95 -51 -30 -15 -63 -36 -74 -46 -11
-10 -31 -21 -45 -25 -14 -4 -32 -13 -40 -19 -17 -14 -127 -79 -150 -90 -63
-28 -150 -90 -177 -125 l-33 -43 0 -343 c0 -435 -12 -403 196 -520 40 -22 157
-89 260 -150 172 -100 193 -109 239 -109 39 0 61 7 100 31 79 50 277 159 315
174 51 20 155 15 222 -10 73 -28 146 -94 181 -163 34 -68 47 -169 47 -375 0
-147 1 -152 25 -181 21 -25 95 -75 190 -128 11 -6 40 -22 65 -36 25 -14 106
-60 180 -103 187 -108 180 -105 225 -105 41 0 80 16 176 72 30 18 102 60 160
92 202 114 305 182 333 219 20 27 21 41 24 350 2 177 0 341 -3 365 -7 49 -49
102 -104 133 -20 11 -54 31 -76 45 -22 13 -58 33 -80 44 -22 11 -62 34 -90 51
-27 18 -84 50 -125 72 -41 22 -87 48 -102 59 -15 10 -45 25 -68 33 -37 13 -45
13 -90 -5 -48 -19 -187 -94 -240 -130 -14 -9 -52 -30 -85 -45 -53 -26 -71 -29
-155 -29 -92 0 -97 1 -157 37 -76 46 -126 103 -155 176 -19 49 -22 80 -25 261
-2 113 -9 217 -14 232 -18 46 -60 77 -259 189 -41 23 -86 50 -100 59 -26 18
-144 83 -195 108 -16 9 -41 24 -54 34 -32 25 -96 23 -147 -5z"/>
</g>
</svg>
