<?xml version="1.0" encoding="UTF-8"?>
<svg version="1.1" xmlns="http://www.w3.org/2000/svg" width="200" height="200">
<path d="M0 0 C0.83563477 0.48364014 1.67126953 0.96728027 2.53222656 1.46557617 C3.45132813 1.99344727 4.37042969 2.52131836 5.31738281 3.06518555 C6.73083984 3.90339844 6.73083984 3.90339844 8.17285156 4.75854492 C9.130625 5.30575195 10.08839844 5.85295898 11.07519531 6.41674805 C18.14579583 10.53046132 18.14579583 10.53046132 20.42285156 13.94604492 C20.89353119 18.41038183 20.7932048 22.89709533 20.79785156 27.38354492 C20.82234375 28.62426758 20.84683594 29.86499023 20.87207031 31.14331055 C20.8759375 32.33504883 20.87980469 33.52678711 20.88378906 34.75463867 C20.89200684 35.84574951 20.90022461 36.93686035 20.90869141 38.06103516 C20.30138366 41.66734454 19.25582587 42.69806142 16.42285156 44.94604492 C13.24758942 47.08678617 9.89528544 48.90127461 6.54785156 50.75854492 C5.66226563 51.27352539 4.77667969 51.78850586 3.86425781 52.3190918 C-2.64368609 55.94162093 -2.64368609 55.94162093 -6.87402344 55.96166992 C-9.80145809 54.86176673 -12.29493214 53.53164242 -14.95214844 51.88354492 C-21.00450789 48.45442279 -24.64169254 48.00495764 -31.45214844 49.63354492 C-34.35185521 51.42454028 -34.78633636 52.63901261 -35.57714844 55.94604492 C-36.01538753 60.55221755 -36.07283499 64.90540955 -33.57714844 68.94604492 C-29.60520261 71.39930558 -25.09902792 71.9340792 -20.57714844 70.94604492 C-17.14558115 69.28212898 -13.89260687 67.44783061 -10.62792969 65.47729492 C-7.39030991 63.85226681 -6.10950599 63.58584709 -2.57714844 63.94604492 C-0.00585938 65.10766602 -0.00585938 65.10766602 2.68847656 66.71948242 C4.14640625 67.58573242 4.14640625 67.58573242 5.63378906 68.46948242 C6.63667969 69.08049805 7.63957031 69.69151367 8.67285156 70.32104492 C9.69121094 70.92432617 10.70957031 71.52760742 11.75878906 72.14916992 C19.28111049 76.66256278 19.28111049 76.66256278 20.42285156 78.94604492 C20.74827447 83.37715158 20.74740525 87.81697637 20.79785156 92.25854492 C20.85392578 94.11382812 20.85392578 94.11382812 20.91113281 96.0065918 C20.99916498 105.05923263 20.99916498 105.05923263 18.45800781 108.96948242 C14.52411975 111.53131943 10.59791744 113.99243719 6.48535156 116.25854492 C5.69966797 116.71293945 4.91398437 117.16733398 4.10449219 117.63549805 C3.33427734 118.06411133 2.5640625 118.49272461 1.77050781 118.93432617 C1.07965088 119.32144775 0.38879395 119.70856934 -0.32299805 120.10742188 C-4.19788486 121.54901574 -7.33755018 121.45299317 -11.15429688 119.89208984 C-11.98993164 119.40844971 -12.82556641 118.92480957 -13.68652344 118.42651367 C-14.605625 117.89864258 -15.52472656 117.37077148 -16.47167969 116.8269043 C-17.88513672 115.98869141 -17.88513672 115.98869141 -19.32714844 115.13354492 C-20.76380859 114.31273437 -20.76380859 114.31273437 -22.22949219 113.4753418 C-29.30009271 109.36162852 -29.30009271 109.36162852 -31.57714844 105.94604492 C-31.83155448 102.40980094 -31.94331517 98.91326488 -31.96777344 95.36987305 C-32.13305885 90.14042631 -33.12976111 87.110024 -36.57714844 82.94604492 C-40.41153748 81.0288504 -44.41863392 81.23078042 -48.57714844 81.94604492 C-51.80532958 83.60058889 -54.7376365 85.44649138 -57.71777344 87.51245117 C-61.43730108 89.37729632 -62.62323038 89.25460352 -66.57714844 87.94604492 C-70.1024568 86.13618343 -73.46091236 84.09667839 -76.82714844 82.00854492 C-78.19226563 81.18193359 -78.19226563 81.18193359 -79.58496094 80.33862305 C-86.25976749 76.26342587 -86.25976749 76.26342587 -88.57714844 73.94604492 C-89.09331711 69.34042201 -88.99399383 64.70226646 -89.01464844 60.07104492 C-89.04751953 58.77811523 -89.08039063 57.48518555 -89.11425781 56.15307617 C-89.12134766 54.91170898 -89.1284375 53.6703418 -89.13574219 52.39135742 C-89.15592407 50.68230225 -89.15592407 50.68230225 -89.17651367 48.9387207 C-88.57714844 45.94604492 -88.57714844 45.94604492 -86.31933594 43.72021484 C-85.41441406 43.13473877 -84.50949219 42.5492627 -83.57714844 41.94604492 C-82.84568604 41.45773193 -82.11422363 40.96941895 -81.3605957 40.46630859 C-78.96376872 39.00435235 -76.55555918 37.5637492 -74.13964844 36.13354492 C-73.30626953 35.61856445 -72.47289063 35.10358398 -71.61425781 34.57299805 C-65.47946196 30.95031623 -65.47946196 30.95031623 -61.27636719 30.93041992 C-58.44844723 31.99447085 -56.28787747 33.26208791 -53.82714844 35.00854492 C-49.37064639 37.79133805 -46.03133685 38.80320034 -40.78027344 38.48120117 C-37.30111748 37.63608705 -35.65412568 35.76001409 -33.57714844 32.94604492 C-31.72922907 29.25020618 -32.3302163 24.44204982 -32.32324219 20.33081055 C-32.19425745 16.42393069 -31.95117693 14.45601697 -29.58886719 11.23510742 C-25.77352255 8.33524755 -21.83254444 5.94391619 -17.63964844 3.63354492 C-16.85396484 3.17915039 -16.06828125 2.72475586 -15.25878906 2.2565918 C-14.48857422 1.82797852 -13.71835938 1.39936523 -12.92480469 0.95776367 C-12.23394775 0.57064209 -11.54309082 0.18352051 -10.83129883 -0.21533203 C-6.95641202 -1.6569259 -3.8167467 -1.56090332 0 0 Z " fill="#1DC19C" transform="translate(162.5771484375,40.053955078125)"/>
<path d="M0 0 C3.74123537 1.79457632 7.30470699 3.82622096 10.875 5.9375 C11.83664063 6.48857422 12.79828125 7.03964844 13.7890625 7.60742188 C20.85799449 11.71598899 20.85799449 11.71598899 22 14 C22.16676924 17.75416098 22.29681459 21.50224523 22.34179688 25.25976562 C22.5235672 30.4211973 23.12229731 33.24644222 27 37 C30.29819757 39.3087383 33.03732937 39.3168245 37 39 C40.28525138 37.50041881 40.28525138 37.50041881 43.5 35.5 C48.02850122 32.78289927 50.7207859 31.57136353 56 32 C58.57714844 33.05395508 58.57714844 33.05395508 61.109375 34.51953125 C62.02847656 35.04740234 62.94757813 35.57527344 63.89453125 36.11914062 C65.30798828 36.95735352 65.30798828 36.95735352 66.75 37.8125 C68.18666016 38.63331055 68.18666016 38.63331055 69.65234375 39.47070312 C76.72294427 43.5844164 76.72294427 43.5844164 79 47 C79.47067962 51.46433691 79.37035324 55.95105041 79.375 60.4375 C79.39949219 61.67822266 79.42398438 62.91894531 79.44921875 64.19726562 C79.45308594 65.38900391 79.45695312 66.58074219 79.4609375 67.80859375 C79.46915527 68.89970459 79.47737305 69.99081543 79.48583984 71.11499023 C78.87853209 74.72129962 77.8329743 75.75201649 75 78 C71.82473785 80.14074125 68.47243388 81.95522969 65.125 83.8125 C63.79662109 84.5849707 63.79662109 84.5849707 62.44140625 85.37304688 C55.99875024 88.95923468 55.99875024 88.95923468 51.9375 89.125 C47.69780344 87.50128642 43.81477243 85.43374872 39.875 83.1875 C39.07707031 82.74857422 38.27914062 82.30964844 37.45703125 81.85742188 C29.14062114 77.18551536 29.14062114 77.18551536 27 74 C26.62658526 71.08504929 26.4399874 68.47524564 26.4375 65.5625 C26.42795462 58.30303011 26.42795462 58.30303011 23 52 C19.77136992 49.79866131 17.72521499 49.0142199 13.8125 48.9375 C9.28785293 50.19846722 5.72879624 52.265982 1.74609375 54.72265625 C-1.50599834 56.2353648 -3.43755257 56.26857201 -7 56 C-9.57714844 54.94604492 -9.57714844 54.94604492 -12.109375 53.48046875 C-13.48802734 52.68866211 -13.48802734 52.68866211 -14.89453125 51.88085938 C-16.30798828 51.04264648 -16.30798828 51.04264648 -17.75 50.1875 C-18.70777344 49.64029297 -19.66554688 49.09308594 -20.65234375 48.52929688 C-27.72294427 44.4155836 -27.72294427 44.4155836 -30 41 C-30.47067962 36.53566309 -30.37035324 32.04894959 -30.375 27.5625 C-30.39949219 26.32177734 -30.42398437 25.08105469 -30.44921875 23.80273438 C-30.45308594 22.61099609 -30.45695312 21.41925781 -30.4609375 20.19140625 C-30.46915527 19.10029541 -30.47737305 18.00918457 -30.48583984 16.88500977 C-29.87948044 13.28433182 -28.81914514 12.252858 -26 10 C-23.00674479 7.87786643 -19.84758852 6.04965178 -16.6875 4.1875 C-15.85798828 3.67251953 -15.02847656 3.15753906 -14.17382812 2.62695312 C-9.05944316 -0.3883946 -5.91199308 -1.97712555 0 0 Z " fill="#1695E1" transform="translate(47,105)"/>
<path d="M0 0 C0.84199951 0.48476807 1.68399902 0.96953613 2.55151367 1.46899414 C3.93693359 2.26273438 3.93693359 2.26273438 5.3503418 3.07250977 C6.2971582 3.62745117 7.24397461 4.18239258 8.21948242 4.75415039 C9.66871094 5.58076172 9.66871094 5.58076172 11.1472168 6.42407227 C18.27062475 10.54393505 18.27062475 10.54393505 19.40698242 12.81665039 C19.73240533 17.24775704 19.73153611 21.68758184 19.78198242 26.12915039 C19.83805664 27.98443359 19.83805664 27.98443359 19.89526367 29.87719727 C19.98329584 38.9298381 19.98329584 38.9298381 17.44213867 42.84008789 C13.50825061 45.4019249 9.5820483 47.86304266 5.46948242 50.12915039 C4.68379883 50.58354492 3.89811523 51.03793945 3.08862305 51.50610352 C-1.22991789 53.9093083 -4.53417201 55.72821679 -9.59301758 54.81665039 C-13.00068037 53.19552926 -16.13985173 51.2885499 -19.37426758 49.34790039 C-22.83759352 47.70029873 -24.81385159 47.36800638 -28.59301758 47.81665039 C-32.25083938 49.85658947 -34.26247932 51.32084301 -36.59301758 54.81665039 C-36.89292234 56.77869306 -36.89292234 56.77869306 -36.86645508 58.90649414 C-36.88708008 59.69088867 -36.90770508 60.4752832 -36.92895508 61.28344727 C-36.95493334 62.92657219 -36.97320066 64.56983766 -36.98364258 66.21313477 C-37.0068457 66.99881836 -37.03004883 67.78450195 -37.05395508 68.59399414 C-37.06628174 69.66508423 -37.06628174 69.66508423 -37.07885742 70.7578125 C-37.99956736 74.44458691 -40.74542582 76.2452095 -43.7878418 78.29638672 C-46.33863353 79.75809119 -48.89726351 81.20280849 -51.46801758 82.62915039 C-52.79639648 83.40162109 -52.79639648 83.40162109 -54.15161133 84.18969727 C-55.01657227 84.67116211 -55.8815332 85.15262695 -56.77270508 85.64868164 C-57.55371582 86.08929932 -58.33472656 86.52991699 -59.1394043 86.98388672 C-63.22473909 88.37046154 -66.34917114 87.3842922 -70.18603516 85.63330078 C-71.02803467 85.14853271 -71.87003418 84.66376465 -72.73754883 84.16430664 C-73.66116211 83.63514648 -74.58477539 83.10598633 -75.53637695 82.56079102 C-76.48319336 82.00584961 -77.43000977 81.4509082 -78.40551758 80.87915039 C-79.85474609 80.05253906 -79.85474609 80.05253906 -81.33325195 79.20922852 C-88.45665991 75.08936573 -88.45665991 75.08936573 -89.59301758 72.81665039 C-89.91844049 68.38554374 -89.91757127 63.94571894 -89.96801758 59.50415039 C-90.00540039 58.26729492 -90.0427832 57.03043945 -90.08129883 55.75610352 C-90.16933099 46.70346268 -90.16933099 46.70346268 -87.62817383 42.79321289 C-83.69428577 40.23137588 -79.76808346 37.77025812 -75.65551758 35.50415039 C-74.86983398 35.04975586 -74.08415039 34.59536133 -73.2746582 34.12719727 C-68.95994444 31.72612224 -65.6476066 29.8963666 -60.59301758 30.81665039 C-57.44458008 32.38305664 -57.44458008 32.38305664 -54.21801758 34.37915039 C-48.97351451 37.46615015 -48.97351451 37.46615015 -43.09301758 38.00415039 C-39.44309875 36.76578507 -37.2713996 35.57619551 -34.59301758 32.81665039 C-33.10827422 28.36242033 -33.31029355 23.73145204 -33.2512207 19.06469727 C-33.22350586 18.32413086 -33.19579102 17.58356445 -33.16723633 16.82055664 C-33.15265381 16.14839111 -33.13807129 15.47622559 -33.12304688 14.78369141 C-32.15263804 11.18231692 -29.38729997 9.35215045 -26.39819336 7.33691406 C-23.84740162 5.87520959 -21.28877165 4.4304923 -18.71801758 3.00415039 C-17.83243164 2.48916992 -16.9468457 1.97418945 -16.03442383 1.44360352 C-14.73698242 0.72140625 -14.73698242 0.72140625 -13.41333008 -0.01538086 C-12.63231934 -0.45599854 -11.85130859 -0.89661621 -11.04663086 -1.35058594 C-6.96129607 -2.73716076 -3.83686401 -1.75099142 0 0 Z " fill="#2A6CCE" transform="translate(106.593017578125,8.183349609375)"/>
</svg>
