<?xml version="1.0" standalone="no"?>
<!DOCTYPE svg PUBLIC "-//W3C//DTD SVG 20010904//EN"
 "http://www.w3.org/TR/2001/REC-SVG-20010904/DTD/svg10.dtd">
<svg version="1.0" xmlns="http://www.w3.org/2000/svg"
 width="1280.000000pt" height="436.000000pt" viewBox="0 0 1280.000000 436.000000"
 preserveAspectRatio="xMidYMid meet">
<metadata>
Created by potrace 1.15, written by Peter Selinger 2001-2017
</metadata>
<g transform="translate(0.000000,436.000000) scale(0.100000,-0.100000)"
fill="#000000" stroke="none">
<path d="M5535 3847 c-68 -16 -559 -147 -575 -154 -8 -3 -22 -7 -30 -8 -44 -5
-149 -39 -147 -48 1 -5 -4 -12 -12 -15 -8 -3 -11 0 -7 7 4 6 3 11 -2 11 -6 0
-254 -66 -553 -146 -688 -184 -755 -202 -806 -215 -24 -6 -43 -16 -43 -21 0
-5 -5 -6 -10 -3 -6 4 -34 0 -63 -9 -64 -18 -313 -84 -347 -91 -50 -11 -60 -17
-60 -33 0 -14 -2 -14 -9 -3 -9 14 -9 14 -123 -16 -10 -2 -18 -12 -18 -21 0
-14 -2 -14 -9 -3 -10 15 -61 8 -61 -8 0 -5 -8 -7 -17 -5 -10 2 -49 -4 -88 -14
-64 -17 -70 -21 -67 -43 2 -21 1 -22 -8 -6 -11 16 -60 25 -60 10 0 -5 -12 -8
-28 -9 -15 -1 -53 -9 -85 -18 -50 -14 -57 -20 -52 -36 5 -16 2 -20 -15 -20
-15 0 -20 5 -17 14 4 11 -2 12 -28 6 -42 -10 -55 -18 -55 -36 0 -8 -5 -12 -10
-9 -6 4 -7 11 -4 17 4 6 1 9 -7 6 -8 -3 -14 -18 -14 -36 1 -19 -4 -32 -11 -32
-7 0 -19 -3 -27 -6 -10 -3 -14 0 -14 12 1 9 -5 19 -13 21 -13 4 -13 3 0 -6 13
-10 13 -11 0 -12 -8 -1 -20 -1 -26 0 -6 1 -17 -6 -24 -14 -7 -8 -19 -15 -27
-15 -8 0 -12 -4 -9 -8 3 -5 -1 -9 -8 -9 -8 0 -12 5 -10 11 5 12 -54 42 -63 32
-4 -3 -1 -6 6 -6 7 0 9 -4 6 -10 -8 -14 -42 -13 -47 1 -3 9 -9 9 -25 0 -12 -6
-30 -11 -41 -11 -10 0 -28 -12 -41 -26 -17 -19 -25 -23 -35 -15 -18 15 -106 2
-113 -16 -3 -8 -13 -11 -24 -8 -26 9 -1248 -318 -1260 -337 -4 -5 7 -60 23
-121 16 -62 33 -128 37 -147 13 -54 102 -374 107 -382 3 -4 16 -3 30 2 14 6
30 7 36 4 7 -4 8 5 3 27 -4 19 -11 35 -16 37 -4 2 -6 9 -3 17 3 7 -8 62 -25
122 -51 184 -102 385 -99 389 2 2 67 20 143 39 395 102 1001 268 1005 275 3 5
16 8 30 8 14 -1 57 7 95 18 60 16 73 23 85 49 17 33 55 50 43 18 -4 -10 -11
-21 -17 -25 -22 -15 22 -8 125 21 57 16 160 43 229 61 69 18 129 37 135 42 5
4 18 8 30 8 18 0 354 89 1765 466 1139 305 1364 366 1389 376 14 6 40 12 58
14 29 3 32 0 38 -29 4 -18 13 -41 20 -52 6 -11 16 -42 20 -70 5 -27 10 -42 13
-32 3 15 7 16 18 6 8 -6 18 -9 21 -5 4 4 1 12 -7 17 -12 8 -10 10 8 6 25 -6
27 0 9 25 -7 9 -22 16 -32 15 -11 -1 -20 4 -20 11 0 7 -5 16 -11 20 -6 4 -14
19 -18 34 -5 22 -3 26 9 22 8 -4 15 -15 15 -25 0 -11 7 -19 17 -19 13 0 14 3
5 12 -9 9 -7 14 5 23 13 10 14 18 5 46 -6 19 -13 46 -16 60 -7 33 -20 38 -71
26z m-2935 -827 c0 -5 -7 -7 -15 -4 -8 4 -12 10 -9 15 6 11 24 2 24 -11z
m-750 -200 c0 -5 -5 -10 -11 -10 -5 0 -7 5 -4 10 3 6 8 10 11 10 2 0 4 -4 4
-10z m-340 -114 c0 -3 -4 -8 -10 -11 -5 -3 -10 -1 -10 4 0 6 5 11 10 11 6 0
10 -2 10 -4z m-1100 -510 c0 -3 -4 -8 -10 -11 -5 -3 -10 -1 -10 4 0 6 5 11 10
11 6 0 10 -2 10 -4z m60 -170 c0 -3 -4 -8 -10 -11 -5 -3 -10 -1 -10 4 0 6 5
11 10 11 6 0 10 -2 10 -4z"/>
<path d="M11935 3847 c-68 -16 -559 -147 -575 -154 -8 -3 -22 -7 -30 -8 -44
-5 -149 -39 -147 -48 1 -5 -4 -12 -12 -15 -8 -3 -11 0 -7 7 4 6 3 11 -2 11 -6
0 -254 -66 -553 -146 -688 -184 -755 -202 -806 -215 -24 -6 -43 -16 -43 -21 0
-5 -5 -6 -10 -3 -6 4 -34 0 -63 -9 -64 -18 -313 -84 -347 -91 -50 -11 -60 -17
-60 -33 0 -14 -2 -14 -9 -3 -9 14 -9 14 -123 -16 -10 -2 -18 -12 -18 -21 0
-14 -2 -14 -9 -3 -10 15 -61 8 -61 -8 0 -5 -8 -7 -17 -5 -10 2 -49 -4 -88 -14
-64 -17 -70 -21 -67 -43 2 -21 1 -22 -8 -6 -11 16 -60 25 -60 10 0 -5 -12 -8
-28 -9 -15 -1 -53 -9 -85 -18 -50 -14 -57 -20 -52 -36 5 -16 2 -20 -15 -20
-15 0 -20 5 -17 14 4 11 -2 12 -28 6 -42 -10 -55 -18 -55 -36 0 -8 -5 -12 -10
-9 -6 4 -7 11 -4 17 4 6 1 9 -7 6 -8 -3 -14 -18 -14 -36 1 -19 -4 -32 -11 -32
-7 0 -19 -3 -27 -6 -10 -3 -14 0 -14 12 1 9 -5 19 -13 21 -13 4 -13 3 0 -6 13
-10 13 -11 0 -12 -8 -1 -20 -1 -26 0 -6 1 -17 -6 -24 -14 -7 -8 -19 -15 -27
-15 -8 0 -12 -4 -9 -8 3 -5 -1 -9 -8 -9 -8 0 -12 5 -10 11 5 12 -54 42 -63 32
-4 -3 -1 -6 6 -6 7 0 9 -4 6 -10 -8 -14 -42 -13 -47 1 -3 9 -9 9 -25 0 -12 -6
-30 -11 -41 -11 -10 0 -28 -12 -41 -26 -17 -19 -25 -23 -35 -15 -18 15 -106 2
-113 -16 -3 -8 -13 -11 -24 -8 -26 9 -1248 -318 -1260 -337 -4 -5 7 -60 23
-121 16 -62 33 -128 37 -147 13 -54 102 -374 107 -382 3 -4 16 -3 30 2 14 6
30 7 36 4 7 -4 8 5 3 27 -4 19 -11 35 -16 37 -4 2 -6 9 -3 17 3 7 -8 62 -25
122 -51 184 -102 385 -99 389 2 2 67 20 143 39 395 102 1001 268 1005 275 3 5
16 8 30 8 14 -1 57 7 95 18 60 16 73 23 85 49 17 33 55 50 43 18 -4 -10 -11
-21 -17 -25 -22 -15 22 -8 125 21 57 16 160 43 229 61 69 18 129 37 135 42 5
4 18 8 30 8 18 0 354 89 1765 466 1139 305 1364 366 1389 376 14 6 40 12 58
14 29 3 32 0 38 -29 4 -18 13 -41 20 -52 6 -11 16 -42 20 -70 5 -27 10 -42 13
-32 3 15 7 16 18 6 8 -6 18 -9 21 -5 4 4 1 12 -7 17 -12 8 -10 10 8 6 25 -6
27 0 9 25 -7 9 -22 16 -32 15 -11 -1 -20 4 -20 11 0 7 -5 16 -11 20 -6 4 -14
19 -18 34 -5 22 -3 26 9 22 8 -4 15 -15 15 -25 0 -11 7 -19 17 -19 13 0 14 3
5 12 -9 9 -7 14 5 23 13 10 14 18 5 46 -6 19 -13 46 -16 60 -7 33 -20 38 -71
26z m-2935 -827 c0 -5 -7 -7 -15 -4 -8 4 -12 10 -9 15 6 11 24 2 24 -11z
m-750 -200 c0 -5 -5 -10 -11 -10 -5 0 -7 5 -4 10 3 6 8 10 11 10 2 0 4 -4 4
-10z m-340 -114 c0 -3 -4 -8 -10 -11 -5 -3 -10 -1 -10 4 0 6 5 11 10 11 6 0
10 -2 10 -4z m-1100 -510 c0 -3 -4 -8 -10 -11 -5 -3 -10 -1 -10 4 0 6 5 11 10
11 6 0 10 -2 10 -4z m60 -170 c0 -3 -4 -8 -10 -11 -5 -3 -10 -1 -10 4 0 6 5
11 10 11 6 0 10 -2 10 -4z"/>
<path d="M5468 3713 c-28 -7 -21 -24 8 -21 24 3 29 -3 43 -42 14 -40 16 -42
19 -18 4 31 -23 89 -41 87 -6 -1 -20 -3 -29 -6z"/>
<path d="M11868 3713 c-28 -7 -21 -24 8 -21 24 3 29 -3 43 -42 14 -40 16 -42
19 -18 4 31 -23 89 -41 87 -6 -1 -20 -3 -29 -6z"/>
<path d="M5185 3639 c-121 -33 -566 -152 -990 -265 -423 -113 -792 -212 -820
-220 -47 -13 -521 -140 -1215 -324 -168 -44 -323 -87 -345 -94 -22 -8 -65 -19
-96 -25 -55 -12 -123 -45 -72 -36 40 7 591 154 3068 816 143 39 316 85 385
103 276 73 330 89 330 97 0 13 -8 12 -245 -52z"/>
<path d="M11585 3639 c-121 -33 -566 -152 -990 -265 -423 -113 -792 -212 -820
-220 -47 -13 -521 -140 -1215 -324 -168 -44 -323 -87 -345 -94 -22 -8 -65 -19
-96 -25 -55 -12 -123 -45 -72 -36 40 7 591 154 3068 816 143 39 316 85 385
103 276 73 330 89 330 97 0 13 -8 12 -245 -52z"/>
<path d="M5653 3561 c0 -11 5 -17 9 -15 11 7 10 34 -1 34 -6 0 -9 -9 -8 -19z"/>
<path d="M12053 3561 c0 -11 5 -17 9 -15 11 7 10 34 -1 34 -6 0 -9 -9 -8 -19z"/>
<path d="M5616 3551 c-3 -5 0 -11 7 -14 8 -3 14 1 14 9 0 16 -13 19 -21 5z"/>
<path d="M12016 3551 c-3 -5 0 -11 7 -14 8 -3 14 1 14 9 0 16 -13 19 -21 5z"/>
<path d="M5550 3538 c0 -7 8 -22 17 -33 14 -18 15 -18 9 -2 -3 10 -6 25 -6 33
0 8 -4 14 -10 14 -5 0 -10 -6 -10 -12z"/>
<path d="M11950 3538 c0 -7 8 -22 17 -33 14 -18 15 -18 9 -2 -3 10 -6 25 -6
33 0 8 -4 14 -10 14 -5 0 -10 -6 -10 -12z"/>
<path d="M5605 3520 c3 -5 8 -10 11 -10 2 0 4 5 4 10 0 6 -5 10 -11 10 -5 0
-7 -4 -4 -10z"/>
<path d="M12005 3520 c3 -5 8 -10 11 -10 2 0 4 5 4 10 0 6 -5 10 -11 10 -5 0
-7 -4 -4 -10z"/>
<path d="M5578 3464 c-9 -15 47 -217 61 -222 10 -3 11 2 5 19 -4 13 -19 67
-34 118 -15 52 -29 91 -32 85z"/>
<path d="M5624 3445 c4 -16 8 -39 10 -50 9 -49 29 -114 35 -113 18 2 22 -3 12
-15 -8 -10 -6 -29 6 -70 13 -48 19 -56 34 -52 23 8 26 -20 4 -32 -13 -8 -12
-17 4 -73 14 -53 22 -66 40 -68 15 -3 21 -8 17 -19 -3 -8 -6 -17 -6 -19 0 -3
-4 -2 -10 1 -5 3 -10 -1 -10 -9 0 -8 5 -18 10 -21 6 -4 8 -11 4 -16 -3 -6 2
-17 12 -24 11 -8 14 -15 8 -15 -8 0 -8 -12 -1 -42 17 -76 17 -74 28 -58 7 11
8 8 3 -12 -3 -15 -3 -37 1 -49 7 -20 8 -20 17 -6 5 10 16 17 25 17 13 0 13 3
3 15 -10 12 -10 24 -2 53 15 49 6 79 -29 94 -38 17 -43 34 -19 58 22 22 24 32
11 58 -16 30 -37 109 -39 149 -1 15 -7 21 -16 17 -8 -3 -17 0 -22 7 -4 7 -3
10 4 5 6 -3 13 -2 17 4 8 13 -16 91 -26 84 -5 -3 -19 2 -31 10 -22 15 -22 16
-2 16 17 0 20 6 19 45 -2 34 -8 51 -28 69 -14 13 -29 36 -33 50 -6 26 -24 36
-24 14 0 -6 -7 -3 -16 8 -15 18 -15 18 -10 -11z m88 -237 c-7 -7 -12 -8 -12
-2 0 14 12 26 19 19 2 -3 -1 -11 -7 -17z m63 -128 c3 -5 2 -10 -4 -10 -5 0
-13 5 -16 10 -3 6 -2 10 4 10 5 0 13 -4 16 -10z m69 -236 c23 -9 1 -34 -28
-34 -20 1 -20 1 -2 11 15 9 16 13 5 20 -16 10 1 12 25 3z"/>
<path d="M11978 3464 c-9 -15 47 -217 61 -222 10 -3 11 2 5 19 -4 13 -19 67
-34 118 -15 52 -29 91 -32 85z"/>
<path d="M12024 3445 c4 -16 8 -39 10 -50 9 -49 29 -114 35 -113 18 2 22 -3
12 -15 -8 -10 -6 -29 6 -70 13 -48 19 -56 34 -52 23 8 26 -20 4 -32 -13 -8
-12 -17 4 -73 14 -53 22 -66 40 -68 15 -3 21 -8 17 -19 -3 -8 -6 -17 -6 -19 0
-3 -4 -2 -10 1 -5 3 -10 -1 -10 -9 0 -8 5 -18 10 -21 6 -4 8 -11 4 -16 -3 -6
2 -17 12 -24 11 -8 14 -15 8 -15 -8 0 -8 -12 -1 -42 17 -76 17 -74 28 -58 7
11 8 8 3 -12 -3 -15 -3 -37 1 -49 7 -20 8 -20 17 -6 5 10 16 17 25 17 13 0 13
3 3 15 -10 12 -10 24 -2 53 15 49 6 79 -29 94 -38 17 -43 34 -19 58 22 22 24
32 11 58 -16 30 -37 109 -39 149 -1 15 -7 21 -16 17 -8 -3 -17 0 -22 7 -4 7
-3 10 4 5 6 -3 13 -2 17 4 8 13 -16 91 -26 84 -5 -3 -19 2 -31 10 -22 15 -22
16 -2 16 17 0 20 6 19 45 -2 34 -8 51 -28 69 -14 13 -29 36 -33 50 -6 26 -24
36 -24 14 0 -6 -7 -3 -16 8 -15 18 -15 18 -10 -11z m88 -237 c-7 -7 -12 -8
-12 -2 0 14 12 26 19 19 2 -3 -1 -11 -7 -17z m63 -128 c3 -5 2 -10 -4 -10 -5
0 -13 5 -16 10 -3 6 -2 10 4 10 5 0 13 -4 16 -10z m69 -236 c23 -9 1 -34 -28
-34 -20 1 -20 1 -2 11 15 9 16 13 5 20 -16 10 1 12 25 3z"/>
<path d="M5640 3195 c0 -8 5 -15 10 -15 6 0 10 7 10 15 0 8 -4 15 -10 15 -5 0
-10 -7 -10 -15z"/>
<path d="M12040 3195 c0 -8 5 -15 10 -15 6 0 10 7 10 15 0 8 -4 15 -10 15 -5
0 -10 -7 -10 -15z"/>
<path d="M5670 3097 c0 -24 36 -152 49 -174 16 -28 13 0 -10 90 -20 79 -39
120 -39 84z"/>
<path d="M12070 3097 c0 -24 36 -152 49 -174 16 -28 13 0 -10 90 -20 79 -39
120 -39 84z"/>
<path d="M5184 3069 c-5 -9 -63 -20 -102 -19 -65 1 -90 -37 -60 -93 6 -12 16
-42 23 -66 11 -46 32 -59 64 -41 9 4 23 5 31 0 12 -6 16 -3 18 15 1 16 -5 26
-19 30 -12 4 -18 12 -15 21 3 7 -3 18 -12 24 -14 9 -13 10 8 8 14 -2 32 4 40
13 24 27 84 31 109 8 12 -11 21 -28 21 -39 0 -14 5 -18 18 -14 13 5 14 4 3 -4
-9 -7 -11 -19 -6 -41 7 -32 7 -32 28 -14 11 10 17 12 12 4 -6 -11 -3 -13 13
-9 23 6 30 -6 10 -16 -7 -3 -3 -3 10 0 18 4 22 1 22 -18 0 -13 7 -32 15 -42
20 -27 19 -36 -5 -36 -14 0 -20 -6 -18 -16 2 -10 -3 -19 -10 -21 -8 -3 -10 1
-6 14 6 17 6 17 -11 1 -20 -18 -12 -40 11 -31 14 5 15 3 5 -15 -15 -29 -14
-37 4 -22 18 15 20 -1 3 -19 -11 -10 -9 -15 5 -26 12 -9 14 -14 6 -17 -8 -3
-10 -11 -6 -22 6 -15 10 -16 22 -6 8 7 15 19 15 27 0 12 3 12 21 -1 30 -21 51
0 40 40 -6 22 -13 28 -30 26 -20 -2 -21 -1 -7 14 21 21 20 32 -7 86 -21 41
-21 47 -8 57 14 10 13 11 -4 6 -17 -4 -20 1 -22 30 -3 68 -6 85 -14 91 -5 2
-6 17 -3 33 5 24 -1 33 -37 64 -23 21 -50 38 -58 38 -54 4 -113 3 -117 -2z
m196 -139 c0 -5 -9 -10 -20 -10 -11 0 -20 5 -20 10 0 6 9 10 20 10 11 0 20 -4
20 -10z m74 -238 c2 -4 -4 -13 -14 -20 -16 -10 -18 -9 -13 5 5 12 2 15 -10 10
-9 -3 -17 -2 -17 3 0 12 47 13 54 2z"/>
<path d="M11558 3063 c-8 -10 -14 -10 -24 -3 -9 8 -15 7 -22 -6 -5 -9 -12 -12
-15 -7 -7 12 -83 1 -97 -13 -13 -14 -15 -47 -3 -69 6 -11 16 -44 23 -73 7 -32
19 -56 31 -62 14 -8 17 -7 13 4 -4 9 2 14 18 15 48 1 58 5 58 22 0 10 -5 21
-11 24 -6 4 -8 13 -5 21 3 7 -3 18 -12 23 -16 10 -16 10 0 11 9 0 23 8 30 18
19 25 82 23 108 -5 11 -12 20 -29 20 -38 0 -9 4 -14 9 -11 5 4 7 -3 4 -15 -4
-13 2 -27 14 -39 19 -17 22 -17 38 -2 11 11 15 12 10 3 -6 -11 -3 -13 13 -9
12 4 22 2 22 -3 0 -5 -5 -9 -12 -9 -6 0 -9 -2 -6 -5 3 -3 13 -3 22 1 19 7 22
34 3 34 -9 0 -12 11 -10 33 2 17 0 27 -3 20 -3 -7 -12 -9 -20 -6 -18 7 -18 23
0 23 8 0 17 12 20 26 8 29 -7 51 -58 87 -34 24 -140 31 -158 10z m162 -147 c0
-3 -4 -8 -10 -11 -5 -3 -10 -1 -10 4 0 6 5 11 10 11 6 0 10 -2 10 -4z"/>
<path d="M4700 2959 c-14 -6 -81 -27 -150 -48 -112 -34 -125 -40 -129 -62 -2
-13 16 -82 40 -152 36 -108 46 -127 61 -124 11 3 18 0 18 -8 0 -13 24 -15 36
-2 4 4 13 2 21 -4 9 -9 13 -8 13 0 0 6 -5 11 -11 11 -6 0 -8 9 -4 20 8 26 -20
28 -34 3 -8 -14 -10 -15 -10 -3 0 8 6 24 14 34 12 16 18 17 27 8 7 -7 17 -12
22 -12 8 0 8 3 1 8 -10 7 -33 80 -42 134 -6 31 13 42 101 59 27 5 55 17 63 27
10 12 16 14 19 5 4 -9 11 -10 25 -3 22 12 25 50 8 83 -21 38 -42 45 -89 26z"/>
<path d="M11070 2958 c-14 -6 -79 -27 -145 -47 -104 -32 -120 -40 -125 -61 -3
-15 10 -70 36 -146 51 -149 49 -146 79 -134 19 7 25 6 25 -4 0 -14 23 -16 36
-3 4 4 13 2 21 -4 9 -9 13 -8 13 0 0 6 -5 11 -11 11 -6 0 -8 9 -4 20 8 26 -20
28 -34 3 -6 -11 -11 -13 -11 -5 0 7 7 23 15 35 11 18 12 31 3 67 -6 25 -15 50
-20 57 -19 25 10 49 79 67 139 36 171 63 142 119 -21 39 -50 46 -99 25z"/>
<path d="M5830 2907 c0 -15 29 -57 30 -42 0 6 -3 20 -6 33 -7 24 -24 31 -24 9z"/>
<path d="M12230 2907 c0 -15 29 -57 30 -42 0 6 -3 20 -6 33 -7 24 -24 31 -24
9z"/>
<path d="M1990 2890 c0 -5 5 -10 11 -10 5 0 7 5 4 10 -3 6 -8 10 -11 10 -2 0
-4 -4 -4 -10z"/>
<path d="M2066 2893 c5 -5 12 -12 16 -18 4 -6 8 -2 8 8 0 9 -7 17 -17 17 -9 0
-12 -3 -7 -7z"/>
<path d="M8390 2890 c0 -5 5 -10 11 -10 5 0 7 5 4 10 -3 6 -8 10 -11 10 -2 0
-4 -4 -4 -10z"/>
<path d="M8466 2893 c5 -5 12 -12 16 -18 4 -6 8 -2 8 8 0 9 -7 17 -17 17 -9 0
-12 -3 -7 -7z"/>
<path d="M5730 2870 c0 -5 5 -10 10 -10 6 0 10 5 10 10 0 6 -4 10 -10 10 -5 0
-10 -4 -10 -10z"/>
<path d="M12130 2870 c0 -5 5 -10 10 -10 6 0 10 5 10 10 0 6 -4 10 -10 10 -5
0 -10 -4 -10 -10z"/>
<path d="M1700 2820 c0 -5 5 -10 10 -10 6 0 10 5 10 10 0 6 -4 10 -10 10 -5 0
-10 -4 -10 -10z"/>
<path d="M5097 2822 c13 -8 38 -66 24 -58 -10 7 -47 -32 -38 -40 4 -4 13 -2
20 5 12 9 14 5 10 -24 -3 -35 -3 -36 19 -24 17 9 23 9 26 0 3 -8 8 -9 16 -2
14 12 28 4 44 -24 11 -18 11 -16 6 10 -4 17 -11 35 -15 41 -5 6 -6 14 -2 17 3
4 1 7 -6 7 -7 0 -10 4 -7 8 3 5 -1 28 -9 53 -7 24 -14 38 -14 31 -1 -14 -25
-42 -35 -42 -3 0 -5 10 -3 21 1 16 -4 22 -23 25 -14 2 -20 1 -13 -4z m67 -103
c-8 -14 -34 -10 -34 5 0 9 7 12 20 9 11 -3 17 -9 14 -14z"/>
<path d="M8100 2820 c0 -5 5 -10 10 -10 6 0 10 5 10 10 0 6 -4 10 -10 10 -5 0
-10 -4 -10 -10z"/>
<path d="M11494 2805 c4 -17 0 -31 -14 -45 -11 -11 -20 -24 -20 -30 0 -14 34
-12 49 3 7 6 4 -2 -6 -20 -21 -38 -13 -51 24 -34 20 9 28 9 33 0 6 -8 9 -8 14
0 4 6 11 9 16 6 4 -2 1 22 -7 55 -9 33 -19 60 -24 60 -5 0 -9 -4 -9 -10 0 -5
-4 -10 -10 -10 -5 0 -9 10 -7 21 1 16 -4 23 -22 25 -20 4 -22 1 -17 -21z m70
-86 c-8 -14 -34 -10 -34 5 0 9 7 12 20 9 11 -3 17 -9 14 -14z"/>
<path d="M11800 2808 c0 -17 2 -18 15 -8 8 7 15 14 15 15 0 2 -7 5 -15 9 -10
4 -15 -1 -15 -16z"/>
<path d="M4090 2781 c-25 -10 -87 -26 -138 -35 -51 -8 -97 -18 -103 -21 -14
-9 -11 -89 4 -109 14 -19 14 -19 105 0 38 8 39 3 92 -271 52 -265 58 -285 98
-285 50 0 92 20 98 46 4 16 -7 67 -29 137 -20 62 -43 144 -53 182 -9 39 -23
80 -30 92 -8 12 -14 31 -14 42 0 11 -4 23 -10 26 -14 9 -9 57 8 78 8 9 27 17
42 17 14 0 31 5 38 12 30 30 0 108 -41 107 -12 0 -42 -8 -67 -18z"/>
<path d="M5381 2783 c-1 -12 4 -25 9 -28 12 -7 12 2 0 30 -8 19 -9 19 -9 -2z"/>
<path d="M5750 2790 c0 -5 5 -10 10 -10 6 0 10 5 10 10 0 6 -4 10 -10 10 -5 0
-10 -4 -10 -10z"/>
<path d="M10475 2785 c-30 -14 -140 -40 -205 -49 -34 -5 -60 -28 -60 -53 0 -8
7 -30 15 -50 14 -34 17 -35 53 -28 20 4 49 9 64 12 32 6 24 31 88 -281 28
-137 56 -256 62 -264 26 -31 138 8 138 48 0 10 -14 60 -30 109 -17 50 -42 134
-55 188 -14 53 -29 101 -35 107 -5 5 -10 18 -10 28 0 10 -7 30 -16 43 -10 15
-12 25 -5 25 5 0 8 6 5 14 -7 18 22 46 47 46 55 0 77 50 43 98 -17 25 -53 28
-99 7z"/>
<path d="M11781 2783 c-1 -12 4 -25 9 -28 12 -7 12 2 0 30 -8 19 -9 19 -9 -2z"/>
<path d="M12150 2790 c0 -5 5 -10 10 -10 6 0 10 5 10 10 0 6 -4 10 -10 10 -5
0 -10 -4 -10 -10z"/>
<path d="M11720 2768 c-12 -22 -12 -22 6 -6 10 10 15 20 12 24 -4 3 -12 -5
-18 -18z"/>
<path d="M11792 2724 c2 -10 -3 -19 -10 -21 -8 -3 -10 1 -5 13 6 16 4 16 -20
-2 -35 -25 -34 -35 3 -29 28 5 30 4 20 -14 -14 -28 -13 -36 5 -21 11 9 15 9
15 1 0 -6 -6 -14 -13 -17 -16 -6 -15 -48 3 -68 10 -12 16 -14 26 -5 8 6 14 18
14 25 0 12 4 12 20 2 20 -13 20 -13 0 -28 -17 -12 -18 -18 -8 -28 10 -10 8
-14 -11 -19 -17 -4 -19 -8 -9 -14 10 -7 9 -9 -4 -9 -22 0 -24 -16 -4 -23 8 -3
17 2 21 11 6 15 8 15 15 -3 7 -18 10 -15 25 19 14 33 15 46 5 88 -7 27 -18 55
-26 63 -11 10 -11 14 -1 18 6 2 9 8 5 12 -4 4 -14 2 -23 -5 -13 -11 -14 -10
-8 5 5 14 3 17 -10 12 -10 -4 -17 -2 -17 4 0 6 10 9 23 7 20 -4 23 -1 19 19
-3 16 -11 23 -29 23 -17 0 -23 -5 -21 -16z"/>
<path d="M5776 2708 c3 -13 10 -30 15 -38 7 -13 8 -13 9 0 0 27 -12 60 -22 60
-5 0 -6 -10 -2 -22z"/>
<path d="M12176 2708 c3 -13 10 -30 15 -38 7 -13 8 -13 9 0 0 27 -12 60 -22
60 -5 0 -6 -10 -2 -22z"/>
<path d="M5885 2690 c-3 -5 -3 -14 0 -20 4 -6 -5 -10 -19 -10 -28 0 -35 -17
-11 -26 11 -5 13 -10 5 -19 -12 -15 11 -28 34 -19 8 3 17 1 20 -4 3 -5 0 -10
-7 -9 -51 2 -56 -2 -46 -35 5 -17 14 -35 21 -40 9 -5 10 -8 1 -8 -22 0 30
-137 55 -143 13 -4 11 -5 -4 -6 l-21 -1 19 -67 c11 -38 29 -108 41 -158 13
-49 28 -90 34 -90 6 0 15 -3 19 -7 4 -5 2 -8 -4 -8 -7 0 -12 -11 -12 -25 0
-28 9 -24 -225 -84 -405 -103 -1033 -276 -1029 -283 3 -4 2 -13 -2 -20 -5 -8
-11 -6 -19 5 -9 13 -18 14 -41 7 -16 -5 -227 -62 -469 -126 -242 -64 -496
-132 -565 -151 -69 -19 -159 -43 -200 -53 -41 -10 -185 -49 -320 -85 -324 -87
-468 -125 -475 -125 -3 0 -4 -3 -2 -7 3 -5 -6 -9 -19 -9 -47 -3 -94 -15 -94
-24 0 -13 30 -40 45 -40 18 0 32 23 17 28 -21 7 -13 20 8 15 11 -3 20 -10 20
-17 0 -6 5 -4 11 4 8 12 10 9 6 -12 -2 -16 0 -28 4 -28 5 0 9 9 9 20 0 11 5
20 10 20 6 0 10 -7 10 -15 0 -16 41 -12 90 8 14 6 35 12 47 13 28 4 255 64
268 72 5 3 18 7 28 7 10 1 22 8 27 15 4 7 9 8 11 3 3 -9 233 50 734 186 302
83 607 164 664 178 77 19 147 48 133 57 -6 3 -18 3 -27 -1 -15 -5 -16 -3 -8
11 13 24 109 32 117 10 4 -10 14 -13 33 -8 61 13 339 87 348 92 5 3 18 7 30 8
11 2 173 44 360 94 187 51 349 94 360 97 11 3 40 11 65 18 25 7 57 16 71 19
19 4 25 12 25 28 -1 17 4 22 19 21 19 -3 18 -2 -2 8 -21 11 -33 33 -39 75 -2
17 1 21 17 17 22 -6 23 -1 9 47 -7 26 -16 36 -31 37 -12 1 -23 4 -26 6 -8 8 9
57 18 51 13 -8 11 19 -5 68 -8 24 -26 90 -40 148 -14 58 -37 143 -52 190 -14
47 -26 91 -27 98 0 14 -13 16 -22 2z m25 -48 c0 -13 -12 -22 -22 -16 -10 6 -1
24 13 24 5 0 9 -4 9 -8z m107 -434 c-3 -8 -6 -5 -6 6 -1 11 2 17 5 13 3 -3 4
-12 1 -19z m-1150 -564 c-3 -3 -12 -4 -19 -1 -8 3 -5 6 6 6 11 1 17 -2 13 -5z
m-2082 -604 c3 -6 -1 -7 -9 -4 -18 7 -21 14 -7 14 6 0 13 -4 16 -10z"/>
<path d="M12285 2690 c-3 -5 -3 -14 0 -20 4 -6 -5 -10 -19 -10 -28 0 -35 -17
-11 -26 11 -5 13 -10 5 -19 -12 -15 11 -28 34 -19 8 3 17 1 20 -4 3 -5 0 -10
-7 -9 -51 2 -56 -2 -46 -35 5 -17 14 -35 21 -40 9 -5 10 -8 1 -8 -22 0 30
-137 55 -143 13 -4 11 -5 -4 -6 l-21 -1 19 -67 c11 -38 29 -108 41 -158 13
-49 28 -90 34 -90 6 0 15 -3 19 -7 4 -5 2 -8 -4 -8 -7 0 -12 -11 -12 -25 0
-28 9 -24 -225 -84 -405 -103 -1033 -276 -1029 -283 3 -4 2 -13 -2 -20 -5 -8
-11 -6 -19 5 -9 13 -18 14 -41 7 -16 -5 -227 -62 -469 -126 -242 -64 -496
-132 -565 -151 -69 -19 -159 -43 -200 -53 -41 -10 -185 -49 -320 -85 -324 -87
-468 -125 -475 -125 -3 0 -4 -3 -2 -7 3 -5 -6 -9 -19 -9 -47 -3 -94 -15 -94
-24 0 -13 30 -40 45 -40 18 0 32 23 17 28 -21 7 -13 20 8 15 11 -3 20 -10 20
-17 0 -6 5 -4 11 4 8 12 10 9 6 -12 -2 -16 0 -28 4 -28 5 0 9 9 9 20 0 11 5
20 10 20 6 0 10 -7 10 -15 0 -16 41 -12 90 8 14 6 35 12 47 13 28 4 255 64
268 72 5 3 18 7 28 7 10 1 22 8 27 15 4 7 9 8 11 3 3 -9 233 50 734 186 302
83 607 164 664 178 77 19 147 48 133 57 -6 3 -18 3 -27 -1 -15 -5 -16 -3 -8
11 13 24 109 32 117 10 4 -10 14 -13 33 -8 61 13 339 87 348 92 5 3 18 7 30 8
11 2 173 44 360 94 187 51 349 94 360 97 11 3 40 11 65 18 25 7 57 16 71 19
19 4 25 12 25 28 -1 17 4 22 19 21 19 -3 18 -2 -2 8 -21 11 -33 33 -39 75 -2
17 1 21 17 17 22 -6 23 -1 9 47 -7 26 -16 36 -31 37 -12 1 -23 4 -26 6 -8 8 9
57 18 51 13 -8 11 19 -5 68 -8 24 -26 90 -40 148 -14 58 -37 143 -52 190 -14
47 -26 91 -27 98 0 14 -13 16 -22 2z m25 -48 c0 -13 -12 -22 -22 -16 -10 6 -1
24 13 24 5 0 9 -4 9 -8z m107 -434 c-3 -8 -6 -5 -6 6 -1 11 2 17 5 13 3 -3 4
-12 1 -19z m-1150 -564 c-3 -3 -12 -4 -19 -1 -8 3 -5 6 6 6 11 1 17 -2 13 -5z
m-2082 -604 c3 -6 -1 -7 -9 -4 -18 7 -21 14 -7 14 6 0 13 -4 16 -10z"/>
<path d="M1550 2660 c-12 -8 -11 -10 7 -10 12 0 25 5 28 10 8 13 -15 13 -35 0z"/>
<path d="M4752 2659 c-12 -5 -27 -20 -32 -35 -7 -18 -15 -24 -26 -20 -12 5
-15 -1 -12 -27 2 -17 8 -31 13 -29 6 2 9 10 7 18 -2 8 5 14 18 14 11 0 20 -4
20 -10 0 -5 -5 -10 -11 -10 -5 0 -7 -5 -4 -11 8 -11 62 -3 82 13 16 13 13 59
-4 65 -6 3 -10 10 -7 18 7 17 -16 24 -44 14z m18 -34 c0 -8 -6 -15 -12 -15 -8
-1 -6 -6 4 -14 10 -7 15 -16 11 -19 -12 -13 -21 -7 -31 22 -8 22 -7 31 1 35
21 8 27 6 27 -9z"/>
<path d="M7950 2660 c-12 -8 -11 -10 7 -10 12 0 25 5 28 10 8 13 -15 13 -35 0z"/>
<path d="M11124 2634 c-10 -25 -20 -34 -30 -30 -12 5 -15 -1 -12 -27 2 -17 8
-30 13 -27 6 2 9 10 7 17 -2 7 6 13 18 13 11 0 20 -4 20 -10 0 -5 -5 -10 -12
-10 -8 0 -9 -3 -2 -10 14 -14 62 4 71 25 10 27 -10 77 -35 86 -20 8 -25 4 -38
-27z m46 -9 c0 -8 -6 -15 -12 -15 -8 -1 -6 -6 4 -14 10 -7 15 -16 11 -19 -12
-13 -21 -7 -31 22 -8 22 -7 31 1 35 21 8 27 6 27 -9z"/>
<path d="M1490 2640 c-8 -5 -10 -10 -5 -10 6 0 17 5 25 10 8 5 11 10 5 10 -5
0 -17 -5 -25 -10z"/>
<path d="M5170 2638 c0 -8 6 -23 14 -34 14 -19 15 -19 33 0 10 10 13 16 6 12
-14 -8 -45 3 -38 14 3 5 1 11 -5 15 -5 3 -10 0 -10 -7z"/>
<path d="M7890 2640 c-8 -5 -10 -10 -5 -10 6 0 17 5 25 10 8 5 11 10 5 10 -5
0 -17 -5 -25 -10z"/>
<path d="M11070 2635 c-8 -10 -5 -13 15 -11 28 1 33 11 11 19 -8 3 -20 0 -26
-8z"/>
<path d="M11570 2638 c0 -8 6 -23 14 -34 12 -15 17 -17 28 -6 10 10 9 14 -10
18 -12 4 -20 10 -17 14 3 5 1 11 -5 15 -5 3 -10 0 -10 -7z"/>
<path d="M4695 2630 c3 -5 8 -10 11 -10 2 0 4 5 4 10 0 6 -5 10 -11 10 -5 0
-7 -4 -4 -10z"/>
<path d="M3390 2609 c-139 -29 -150 -48 -106 -180 33 -99 116 -411 127 -478
11 -69 23 -84 63 -76 76 15 104 41 77 71 -4 5 -19 52 -31 104 -13 52 -27 103
-32 113 -17 32 0 55 45 62 54 9 80 26 117 77 24 33 30 51 30 93 0 28 -4 55 -9
61 -5 5 -16 32 -25 60 -19 59 -39 80 -93 100 -48 17 -48 17 -163 -7z m132
-119 c27 -33 24 -117 -4 -147 -29 -31 -71 -30 -93 3 -9 14 -14 32 -11 39 3 8
1 17 -5 21 -5 3 -7 14 -4 25 4 11 2 19 -4 19 -16 0 -14 16 4 34 8 8 15 20 15
27 0 20 82 3 102 -21z"/>
<path d="M9820 2621 c-90 -29 -130 -78 -130 -160 0 -31 7 -62 17 -77 9 -14 17
-38 18 -52 2 -15 10 -52 20 -82 9 -30 20 -73 25 -95 19 -87 55 -179 75 -189
11 -6 23 -16 28 -23 4 -6 32 -17 62 -23 97 -20 174 18 209 104 22 54 20 83 -7
101 -37 24 -96 0 -122 -49 -22 -41 -46 -59 -67 -51 -17 7 -48 68 -48 95 0 30
-48 198 -77 269 -24 58 -25 66 -12 90 20 35 77 41 104 11 39 -43 119 -13 113
42 -5 47 -59 86 -128 92 -30 3 -66 2 -80 -3z"/>
<path d="M1190 2569 c-102 -26 -293 -77 -425 -113 -132 -36 -247 -68 -255 -70
-34 -9 -68 -25 -74 -34 -3 -6 5 -48 19 -93 14 -46 39 -138 56 -204 17 -66 33
-127 36 -135 3 -8 7 -19 8 -25 4 -29 18 -65 25 -65 4 0 4 15 0 33 -8 32 -74
280 -111 412 -10 38 -15 73 -11 77 4 4 36 14 72 23 36 8 81 20 100 25 19 5
123 33 230 62 107 28 224 59 260 69 36 10 117 32 179 49 63 17 117 33 120 35
11 12 -56 -2 -229 -46z"/>
<path d="M7590 2569 c-102 -26 -293 -77 -425 -113 -132 -36 -247 -68 -255 -70
-34 -9 -68 -25 -74 -34 -3 -6 5 -48 19 -93 14 -46 39 -138 56 -204 17 -66 33
-127 36 -135 3 -8 7 -19 8 -25 4 -29 18 -65 25 -65 4 0 4 15 0 33 -8 32 -74
280 -111 412 -10 38 -15 73 -11 77 4 4 36 14 72 23 36 8 81 20 100 25 19 5
123 33 230 62 107 28 224 59 260 69 36 10 117 32 179 49 63 17 117 33 120 35
11 12 -56 -2 -229 -46z"/>
<path d="M4620 2601 c0 -9 24 -21 42 -21 6 0 6 6 -2 15 -14 16 -40 20 -40 6z"/>
<path d="M5800 2610 c0 -3 12 -48 26 -100 14 -52 32 -122 40 -155 8 -33 17
-67 21 -75 3 -8 8 -26 10 -40 2 -13 7 -27 11 -30 4 -3 8 -16 10 -30 2 -14 10
-50 18 -81 20 -81 19 -86 -28 -102 -37 -13 -39 -16 -16 -16 15 -1 38 3 52 9
31 11 35 50 12 105 -8 19 -12 35 -8 35 3 0 1 5 -6 12 -7 7 -12 22 -12 34 0 19
-34 149 -76 294 -9 30 -19 68 -21 85 -3 16 -11 37 -19 45 -8 8 -14 12 -14 10z"/>
<path d="M11020 2601 c0 -9 24 -21 42 -21 6 0 6 6 -2 15 -14 16 -40 20 -40 6z"/>
<path d="M12200 2610 c0 -3 12 -48 26 -100 14 -52 32 -122 40 -155 8 -33 17
-67 21 -75 3 -8 8 -26 10 -40 2 -13 7 -27 11 -30 4 -3 8 -16 10 -30 2 -14 10
-50 18 -81 20 -81 19 -86 -28 -102 -37 -13 -39 -16 -16 -16 15 -1 38 3 52 9
31 11 35 50 12 105 -8 19 -12 35 -8 35 3 0 1 5 -6 12 -7 7 -12 22 -12 34 0 19
-34 149 -76 294 -9 30 -19 68 -21 85 -3 16 -11 37 -19 45 -8 8 -14 12 -14 10z"/>
<path d="M5444 2557 c-12 -7 -13 -12 -3 -23 10 -12 8 -16 -10 -21 -17 -4 -19
-8 -9 -14 10 -7 9 -9 -4 -9 -21 0 -24 -16 -5 -23 6 -2 17 3 24 12 11 14 12 14
13 -1 0 -21 4 -22 31 -8 15 9 17 15 9 31 -8 14 -8 21 2 24 8 3 14 13 15 23 1
19 -36 24 -63 9z"/>
<path d="M11537 2550 c-5 -20 15 -45 26 -33 4 3 7 1 7 -6 0 -7 -6 -11 -14 -8
-15 6 -15 2 3 -108 l7 -40 59 4 c73 4 105 15 105 37 0 12 3 14 13 6 15 -13 57
-5 57 11 0 6 -3 7 -6 4 -12 -11 -44 13 -44 33 0 25 -17 26 -23 3 -3 -15 -6
-14 -15 7 -8 18 -11 20 -11 8 -1 -23 -5 -23 -37 7 -14 13 -30 23 -34 20 -3 -2
-6 6 -5 18 2 28 -14 44 -42 41 -13 -1 -23 2 -23 7 0 17 -18 9 -23 -11z"/>
<path d="M5159 2549 c-9 -5 -10 -11 -2 -21 6 -7 14 -45 18 -84 4 -40 11 -77
15 -84 6 -9 23 -9 77 -1 82 13 147 37 137 52 -3 6 -8 8 -11 5 -12 -12 -43 16
-43 39 0 14 -4 25 -10 25 -5 0 -10 -9 -10 -20 0 -13 -5 -18 -15 -14 -8 4 -15
13 -15 21 0 10 -6 13 -16 9 -15 -6 -68 40 -60 53 11 18 -41 35 -65 20z m185
-148 c3 -5 -1 -11 -9 -14 -9 -4 -12 -1 -8 9 6 16 10 17 17 5z"/>
<path d="M4520 2531 c0 -11 5 -32 12 -48 6 -15 11 -31 10 -34 0 -3 16 -61 37
-129 35 -114 40 -124 62 -123 29 0 70 10 124 29 22 7 59 15 82 17 24 2 45 6
49 10 3 3 12 3 20 0 21 -8 54 26 54 54 0 32 -28 73 -51 73 -19 0 -90 -24 -122
-41 -10 -5 -22 -7 -26 -4 -5 3 -11 -2 -15 -10 -8 -22 -42 -18 -66 7 -13 14
-20 35 -20 59 0 21 -5 41 -10 44 -6 4 -8 11 -5 16 4 5 -1 9 -9 9 -8 0 -21 7
-30 15 -16 17 -32 3 -20 -17 6 -10 5 -10 -8 -1 -8 7 -17 10 -21 7 -3 -3 -4 2
-3 13 5 25 -5 38 -15 22 -6 -10 -9 -6 -9 13 0 15 -4 30 -10 33 -5 3 -10 -3
-10 -14z m115 -81 c6 -10 -22 -46 -30 -38 -7 6 7 48 16 48 4 0 11 -5 14 -10z"/>
<path d="M10910 2530 c-8 -15 -7 -32 5 -68 8 -26 29 -92 45 -147 17 -55 34
-105 38 -112 9 -14 85 -6 76 8 -3 5 2 6 10 3 8 -3 30 1 48 10 18 8 54 17 80
19 26 2 51 6 54 10 4 4 17 4 29 1 25 -6 39 9 49 50 5 22 2 34 -15 52 -12 13
-31 24 -40 24 -17 0 -67 -19 -112 -42 -10 -5 -22 -6 -27 -3 -5 3 -13 -2 -18
-11 -7 -12 -17 -15 -34 -11 -28 7 -47 38 -52 82 -3 27 -26 50 -26 26 0 -6 -5
-11 -11 -11 -11 0 -2 41 11 50 4 3 2 11 -6 17 -15 15 -29 0 -18 -19 6 -10 5
-10 -8 -1 -8 7 -17 10 -21 7 -3 -3 -4 2 -3 13 5 25 -5 38 -15 22 -6 -10 -9 -6
-9 13 0 35 -16 44 -30 18z m40 -74 c0 -3 -4 -8 -10 -11 -5 -3 -10 -1 -10 4 0
6 5 11 10 11 6 0 10 -2 10 -4z"/>
<path d="M11790 2519 c0 -5 5 -7 10 -4 6 3 10 8 10 11 0 2 -4 4 -10 4 -5 0
-10 -5 -10 -11z"/>
<path d="M4645 2499 c-4 -6 -5 -12 -2 -15 2 -3 7 2 10 11 7 17 1 20 -8 4z"/>
<path d="M9345 2496 c-16 -7 -79 -27 -140 -45 -120 -35 -135 -44 -135 -73 0
-27 71 -232 81 -236 5 -2 7 -8 4 -12 -6 -10 5 -49 58 -210 18 -52 36 -115 42
-140 13 -57 34 -61 137 -27 40 14 90 28 111 32 36 6 49 19 25 27 -8 3 -9 7 -2
11 6 3 20 -3 32 -13 25 -24 26 -24 46 -4 32 31 6 114 -36 114 -32 0 -80 -30
-74 -46 6 -16 4 -17 -18 -8 -9 3 -13 10 -10 15 3 5 3 9 1 9 -10 0 -67 -32 -72
-40 -8 -12 -48 7 -62 29 -6 10 -14 51 -18 92 -7 73 -6 75 18 86 14 7 42 15 64
19 21 4 46 11 56 16 24 12 23 72 -3 98 -18 18 -22 18 -67 4 -76 -24 -122 -29
-127 -13 -2 8 -11 38 -20 67 -23 73 -17 86 49 101 31 7 53 16 51 19 -2 4 16 7
40 8 24 0 50 7 59 14 19 16 19 69 0 94 -13 17 -15 17 -30 2 -9 -9 -19 -16 -23
-16 -3 0 -1 5 6 12 29 29 7 36 -43 14z m204 -649 c0 -9 -2 -9 -5 0 -3 7 -13 9
-22 6 -14 -4 -14 -3 -2 5 16 12 30 7 29 -11z"/>
<path d="M2895 2474 c-38 -14 -105 -34 -149 -46 -97 -27 -109 -45 -82 -116 10
-26 36 -103 58 -172 100 -317 102 -321 115 -316 7 3 13 -1 13 -10 0 -8 -4 -13
-9 -10 -9 6 -9 1 4 -58 6 -28 6 -28 63 -21 31 4 67 13 79 21 19 12 45 18 116
28 25 3 46 27 29 33 -6 3 -10 9 -7 14 8 12 45 -12 45 -30 0 -11 3 -11 14 -2
21 18 18 86 -5 107 -24 22 -85 8 -83 -19 2 -20 -1 -21 -28 -6 -14 8 -23 8 -31
0 -6 -6 -19 -11 -29 -11 -10 0 -21 -7 -24 -15 -5 -13 -9 -13 -35 0 -37 20 -45
37 -54 117 l-7 68 34 15 c18 8 52 19 74 25 55 13 69 32 58 72 -14 46 -34 55
-91 39 -26 -8 -64 -16 -84 -19 l-36 -4 -21 68 c-13 43 -18 73 -12 84 5 10 45
24 103 39 115 27 134 43 117 96 -9 28 -16 36 -31 32 -10 -3 -17 0 -16 5 4 19
-17 17 -88 -8z m254 -627 c0 -9 -2 -9 -5 0 -3 7 -13 9 -22 6 -14 -4 -14 -3 -2
5 16 12 30 7 29 -11z"/>
<path d="M5425 2420 c-3 -5 1 -10 9 -10 9 0 16 5 16 10 0 6 -4 10 -9 10 -6 0
-13 -4 -16 -10z"/>
<path d="M8754 2315 c-22 -29 -32 -32 -30 -9 2 28 -23 27 -30 0 -6 -26 18
-135 98 -444 39 -148 40 -154 22 -167 -20 -14 -77 -18 -69 -4 8 11 -32 21 -55
14 -11 -4 -27 -19 -35 -35 -41 -79 3 -108 130 -88 59 9 79 17 114 47 69 59 69
72 -15 475 -24 115 -49 215 -55 222 -18 22 -54 16 -75 -11z m96 -395 c4 0 10
-7 13 -14 4 -10 1 -13 -9 -9 -7 3 -14 9 -14 13 0 5 -10 10 -22 12 -22 3 -22 3
-2 22 19 20 19 20 22 -2 2 -12 7 -22 12 -22z m-5 -39 c3 -5 1 -12 -5 -16 -5
-3 -10 -1 -10 5 0 6 -5 8 -12 4 -7 -4 -8 -3 -4 4 9 14 23 15 31 3z"/>
<path d="M2227 2295 c-61 -23 -94 -52 -113 -100 -19 -50 -14 -107 11 -135 8
-9 15 -30 15 -46 0 -22 3 -25 10 -14 5 8 12 11 16 7 4 -4 2 -13 -4 -19 -18
-18 -14 -26 12 -21 23 5 45 -22 30 -36 -4 -3 -9 0 -11 7 -3 6 -11 12 -19 12
-14 0 -17 -46 -3 -65 4 -5 17 -50 29 -100 12 -49 28 -102 36 -117 20 -39 75
-68 141 -74 47 -4 66 -1 103 18 44 22 51 32 85 111 15 36 15 40 0 64 -15 22
-21 25 -58 19 -49 -8 -64 -19 -85 -65 -14 -29 -23 -36 -47 -36 -27 0 -43 15
-58 58 -1 5 -15 5 -30 2 -15 -4 -24 -12 -20 -18 4 -6 1 -7 -6 -3 -9 6 -8 13 5
27 9 10 21 17 28 16 6 -1 12 10 14 26 3 25 1 26 -21 18 -22 -9 -25 -7 -23 15
0 13 7 26 14 29 6 2 12 14 12 26 0 15 -5 19 -15 15 -17 -6 -20 5 -6 19 6 6 -2
43 -20 95 -35 105 -36 123 -3 149 24 19 28 19 54 6 16 -8 32 -19 35 -25 17
-28 115 2 115 35 0 46 -54 95 -103 95 -14 0 -29 5 -32 10 -8 14 -42 11 -88 -5z
m-67 -75 c0 -5 -5 -10 -11 -10 -5 0 -7 5 -4 10 3 6 8 10 11 10 2 0 4 -4 4 -10z
m85 -290 c3 -6 -1 -7 -9 -4 -18 7 -21 14 -7 14 6 0 13 -4 16 -10z"/>
<path d="M8166 2181 c-4 -5 0 -12 6 -15 7 -3 4 -4 -7 -1 -18 4 -240 -54 -265
-70 -18 -11 -11 -62 19 -142 16 -43 52 -154 81 -248 72 -236 72 -236 87 -231
7 3 13 1 13 -3 0 -5 -5 -11 -11 -13 -7 -2 -9 -13 -5 -26 6 -16 14 -21 34 -18
45 6 111 26 117 36 3 6 21 10 39 10 18 0 36 3 39 7 4 3 17 8 30 9 86 9 97 16
97 58 0 40 -33 77 -52 58 -15 -15 -32 -16 -23 -2 8 13 2 13 -37 -4 -52 -23
-72 -29 -83 -27 -5 1 -14 -4 -20 -12 -5 -8 -19 -17 -30 -21 -26 -8 -51 38 -59
111 -4 28 -13 68 -21 87 -14 32 -13 35 1 29 8 -3 13 -12 10 -20 -4 -10 2 -9
22 5 15 10 47 22 72 26 54 8 70 21 70 55 0 26 -24 71 -39 71 -8 0 -6 -46 4
-75 6 -16 5 -17 -4 -5 -9 12 -12 13 -20 1 -7 -11 -9 -11 -14 0 -4 10 -6 10 -6
-2 -1 -19 -31 -48 -31 -30 0 6 5 11 10 11 6 0 10 5 10 11 0 5 -4 7 -10 4 -5
-3 -10 0 -10 8 0 8 11 18 25 21 14 4 25 11 25 17 0 6 -6 6 -19 -1 -24 -12 -31
-13 -31 -1 0 5 10 11 22 14 12 4 20 8 17 11 -3 3 -25 -1 -50 -8 -74 -23 -94
-13 -108 50 -7 29 -17 56 -22 59 -5 4 -5 13 0 24 7 11 41 26 98 40 48 13 98
30 111 37 29 19 30 66 0 94 -22 20 -72 27 -82 11z m-146 -291 c-8 -5 -19 -10
-25 -10 -5 0 -3 5 5 10 8 5 20 10 25 10 6 0 3 -5 -5 -10z m62 -72 c-7 -7 -12
-8 -12 -2 0 14 12 26 19 19 2 -3 -1 -11 -7 -17z m88 18 c0 -3 -4 -8 -10 -11
-5 -3 -10 -1 -10 4 0 6 5 11 10 11 6 0 10 -2 10 -4z m220 -295 c0 -5 -7 -11
-15 -15 -15 -5 -20 5 -8 17 9 10 23 9 23 -2z m30 -25 c0 -3 -4 -8 -10 -11 -5
-3 -10 -1 -10 4 0 6 5 11 10 11 6 0 10 -2 10 -4z"/>
<path d="M1656 2140 c-84 -33 -116 -77 -116 -158 0 -35 6 -54 21 -70 13 -14
18 -30 14 -42 -3 -10 6 -52 20 -92 15 -40 31 -97 36 -125 25 -143 74 -201 178
-210 49 -5 66 -2 88 13 15 10 31 19 35 19 12 0 48 34 48 45 0 6 -4 8 -10 5 -5
-3 -10 -1 -10 5 0 6 8 14 18 17 9 4 20 11 24 17 13 19 8 63 -8 77 -15 12 -16
11 -10 -9 5 -15 3 -22 -6 -22 -22 0 -41 17 -33 29 10 18 -44 5 -66 -15 -11 -9
-19 -25 -19 -34 0 -20 -16 -35 -48 -45 -19 -6 -25 -1 -42 37 -11 24 -20 55
-20 69 0 31 -24 82 -34 72 -3 -4 -3 7 0 24 4 20 -3 54 -21 104 -53 146 -51
136 -24 165 19 20 30 24 54 20 16 -4 35 -12 40 -19 11 -14 58 -17 71 -4 4 4
16 7 26 7 14 0 18 8 18 31 0 43 -44 82 -110 97 -63 15 -55 15 -114 -8z m-36
-250 c-8 -5 -19 -10 -25 -10 -5 0 -3 5 5 10 8 5 20 10 25 10 6 0 3 -5 -5 -10z
m62 -72 c-7 -7 -12 -8 -12 -2 0 6 3 14 7 17 3 4 9 5 12 2 2 -3 -1 -11 -7 -17z
m303 -228 c-3 -5 -11 -10 -16 -10 -6 0 -7 5 -4 10 3 6 11 10 16 10 6 0 7 -4 4
-10z m-195 -61 c0 -14 -17 -10 -23 5 -4 10 -1 13 9 9 7 -3 14 -9 14 -14z"/>
<path d="M6030 2150 c-12 -8 -10 -10 8 -10 13 0 20 4 17 10 -7 12 -6 12 -25 0z"/>
<path d="M12430 2150 c-12 -8 -10 -10 8 -10 13 0 20 4 17 10 -7 12 -6 12 -25
0z"/>
<path d="M1025 1962 l-49 -27 -1 -60 c-2 -69 12 -154 27 -172 7 -9 7 -13 -1
-13 -6 0 -11 -8 -11 -18 0 -29 30 -82 46 -82 8 0 13 -4 9 -10 -3 -5 -12 -7
-20 -3 -11 4 -15 -2 -15 -19 0 -21 5 -25 35 -26 19 -1 37 3 40 8 4 6 11 8 16
5 5 -4 9 19 9 53 0 43 5 63 16 73 15 12 21 9 50 -25 19 -22 39 -54 46 -73 7
-18 16 -33 21 -33 4 0 5 -5 2 -10 -4 -6 -10 -8 -15 -5 -4 3 -10 -2 -14 -10 -3
-8 -1 -14 3 -12 5 1 10 -2 11 -8 0 -5 -6 -11 -14 -13 -9 -2 -16 3 -16 12 0 21
-16 20 -24 -1 -6 -14 -9 -15 -15 -4 -6 9 -11 10 -15 2 -4 -6 -13 -8 -19 -4 -6
4 -18 8 -27 9 -8 1 -25 5 -37 9 -19 6 -22 3 -21 -24 1 -34 21 -41 59 -21 20
11 24 4 10 -19 -5 -7 -13 -11 -18 -8 -4 3 -13 -6 -20 -19 -6 -13 -7 -24 -2
-24 5 0 12 7 15 15 7 17 60 21 66 5 2 -5 13 -7 26 -3 14 3 21 11 18 19 -3 8 0
11 10 7 8 -3 33 -6 56 -7 38 -1 44 -5 64 -41 35 -62 40 -66 87 -59 72 11 86
40 43 91 -13 15 -35 52 -50 81 -28 54 -32 58 -56 42 -9 -6 -19 -5 -29 3 -11 9
-15 9 -18 0 -3 -7 -11 -13 -18 -13 -16 0 -28 40 -12 40 7 0 4 7 -5 14 -10 7
-18 24 -17 37 0 17 2 20 7 9 4 -8 13 -15 20 -16 27 -2 30 -5 25 -26 -4 -22 -4
-22 10 -5 17 21 31 8 20 -19 -4 -12 -3 -15 5 -10 14 9 15 30 3 54 -45 83 -85
142 -97 142 -8 0 -14 10 -14 26 0 14 -4 22 -10 19 -6 -3 -7 1 -4 9 6 16 -53
123 -89 164 -26 28 -41 28 -102 -6z m265 -462 c0 -5 -5 -10 -11 -10 -5 0 -7 5
-4 10 3 6 8 10 11 10 2 0 4 -4 4 -10z"/>
<path d="M7475 1978 c-22 -4 -56 -10 -75 -13 -46 -9 -120 -47 -120 -62 0 -7 4
-13 9 -13 4 0 11 -21 14 -46 2 -26 10 -50 17 -54 7 -4 14 -30 15 -56 5 -74 61
-246 88 -266 25 -20 50 -22 78 -8 20 11 24 4 10 -19 -5 -7 -13 -11 -18 -8 -4
3 -13 -6 -20 -19 -6 -13 -7 -24 -2 -24 5 0 12 7 15 15 6 13 34 22 34 10 0 -11
-36 -45 -48 -45 -7 0 -10 -4 -7 -10 11 -18 -14 -11 -25 8 -10 15 -11 15 -5 -3
3 -11 9 -33 12 -50 3 -16 13 -38 21 -47 20 -24 84 -24 105 0 19 21 19 72 0 72
-7 0 -10 6 -7 14 3 8 1 17 -5 21 -6 3 -11 14 -11 23 0 26 -32 102 -40 97 -4
-3 -23 1 -41 9 -19 7 -39 11 -46 9 -6 -2 -15 1 -19 8 -5 9 -2 10 9 6 10 -3 17
-2 17 2 0 5 9 7 20 4 11 -3 26 0 34 6 17 14 31 -2 20 -21 -4 -8 -3 -10 2 -5 5
5 9 23 9 40 0 42 31 48 64 13 23 -24 25 -24 38 -8 13 15 14 14 8 -12 -4 -20 2
-45 20 -85 15 -31 31 -67 37 -81 22 -52 25 -55 64 -53 21 2 41 8 46 15 4 7 8
9 8 4 0 -5 7 -3 15 4 26 21 17 53 -33 111 -26 31 -53 65 -60 75 -9 14 -14 15
-18 7 -3 -7 -12 -13 -19 -13 -16 0 -28 40 -12 40 7 0 4 7 -5 14 -10 7 -17 24
-17 37 1 17 3 19 6 7 2 -10 9 -18 15 -18 6 0 7 7 3 18 -4 9 -7 26 -5 37 1 11
3 36 4 55 1 31 -2 35 -21 32 -17 -2 -23 2 -23 16 0 11 7 22 15 26 9 3 15 0 15
-9 0 -8 4 -15 9 -15 21 0 -10 129 -38 163 -33 39 -94 57 -156 45z m68 -117 c7
-5 14 -22 15 -36 1 -14 7 -35 13 -47 13 -24 -2 -60 -35 -81 -30 -20 -80 -4
-95 29 -15 35 -24 106 -14 119 25 31 88 40 116 16z m-98 -273 c5 4 5 1 1 -6
-6 -10 -11 -10 -22 -1 -8 6 -14 14 -14 16 0 3 6 0 13 -6 8 -6 18 -7 22 -3z
m205 -52 c0 -3 -4 -8 -10 -11 -5 -3 -10 -1 -10 4 0 6 5 11 10 11 6 0 10 -2 10
-4z m40 -36 c0 -5 -5 -10 -11 -10 -5 0 -7 5 -4 10 3 6 8 10 11 10 2 0 4 -4 4
-10z m-140 -200 c0 -5 -5 -10 -11 -10 -5 0 -7 5 -4 10 3 6 8 10 11 10 2 0 4
-4 4 -10z"/>
<path d="M5525 1899 c-159 -44 -357 -97 -440 -119 -82 -22 -181 -49 -220 -60
-38 -11 -81 -23 -95 -26 -36 -8 -166 -42 -570 -151 -195 -52 -404 -108 -465
-124 -60 -16 -294 -78 -520 -139 -225 -61 -444 -120 -485 -130 -41 -11 -82
-23 -90 -26 -8 -4 -25 -8 -38 -10 -12 -1 -73 -16 -135 -33 -61 -17 -287 -78
-502 -135 -214 -58 -448 -121 -520 -141 -71 -20 -155 -43 -185 -51 -75 -20
-84 -24 -77 -30 3 -3 54 7 114 24 135 37 287 77 518 137 99 25 200 52 225 60
25 7 117 32 205 55 88 22 174 45 190 50 42 13 152 43 270 74 137 35 1950 519
2105 561 69 19 330 89 580 155 250 67 459 126 465 131 20 19 -48 4 -330 -72z"/>
<path d="M11925 1899 c-159 -44 -357 -97 -440 -119 -82 -22 -181 -49 -220 -60
-38 -11 -81 -23 -95 -26 -36 -8 -166 -42 -570 -151 -195 -52 -404 -108 -465
-124 -60 -16 -294 -78 -520 -139 -225 -61 -444 -120 -485 -130 -41 -11 -82
-23 -90 -26 -8 -4 -25 -8 -38 -10 -12 -1 -73 -16 -135 -33 -61 -17 -287 -78
-502 -135 -214 -58 -448 -121 -520 -141 -71 -20 -155 -43 -185 -51 -75 -20
-84 -24 -77 -30 3 -3 54 7 114 24 135 37 287 77 518 137 99 25 200 52 225 60
25 7 117 32 205 55 88 22 174 45 190 50 42 13 152 43 270 74 137 35 1950 519
2105 561 69 19 330 89 580 155 250 67 459 126 465 131 20 19 -48 4 -330 -72z"/>
<path d="M581 1804 c0 -11 3 -14 6 -6 3 7 2 16 -1 19 -3 4 -6 -2 -5 -13z"/>
<path d="M6981 1804 c0 -11 3 -14 6 -6 3 7 2 16 -1 19 -3 4 -6 -2 -5 -13z"/>
<path d="M503 1776 c-7 -8 -17 -16 -24 -18 -9 -3 -9 -9 -1 -24 8 -13 11 -14
12 -4 0 10 3 11 11 3 8 -8 18 -8 35 -1 28 13 30 21 8 42 -19 19 -25 19 -41 2z"/>
<path d="M6903 1776 c-7 -8 -17 -16 -24 -18 -9 -3 -9 -9 -1 -24 8 -13 11 -14
12 -4 0 10 3 11 11 3 8 -8 18 -8 35 -1 28 13 30 21 8 42 -19 19 -25 19 -41 2z"/>
<path d="M591 1764 c0 -11 3 -14 6 -6 3 7 2 16 -1 19 -3 4 -6 -2 -5 -13z"/>
<path d="M6991 1764 c0 -11 3 -14 6 -6 3 7 2 16 -1 19 -3 4 -6 -2 -5 -13z"/>
<path d="M539 1713 c-1 -4 -1 -16 0 -25 1 -10 -3 -18 -9 -18 -7 0 -9 -7 -6
-16 3 -8 2 -12 -4 -9 -6 3 -10 -1 -10 -9 0 -9 6 -16 14 -16 10 0 12 -11 9 -42
-4 -42 17 -130 30 -129 4 1 13 1 21 1 8 0 16 7 19 14 4 11 1 13 -11 9 -14 -6
-15 -5 -2 9 8 9 20 13 25 10 6 -3 3 3 -5 13 -12 15 -12 17 -1 10 11 -6 13 -4
8 9 -4 10 -7 24 -7 31 0 8 -10 23 -22 35 -12 11 -16 20 -10 20 7 0 12 5 12 11
0 5 -3 8 -8 5 -4 -2 -15 2 -26 9 -20 15 -14 35 10 35 8 0 12 5 9 10 -4 6 -11
8 -16 5 -5 -3 -6 0 -3 8 3 8 1 18 -5 22 -6 3 -12 3 -12 -2z"/>
<path d="M6939 1713 c-1 -4 -1 -16 0 -25 1 -10 -3 -18 -9 -18 -7 0 -9 -7 -6
-16 3 -8 2 -12 -4 -9 -6 3 -10 -1 -10 -9 0 -9 6 -16 14 -16 10 0 12 -11 9 -42
-4 -42 17 -130 30 -129 4 1 13 1 21 1 8 0 16 7 19 14 4 11 1 13 -11 9 -14 -6
-15 -5 -2 9 8 9 20 13 25 10 6 -3 3 3 -5 13 -12 15 -12 17 -1 10 11 -6 13 -4
8 9 -4 10 -7 24 -7 31 0 8 -10 23 -22 35 -12 11 -16 20 -10 20 7 0 12 5 12 11
0 5 -3 8 -8 5 -4 -2 -15 2 -26 9 -20 15 -14 35 10 35 8 0 12 5 9 10 -4 6 -11
8 -16 5 -5 -3 -6 0 -3 8 3 8 1 18 -5 22 -6 3 -12 3 -12 -2z"/>
<path d="M614 1673 c3 -10 19 -67 36 -127 28 -101 40 -134 40 -109 0 5 -4 23
-9 39 -5 16 -14 54 -21 84 -7 30 -15 60 -19 65 -6 10 -7 16 -9 48 -1 9 -7 17
-13 17 -6 0 -8 -8 -5 -17z"/>
<path d="M7014 1673 c3 -10 19 -67 36 -127 28 -101 40 -134 40 -109 0 5 -4 23
-9 39 -5 16 -14 54 -21 84 -7 30 -15 60 -19 65 -6 10 -7 16 -9 48 -1 9 -7 17
-13 17 -6 0 -8 -8 -5 -17z"/>
<path d="M1096 1385 c-3 -8 -12 -15 -21 -15 -8 0 -15 -5 -15 -11 0 -18 32 -5
48 19 8 12 10 22 4 22 -5 0 -12 -7 -16 -15z"/>
<path d="M576 1377 c3 -10 9 -15 12 -12 3 3 0 11 -7 18 -10 9 -11 8 -5 -6z"/>
<path d="M6976 1377 c3 -10 9 -15 12 -12 3 3 0 11 -7 18 -10 9 -11 8 -5 -6z"/>
<path d="M627 1373 c-9 -2 -15 -9 -12 -14 4 -5 -3 -9 -14 -9 -21 0 -29 -16
-11 -22 5 -1 11 -23 13 -47 2 -25 9 -47 15 -49 7 -2 12 -21 12 -42 0 -24 5
-40 15 -44 8 -3 15 -10 15 -16 0 -6 -4 -8 -10 -5 -5 3 -7 0 -4 -8 3 -8 15 -20
27 -26 21 -11 21 -11 -3 -5 -20 5 -23 4 -12 -7 6 -7 12 -25 12 -39 0 -24 21
-110 37 -150 3 -8 7 -24 8 -34 1 -11 7 -22 13 -24 6 -2 8 -10 5 -19 -4 -11 -2
-14 5 -9 22 14 34 -5 16 -25 -14 -16 -15 -25 -6 -57 6 -20 16 -57 22 -82 12
-43 13 -44 22 -20 l9 25 19 -25 c10 -13 16 -28 14 -32 -6 -9 15 -22 41 -25 16
-3 15 1 -9 20 -19 15 -25 26 -18 31 12 7 10 23 -18 121 -11 38 -26 93 -33 120
-13 44 -17 50 -38 46 l-24 -3 25 20 c20 17 23 23 13 33 -7 7 -13 23 -13 35 0
13 -6 29 -14 37 -9 8 -12 24 -9 36 6 24 -21 61 -44 61 -19 0 -16 17 4 29 16 8
16 14 5 53 -8 24 -16 55 -19 70 -3 15 -9 26 -13 23 -5 -3 -6 4 -3 15 3 11 0
27 -7 35 -6 8 -9 19 -5 25 6 10 2 11 -28 3z m93 -283 c0 -5 -4 -10 -10 -10 -5
0 -10 5 -10 10 0 6 5 10 10 10 6 0 10 -4 10 -10z m7 -85 c0 -8 -4 -12 -9 -9
-4 3 -8 9 -8 15 0 5 4 9 8 9 5 0 9 -7 9 -15z m43 -129 c0 -3 -4 -8 -10 -11 -5
-3 -10 -1 -10 4 0 6 5 11 10 11 6 0 10 -2 10 -4z"/>
<path d="M701 1369 c-1 -14 31 -139 74 -294 9 -33 34 -132 57 -219 22 -88 44
-170 49 -183 9 -25 43 -31 69 -12 12 8 9 10 -13 6 -15 -2 -29 -1 -32 3 -5 9
-107 376 -146 525 -30 119 -57 199 -58 174z"/>
<path d="M1033 1349 c3 -20 1 -41 -4 -46 -12 -12 -1 -45 12 -37 5 3 9 0 9 -5
0 -19 39 -12 50 10 10 17 8 21 -8 26 -11 3 -23 12 -26 21 -4 10 -13 28 -22 42
l-16 25 5 -36z"/>
<path d="M7027 1373 c-9 -2 -15 -9 -12 -14 4 -5 -3 -9 -14 -9 -21 0 -29 -16
-11 -22 5 -1 11 -23 13 -47 2 -25 9 -47 15 -49 7 -2 12 -21 12 -42 0 -24 5
-40 15 -44 8 -3 15 -10 15 -16 0 -6 -4 -8 -10 -5 -5 3 -7 0 -4 -8 3 -8 15 -20
27 -26 21 -11 21 -11 -3 -5 -20 5 -23 4 -12 -7 6 -7 12 -25 12 -39 0 -24 21
-110 37 -150 3 -8 7 -24 8 -34 1 -11 7 -22 13 -24 6 -2 8 -10 5 -19 -4 -11 -2
-14 5 -9 22 14 34 -5 16 -25 -14 -16 -15 -25 -6 -57 6 -20 16 -57 22 -82 12
-43 13 -44 22 -20 l9 25 19 -25 c10 -13 16 -28 14 -32 -6 -9 15 -22 41 -25 16
-3 15 1 -9 20 -19 15 -25 26 -18 31 12 7 10 23 -18 121 -11 38 -26 93 -33 120
-13 44 -17 50 -38 46 l-24 -3 25 20 c20 17 23 23 13 33 -7 7 -13 23 -13 35 0
13 -6 29 -14 37 -9 8 -12 24 -9 36 6 24 -21 61 -44 61 -19 0 -16 17 4 29 16 8
16 14 5 53 -8 24 -16 55 -19 70 -3 15 -9 26 -13 23 -5 -3 -6 4 -3 15 3 11 0
27 -7 35 -6 8 -9 19 -5 25 6 10 2 11 -28 3z m93 -283 c0 -5 -4 -10 -10 -10 -5
0 -10 5 -10 10 0 6 5 10 10 10 6 0 10 -4 10 -10z m7 -85 c0 -8 -4 -12 -9 -9
-4 3 -8 9 -8 15 0 5 4 9 8 9 5 0 9 -7 9 -15z m43 -129 c0 -3 -4 -8 -10 -11 -5
-3 -10 -1 -10 4 0 6 5 11 10 11 6 0 10 -2 10 -4z"/>
<path d="M7101 1369 c-1 -14 31 -139 74 -294 9 -33 34 -132 57 -219 22 -88 44
-170 49 -183 9 -25 43 -31 69 -12 12 8 9 10 -13 6 -15 -2 -29 -1 -32 3 -5 9
-107 376 -146 525 -30 119 -57 199 -58 174z"/>
<path d="M2410 1010 c-36 -10 -129 -35 -207 -56 -78 -21 -140 -41 -137 -46 3
-4 -2 -5 -10 -2 -8 3 -103 -18 -211 -47 -169 -45 -199 -56 -208 -76 -5 -12
-14 -20 -19 -17 -4 3 -6 10 -3 15 4 5 -4 7 -17 5 -13 -3 -32 -5 -43 -5 -40 -2
-48 -15 -31 -50 9 -17 21 -31 27 -31 24 0 99 23 99 30 0 5 10 6 21 3 18 -5 20
-3 14 15 -5 18 -3 21 12 15 10 -4 21 -10 24 -15 9 -13 38 2 44 23 4 11 11 17
16 13 6 -4 6 -11 -1 -19 -9 -11 -5 -12 22 -4 18 5 146 39 283 75 138 36 270
72 295 79 25 6 75 20 113 31 69 19 80 31 50 55 -15 12 -16 12 -8 -1 4 -8 -2
-5 -14 8 -26 26 -27 26 -111 2z m70 -10 c-19 -13 -30 -13 -30 0 0 6 10 10 23
10 18 0 19 -2 7 -10z"/>
<path d="M8810 1010 c-36 -10 -129 -35 -207 -56 -78 -21 -140 -41 -137 -46 3
-4 -2 -5 -10 -2 -8 3 -103 -18 -211 -47 -169 -45 -199 -56 -208 -76 -5 -12
-14 -20 -19 -17 -4 3 -6 10 -3 15 4 5 -4 7 -17 5 -13 -3 -32 -5 -43 -5 -40 -2
-48 -15 -31 -50 9 -17 21 -31 27 -31 24 0 99 23 99 30 0 5 10 6 21 3 18 -5 20
-3 14 15 -5 18 -3 21 12 15 10 -4 21 -10 24 -15 9 -13 38 2 44 23 4 11 11 17
16 13 6 -4 6 -11 -1 -19 -9 -11 -5 -12 22 -4 18 5 146 39 283 75 138 36 270
72 295 79 25 6 75 20 113 31 69 19 80 31 50 55 -15 12 -16 12 -8 -1 4 -8 -2
-5 -14 8 -26 26 -27 26 -111 2z m70 -10 c-19 -13 -30 -13 -30 0 0 6 10 10 23
10 18 0 19 -2 7 -10z"/>
<path d="M1452 753 c-24 -5 -42 -14 -104 -52 -38 -23 -43 -41 -10 -36 9 1 11
0 5 -2 -28 -10 -12 -24 20 -18 30 6 48 11 122 33 18 6 29 15 26 23 -2 8 -4 23
-5 34 -1 21 -16 26 -54 18z m-22 -73 c0 -5 -4 -10 -10 -10 -5 0 -10 5 -10 10
0 6 5 10 10 10 6 0 10 -4 10 -10z"/>
<path d="M7852 753 c-24 -5 -42 -14 -104 -52 -38 -23 -43 -41 -10 -36 9 1 11
0 5 -2 -28 -10 -12 -24 20 -18 30 6 48 11 122 33 18 6 29 15 26 23 -2 8 -4 23
-5 34 -1 21 -16 26 -54 18z m-22 -73 c0 -5 -4 -10 -10 -10 -5 0 -10 5 -10 10
0 6 5 10 10 10 6 0 10 -4 10 -10z"/>
<path d="M1100 714 c-30 -9 -72 -20 -93 -25 -21 -5 -35 -14 -32 -19 3 -5 26
-2 53 6 26 8 68 19 95 25 26 6 47 15 47 20 0 11 -1 11 -70 -7z"/>
<path d="M7500 714 c-30 -9 -72 -20 -93 -25 -21 -5 -35 -14 -32 -19 3 -5 26
-2 53 6 26 8 68 19 95 25 26 6 47 15 47 20 0 11 -1 11 -70 -7z"/>
<path d="M1268 699 c-10 -5 -18 -17 -18 -24 0 -21 34 -19 53 3 26 28 1 43 -35
21z m13 -22 c-10 -9 -11 -8 -5 6 3 10 9 15 12 12 3 -3 0 -11 -7 -18z"/>
<path d="M7668 699 c-10 -5 -18 -17 -18 -24 0 -21 34 -19 53 3 26 28 1 43 -35
21z m13 -22 c-10 -9 -11 -8 -5 6 3 10 9 15 12 12 3 -3 0 -11 -7 -18z"/>
<path d="M1180 679 c-19 -6 -42 -13 -50 -16 -8 -3 -18 -6 -22 -5 -4 1 -20 -3
-35 -10 -15 -6 -32 -11 -38 -10 -5 1 -30 -5 -55 -13 -25 -7 -39 -14 -32 -14
19 -1 14 -49 -7 -60 -10 -6 -22 -7 -26 -3 -5 4 -5 1 -1 -6 4 -7 18 -10 34 -7
56 12 107 30 114 40 5 7 8 6 8 -1 0 -11 125 17 139 31 3 4 11 24 17 46 13 43
13 44 -46 28z m-29 -62 c-13 -13 -15 1 -4 30 7 17 8 17 11 -1 2 -10 -1 -23 -7
-29z m59 17 c0 -2 -7 -4 -15 -4 -8 0 -15 4 -15 10 0 5 7 7 15 4 8 -4 15 -8 15
-10z m-130 -4 c0 -5 -5 -10 -11 -10 -5 0 -7 5 -4 10 3 6 8 10 11 10 2 0 4 -4
4 -10z m22 -22 c-8 -8 -9 -4 -5 13 4 13 8 18 11 10 2 -7 -1 -18 -6 -23z"/>
<path d="M7580 679 c-19 -6 -42 -13 -50 -16 -8 -3 -18 -6 -22 -5 -4 1 -20 -3
-35 -10 -15 -6 -32 -11 -38 -10 -5 1 -30 -5 -55 -13 -25 -7 -39 -14 -32 -14
19 -1 14 -49 -7 -60 -10 -6 -22 -7 -26 -3 -5 4 -5 1 -1 -6 4 -7 18 -10 34 -7
56 12 107 30 114 40 5 7 8 6 8 -1 0 -11 125 17 139 31 3 4 11 24 17 46 13 43
13 44 -46 28z m-29 -62 c-13 -13 -15 1 -4 30 7 17 8 17 11 -1 2 -10 -1 -23 -7
-29z m59 17 c0 -2 -7 -4 -15 -4 -8 0 -15 4 -15 10 0 5 7 7 15 4 8 -4 15 -8 15
-10z m-130 -4 c0 -5 -5 -10 -11 -10 -5 0 -7 5 -4 10 3 6 8 10 11 10 2 0 4 -4
4 -10z m22 -22 c-8 -8 -9 -4 -5 13 4 13 8 18 11 10 2 -7 -1 -18 -6 -23z"/>
<path d="M1240 636 c0 -25 17 -27 41 -6 l24 19 -32 1 c-22 0 -33 -5 -33 -14z"/>
<path d="M7640 636 c0 -25 17 -27 41 -6 l24 19 -32 1 c-22 0 -33 -5 -33 -14z"/>
<path d="M800 611 c0 -5 5 -13 10 -16 6 -3 10 -2 10 4 0 5 -4 13 -10 16 -5 3
-10 2 -10 -4z"/>
<path d="M7200 611 c0 -5 5 -13 10 -16 6 -3 10 -2 10 4 0 5 -4 13 -10 16 -5 3
-10 2 -10 -4z"/>
<path d="M915 600 c3 -5 8 -10 11 -10 2 0 4 5 4 10 0 6 -5 10 -11 10 -5 0 -7
-4 -4 -10z"/>
<path d="M7315 600 c3 -5 8 -10 11 -10 2 0 4 5 4 10 0 6 -5 10 -11 10 -5 0 -7
-4 -4 -10z"/>
<path d="M816 531 c-4 -7 -5 -15 -2 -18 9 -9 19 4 14 18 -4 11 -6 11 -12 0z"/>
<path d="M7216 531 c-4 -7 -5 -15 -2 -18 9 -9 19 4 14 18 -4 11 -6 11 -12 0z"/>
</g>
</svg>
