<svg width="124" height="124" viewBox="0 0 124 124" fill="none" xmlns="http://www.w3.org/2000/svg">
<g clip-path="url(#clip0)">
<path d="M27.4 78.2C27.4 85.3 21.6 91.1 14.5 91.1C7.40001 91.1 1.60001 85.3 1.60001 78.2C1.60001 71.1 7.40001 65.3 14.5 65.3H27.4V78.2Z" fill="#E01E5A"/>
<path d="M33.9 78.2C33.9 71.1 39.7 65.3 46.8 65.3C53.9 65.3 59.7 71.1 59.7 78.2V110.5C59.7 117.6 53.9 123.4 46.8 123.4C39.7 123.4 33.9 117.6 33.9 110.5V78.2Z" fill="#E01E5A"/>
<path d="M46.8 26.4C39.7 26.4 33.9 20.6 33.9 13.5C33.9 6.40001 39.7 0.600006 46.8 0.600006C53.9 0.600006 59.7 6.40001 59.7 13.5V26.4H46.8Z" fill="#36C5F0"/>
<path d="M46.8 32.9C53.9 32.9 59.7 38.7 59.7 45.8C59.7 52.9 53.9 58.7 46.8 58.7H14.5C7.40001 58.7 1.60001 52.9 1.60001 45.8C1.60001 38.7 7.40001 32.9 14.5 32.9H46.8Z" fill="#36C5F0"/>
<path d="M98.6 45.8C98.6 38.7 104.4 32.9 111.5 32.9C118.6 32.9 124.4 38.7 124.4 45.8C124.4 52.9 118.6 58.7 111.5 58.7H98.6V45.8Z" fill="#2EB67D"/>
<path d="M92.1 45.8C92.1 52.9 86.3 58.7 79.2 58.7C72.1 58.7 66.3 52.9 66.3 45.8V13.5C66.3 6.40001 72.1 0.600006 79.2 0.600006C86.3 0.600006 92.1 6.40001 92.1 13.5V45.8Z" fill="#2EB67D"/>
<path d="M79.2 97.6C86.3 97.6 92.1 103.4 92.1 110.5C92.1 117.6 86.3 123.4 79.2 123.4C72.1 123.4 66.3 117.6 66.3 110.5V97.6H79.2Z" fill="#ECB22E"/>
<path d="M79.2 91.1C72.1 91.1 66.3 85.3 66.3 78.2C66.3 71.1 72.1 65.3 79.2 65.3H111.5C118.6 65.3 124.4 71.1 124.4 78.2C124.4 85.3 118.6 91.1 111.5 91.1H79.2Z" fill="#ECB22E"/>
</g>
<defs>
<clipPath id="clip0">
<rect width="124" height="124" fill="white"/>
</clipPath>
</defs>
</svg>
