<?xml version="1.0" encoding="utf-8"?>
<!-- Generator: Adobe Illustrator 26.4.1, SVG Export Plug-In . SVG Version: 6.00 Build 0)  -->
<svg version="1.1" id="Layer_1" xmlns="http://www.w3.org/2000/svg" xmlns:xlink="http://www.w3.org/1999/xlink" x="0px" y="0px"
	 viewBox="0 0 531 119" enable-background="new 0 0 531 119" xml:space="preserve">
<g>
	<path fill="#03484D" d="M120.159,25.55l10.697-5.885c0.406-0.224,0.901,0.072,0.901,0.533v30.459
		c1.463-1.797,3.311-3.239,5.412-4.224c2.097-0.985,4.393-1.484,6.71-1.463c10.35,0,16.57,6.655,16.57,17.944v26.083
		c0,0.338-0.271,0.609-0.609,0.609h-10.989c-0.338,0-0.609-0.271-0.609-0.609V64.545c0-5.94-2.714-9.365-8.059-9.365
		c-4.558,0-8.325,3.158-8.325,10.502v23.313c0,0.338-0.271,0.609-0.609,0.609h-10.794c-0.338,0-0.609-0.271-0.609-0.609V26.078
		c0-0.224,0.122-0.427,0.317-0.533L120.159,25.55z"/>
	<path fill="#03484D" d="M248.179,25.55l10.87-5.89c0.406-0.22,0.901,0.076,0.901,0.537l-0.165,30.463
		c1.459-1.797,3.31-3.243,5.408-4.228c2.097-0.985,4.393-1.484,6.714-1.459c10.338,0,16.557,6.655,16.557,17.944V89
		c0,0.338-0.271,0.609-0.609,0.609h-10.904c-0.338,0-0.609-0.271-0.609-0.609V64.549c0-5.94-2.714-9.365-8.059-9.365
		c-4.558,0-8.325,3.158-8.325,10.503V89c0,0.338-0.271,0.609-0.609,0.609h-10.794c-0.334,0-0.609-0.271-0.609-0.609l-0.084-62.913
		C247.862,25.863,247.985,25.655,248.179,25.55z"/>
	<path fill="#03484D" d="M477.444,25.55l10.693-5.885c0.406-0.224,0.901,0.072,0.901,0.533v30.459
		c1.463-1.797,3.31-3.239,5.408-4.224c2.097-0.985,4.397-1.484,6.714-1.463c10.338,0,16.565,6.655,16.565,17.944v26.083
		c0,0.338-0.266,0.609-0.605,0.609h-10.989c-0.338,0-0.613-0.271-0.613-0.609V64.545c0-5.94-2.71-9.365-8.067-9.365
		c-4.558,0-8.325,3.158-8.325,10.502v23.313c0,0.338-0.271,0.609-0.609,0.609h-10.781c-0.338,0-0.609-0.271-0.609-0.609V26.078
		c0-0.224,0.122-0.427,0.317-0.533V25.55z"/>
	<path fill="#03484D" d="M214.622,79.356c-1.556,0.03-3.103-0.258-4.545-0.846c-1.446-0.588-2.757-1.459-3.852-2.562
		c-1.099-1.103-1.962-2.418-2.537-3.864c-0.575-1.446-0.85-2.993-0.808-4.545c-0.038-1.552,0.241-3.091,0.816-4.533
		c0.579-1.437,1.442-2.744,2.541-3.839c1.099-1.099,2.406-1.962,3.848-2.537c1.442-0.575,2.985-0.854,4.537-0.816
		c6.486,0,11.226,5.251,11.226,11.724S221.108,79.356,214.622,79.356z M225.497,50.478c-1.653-1.81-3.674-3.247-5.928-4.211
		c-2.254-0.968-4.689-1.442-7.141-1.391c-9.902,0-21.292,7.268-21.292,22.755s11.83,22.751,21.123,22.81
		c2.495,0.059,4.972-0.427,7.26-1.421c2.287-0.998,4.325-2.482,5.979-4.351v4.114c0.042,1.408-0.199,2.816-0.714,4.127
		c-0.516,1.315-1.294,2.511-2.283,3.518c-0.994,1.006-2.177,1.797-3.484,2.334c-1.311,0.533-2.71,0.799-4.127,0.778
		c-2.545,0.093-5.065-0.567-7.238-1.903c-0.389-0.241-0.765-0.499-1.125-0.778c-0.195-0.148-0.452-0.178-0.668-0.059l-9.856,5.378
		c-0.359,0.194-0.423,0.681-0.135,0.968c4.296,4.342,10.858,7.441,19.018,7.441c14.811,0,22.607-9.97,22.607-22.311V44.905
		c0-0.465-0.499-0.757-0.905-0.533l-11.094,6.105H225.497z"/>
	<path fill="#03484D" d="M325.87,89.604h-6.824c-13.936,0-18.493-4.731-18.493-18.996V36.006c0-0.22,0.122-0.427,0.317-0.533
		l10.794-5.936c0.406-0.22,0.901,0.072,0.901,0.537v15.779h7.619c0.338,0,0.609,0.271,0.609,0.609V56
		c0,0.334-0.271,0.609-0.609,0.609h-7.619v13.915c0,6.511,0.795,7.767,7.255,7.868h0.512c0.207,0,0.402,0.118,0.499,0.296
		l5.543,10.08C326.576,89.144,326.305,89.604,325.87,89.604z"/>
	<path fill="#03484D" d="M360.33,67.733c0.042-2.968-1.095-5.835-3.167-7.97c-2.067-2.135-4.9-3.361-7.877-3.416
		c-1.467,0.025-2.913,0.343-4.258,0.93c-1.345,0.588-2.558,1.433-3.573,2.495c-1.015,1.057-1.81,2.309-2.338,3.674
		c-0.529,1.366-0.782,2.824-0.74,4.287c-0.038,1.463,0.216,2.917,0.744,4.283s1.323,2.613,2.338,3.67
		c1.015,1.057,2.228,1.903,3.573,2.49c1.344,0.588,2.791,0.905,4.253,0.93c2.972-0.055,5.801-1.281,7.872-3.412
		C359.226,73.563,360.368,70.701,360.33,67.733z M326.585,67.733c0.017-4.477,1.361-8.853,3.869-12.566
		c2.503-3.716,6.055-6.608,10.206-8.308c4.148-1.704,8.71-2.139,13.111-1.256c4.397,0.884,8.435,3.048,11.602,6.224
		c3.167,3.171,5.319,7.209,6.19,11.606c0.867,4.393,0.414,8.947-1.306,13.082c-1.721,4.135-4.63,7.67-8.363,10.156
		c-3.729,2.486-8.118,3.814-12.604,3.814c-2.989,0.004-5.949-0.579-8.714-1.725c-2.761-1.142-5.268-2.82-7.382-4.934
		c-2.11-2.114-3.78-4.625-4.913-7.386C327.148,73.678,326.573,70.718,326.585,67.733z"/>
	<path fill="#03484D" d="M380.281,72.536V46.526c0-0.338,0.271-0.609,0.609-0.609h10.963c0.338,0,0.609,0.271,0.609,0.609v24.438
		c0,5.869,2.714,9.281,8.059,9.281c4.558,0,8.325-3.158,8.325-10.502V46.466c0-0.338,0.271-0.609,0.609-0.609h10.794
		c0.338,0,0.609,0.271,0.609,0.609V89c0,0.338-0.271,0.609-0.609,0.609h-10.697c-0.338,0-0.609-0.271-0.609-0.609v-4.232
		c-1.463,1.797-3.311,3.239-5.408,4.224c-2.097,0.985-4.393,1.484-6.71,1.463C386.5,90.48,380.281,83.825,380.281,72.536z"/>
	<path fill="#03484D" d="M171.396,45.857h10.794c0.338,0,0.609,0.271,0.609,0.609V89c0,0.338-0.271,0.609-0.609,0.609h-10.794
		c-0.338,0-0.609-0.271-0.609-0.609V46.466C170.787,46.128,171.057,45.857,171.396,45.857z"/>
	<path fill="#03484D" d="M176.748,27.043c0.968-0.047,1.932,0.11,2.837,0.457c0.905,0.347,1.725,0.879,2.41,1.564
		c0.685,0.685,1.218,1.501,1.569,2.406c0.351,0.905,0.503,1.869,0.457,2.833c0.042,0.96-0.114,1.92-0.465,2.816
		c-0.351,0.896-0.888,1.708-1.573,2.385c-0.685,0.676-1.505,1.201-2.406,1.543c-0.901,0.338-1.865,0.486-2.829,0.431
		c-0.96,0.055-1.915-0.093-2.812-0.435c-0.896-0.342-1.712-0.867-2.389-1.547c-0.681-0.676-1.205-1.488-1.548-2.385
		c-0.342-0.896-0.491-1.852-0.435-2.807c-0.059-0.96,0.089-1.924,0.427-2.824c0.338-0.901,0.867-1.721,1.543-2.406
		c0.677-0.685,1.493-1.218,2.389-1.569C174.82,27.152,175.784,26.996,176.748,27.043z"/>
	<path fill="#03484D" d="M471.391,78.32c0.389,0.101,0.571,0.545,0.372,0.896c-0.812,1.408-1.797,2.786-2.875,3.966
		c-0.359,0.389-0.727,0.774-1.116,1.142c-0.19,0.186-0.389,0.364-0.588,0.541c-0.402,0.355-0.812,0.693-1.239,1.019
		c-0.211,0.165-0.427,0.321-0.647,0.478c-3.678,2.609-8.059,4.042-12.566,4.118c-2.427,0.089-4.85-0.207-7.175-0.875
		c-0.313-0.089-0.626-0.19-0.939-0.296c-0.224-0.072-0.444-0.152-0.664-0.233c-0.177-0.063-0.351-0.131-0.524-0.199
		c-0.456-0.182-0.909-0.381-1.344-0.592c-0.258-0.123-0.512-0.249-0.761-0.381c-0.144-0.072-0.279-0.148-0.414-0.22
		c-1.628-0.896-3.146-1.996-4.507-3.264c-1.361-1.268-2.562-2.698-3.568-4.253c-0.304-0.465-0.588-0.947-0.858-1.437h-0.004
		c-0.266-0.495-0.516-0.994-0.744-1.501c-1.235-2.719-1.924-5.649-2.017-8.634l-0.008-0.013c-0.127-2.981,0.338-5.962,1.37-8.761
		c0.19-0.529,0.41-1.049,0.638-1.556c0,0,0-0.001,0-0.004c0.233-0.507,0.478-1.006,0.748-1.497c0.892-1.628,1.983-3.15,3.251-4.516
		c1.264-1.366,2.693-2.571,4.245-3.581c0.127-0.085,0.262-0.169,0.397-0.254c0.241-0.152,0.482-0.3,0.731-0.436
		c0.427-0.245,0.858-0.473,1.298-0.693c0.169-0.085,0.347-0.165,0.516-0.245c0.212-0.097,0.423-0.19,0.639-0.279
		c0.304-0.131,0.609-0.249,0.913-0.364c2.27-0.841,4.663-1.315,7.09-1.404c4.503-0.262,8.976,0.846,12.836,3.175
		c0.228,0.139,0.461,0.279,0.681,0.427c0.452,0.292,0.884,0.6,1.311,0.926c0.211,0.161,0.423,0.326,0.626,0.499
		c0.414,0.334,0.812,0.689,1.196,1.057c1.011,0.955,1.928,2.004,2.744,3.129c0.207,0.287,0.118,0.698-0.19,0.875l-9.048,5.344
		c-0.258,0.152-0.583,0.089-0.778-0.135c-1.002-1.167-2.241-2.118-3.649-2.803c-2.376-1.15-5.065-1.446-7.632-0.833
		c-2.566,0.613-4.837,2.093-6.435,4.186c-1.226,1.607-1.996,3.509-2.241,5.501c-0.038,0.283-0.059,0.571-0.072,0.858
		c-0.017,0.326-0.017,0.651-0.004,0.981c0.013,0.33,0.038,0.638,0.076,0.951c0.034,0.287,0.08,0.567,0.135,0.85
		c0.397,1.958,1.302,3.78,2.643,5.293c1.75,1.97,4.122,3.277,6.731,3.699c2.604,0.419,5.268-0.076,7.547-1.395
		c0.888-0.52,1.7-1.15,2.406-1.873c0.152-0.157,0.368-0.224,0.579-0.169c1.615,0.414,8.562,2.19,10.879,2.79L471.391,78.32z"/>
	<path fill="#CAF23A" d="M39.81,19.585h44.204c0.685,0,1.239,0.554,1.239,1.239v44.204c0,0.685-0.554,1.239-1.239,1.239H38.571
		V20.824C38.571,20.143,39.125,19.585,39.81,19.585z"/>
	<path fill="#4FC26B" d="M16.472,66.266h22.1v22.1c0,0.685-0.554,1.239-1.239,1.239H16.472c-0.685,0-1.239-0.554-1.239-1.239V67.501
		c0-0.685,0.554-1.239,1.239-1.239V66.266z"/>
</g>
<g>
</g>
<g>
</g>
<g>
</g>
<g>
</g>
<g>
</g>
<g>
</g>
<g>
</g>
<g>
</g>
<g>
</g>
<g>
</g>
<g>
</g>
<g>
</g>
<g>
</g>
<g>
</g>
<g>
</g>
</svg>
