<svg width="32" height="32" viewBox="0 0 32 32" fill="none" xmlns="http://www.w3.org/2000/svg">
<path d="M23.7733 6.89334L21.88 8.78667C24.0675 10.5413 25.3383 13.1957 25.3333 16C25.3392 21.1547 21.1653 25.3381 16.0107 25.344C10.8561 25.35 6.6726 21.1761 6.66668 16.0215C6.66345 13.2107 7.92711 10.5481 10.1067 8.77334L8.22667 6.89334C3.17773 11.1864 2.56503 18.7597 6.85815 23.8087C11.1513 28.8576 18.7245 29.4703 23.7735 25.1772C26.4643 22.8892 28.0104 19.532 28 16C28.0024 12.4899 26.4557 9.15747 23.7733 6.89334Z" fill="#4B4B4B"/>
<path d="M18.6667 16C18.6667 17.4728 17.4728 18.6667 16 18.6667C14.5272 18.6667 13.3333 17.4728 13.3333 16C13.3333 14.5273 14.5272 13.3333 16 13.3333C17.4728 13.3333 18.6667 14.5273 18.6667 16Z" fill="white"/>
<path fill-rule="evenodd" clip-rule="evenodd" d="M17.3333 4H14.6667V10.8347C12.3664 11.4267 10.6667 13.5149 10.6667 16C10.6667 18.9455 13.0545 21.3333 16 21.3333C18.9455 21.3333 21.3333 18.9455 21.3333 16C21.3333 13.5149 19.6336 11.4267 17.3333 10.8347V4ZM18.6667 16C18.6667 17.4728 17.4728 18.6667 16 18.6667C14.5272 18.6667 13.3333 17.4728 13.3333 16C13.3333 14.5272 14.5272 13.3333 16 13.3333C17.4728 13.3333 18.6667 14.5272 18.6667 16Z" fill="#C73A63"/>
</svg>
