<svg xmlns="http://www.w3.org/2000/svg" viewBox="0 0 20 20">
  <path fill-rule="evenodd" d="M9.016 1.957a2.583 2.583 0 0 1 2.823.563l.581.582c.203.201.478.315.763.315h.833A2.583 2.583 0 0 1 16.6 6v.833c0 .285.113.56.314.762l.581.581.001.001a2.584 2.584 0 0 1 0 3.662v.001l-.581.58a1.086 1.086 0 0 0-.315.764v.833a2.583 2.583 0 0 1-2.584 2.583h-.833c-.285 0-.56.113-.762.314l-.581.581-.001.001a2.582 2.582 0 0 1-3.662 0l-.581-.581a1.086 1.086 0 0 0-.763-.315H6a2.584 2.584 0 0 1-2.584-2.583v-.833c0-.286-.113-.56-.314-.763l-.581-.581a2.589 2.589 0 0 1-.564-2.824c.13-.314.322-.599.563-.839l.581-.58a1.09 1.09 0 0 0 .315-.764V6A2.583 2.583 0 0 1 6 3.417h.833c.285 0 .56-.114.762-.315l.581-.58a2.59 2.59 0 0 1 .84-.565Zm4.014 5.846a.75.75 0 0 1 0 1.06l-3.333 3.334a.75.75 0 0 1-1.061 0L6.969 10.53A.75.75 0 1 1 8.03 9.47l1.136 1.136 2.803-2.803a.75.75 0 0 1 1.061 0Z" clip-rule="evenodd"/>
</svg>
