<?xml version="1.0" encoding="utf-8"?>
<!-- Generator: Adobe Illustrator 19.2.1, SVG Export Plug-In . SVG Version: 6.00 Build 0)  -->
<svg version="1.1" id="layer" xmlns="http://www.w3.org/2000/svg" xmlns:xlink="http://www.w3.org/1999/xlink" x="0px" y="0px"
	 viewBox="0 0 652 652" style="enable-background:new 0 0 652 652;" xml:space="preserve">
<style type="text/css">
	.st0{fill:#353230;}
	.st1{fill:#4CA135;}
</style>
<g>
	<path class="st0" d="M587.2,321.9"/>
</g>
<polygon class="st1" points="594.2,281.9 586.4,292.1 586.4,321.9 618.6,281.9 "/>
<polygon class="st0" points="531.2,281.9 563.3,321.9 529.7,364.5 553,364.5 574.9,336.3 597,364.6 620.3,364.6 586.4,321.9 
	555.6,281.9 "/>
<g>
	<path class="st0" d="M562.5,321.9"/>
</g>
<polygon class="st0" points="459.3,241.5 459.3,364.5 477.3,364.5 477.3,310.1 531.2,310.1 531.2,294.5 477.3,294.5 477.3,257.5 
	535.5,257.5 535.5,241.5 "/>
<g>
	<path class="st0" d="M91.9,304.7L91.9,304.7c-3.5-2.7-7.4-4.8-11.7-6.4c-4.2-1.6-8.5-3.1-12.6-4.3c-3.5-1.1-6.7-2.3-9.7-3.4
		c-3-1.1-5.6-2.4-7.8-3.9c-2.2-1.5-3.9-3.4-5.2-5.5c-1.3-2.2-1.9-4.9-1.9-8.1c0-3.4,0.7-6.3,2.1-8.6c1.4-2.4,3.2-4.4,5.5-6.1
		c2.2-1.6,4.8-2.8,7.5-3.5c2.8-0.7,5.5-1.1,8.2-1.1c5.1,0,9.7,1.1,13.7,3.1c4.1,2.1,7.3,4.8,9.7,8l0.3,0.5l12.8-12.4l-0.3-0.3
		c-3.8-4.3-8.9-7.8-15.2-10.3c-6.2-2.5-13-3.8-20.2-3.8c-5.1,0-10.2,0.7-15.2,2c-5,1.3-9.6,3.5-13.6,6.4c-4,2.9-7.3,6.6-9.8,11
		c-2.5,4.4-3.8,9.8-3.8,15.9c0,5.7,0.9,10.5,2.8,14.3c1.9,3.8,4.3,7.1,7.4,9.7c3,2.6,6.5,4.8,10.3,6.5c3.8,1.7,7.7,3.1,11.6,4.2
		c4,1.3,7.7,2.5,11.1,3.7c3.4,1.2,6.5,2.7,9.1,4.3c2.6,1.7,4.6,3.7,6.1,6.1c1.5,2.4,2.3,5.4,2.3,9c0,3.6-0.7,6.7-2.2,9.2
		c-1.5,2.5-3.4,4.6-5.6,6.3c-2.3,1.7-4.9,2.9-7.7,3.7c-2.8,0.8-5.7,1.2-8.5,1.2c-5.5,0-10.7-1.3-15.5-3.9c-4.7-2.6-8.6-6-11.4-10.2
		l-0.3-0.4l-14,11.8l0.3,0.4c4.7,5.9,10.8,10.4,18,13.4c7.2,3,14.8,4.5,22.5,4.5c5.4,0,10.8-0.8,15.9-2.3c5.1-1.5,9.7-3.8,13.7-6.9
		c3.9-3.1,7.1-7,9.5-11.7c2.4-4.7,3.6-10.3,3.6-16.7c0-6.1-1.1-11.3-3.3-15.3C98.3,310.8,95.4,307.4,91.9,304.7"/>
	<rect x="116.8" y="281.9" class="st0" width="17.2" height="82.7"/>
	<path class="st0" d="M217.3,294.3c-3.1-4.8-7.2-8.5-12.3-10.9c-5.4-2.6-11.1-3.8-17-3.8c-6.2,0-12,1.1-17.1,3.4
		c-5.1,2.3-9.5,5.4-13.1,9.3c-3.6,3.9-6.4,8.5-8.4,13.7c-2,5.2-3,10.8-3,16.7c0,5.9,1,11.5,3,16.6c2,5.1,4.8,9.7,8.4,13.5
		c3.6,3.8,8,6.9,13.2,9.1c5.1,2.2,10.9,3.3,17.2,3.3c5.9,0,11.5-1.2,16.7-3.7c4.9-2.3,8.9-5.6,11.9-9.9v9.5c0,4.2-0.5,8.1-1.4,11.8
		c-1,3.6-2.5,6.7-4.7,9.4c-2.2,2.6-5.1,4.7-8.7,6.2c-3.6,1.5-8.1,2.3-13.4,2.3c-5.5,0-11-1.2-16.3-3.6c-5.3-2.4-9.7-5.6-13.2-9.5
		l-0.4-0.4l-11,13.4l0.3,0.3c5.2,4.7,11.5,8.5,18.7,11c7.2,2.6,14.5,3.9,21.6,3.9c8.5,0,15.8-1.3,21.6-3.8c5.8-2.6,10.5-6,14.1-10.2
		c3.6-4.2,6.2-9.2,7.7-14.7c1.5-5.5,2.3-11.3,2.3-17.3v-78.1h-16.6V294.3z M216,311.5c1.3,3.4,2,7,2,10.9c0,3.9-0.7,7.7-2,11.1
		c-1.3,3.4-3.1,6.4-5.5,9c-2.4,2.5-5.3,4.5-8.7,6c-3.4,1.5-7.2,2.2-11.2,2.2c-4.2,0-7.9-0.8-11.2-2.4c-3.3-1.6-6.1-3.7-8.4-6.3
		c-2.3-2.6-4.1-5.6-5.3-9c-1.2-3.4-1.8-7-1.8-10.7c0-3.8,0.6-7.5,1.8-11c1.2-3.4,2.9-6.4,5.3-9c2.3-2.5,5.1-4.6,8.4-6.1
		c3.3-1.5,7-2.3,11.2-2.3c4.1,0,7.8,0.8,11.1,2.3c3.3,1.5,6.2,3.6,8.7,6.2C212.8,305.1,214.7,308.1,216,311.5"/>
	<path class="st0" d="M315.9,289.6L315.9,289.6c-2.6-3-5.8-5.5-9.6-7.3c-3.8-1.8-8.5-2.7-13.8-2.7c-3,0-6,0.4-8.7,1.2
		c-2.8,0.8-5.4,2-7.7,3.4c-2.3,1.5-4.4,3.2-6.2,5.1c-1.6,1.7-2.9,3.5-3.9,5.5c0-1.5-0.1-3.3-0.2-5.5c-0.1-2.6-0.2-4.9-0.4-7l0-0.4
		h-16.3l0,0.5c0.2,2.6,0.3,5.7,0.4,9.1c0.1,3.5,0.2,6.3,0.2,8.4v64.6h17.2v-43.9c0-8,2-14.5,6-19.3c4-4.7,9.1-7.2,15.4-7.2
		c3.7,0,6.7,0.7,9.1,2c2.3,1.3,4.2,3.1,5.5,5.3c1.3,2.2,2.3,4.9,2.8,7.8c0.5,3,0.8,6.1,0.8,9.4v45.8h17.2v-51.2
		c0-4.6-0.6-9-1.8-13.1C320.4,296.2,318.5,292.6,315.9,289.6"/>
	<path class="st0" d="M408,356.5c-0.2-3-0.3-6-0.3-8.7v-35.7c0-4.5-0.7-8.8-2.1-12.7c-1.4-3.9-3.5-7.4-6.3-10.3
		c-2.8-2.9-6.4-5.2-10.8-6.9c-4.3-1.7-9.5-2.5-15.4-2.5c-6.7,0-13,1.1-18.9,3.3c-5.8,2.2-10.8,5.3-14.9,9.1l-0.3,0.3l9.2,11.1
		l0.4-0.4c2.7-2.7,6.1-5,10.1-6.7c4-1.8,8.3-2.6,12.8-2.6c5.9,0,10.8,1.4,14.4,4.3c3.5,2.8,5.3,7.3,5.3,13.2v1.8
		c-6.7,0-13.5,0.3-20.1,0.9c-6.8,0.6-13,1.8-18.4,3.7c-5.5,1.9-9.9,4.7-13.3,8.4c-3.4,3.7-5.1,8.8-5.1,15.1c0,4.8,1,8.9,2.9,12.1
		c1.9,3.3,4.4,5.9,7.3,7.9c2.9,2,6.2,3.4,9.7,4.3c3.5,0.9,7,1.3,10.2,1.3c6.3,0,11.8-1.2,16.3-3.7c4.4-2.3,8.1-5.7,11.1-9.8
		c0.1,3.7,0.5,7.4,1.4,11.1l0.1,0.4h15.6l-0.1-0.6C408.5,362,408.2,359.5,408,356.5 M391.3,325.6v3.8c0,6.7-2,12.4-6,16.8
		c-4,4.4-9.7,6.6-17.1,6.6c-2,0-4-0.2-5.9-0.6c-1.9-0.4-3.6-1.1-5.2-2.1c-1.5-1-2.8-2.3-3.7-3.8c-0.9-1.5-1.4-3.5-1.4-5.8
		c0-3.3,1.1-6,3.3-7.9c2.2-2,5.1-3.5,8.5-4.6c3.5-1,7.4-1.7,11.6-2.1c4.3-0.3,8.5-0.5,12.5-0.5H391.3z"/>
	<rect x="424.3" y="238.7" class="st0" width="17.2" height="125.8"/>
	<rect x="116.9" y="255.6" class="st0" width="17.1" height="17.1"/>
</g>
</svg>
