<svg width="550" height="550" viewBox="0 0 550 550" fill="none" xmlns="http://www.w3.org/2000/svg">
<path d="M549.828 467.577C549.844 478.383 547.727 489.086 543.599 499.072C539.472 509.058 533.414 518.132 525.773 525.773C518.132 533.414 509.058 539.472 499.072 543.599C489.086 547.727 478.383 549.844 467.577 549.828H82.4742C36.9072 549.828 0 513.316 0 467.577V82.4742C0 36.9416 36.9244 0 82.4742 0H467.577C489.412 0.0591361 510.332 8.77446 525.751 24.235C541.17 39.6955 549.828 60.6394 549.828 82.4742V467.577Z" fill="#57A402"/>
<path d="M211.392 158.05C211.461 158.308 211.461 158.591 211.392 158.849L186.263 158.918V158.058L211.392 158.05Z" fill="#ACACAC"/>
<path d="M150.859 171.624C153.067 172.938 155.636 172.783 158.041 173.282C171.186 175.988 182.955 181.357 192.878 190.842C193.625 191.564 194.27 192.423 195.112 193.385L176.229 211.701L174.364 209.579C168.237 202.287 159.795 197.314 150.447 195.49C140.489 193.207 130.044 194.541 120.979 199.253C109.021 205.524 103.677 217.672 107.019 230.653C108.436 235.636 111.555 239.983 115.816 242.938C121.168 246.89 127.397 249.124 133.625 251.271L163.711 261.796C175.026 266.091 184.442 273.179 190.799 283.849C193.503 288.382 195.254 293.419 195.945 298.651C197.457 309.665 196.839 320.472 192.302 330.808C186.461 344.098 176.512 353.17 163.144 358.436C148.485 364.244 132.453 365.662 117.002 362.517C102.809 359.888 89.9914 354.304 79.201 344.416C76.7526 342.156 74.5619 339.57 72.0876 336.942L92.9811 319.244L94.9313 321.821C107.302 336.753 122.904 343.265 142.294 339.863C151.503 338.282 159.046 334.072 164.485 326.392C168.358 320.869 170.014 314.092 169.125 307.405C168.235 300.718 164.865 294.61 159.682 290.292C155.244 286.724 150.205 283.974 144.802 282.174L115.017 272.07C107.338 269.477 100.232 265.425 94.0894 260.137C89.6573 256.374 86.0458 251.741 83.4788 246.524C80.9118 241.307 79.4441 235.618 79.1667 229.811C78.72 224.287 78.9949 218.643 79.9828 213.273C82.4914 200.679 89.433 191.143 99.7165 183.806C107.724 178.234 116.918 174.605 126.572 173.204C128.428 172.887 130.524 173.204 132.113 171.658H135.361C135.79 173.05 136.924 172.259 137.766 172.517H145.198C145.713 172.517 146.229 172.019 146.744 171.658L150.859 171.624ZM246.108 278.479V359.089H219.476V176.598H332.517V200.12H246.306V255.103H326.203V278.127L325.962 278.325C325.859 278.411 325.756 278.548 325.644 278.548L246.108 278.479ZM477.612 378.007C468.282 378.007 458.943 377.921 449.631 378.282C444.906 378.454 441.727 377.216 438.84 373.127L411.211 337.603C410.854 337.038 410.547 336.443 410.292 335.825L397.715 352.234L379.613 375.636C379.032 376.51 378.228 377.215 377.284 377.677C376.341 378.139 375.292 378.341 374.244 378.265L343.058 378.196L367.938 346.409L392.818 314.751L345.309 255.472L348.557 255.232L377.38 255.129C378.689 255.034 380 255.289 381.178 255.869C382.356 256.449 383.358 257.332 384.081 258.428C397.826 276.389 411.572 294.287 425.318 312.122C425.925 312.785 426.586 313.397 427.294 313.952L427.208 313.866C427.742 314.921 428.345 315.94 429.012 316.916C444.344 336.274 459.694 355.627 475.06 374.974C475.859 375.799 476.744 376.521 477.689 377.174L477.612 378.007Z" fill="white"/>
<path d="M427.277 313.875V273.754C427.191 271.346 428.02 268.995 429.596 267.174L437.5 256.864C437.859 256.304 438.36 255.849 438.951 255.544C439.542 255.24 440.203 255.096 440.868 255.129H473.273C473.789 255.213 474.3 255.328 474.802 255.473L466.409 265.997C454.473 280.813 442.532 295.61 430.584 310.387C429.531 311.555 428.407 312.657 427.217 313.686L427.277 313.875Z" fill="#020202"/>
</svg>
