<?xml version="1.0" encoding="UTF-8"?>
<!-- Generator: Adobe Illustrator 23.0.6, SVG Export Plug-In . SVG Version: 6.00 Build 0)  -->
<svg version="1.1" id="Layer_1" xmlns="http://www.w3.org/2000/svg" xmlns:xlink="http://www.w3.org/1999/xlink" x="0px" y="0px" viewBox="0 0 1777.8 363.8" style="enable-background:new 0 0 1777.8 363.8;" xml:space="preserve">
<style type="text/css">
	.st0{fill:#52BE96;}
</style>
<title>2019_SegmentLogo_Horizontal</title>
<g>
	<g id="Logos_5_">
		<path class="st0" d="M2.4,142c-1-1.6-1.2-3.5-0.8-5.3C11.2,99,32.5,65.2,62.6,40.4c47.8-39.3,112.6-50.8,171-30.3    c1.7,0.6,3.1,1.9,3.9,3.6c0.7,1.7,0.7,3.6,0,5.3l-8.7,23.3c-1.2,3.5-5,5.3-8.5,4.1c-45.8-16-96.7-6.9-134.1,24    C62.9,90,46.3,116.4,38.9,145.9c-0.8,3-3.5,5.1-6.5,5.1h-1.5l-24-5.8c-1.8-0.4-3.3-1.6-4.3-3.1"/>
		<path class="st0" d="M350.8,200c-1.1-1.4-2.8-2.4-4.6-2.6l-24.5-2.6c-3.6-0.3-6.9,2.2-7.3,5.8c-4.4,33.4-20.4,64.1-45.1,86.9    c-38.9,36.1-95,46.9-144.5,27.8c-3.4-1.3-7.3,0.3-8.6,3.8c0,0,0,0,0,0l-9.6,23.3c-0.7,1.7-0.7,3.6,0,5.3c0.7,1.7,2.1,3.1,3.8,3.7    c20.5,8.1,42.4,12.2,64.4,12.2c44.6,0,87.5-16.8,120.2-47.2c31.5-29.2,51.7-68.6,57.1-111.2c0.3-1.8-0.3-3.7-1.4-5.1"/>
		<path class="st0" d="M215.2,233.9v-25.1c0-3.8-3-6.8-6.8-6.9c0,0,0,0,0,0H7.7c-3.8,0-6.8,3.1-6.8,6.9c0,0,0,0,0,0v25.1    c0,3.8,3,6.8,6.8,6.9c0,0,0,0,0,0h200.7C212.2,240.8,215.2,237.7,215.2,233.9C215.2,233.9,215.2,233.9,215.2,233.9"/>
		<path class="st0" d="M138,117.6v25.1c0,3.7,3,6.8,6.7,6.9h200.7c3.8,0,6.8-3.1,6.8-6.9c0,0,0,0,0,0v-25.1    c-0.1-3.7-3.1-6.6-6.8-6.6H144.7c-3.7,0.1-6.7,3.1-6.7,6.9"/>
		<path class="st0" d="M284.7,34.2c-11.4-0.2-20.7,8.9-20.9,20.2s8.9,20.7,20.2,20.9c11.4,0.2,20.7-8.9,20.9-20.2c0-0.1,0-0.2,0-0.3    C305,43.6,296,34.4,284.7,34.2"/>
		<path class="st0" d="M61.3,283.1c-11.4-0.2-20.7,8.9-20.9,20.2c-0.2,11.4,8.9,20.7,20.2,20.9c11.4,0.2,20.7-8.9,20.9-20.2    c0-0.1,0-0.2,0-0.3C81.6,292.4,72.6,283.2,61.3,283.1"/>
		<path class="st0" d="M755.6,164.1h-83c2.3-20.9,20.2-36.6,41.2-36.3C737.6,127.8,753.5,141.7,755.6,164.1 M713.5,92.4    c-40.3,0-82,34.3-82,91.7c-0.9,25.3,8.4,49.9,25.8,68.3c16,15.9,37.7,24.7,60.3,24.4c34.3,1,65.3-20.5,76.3-53.1    c0.6-1.3,0.6-2.8,0-4.1c-0.6-1.3-1.7-2.4-3.1-2.8l-23.7-8.3c-2.8-0.9-5.8,0.5-6.8,3.3c-5.5,18.6-23.1,30.9-42.4,29.6    c-25,0.5-45.7-19.3-46.4-44.3H790c2.8,0,5.1-2.1,5.4-4.9c0.3-2.9,0.5-5.9,0.5-8.8C795.9,127.2,764.3,92.4,713.5,92.4"/>
		<path class="st0" d="M950.2,180.5c0,30.5-17.8,51-44.3,51c-27.8,0-45-19.5-45-51s17.5-51.1,45-51.1    C932.4,129.4,950.2,149.9,950.2,180.5 M982.6,97.7h-27.9c-3,0.2-5.3,2.6-5.5,5.5v10.4c-10.4-12.5-26.9-19.1-48.1-19.1    c-22-0.3-43.2,8.8-58,25.1c-14.6,16.8-22.5,38.5-22,60.8c0,49.6,33.6,85.6,80.1,85.6c18.2,0.6,35.7-6.9,47.8-20.5v13.6    c0,35-15.2,51.7-47.8,51.7c-21.3,0.5-39.5-15.3-42-36.4c-0.4-3-3.2-5.1-6.2-4.6c-0.1,0-0.3,0-0.4,0.1l-27.3,6.4    c-2.7,0.8-4.5,3.4-4.2,6.2c5.4,37.7,38.4,64.1,80.1,64.1c30,0,52.9-9.3,67.9-27.6c13.2-17.5,19.9-38.9,19-60.8v-155    C987.9,100.3,985.6,97.9,982.6,97.7"/>
		<path class="st0" d="M1215.2,92.4c-22.3-1-43.4,9.9-55.6,28.5c-10.2-18.1-29.5-29.1-50.3-28.5c-17.9-0.2-35.1,7.2-47.2,20.5v-10    c-0.1-3-2.5-5.4-5.5-5.5h-26.9c-3,0.2-5.3,2.6-5.4,5.5v165.5c0.1,3,2.5,5.3,5.4,5.5h27.9c3-0.2,5.3-2.6,5.5-5.5V168.1    c0-23.8,14.3-39.8,35.6-39.8c28,0,32.1,22.3,32.1,35.5v104.5c0.1,3,2.5,5.4,5.5,5.5h28.3c3-0.2,5.3-2.6,5.5-5.5V167.8    c0-23.3,14.5-39.4,35-39.4c28,0,32.1,22.3,32.1,35.5v104.5c0.1,3,2.5,5.4,5.5,5.5h27.9c3-0.2,5.3-2.6,5.5-5.5v-108    C1276.1,113.7,1245.5,92.4,1215.2,92.4"/>
		<path class="st0" d="M1343.7,164.1c2.3-20.9,20.2-36.6,41.2-36.3c23.8,0,39.7,13.9,41.7,36.3H1343.7z M1384.5,92.4    c-40.3,0-82,34.3-82,91.7c-0.9,25.3,8.4,49.9,25.8,68.3c16,15.9,37.7,24.7,60.2,24.4c34.3,1,65.3-20.5,76.3-53.1    c0.5-1.4,0.4-2.9-0.3-4.1c-0.6-1.3-1.7-2.4-3.1-2.8l-23.7-8.3c-2.8-0.9-5.8,0.5-6.8,3.3c-5.5,18.6-23.1,30.8-42.4,29.6    c-24.9,0.4-45.5-19.3-46.2-44.3h118.6c2.8,0,5.1-2.1,5.4-4.9c0.3-2.9,0.5-5.9,0.5-8.8c0-56.1-31.5-91-82.3-91"/>
		<path class="st0" d="M1585.4,92.4c-18.6-0.4-36.3,7.7-48.2,22v-11.7c-0.1-3-2.5-5.3-5.4-5.5h-27.6c-3,0.2-5.3,2.6-5.5,5.5v165.6    c0.1,3,2.5,5.4,5.5,5.5h28.2c3-0.2,5.3-2.6,5.5-5.5v-96c-0.4-11,2.8-21.9,9.1-31c6.4-8.1,16.2-12.7,26.5-12.4    c23.3,0,35.6,13.3,35.6,39.4v99.9c0.1,3,2.5,5.4,5.5,5.5h28.3c3-0.2,5.3-2.6,5.4-5.5V162.8c0.7-17.9-4.8-35.6-15.6-49.8    C1621,99.2,1603.5,91.6,1585.4,92.4"/>
		<path class="st0" d="M1771.4,134.2c3,0,5.5-2.5,5.4-5.5c0,0,0,0,0,0v-25.4c0-3.1-2.4-5.6-5.4-5.8h-30.7V49.6    c0-3.1-2.4-5.6-5.5-5.8h-25.5c-3.1,0.2-5.5,2.7-5.5,5.8v25.3c0,19.9-14.1,22.8-22.4,22.8h-6.9c-3.1,0.2-5.5,2.7-5.5,5.8V129    c0.1,3,2.5,5.4,5.5,5.5h26.5v89.7c0,31.9,19.1,51.7,49.8,51.7c7.3,0.1,14.6-0.8,21.6-2.8c2.3-0.7,3.9-2.9,3.9-5.3v-24    c0-1.6-0.7-3.1-1.9-4.2c-1.2-1-2.8-1.5-4.4-1.2c-3.2,0.5-6.5,0.8-9.8,0.8c-14.4,0-20-5.8-20-19.9v-85.1H1771.4z"/>
		<path class="st0" d="M610.2,222.4c0-26.5-19.9-45.5-54.6-52.5l-31.1-5.8c-16.8-3.2-20.4-12.1-20.4-18.9    c0-10.4,11.2-21.1,29.9-21.1c26.8,0,35,15.4,37.4,24.5c0.3,1.1,1.1,2.1,2.2,2.6c1.3,0.5,2.7,0.5,3.9,0l28.3-9.3    c2-0.5,3.2-2.5,2.8-4.5c0,0,0,0,0,0c-3.6-11.2-10.4-21.2-19.6-28.5c-13.6-10.9-32.1-16.4-54.9-16.4c-38.1,0-70.3,25.4-70.3,55.4    c0,24.7,19,43.6,49.5,49.4l32.7,6.4c14.8,3,23.3,10.4,23.3,20.4c0,10-9.6,21.1-30.8,21.1c-22.7,0-38.5-10.4-42.2-27.9    c-0.3-1.2-1.1-2.1-2.2-2.6c-0.7-0.4-1.6-0.6-2.4-0.6c-0.5-0.1-1.1-0.1-1.6,0l-29.2,9.1c-1.9,0.5-3.2,2.3-2.9,4.3    c4,18.2,25.4,49,79.9,49c47,0,72.3-28,72.3-54.4"/>
	</g>
</g>
</svg>
