<svg viewBox="0 0 256 238" xmlns="http://www.w3.org/2000/svg" preserveAspectRatio="xMidYMid"><path d="M159.58 162.377H12.294C5.5 162.377 0 156.876 0 150.084c0-6.792 5.501-12.293 12.293-12.293H159.58c6.791 0 12.292 5.501 12.292 12.293 0 6.792-5.5 12.293-12.292 12.293zm84.127-62.454H96.426c-6.792 0-12.293-5.501-12.293-12.293 0-6.792 5.5-12.293 12.293-12.293h147.281c6.792 0 12.293 5.5 12.293 12.293 0 6.792-5.501 12.293-12.293 12.293zm-30.45-59.139c0 6.79-5.503 12.293-12.292 12.293-6.79 0-12.293-5.503-12.293-12.293 0-6.789 5.503-12.292 12.293-12.292 6.789 0 12.293 5.503 12.293 12.292zM67.326 196.948c0 6.789-5.503 12.292-12.293 12.292-6.789 0-12.293-5.503-12.293-12.292 0-6.79 5.504-12.293 12.293-12.293 6.79 0 12.293 5.503 12.293 12.293z" fill="#93C8A2"/><path d="M127.933 237.522c-11.992 0-23.836-1.782-35.2-5.305-6.482-2.008-10.108-8.89-8.1-15.37 2.008-6.512 8.907-10.136 15.373-8.11 9.006 2.796 18.399 4.209 27.927 4.209 41.69 0 77.89-26.754 90.081-66.593a12.271 12.271 0 0115.343-8.14c6.487 1.966 10.136 8.847 8.152 15.328-15.37 50.224-61.015 83.98-113.576 83.98zM26.109 99.84a12.286 12.286 0 01-11.75-15.887C29.734 33.733 75.378 0 127.934 0c12 0 23.845 1.782 35.2 5.308a12.286 12.286 0 018.1 15.373 12.271 12.271 0 01-15.373 8.097 95.04 95.04 0 00-27.927-4.177c-41.682 0-77.887 26.753-90.078 66.592a12.296 12.296 0 01-11.743 8.693l-.003-.046z" fill="#43AF79"/></svg>
