<svg viewBox="0 0 26 24" xmlns="http://www.w3.org/2000/svg"><g fill="none" fill-rule="evenodd"><path d="M11.994 9.986c-1.065 1.79-2.085 3.522-3.126 5.242-.267.441-.4.801-.186 1.363.59 1.55-.242 3.059-1.806 3.468-1.474.387-2.91-.582-3.203-2.16-.26-1.398.825-2.768 2.365-2.986.13-.019.261-.021.478-.037l2.344-3.93C7.386 9.481 6.509 7.767 6.703 5.644c.137-1.5.727-2.797 1.806-3.86a6.13 6.13 0 017.65-.803c2.335 1.501 3.405 4.424 2.493 6.926l-2.141-.58c.286-1.392.074-2.641-.864-3.711-.62-.707-1.415-1.077-2.32-1.213-1.813-.274-3.593.89-4.121 2.67-.6 2.02.308 3.67 2.788 4.913" fill="#C73A63"/><path d="M15.034 7.87l2.266 3.996c3.814-1.18 6.69.932 7.722 3.193 1.246 2.73.395 5.965-2.053 7.65-2.512 1.73-5.69 1.434-7.915-.788L16.8 20.46c2.198 1.424 4.121 1.356 5.549-.33a3.826 3.826 0 00-.062-4.991c-1.446-1.625-3.382-1.675-5.722-.115-.971-1.722-1.959-3.43-2.9-5.166-.316-.585-.666-.924-1.38-1.048-1.194-.206-1.964-1.231-2.01-2.38a2.615 2.615 0 011.669-2.56 2.603 2.603 0 012.947.804c.57.719.75 1.529.45 2.416-.083.247-.19.487-.307.78" fill="#4B4B4B"/><path d="M16.826 18.685h-4.592c-.44 1.81-1.391 3.272-3.03 4.202-1.273.722-2.645.967-4.106.731-2.69-.433-4.889-2.855-5.082-5.581-.22-3.089 1.903-5.834 4.733-6.45l.588 2.133c-2.596 1.324-3.495 2.993-2.768 5.08.64 1.836 2.457 2.843 4.43 2.454 2.014-.398 3.03-2.072 2.906-4.76 1.91 0 3.821-.019 5.731.01.746.012 1.322-.065 1.884-.723.925-1.082 2.627-.984 3.624.038a2.602 2.602 0 01-.108 3.725 2.597 2.597 0 01-3.654-.126c-.2-.215-.358-.47-.556-.733" fill="#4A4A4A"/></g></svg>