<svg width="914" height="300" viewBox="0 0 914 300" fill="none" xmlns="http://www.w3.org/2000/svg">
<path d="M298.5 150C298.497 189.56 282.781 227.499 254.807 255.471C226.833 283.444 188.893 299.158 149.333 299.158C66.9579 299.158 0.182861 232.383 0.182861 150.008C0.182861 67.6333 66.9662 0.858337 149.333 0.858337C231.7 0.858337 298.483 67.6416 298.483 150.025" fill="#1A1918"/>
<path d="M151.85 91.9667L190.45 187.233L132.15 141.317L151.85 91.9667ZM220.417 209.175L161.042 66.2917C159.35 62.175 156.042 59.9917 151.842 59.9917C147.642 59.9917 144.092 62.175 142.392 66.2917L77.2253 223.017H99.517L125.309 158.4L202.292 220.592C205.392 223.092 207.625 224.225 210.525 224.225C216.342 224.225 221.425 219.867 221.425 213.575C221.425 212.55 221.059 210.925 220.409 209.175H220.417Z" fill="white"/>
<path d="M502.934 194.617C501.392 194.617 499.734 194.225 498.576 192.667L449.134 127.65V193.967H437.859V112.3C437.859 108.967 440.551 106.45 443.626 106.45C445.417 106.45 446.959 106.975 448.109 108.533L497.417 173.417V107.358H508.692V188.892C508.7 189.649 508.556 190.401 508.269 191.102C507.981 191.802 507.556 192.439 507.018 192.972C506.481 193.506 505.842 193.927 505.139 194.209C504.436 194.492 503.683 194.63 502.926 194.617H502.934ZM568.159 195.4C556.892 195.4 545.101 193.067 534.092 188.9L536.784 179.542C546.901 182.875 557.917 185.125 568.159 185.125C582.376 185.125 589.809 180.058 589.809 172.908C589.809 166.408 584.042 163.158 564.192 153.792C544.342 144.425 536.526 138.458 536.526 126.75C536.526 112.058 547.792 106.083 569.059 106.083C577.892 106.083 591.559 107.917 599.292 110.25L597.501 119.867C588.265 117.662 578.812 116.488 569.317 116.367C554.334 116.367 548.184 119.225 548.184 126.383C548.184 133.4 552.667 136.383 573.667 146.15C595.834 156.425 601.459 161.625 601.459 172.292C601.459 187.767 586.851 195.442 568.159 195.442V195.4ZM626.859 107.217H638.509V193.817H626.859V107.217ZM716.359 153.592H687.409V182.983H716.359C726.217 182.983 732.242 176.733 732.242 168.025C732.242 159.833 725.967 153.592 716.359 153.592ZM710.717 116.142H687.409V143.842H710.717C720.067 143.842 726.859 137.858 726.859 129.533C726.859 121.342 720.967 116.142 710.717 116.142ZM716.484 192.858H681.651C678.317 192.858 675.759 190.258 675.759 187.008V112.108C675.776 110.555 676.404 109.071 677.506 107.976C678.609 106.882 680.097 106.265 681.651 106.258H710.467C728.134 106.258 738.634 114.967 738.634 128.625C738.634 136.125 734.276 142.925 727.617 146.958C737.484 149.958 744.142 158.142 744.142 168.025C744.142 181.808 732.751 192.858 716.476 192.858H716.484ZM778.142 191.9C774.942 191.9 772.309 189.167 772.309 186.05V105.217H783.976V181.283H830.501V191.817L778.142 191.9ZM884.784 192.375C860.951 192.375 846.617 183.542 846.617 165.708C846.617 157.258 851.367 149.192 860.584 145.425C853.084 140.742 849.309 134.108 849.309 126.825C849.309 110.7 861.742 103.025 885.142 103.025C894.57 103.064 903.969 104.067 913.192 106.017L911.909 115.642C902.176 114.083 893.076 113.175 884.242 113.175C869.126 113.175 861.059 117.342 861.059 127.342C861.059 135.275 868.492 141.508 878.359 141.508H898.342C898.996 141.498 899.646 141.619 900.253 141.863C900.86 142.107 901.412 142.47 901.876 142.93C902.341 143.391 902.71 143.939 902.96 144.543C903.21 145.148 903.337 145.796 903.334 146.45C903.334 149.308 901.167 151.517 898.334 151.517H876.817C865.542 151.517 858.376 157.1 858.376 165.683C858.376 178.292 870.026 182.067 884.626 182.067C892.567 182.067 903.326 181.033 912.126 178.95L913.792 188.433C904.392 190.968 894.704 192.282 884.967 192.342L884.784 192.375ZM374.109 124.358L394.526 175.508L363.692 150.842L374.109 124.358ZM410.376 187.292L378.976 110.575C378.076 108.367 376.284 107.192 374.109 107.192C373.029 107.173 371.969 107.487 371.074 108.093C370.179 108.698 369.493 109.565 369.109 110.575L334.759 197.017L346.426 194.717L360.067 160.025L400.776 193.417C402.417 194.75 403.592 195.367 405.134 195.367C405.891 195.379 406.642 195.24 407.344 194.957C408.046 194.674 408.685 194.253 409.221 193.719C409.758 193.186 410.182 192.55 410.469 191.85C410.756 191.149 410.9 190.399 410.892 189.642C410.839 188.833 410.659 188.037 410.359 187.283L410.376 187.292Z" fill="#1A1918"/>
</svg>
