<?xml version="1.0" encoding="UTF-8"?> <!-- Generator: Adobe Illustrator 24.0.1, SVG Export Plug-In . SVG Version: 6.00 Build 0) --> <svg xmlns="http://www.w3.org/2000/svg" xmlns:xlink="http://www.w3.org/1999/xlink" version="1.1" id="Layer_1" x="0px" y="0px" viewBox="0 0 2000 438.9" style="enable-background:new 0 0 2000 438.9;" xml:space="preserve"> <style type="text/css"> .st0{fill:#2962FF;} </style> <g> <g> <path class="st0" d="M389,60.3L389,60.3l0,257.2h150.8v-49.9h-96V115C443.7,84.8,419.2,60.3,389,60.3z"></path> <rect x="568.7" y="142.2" class="st0" width="52.3" height="175.2"></rect> <path class="st0" d="M1000.1,241.7c0,16.9-7.9,33-29.3,33c-20.3,0-27.2-15.5-27.2-32.4V142.2h-52.3v115 c0,37.2,22.7,64.7,61.3,64.7c18.6,0,37.9-7.6,50.3-25.5v21h49.6V142.2h-52.3V241.7z"></path> <rect x="1098.3" y="142.2" class="st0" width="52.3" height="175.2"></rect> <path class="st0" d="M1731.1,208.7l-14.1-3.1c-15.1-3.4-21.7-6.5-21.7-15.5c0-8.6,9-12.4,19.3-12.4c10,0,20.3,3.1,20.3,17.9h53.4 c-3.1-39.6-33-57.8-73-57.8c-39.9,0-73,20-73,56.1c0,35.8,27.2,47.9,58.2,54.1l16.9,3.4c12.7,2.8,20,6.5,20,16.2 c0,10-8.6,14.8-22,14.8c-13.8,0-24.4-5.9-24.4-22h-55.1c2.4,43.4,35.1,61.6,80.9,61.6c42.3,0,74.7-19.6,74.7-58.9 C1791.4,227.9,1765.5,216.2,1731.1,208.7z"></path> <path class="st0" d="M2000,227.3c0-50.3-34.8-89.5-91.6-89.5c-54.1,0-93.6,41.3-93.6,92.3s37.2,91.9,92.9,91.9 c46.5,0,78.2-24.1,88.8-61.3h-50.6c-7.6,13.1-19.6,19.3-37.5,19.3c-23.8,0-39.2-14.8-43.7-36.8H2000V227.3z M1867.1,208.7 c6.2-17.2,20.7-28.6,41.3-28.6c20.7,0,35.5,10.7,41,28.6H1867.1z"></path> <path class="st0" d="M1553.1,152.1c-14.1-8.7-30.7-13.7-48.5-13.7c-51.3,0-93,41.6-93,93c0,51.3,41.6,93,93,93 c17.8,0,34.4-5,48.5-13.7v6.8h49.9V142.2h-49.9V152.1z M1504.6,277.8c-25.6,0-46.4-20.8-46.4-46.4s20.8-46.4,46.4-46.4 s46.4,20.8,46.4,46.4S1530.2,277.8,1504.6,277.8z"></path> <path class="st0" d="M1300.9,138.6c-20-1.3-38.8,3.8-54.5,13.5V85.8c0-27.6-22.3-49.9-49.9-49.9l0,0v281.6h49.9v-6.8 c14.1,8.7,30.7,13.7,48.5,13.7c53.5,0,96.5-45.3,92.7-99.6C1384.4,178.7,1346.9,141.5,1300.9,138.6z M1294.8,277.8 c-25.6,0-46.4-20.8-46.4-46.4s20.8-46.4,46.4-46.4c25.6,0,46.4,20.8,46.4,46.4S1320.5,277.8,1294.8,277.8z"></path> <path class="st0" d="M594.9,60.3c-17,0-30.8,13.8-30.8,30.8s13.8,30.8,30.8,30.8c17,0,30.8-13.8,30.8-30.8S611.9,60.3,594.9,60.3z "></path> <path class="st0" d="M1124.4,60.3c-17,0-30.8,13.8-30.8,30.8s13.8,30.8,30.8,30.8c17,0,30.8-13.8,30.8-30.8 S1141.4,60.3,1124.4,60.3z"></path> <path class="st0" d="M798.1,142.2v10.3c-15.7-9.9-34.6-15.2-54.8-14c-46.3,2.7-84.1,40-87.2,86.3c-3.7,54.3,39.2,99.5,92.8,99.5 c16.8,0,32.5-4.5,46.1-12.3v74.4c0,28.9,23.4,52.3,52.3,52.3h0v-61.2V209.7v-67.4H798.1z M750.5,277.8 c-25.6,0-46.4-20.8-46.4-46.4c0-25.6,20.8-46.4,46.4-46.4c25.6,0,46.4,20.8,46.4,46.4C796.9,257,776.1,277.8,750.5,277.8z"></path> <g> <ellipse class="st0" cx="133.5" cy="53.6" rx="133.5" ry="53.6"></ellipse> <path class="st0" d="M136.6,288.7C93.9,298.9,50,309.5,21.9,328.1C7.9,319.3,0,309.3,0,299.8c0-42.4,70.8-58.4,139.2-73.9 c49.3-11.1,99.6-22.6,127.8-45.5v37.3C267,257.5,200.7,273.3,136.6,288.7z"></path> <path class="st0" d="M134.2,203.7C82.3,215.5,29.2,227.5,0,252.6v-8.3c0-73.8,80.9-92.7,159.2-111c56.9-13.3,84.5-20.3,107.8-39 v41.3C267,173.7,199.5,189,134.2,203.7z"></path> <path class="st0" d="M267,264c-27.8,23.4-77,35.2-125.1,46.8c-34.5,8.3-69.9,16.8-94.9,29.1c22.6,8.1,52.3,13.5,86.5,13.5 c77.8,0,133.5-27.9,133.5-53.6V264z"></path> </g> </g> </g> </svg> 