<svg width="40" height="40" viewBox="0 0 24 24" fill="none" xmlns="http://www.w3.org/2000/svg">
<path fill-rule="evenodd" clip-rule="evenodd" d="M12 23C18.0752 23 23 18.075 23 12C23 5.92485 18.0752 1.00003 12 1.00003C5.92482 1.00003 1 5.92485 1 12C1 18.075 5.92482 23 12 23ZM19.6574 11.1768C19.9255 11.2305 20.1245 11.4659 20.1245 11.7484C20.1245 11.9291 20.0408 12.0921 19.9096 12.1997L19.9072 12.2017C19.8953 12.2114 19.8831 12.2205 19.8705 12.2291L19.8705 12.2291C19.8665 12.232 19.8626 12.2348 19.8584 12.2375C19.85 12.243 19.8414 12.2481 19.8325 12.2532C19.8303 12.2544 19.8282 12.2557 19.826 12.257C19.8203 12.2604 19.8146 12.2638 19.8087 12.2669L19.8071 12.2675C19.7263 12.3099 19.6342 12.3344 19.5363 12.3344H14.3259C14.3645 12.4941 14.4062 12.6739 14.4514 12.8691L14.4624 12.9167L14.4624 12.9169C14.7481 14.15 15.5068 17.4254 16.3125 17.4254L16.3282 17.4258L16.337 17.4245L16.3525 17.4247C16.982 17.4245 17.3034 16.5144 18.0074 14.5205L18.016 14.4965C18.1291 14.1762 18.2567 13.8148 18.3948 13.4327L18.4301 13.3351L18.4306 13.3353C18.4666 13.2399 18.5585 13.172 18.6665 13.172C18.8056 13.172 18.9185 13.2849 18.9185 13.4241C18.9185 13.4495 18.9148 13.4738 18.9077 13.4967H18.9079L18.8785 13.5948C18.805 13.8323 18.727 14.1554 18.6369 14.5296L18.6366 14.5309C18.2167 16.2701 17.5827 18.8962 15.9565 18.8962H15.9445C14.8938 18.8878 14.265 17.2082 13.9963 16.4906L13.9961 16.4902C13.4938 15.1485 13.1137 13.7189 12.7472 12.3344H7.95098L6.95524 15.5211L6.94088 15.5096C6.84966 15.6528 6.68996 15.7447 6.51369 15.7447C6.23582 15.7447 6.00853 15.5185 6.00721 15.2404L6.00787 15.2232L6.06817 14.8627C6.20578 14.0439 6.37056 13.1939 6.55853 12.3344H4.53303L4.52552 12.3267C4.15775 12.2737 3.87546 11.9494 3.87546 11.5713C3.87546 11.2004 4.13787 10.885 4.49946 10.821C4.53259 10.8165 4.59952 10.8108 4.73647 10.8108C4.76562 10.8108 4.79831 10.811 4.83476 10.8117C5.47687 10.8227 6.15785 10.8331 6.90488 10.8426C7.96225 6.54686 9.18661 4.3663 10.5448 4.36011C12.0024 4.36011 13.0834 7.67889 13.9489 10.925L13.9524 10.938C15.7305 10.9736 17.6259 11.0255 19.4683 11.1574L19.5454 11.1646C19.575 11.1651 19.6039 11.168 19.6324 11.1726L19.6432 11.1737C19.6448 11.1739 19.6463 11.1743 19.6479 11.1747C19.6494 11.1751 19.651 11.1755 19.6525 11.1757L19.6536 11.176C19.6549 11.1763 19.6561 11.1766 19.6574 11.1768ZM10.4884 5.82899C10.5654 5.82899 10.6348 5.87118 10.6958 5.95158C10.8488 6.18903 11.1132 6.72158 11.5044 7.91126C11.7721 8.72522 12.0641 9.73355 12.3732 10.91C11.2009 10.8919 10.015 10.8784 8.86663 10.8654L8.28504 10.8587C8.94195 8.29052 9.74353 6.34144 10.3293 5.88134C10.3666 5.85749 10.4247 5.82899 10.4884 5.82899Z" fill="#00A7CF"/>
</svg>
