<svg id="Layer_1" data-name="Layer 1" xmlns="http://www.w3.org/2000/svg" xmlns:xlink="http://www.w3.org/1999/xlink" viewBox="0 0 100 100"><defs><style>.cls-1{fill:#1a1b1c;}.cls-2{clip-path:url(#clip-path);}.cls-3{isolation:isolate;}.cls-4{fill:#fff;stroke:#1a1b1c;stroke-linejoin:round;stroke-width:0.5px;}</style><clipPath id="clip-path"><circle class="cls-1" cx="50" cy="50" r="50"/></clipPath></defs><title>logo_new</title><circle class="cls-1" cx="50" cy="50" r="50"/><g class="cls-2"><g class="cls-3"><path class="cls-4" d="M68.49,51.9c0,.38,0,.76,0,1.13a.5.5,0,0,1,0,.17C68.49,52.77,68.5,52.34,68.49,51.9Z"/><path class="cls-4" d="M68.47,53.2a.5.5,0,0,0,0-.17c0-.37,0-.75,0-1.13C68.5,52.34,68.49,52.77,68.47,53.2Z"/><path class="cls-4" d="M68.49,51.9c0,.44,0,.87,0,1.3a1.09,1.09,0,0,1,0,.18c0,.22,0,.44,0,.66a19.91,19.91,0,0,1-.27,2.21c0,.24-.09.49-.14.73-.08.39-.17.77-.27,1.15s-.18.63-.29.95-.2.61-.31.91-.19.49-.29.73l-.25.58a2,2,0,0,1-.1.21c-.1.22-.21.45-.33.66s-.24.47-.36.69-.27.46-.42.68-.34.54-.51.79a18.72,18.72,0,0,1-1.24,1.58c-.2.22-.39.43-.6.64s-.44.45-.68.66-.4.37-.61.54-.58.48-.88.7l-.74.5-.64.4A16.52,16.52,0,0,1,55.76,71l-.32.09-.34.09-.33.08-.33.07a15.42,15.42,0,0,1-2,.28,16.8,16.8,0,0,1-3.4,0,17.13,17.13,0,0,1-1.88-.31,20.63,20.63,0,0,1-6.8-2.89A23.48,23.48,0,0,1,34.66,63c-.25-.32-.49-.64-.71-1l4.31-2.16a18,18,0,0,0,4.18,3.82,15.14,15.14,0,0,0,5.09,2.14,11.33,11.33,0,0,0,1.42.22A12.41,12.41,0,0,0,52.39,66l.57-.1.24-.06.25-.06.24-.06.24-.07a12.42,12.42,0,0,0,1.85-.71l.56-.3a1.59,1.59,0,0,0,.26-.14,10.69,10.69,0,0,0,1.82-1.32,4.23,4.23,0,0,0,.4-.34l.12-.11a13.82,13.82,0,0,0,3.12-4.55,15.9,15.9,0,0,0,1.24-5.51c0-.12,0-.25,0-.38A17.5,17.5,0,0,0,63.1,49c-.07-.45-.16-.91-.27-1.37a17.41,17.41,0,0,0-.52-1.8,18.64,18.64,0,0,0-2.63-5l-.39-.51a17.57,17.57,0,0,0-4.41-4,15.61,15.61,0,0,0-2.71-1.36,14.05,14.05,0,0,0-2.51-.72c-.39-.07-.78-.12-1.17-.16a13.7,13.7,0,0,0-2.48,0,11.54,11.54,0,0,0-1.82.31l-.25.06-.24.07-.24.07-.25.08-.37.13a10.44,10.44,0,0,0-1,.41c-.21.09-.42.2-.64.32s-.41.24-.61.37a5.69,5.69,0,0,0-.52.33c-.34.24-.66.49-1,.75-.14.12-.28.24-.41.37l-.23.22s0,0,0,0l0,0a1.41,1.41,0,0,0-.17.18,4.38,4.38,0,0,0-.36.39,4.47,4.47,0,0,0-.35.41l-.27.33a5.6,5.6,0,0,0-.36.49,14.41,14.41,0,0,0-1,1.65l-.2.4c-.13.28-.25.56-.37.85a14.1,14.1,0,0,0-.48,1.38c0,.13-.07.26-.11.39s-.08.31-.11.47-.11.47-.15.7v0a15.7,15.7,0,0,0-.27,2.09c0,.18,0,.37,0,.55a1.48,1.48,0,0,0,0,.21c0,.15,0,.3,0,.46a15.88,15.88,0,0,0,.23,2.64L30,53.06a23.66,23.66,0,0,1-.6-5.17V47.4a23.67,23.67,0,0,1,.2-2.81,21.4,21.4,0,0,1,1.29-5,18.71,18.71,0,0,1,4.09-6.33,16.5,16.5,0,0,1,6.43-4l.32-.11.32-.1.33-.09.34-.09a16.79,16.79,0,0,1,5.73-.44,15,15,0,0,1,1.62.22,18.89,18.89,0,0,1,2.1.51,20.38,20.38,0,0,1,4.95,2.25,23.34,23.34,0,0,1,6,5.35c.5.64,1,1.3,1.43,2a26.25,26.25,0,0,1,2.66,5.51c.12.34.22.67.32,1q.28.93.48,1.86c0,.23.1.46.14.69q.12.64.21,1.29l.06.52c0,.39.07.77.1,1.15a2.62,2.62,0,0,1,0,.28C68.47,51.37,68.49,51.63,68.49,51.9Z"/><path class="cls-4" d="M46,34.05a12.7,12.7,0,0,0-4.58,6,16,16,0,0,0-1.06,5.57V46l-2.75-.36a.47.47,0,0,0-.17,0h0c-.47,0-.84.77-.84,1.71A1.87,1.87,0,0,0,37.26,49h0a.37.37,0,0,0,.18,0h0l1.64.23-4.7,2a15.88,15.88,0,0,1-.23-2.64c0-.16,0-.31,0-.46a1.48,1.48,0,0,1,0-.21c0-.18,0-.37,0-.55a15.7,15.7,0,0,1,.27-2.09v0c0-.23.09-.47.15-.7s.07-.31.11-.47.07-.26.11-.39a14.1,14.1,0,0,1,.48-1.38c.12-.29.24-.57.37-.85l.2-.4a14.41,14.41,0,0,1,1-1.65,5.6,5.6,0,0,1,.36-.49l.27-.33c.11-.14.23-.28.35-.41a4.38,4.38,0,0,1,.36-.39l.21-.21s0,0,0,0l.23-.22c.13-.13.27-.25.41-.37.31-.26.63-.51,1-.75a5.69,5.69,0,0,1,.52-.33c.2-.13.4-.26.61-.37l.64-.32a10.44,10.44,0,0,1,1-.41l.37-.13.25-.08.24-.07.24-.07.25-.06A11.54,11.54,0,0,1,46,34.05Z"/><path class="cls-4" d="M37.49,49h0a.37.37,0,0,1-.18,0Z"/><path class="cls-4" d="M58.94,62.72l-.12.11a4.23,4.23,0,0,1-.4.34,10.69,10.69,0,0,1-1.82,1.32,1.59,1.59,0,0,1-.26.14l-.56.3a12.42,12.42,0,0,1-1.85.71l-.24.07-.24.06-.25.06-.24.06-.57.1a12.41,12.41,0,0,1-3.44.09,11.33,11.33,0,0,1-1.42-.22,15.14,15.14,0,0,1-5.09-2.14,18,18,0,0,1-4.18-3.82l6-3a17.09,17.09,0,0,0,4.13,3.77l.52.32,0,3.15h0v0c0,.47.79.85,1.73.85s1.67-.36,1.73-.81h0a.09.09,0,0,0,0,0,.06.06,0,0,0,0,0s0,0,0,0V62.53l1,.24a13,13,0,0,0,5.31,0l.24-.05Z"/><path class="cls-4" d="M52.39,64.17a.09.09,0,0,1,0,0v-.09A.06.06,0,0,1,52.39,64.17Z"/><path class="cls-4" d="M70.11,51.88c0,1,.41,1.86.92,1.86l2.32.33c-.14.67-.32,1.33-.52,2a19,19,0,0,1-3,5.85A16.94,16.94,0,0,1,65,66.13l-5.51,3.22.64-.4c.25-.16.5-.32.74-.5s.6-.46.88-.7.41-.35.61-.54.46-.43.68-.66.4-.42.6-.64a18.72,18.72,0,0,0,1.24-1.58c.17-.25.34-.51.51-.79s.28-.45.42-.68.25-.45.36-.69.23-.44.33-.66a2,2,0,0,0,.1-.21l.25-.58c.1-.24.2-.48.29-.73s.22-.6.31-.91a.25.25,0,0,1,0-.07c.09-.3.17-.59.25-.88s.19-.76.27-1.15c0-.24.1-.49.14-.73A19.91,19.91,0,0,0,68.42,54c0-.22,0-.44,0-.66a1.09,1.09,0,0,0,0-.18.5.5,0,0,0,0-.17c0-.37,0-.75,0-1.13s0-.53,0-.8a2.62,2.62,0,0,0,0-.28c0-.38-.06-.76-.1-1.15l-.06-.52q-.09-.65-.21-1.29c0-.23-.09-.46-.14-.69q-.2-.93-.48-1.86c-.1-.34-.2-.67-.32-1a26.25,26.25,0,0,0-2.66-5.51c-.45-.7-.93-1.36-1.43-2a23.34,23.34,0,0,0-6-5.35,20.38,20.38,0,0,0-4.95-2.25,18.89,18.89,0,0,0-2.1-.51,15,15,0,0,0-1.62-.22,16.79,16.79,0,0,0-5.73.44l-.34.09-.33.09-.32.1,5.72-2,.32-.1L48,27l.32-.09h0v.57h0a16.13,16.13,0,0,1,1.86.21c1.07.22,1.81.33,1.86,0a.24.24,0,0,0,0-.12V26.35a16.93,16.93,0,0,1,3.76.27,19.64,19.64,0,0,1,6.88,2.66A22.81,22.81,0,0,1,70,36.51a23.81,23.81,0,0,1,2.53,5.25c.1.29.19.58.28.87a24,24,0,0,1,1,6.51c0,.42,0,.84,0,1.25L71,50C70.52,50,70.11,50.86,70.11,51.88Z"/></g><path class="cls-4" d="M52.12,27.6v.12c0,.32-.79.21-1.86,0a16.13,16.13,0,0,0-1.86-.21h0v-.57l-.56-39.3h4l.28,38.73Z"/><path class="cls-4" d="M52.25,46.26v.07c0,.36-.83.64-1.79.64s-1.79-.3-1.79-.67v0l0-.93-.16-11.27c.39,0,.78.09,1.17.16a14.05,14.05,0,0,1,2.51.72l.06,8.91Z"/><path class="cls-4" d="M52.38,64.11s0,0,0,0v.1c-.06.45-.81.81-1.73.81s-1.71-.38-1.73-.85v0h0l0-3.15-.09-6.37,3.51-1.75.07,9.64Z"/><path class="cls-4" d="M52.83,127.62h-3L49,71.51a16.8,16.8,0,0,0,3.4,0Z"/><path class="cls-4" d="M29.56,44.59a23.67,23.67,0,0,0-.2,2.81v.49L-2,43.48l.42-3Z"/><path class="cls-4" d="M68.49,51.9c0,.38,0,.76,0,1.13a.5.5,0,0,1,0,.17C68.49,52.77,68.5,52.34,68.49,51.9Z"/><path class="cls-4" d="M52.91,49.54c0,1,.39,1.78.88,1.78l1.28.18L52.3,52.89l-3.51,1.75-4.56,2.28-6,3L34,62.06-13.17,85.62l-9-11L30,53.06l4.48-1.85,4.7-2,1.46-.6,4.82-2,3.23-1.34,0,.93v0c0,.37.8.67,1.79.67s1.76-.28,1.79-.64a0,0,0,0,0,0,0,.06.06,0,0,0,0,0l0-2.41,7.45-3.08a18.64,18.64,0,0,1,2.63,5,17.41,17.41,0,0,1,.52,1.8l-2.11,1.05-6.93-.9C53.3,47.77,52.91,48.57,52.91,49.54Z"/><path class="cls-4" d="M52.26,46.3a0,0,0,0,1,0,0v-.07A.06.06,0,0,1,52.26,46.3Z"/><path class="cls-4" d="M112.83,22.62l-40,20c-.09-.29-.18-.58-.28-.87A23.81,23.81,0,0,0,70,36.51l40.84-16.89Z"/><path class="cls-4" d="M45.42,46.67l-4.82,2-1.46.6L37.5,49h0l-.22,0h0a1.87,1.87,0,0,1-.67-1.67c0-.94.37-1.69.84-1.71h0a.47.47,0,0,1,.17,0l2.75.36Z"/><path class="cls-4" d="M37.49,49h0a.37.37,0,0,1-.18,0Z"/><path class="cls-4" d="M63.32,52.28c0,.13,0,.26,0,.38L55.07,51.5l-1.28-.18c-.49,0-.88-.8-.88-1.78s.39-1.77.88-1.77l6.93.9L63.1,49A17.5,17.5,0,0,1,63.32,52.28Z"/><path class="cls-4" d="M104.64,54.43l-.57,4L73.35,54.07,71,53.74c-.51,0-.92-.83-.92-1.86S70.52,50,71,50l2.78.36Z"/><path class="cls-4" d="M52.39,64.17a.09.09,0,0,1,0,0v-.09A.06.06,0,0,1,52.39,64.17Z"/><path class="cls-4" d="M52.26,46.3a0,0,0,0,1,0,0v-.07A.06.06,0,0,1,52.26,46.3Z"/></g></svg>