<svg width="472" height="96" viewBox="0 0 472 96" fill="none" xmlns="http://www.w3.org/2000/svg">
<g clip-path="url(#clip0_580_2)">
<path d="M92.009 69.7075C93.2039 75.0847 94.1001 80.462 94.3988 86.1379C89.6191 88.229 84.8393 89.7227 79.7609 91.2164C69.6039 93.905 58.8495 95.3987 47.7963 95.3987C36.4444 95.3987 25.3912 93.905 14.9355 90.9176C15.8317 85.2417 17.0267 79.8645 18.5204 74.4873C28.0799 76.8771 37.9381 78.0721 47.7963 78.0721C57.6545 78.0721 66.9153 76.8771 76.1761 74.786C81.5533 73.2923 86.9305 71.7987 92.009 69.7075Z" fill="#00154F"/>
<path d="M61.5381 12.9482C76.4748 28.4824 87.2293 47.9001 92.009 69.7077C86.9305 71.7988 81.5533 73.2925 76.1761 74.7862C70.7989 55.9659 60.9407 38.9381 47.7964 25.1963C43.6141 20.7153 38.8343 16.533 33.7559 12.6495C37.9381 8.16846 42.7179 3.98618 47.7964 0.401367C52.5761 4.28491 57.3559 8.46719 61.5381 12.9482Z" fill="#1065D8"/>
<path d="M33.7551 12.6494C38.8336 16.533 43.3146 20.7152 47.7956 25.1962C42.7171 30.5735 37.9374 36.2494 33.7551 42.5228C31.0665 46.7051 28.3779 50.8874 26.2867 55.3684C23.2994 61.3431 20.9095 67.6165 18.8184 74.1887C17.3247 79.5659 16.1298 84.9431 15.2336 90.619C10.1551 89.1254 5.07662 87.333 0.296875 85.2418C0.894343 79.5659 1.79055 74.1887 2.98548 69.1102C5.07662 60.1481 8.3627 51.4849 12.2462 43.1203L19.4159 30.2747C23.5981 24.0013 28.3779 18.0266 33.7551 12.6494Z" fill="#102791"/>
<path d="M127.557 72.3962L154.443 37.1456L159.222 30.8721H143.688H128.752V24.8975H167.886V29.9759L141 65.2266L136.22 71.5H151.754H167.886V77.7734H127.557V72.3962Z" fill="#00154F"/>
<path d="M229.427 24.8975V31.1709H200.151V47.6013H226.739V53.8747H200.151V71.5H230.921V77.7734H193.579V24.8975H229.427Z" fill="#00154F"/>
<path d="M260.795 51.1863C260.795 62.2394 264.081 72.0977 276.628 72.0977C289.473 72.0977 292.461 62.2394 292.461 51.1863C292.461 40.1331 289.174 30.2749 276.628 30.2749C264.081 30.2749 260.795 39.8344 260.795 51.1863ZM253.924 51.1863C253.924 34.7559 260.795 24.0015 276.926 24.0015C293.058 24.0015 299.929 34.7559 299.929 51.1863C299.929 67.6167 293.058 78.3711 276.926 78.3711C260.795 78.3711 253.924 67.6167 253.924 51.1863Z" fill="#00154F"/>
<path d="M339.362 77.4747H332.491V31.1709H316.658V24.8975H355.792V31.1709H339.661V77.4747H339.362Z" fill="#00154F"/>
<path d="M391.34 32.9633L382.677 56.5633H399.705L391.34 32.9633ZM388.054 24.5988H394.626L414.94 77.7734H407.771L402.095 62.538H380.586L374.91 77.7734H367.74L388.054 24.5988Z" fill="#00154F"/>
<path d="M455.567 50.2899C459.749 50.2899 465.126 49.0949 465.126 40.7304C465.126 32.3658 459.749 31.1709 455.567 31.1709H442.124V50.2899H455.567ZM442.124 77.4747H435.253V24.8975H454.671C463.035 24.8975 471.997 27.8848 471.997 40.7304C471.997 53.2772 463.035 56.5633 454.671 56.5633H442.124V77.4747Z" fill="#00154F"/>
</g>
<defs>
<clipPath id="clip0_580_2">
<rect width="472" height="94.9975" fill="white" transform="translate(0 0.401245)"/>
</clipPath>
</defs>
</svg>
