<svg width="300" height="300" viewBox="0 0 300 300" fill="none" xmlns="http://www.w3.org/2000/svg">
<g clip-path="url(#clip0_566_22068)">
<path d="M292.052 218.85C276.652 150.2 242.602 88.6 195.552 39.45C181.902 25.2 167.152 12 151.452 0C135.752 11.75 120.952 24.7 107.252 38.65C90.4024 55.8 75.1523 74.55 61.8023 94.65L38.0023 135.65C25.1523 161.45 15.1523 188.85 8.35234 217.5C4.40234 234.2 1.60234 251.3 -0.0976562 268.75C66.8523 302.5 151.902 299.95 151.902 299.95C186.902 299.95 220.852 295.3 253.052 286.5C269.102 282.15 284.752 276.75 299.902 270.45C298.402 252.9 295.752 235.7 291.952 218.9L292.052 218.85ZM151.952 245.2C120.052 245.2 89.1023 241.3 59.5023 234C65.7523 213.3 73.7023 193.35 83.2023 174.3C90.3023 160.1 98.2023 146.4 107.002 133.25C120.102 113.55 135.002 95.15 151.502 78.25C193.202 121.85 224.602 175.25 241.902 234.6C213.052 241.5 182.952 245.2 152.002 245.2H151.952Z" fill="#1065D8"/>
</g>
<defs>
<clipPath id="clip0_566_22068">
<rect width="300" height="300" fill="white"/>
</clipPath>
</defs>
</svg>
