<svg width="500" height="500" viewBox="0 0 500 500" fill="none" xmlns="http://www.w3.org/2000/svg">
<path d="M482.019 200.016C459.984 98.6829 338.463 39.088 210.609 66.7963C82.7546 94.5047 -3.05326 199.357 18.9815 300.69C41.0162 402.023 162.537 461.618 290.391 433.822C418.245 406.025 504.053 301.35 482.019 200.016ZM241.924 376.866C216.365 376.874 191.378 369.303 170.122 355.11C148.867 340.917 132.298 320.739 122.511 297.128C112.724 273.517 110.159 247.535 115.14 222.466C120.12 197.397 132.424 174.369 150.493 156.293C168.563 138.217 191.587 125.906 216.654 120.917C241.721 115.927 267.705 118.484 291.319 128.263C314.933 138.041 335.117 154.604 349.317 175.854C363.518 197.105 371.097 222.089 371.097 247.648C371.097 281.911 357.489 314.772 333.266 339.003C309.042 363.235 276.187 376.854 241.924 376.866Z" fill="#008996"/>
<path d="M274.118 87.5556C241.415 87.5817 209.453 97.3038 182.275 115.493C155.096 133.682 133.921 159.521 121.426 189.743C108.931 219.965 105.677 253.214 112.077 285.285C118.476 317.356 134.241 346.81 157.378 369.923C180.515 393.035 209.985 408.769 242.063 415.134C274.141 421.499 307.386 418.21 337.595 405.683C367.804 393.156 393.621 371.953 411.781 344.755C429.941 317.557 439.629 285.585 439.62 252.882C439.62 231.156 435.338 209.643 427.019 189.574C418.699 169.504 406.506 151.271 391.135 135.916C375.765 120.562 357.518 108.388 337.44 100.09C317.361 91.7917 295.844 87.5325 274.118 87.5556ZM241.924 374.667C216.79 374.623 192.233 367.129 171.358 353.132C150.482 339.136 134.225 319.264 124.641 296.029C115.057 272.795 112.576 247.24 117.513 222.596C122.449 197.952 134.581 175.324 152.375 157.574C170.168 139.823 192.825 127.746 217.481 122.87C242.137 117.993 267.685 120.535 290.897 130.176C314.108 139.816 333.94 156.121 347.887 177.031C361.833 197.94 369.267 222.515 369.25 247.648C369.238 264.351 365.935 280.888 359.528 296.314C353.122 311.739 343.738 325.751 331.913 337.547C320.087 349.343 306.053 358.694 290.612 365.063C275.171 371.432 258.627 374.696 241.924 374.667Z" fill="#1DCAD3"/>
<path d="M196.447 234.982L182.505 205.778C179.542 199.78 176.899 193.628 174.588 187.35L174.324 187.614C174.764 192.803 174.852 199.401 174.94 204.854L175.292 234.982H165.132V172.792H176.831L191.917 203.139C194.461 208.299 196.593 213.652 198.294 219.148L198.602 218.884C198.294 215.718 197.678 206.833 197.678 201.292V172.924H207.486V234.982H196.447Z" fill="#212021"/>
<path d="M225.826 214.926V215.63C225.826 221.919 228.157 228.604 237.042 228.604C241.242 228.612 245.291 227.042 248.389 224.206L252.215 230.232C247.696 234.168 241.891 236.312 235.898 236.257C223.012 236.257 214.919 227.021 214.919 212.463C214.628 209.218 214.98 205.948 215.953 202.839C216.927 199.729 218.503 196.843 220.593 194.343C222.298 192.33 224.44 190.732 226.856 189.673C229.273 188.614 231.899 188.12 234.535 188.229C239.155 188.096 243.642 189.787 247.025 192.935C250.984 196.498 252.963 202.083 252.963 212.683V214.75L225.826 214.926ZM234.623 195.882C229.037 195.882 225.826 200.28 225.826 207.669H242.627C242.627 200.28 239.373 195.882 234.447 195.882" fill="#212021"/>
<path d="M305.521 235.157H296.285L290.699 214.222C289.248 208.813 287.708 201.819 287.708 201.819C287.708 201.819 287.005 206.218 284.762 214.662L279.088 235.157H269.852L257.449 189.944L267.257 188.581L272.183 210.572C273.458 216.245 274.514 222.535 274.514 222.535H274.778C274.778 222.535 275.701 216.597 277.373 210.308L283.222 189.285H292.942L298.044 209.78C299.935 217.125 300.947 222.711 300.947 222.711H301.211C301.211 222.711 302.31 215.806 303.454 210.484L308.116 189.505H318.363L305.521 235.157Z" fill="#212021"/>
<path d="M188.618 315.028L183.208 305.396C180.411 299.808 176.843 294.642 172.609 290.046C172.118 289.45 171.5 288.97 170.8 288.643C170.099 288.316 169.335 288.149 168.562 288.155V315.028H158.403V252.838H177.403C191.301 252.838 197.59 260.931 197.59 270.431C197.758 272.58 197.486 274.742 196.792 276.783C196.097 278.824 194.994 280.702 193.549 282.303C192.105 283.904 190.349 285.194 188.39 286.094C186.431 286.994 184.308 287.486 182.153 287.539C186.039 291.102 189.296 295.295 191.785 299.942L200.933 314.852L188.618 315.028ZM174.236 261.194H168.562V280.854H173.884C175.665 281.121 177.482 281.029 179.226 280.583C180.971 280.138 182.609 279.347 184.044 278.259C184.983 277.244 185.711 276.052 186.186 274.754C186.662 273.456 186.876 272.076 186.815 270.694C186.815 264.405 183.428 261.194 174.236 261.194Z" fill="#212021"/>
<path d="M214.479 294.972V295.5C214.479 301.789 216.854 308.694 225.738 308.694C229.923 308.691 233.955 307.122 237.042 304.296L240.912 310.278C236.36 314.173 230.541 316.27 224.551 316.171C211.708 316.171 203.616 306.935 203.616 292.377C203.17 286.001 205.202 279.699 209.289 274.785C210.995 272.772 213.137 271.174 215.553 270.115C217.969 269.056 220.595 268.562 223.231 268.671C227.852 268.538 232.338 270.229 235.722 273.377C239.681 276.94 241.66 282.525 241.66 293.125V295.192L214.479 294.972ZM223.275 275.928C217.69 275.928 214.479 280.326 214.479 287.715H231.28C231.28 280.326 228.025 275.928 223.1 275.928" fill="#212021"/>
<path d="M260.132 315.995C250.192 315.995 250.192 307.199 250.192 303.153V264.405C250.277 259.988 249.968 255.573 249.269 251.211L259.296 248.88C260.026 253.001 260.291 257.19 260.088 261.37V299.898C260.088 305.968 260.396 306.979 261.099 308.035C261.487 308.496 262.014 308.819 262.602 308.954C263.189 309.089 263.804 309.029 264.354 308.783L265.937 314.896C264.045 315.628 262.029 315.987 260 315.951" fill="#212021"/>
<path d="M277.329 262.822C276.476 262.81 275.634 262.63 274.851 262.292C274.068 261.954 273.36 261.464 272.767 260.851C272.174 260.237 271.708 259.513 271.397 258.719C271.085 257.925 270.934 257.077 270.951 256.225C270.951 254.475 271.646 252.797 272.884 251.56C274.121 250.322 275.799 249.627 277.549 249.627C279.298 249.627 280.976 250.322 282.214 251.56C283.451 252.797 284.146 254.475 284.146 256.225C284.134 257.978 283.429 259.656 282.185 260.892C280.941 262.128 279.258 262.822 277.505 262.822H277.329ZM272.491 315.028V270.255L282.475 268.451V315.028H272.491Z" fill="#212021"/>
<path d="M310.667 316.171C298.264 316.171 291.315 307.375 291.315 292.817C291.315 276.28 301.211 268.363 311.37 268.363C313.712 268.284 316.043 268.701 318.211 269.588C320.379 270.475 322.335 271.812 323.949 273.509L319.023 280.062C317.018 277.951 314.278 276.692 311.37 276.544C309.878 276.503 308.405 276.896 307.132 277.677C305.859 278.458 304.841 279.593 304.201 280.942C302.69 284.985 302.046 289.301 302.31 293.609C301.8 297.973 302.877 302.376 305.345 306.012C306.105 306.853 307.035 307.524 308.074 307.979C309.113 308.433 310.236 308.663 311.37 308.65C313.118 308.563 314.83 308.13 316.408 307.375C317.986 306.62 319.398 305.558 320.563 304.252L325.269 310.146C323.416 312.135 321.157 313.703 318.645 314.743C316.133 315.782 313.427 316.27 310.711 316.171" fill="#212021"/>
</svg>
