<svg width="1000" height="179" viewBox="0 0 1000 179" fill="none" xmlns="http://www.w3.org/2000/svg">
<g clip-path="url(#clip0)">
<path d="M349.568 140.906L322.208 83.5569C315.676 70.0057 308.968 54.6115 306.678 47.3751L306.15 47.9036C307.03 58.1348 307.207 71.022 307.383 81.7817L308.087 140.906H288.154V18.782H311.096L340.746 78.4074C345.715 88.5447 349.906 99.0456 353.281 109.819L353.809 109.291C353.281 103.111 352.048 85.6438 352.048 74.5182L351.695 18.7549H370.938V140.879L349.568 140.906Z" fill="black"/>
<path d="M407.269 101.553V102.908C407.269 115.267 411.863 128.317 429.33 128.317C437.624 128.317 444.86 125.322 451.568 119.495L459.157 131.325C450.257 139.061 438.832 143.27 427.04 143.155C401.808 143.155 385.926 124.983 385.926 96.3899C385.926 80.684 389.273 70.2631 397.051 61.4413C404.288 53.1479 413.11 49.4349 424.411 49.4349C433.475 49.1492 442.287 52.4451 448.939 58.609C456.704 65.6692 460.593 76.6051 460.593 97.4333V101.499L407.269 101.553ZM424.384 64.138C413.448 64.138 407.445 72.7836 407.445 87.2564H440.442C440.442 72.8108 434.1 64.138 424.384 64.138Z" fill="black"/>
<path d="M563.867 141.258H545.627L534.691 100.144C531.873 89.5601 528.864 75.7514 528.864 75.7514H528.512C528.512 75.7514 527.157 84.5732 522.685 100.984L511.925 141.217H493.739L469.347 52.7956L488.59 50.0853L498.293 93.3273C500.759 104.439 502.886 116.798 502.886 116.798H503.415C504.716 108.717 506.426 100.707 508.537 92.7988L520.015 51.5082H539.082L549.15 91.7825C552.863 106.255 554.801 117.191 554.801 117.191H555.33C555.33 117.191 557.444 103.64 559.747 93.1918L568.922 51.5353H589.045L563.867 141.258Z" fill="black"/>
<path d="M702.157 140.906L691.574 122.015C683.118 107.028 677.453 98.5581 670.746 91.7825C669.766 90.631 668.547 89.708 667.172 89.0782C665.798 88.4484 664.303 88.1273 662.791 88.1372V140.906H642.857V18.782H680.096C707.456 18.782 719.801 34.664 719.801 53.7306C719.801 71.1982 708.513 87.2699 689.446 87.2699C693.864 89.5601 701.981 101.39 708.323 111.662L726.319 140.96L702.157 140.906ZM673.917 35.2061H662.791V73.8542H673.198C683.782 73.8542 689.46 72.4991 693.146 68.7318C696.493 65.3847 698.566 60.2623 698.566 53.9068C698.634 41.5481 691.926 35.1925 673.917 35.1925V35.2061Z" fill="black"/>
<path d="M752.975 101.553V102.908C752.975 115.267 757.568 128.317 775.036 128.317C783.329 128.317 790.566 125.322 797.274 119.495L804.862 131.325C795.963 139.061 784.537 143.27 772.746 143.155C747.513 143.155 731.631 124.983 731.631 96.3899C731.631 80.684 734.979 70.2631 742.757 61.4413C749.993 53.1479 758.815 49.4349 770.117 49.4349C779.181 49.1492 787.993 52.4451 794.645 58.609C802.41 65.6692 806.299 76.6051 806.299 97.4333V101.499L752.975 101.553ZM770.103 64.138C759.168 64.138 753.164 72.7836 753.164 87.2564H786.107C786.107 72.8108 779.806 64.138 770.103 64.138Z" fill="black"/>
<path d="M842.63 142.857C823.035 142.857 823.034 125.241 823.034 117.625V41.5481C823.26 32.8104 822.693 24.0702 821.341 15.4349L841.288 11.0172C842.643 16.4376 842.874 23.9044 842.874 35.5449V111.256C842.874 123.262 843.402 125.2 844.811 127.314C845.582 128.196 846.618 128.805 847.764 129.049C848.909 129.294 850.103 129.16 851.167 128.669L854.338 140.675C850.617 142.167 846.638 142.909 842.63 142.857Z" fill="black"/>
<path d="M876.331 38.3771C874.66 38.3612 873.008 38.0145 871.472 37.3569C869.935 36.6993 868.544 35.7438 867.378 34.5457C866.213 33.3475 865.296 31.9303 864.682 30.376C864.067 28.8217 863.766 27.161 863.797 25.4899C863.816 22.953 864.589 20.4792 866.018 18.3829C867.446 16.2866 869.466 14.6624 871.82 13.7168C874.174 12.7712 876.756 12.5469 879.238 13.0724C881.72 13.5979 883.99 14.8494 885.759 16.6679C887.527 18.4865 888.716 20.7899 889.172 23.2854C889.629 25.7808 889.333 28.3557 888.322 30.6827C887.312 33.0096 885.632 34.9836 883.497 36.3537C881.362 37.7238 878.868 38.4281 876.331 38.3771ZM866.629 140.919V53.026L886.224 49.4891V140.906L866.629 140.919Z" fill="black"/>
<path d="M941.811 143.209C917.419 143.209 903.868 126.094 903.868 97.325C903.868 64.802 923.287 49.3265 943.166 49.3265C952.869 49.3265 959.929 51.6167 967.87 59.0292L958.208 71.9029C952.91 67.1329 948.329 65.0189 943.207 65.0189C940.23 64.9685 937.304 65.7946 934.794 67.3946C932.283 68.9945 930.298 71.2975 929.086 74.0169C926.376 79.4374 925.387 87.7849 925.387 98.897C925.387 111.093 927.325 118.844 931.39 123.289C932.887 124.932 934.716 126.238 936.755 127.121C938.794 128.004 940.998 128.444 943.22 128.412C949.4 128.412 955.416 125.417 961.216 119.59L970.391 131.42C962.273 139.496 953.804 143.209 941.811 143.209Z" fill="black"/>
<path d="M986.95 142.871C984.356 142.884 981.815 142.127 979.652 140.695C977.488 139.264 975.798 137.222 974.795 134.828C973.793 132.435 973.524 129.798 974.022 127.252C974.52 124.706 975.763 122.364 977.592 120.525C979.422 118.685 981.757 117.431 984.301 116.92C986.845 116.408 989.483 116.664 991.881 117.654C994.28 118.643 996.33 120.323 997.773 122.479C999.216 124.636 999.986 127.172 999.986 129.767C999.994 131.484 999.662 133.185 999.01 134.774C998.358 136.363 997.399 137.807 996.188 139.024C994.977 140.242 993.538 141.208 991.952 141.868C990.367 142.528 988.667 142.869 986.95 142.871ZM986.95 119.264C984.846 119.172 982.763 119.713 980.968 120.816C979.174 121.918 977.751 123.534 976.883 125.452C976.015 127.371 975.742 129.506 976.099 131.582C976.455 133.658 977.425 135.579 978.884 137.098C980.342 138.618 982.223 139.665 984.282 140.106C986.342 140.547 988.486 140.361 990.439 139.572C992.391 138.784 994.063 137.428 995.238 135.68C996.414 133.932 997.038 131.873 997.032 129.767C997.07 128.412 996.838 127.063 996.35 125.798C995.863 124.534 995.128 123.379 994.19 122.4C993.252 121.422 992.129 120.64 990.886 120.099C989.643 119.558 988.305 119.27 986.95 119.251V119.264ZM989.525 137.03C988.956 136.041 988.712 135.675 988.17 134.591C986.72 131.948 986.273 131.203 985.744 131C985.601 130.927 985.443 130.89 985.283 130.891V137.03H982.397V122.327H987.817C988.394 122.287 988.972 122.371 989.513 122.573C990.054 122.774 990.546 123.088 990.957 123.495C991.367 123.901 991.686 124.39 991.892 124.93C992.099 125.469 992.188 126.046 992.154 126.623C992.239 127.593 991.944 128.558 991.333 129.316C990.722 130.074 989.84 130.566 988.874 130.688C989.1 130.874 989.3 131.088 989.471 131.325C990.311 132.382 992.994 137.03 992.994 137.03H989.525ZM988.021 124.902C987.483 124.751 986.926 124.678 986.367 124.685H985.31V128.669H986.3C987.573 128.669 988.129 128.52 988.522 128.168C988.9 127.77 989.104 127.239 989.091 126.69C989.131 126.317 989.048 125.94 988.855 125.617C988.662 125.295 988.369 125.044 988.021 124.902Z" fill="black"/>
<path d="M219.286 65.7912C208.919 18.1586 151.801 -9.85176 91.6877 3.21163C31.5744 16.275 -8.74051 65.4931 1.61263 113.112C11.9658 160.731 69.0978 188.769 129.198 175.692C189.297 162.615 229.639 113.464 219.286 65.7912ZM110.456 133.358C101.772 133.358 93.2836 130.783 86.0633 125.958C78.843 121.134 73.2154 114.277 69.8923 106.254C66.5692 98.231 65.6997 89.403 67.3938 80.8861C69.0879 72.3691 73.2696 64.5458 79.4099 58.4055C85.5503 52.2651 93.3736 48.0835 101.891 46.3893C110.407 44.6952 119.235 45.5647 127.258 48.8878C135.281 52.211 142.138 57.8385 146.963 65.0588C151.787 72.2791 154.362 80.7679 154.362 89.4517C154.362 95.2175 153.227 100.927 151.02 106.254C148.814 111.581 145.579 116.421 141.502 120.498C137.425 124.575 132.585 127.809 127.258 130.016C121.931 132.222 116.222 133.358 110.456 133.358Z" fill="#008C99"/>
<path d="M120.159 27.9833C107.691 27.986 95.5043 31.6855 85.1391 38.6141C74.774 45.5427 66.6961 55.3892 61.9268 66.9085C57.1575 78.4279 55.911 91.1028 58.3449 103.33C60.7789 115.558 66.784 126.79 75.6009 135.605C84.4178 144.42 95.6505 150.422 107.879 152.854C120.107 155.285 132.782 154.036 144.3 149.264C155.818 144.492 165.663 136.412 172.589 126.046C179.516 115.679 183.213 103.491 183.213 91.0236C183.213 82.7439 181.582 74.5453 178.413 66.896C175.244 59.2467 170.599 52.2966 164.744 46.4426C158.889 40.5886 151.937 35.9453 144.287 32.778C136.637 29.6108 128.439 27.9815 120.159 27.9833ZM110.443 127.802C102.858 127.802 95.4431 125.552 89.1364 121.339C82.8298 117.125 77.9144 111.135 75.0118 104.128C72.1091 97.12 71.3497 89.4091 72.8294 81.97C74.3092 74.5308 77.9617 67.6975 83.325 62.3341C88.6883 56.9708 95.5217 53.3183 102.961 51.8386C110.4 50.3588 118.111 51.1183 125.118 54.0209C132.126 56.9235 138.115 61.8389 142.329 68.1456C146.543 74.4522 148.793 81.8668 148.793 89.4517C148.793 99.6204 144.754 109.373 137.565 116.564C130.376 123.756 120.625 127.798 110.456 127.802H110.443Z" fill="#70CCD3"/>
</g>
<defs>
<clipPath id="clip0">
<rect width="1000" height="178.917" fill="white"/>
</clipPath>
</defs>
</svg>
