<svg width="1500" height="1500" viewBox="0 0 1500 1500" fill="none" xmlns="http://www.w3.org/2000/svg">
<path d="M164.998 605.847H106.034V894.175H164.998V605.847Z" fill="black"/>
<path d="M292.731 496H233.767V715.672H292.731V496Z" fill="black"/>
<path d="M292.731 784.328H233.767V1004H292.731V784.328Z" fill="#31D891"/>
<path d="M420.463 605.847H361.499V894.175H420.463V605.847Z" fill="#31D891"/>
<path d="M980.152 838.397C977.431 847.022 973.354 855.161 968.073 862.508C962.759 869.982 956.298 876.573 948.928 882.038C941.176 887.729 932.585 892.182 923.462 895.239C913.351 898.591 902.751 900.241 892.098 900.121C879.281 900.16 866.57 897.817 854.613 893.209C842.784 888.695 832.027 881.769 823.027 872.876C813.7 863.519 806.396 852.352 801.568 840.065C796.032 825.95 793.297 810.896 793.515 795.74C793.316 781.338 795.949 767.037 801.266 753.647C806.052 741.628 813.028 730.599 821.84 721.117C830.314 712.099 840.541 704.9 851.896 699.959C863.056 695.007 875.133 692.446 887.347 692.445C901.098 692.221 914.753 694.777 927.488 699.959C938.793 704.628 948.89 711.793 957.021 720.916C965.172 730.37 971.334 741.364 975.139 753.245C979.475 766.706 981.603 780.778 981.44 794.917C981.44 797.368 981.44 799.679 981.239 801.828C981.146 803.601 980.944 805.365 980.635 807.113H833.073C833.228 815.379 834.886 823.548 837.965 831.224C840.787 838.297 845.012 844.728 850.386 850.131C855.727 855.438 862.107 859.59 869.128 862.327C876.467 865.178 884.284 866.603 892.158 866.526C908.183 866.526 920.402 862.736 928.817 855.154C937.264 847.518 943.583 837.826 947.156 827.025L980.152 838.397ZM941.459 776.11C941.27 762.896 936.185 750.22 927.186 740.526C918.221 730.922 905.049 726.113 887.669 726.1C880.182 725.97 872.752 727.422 865.867 730.359C859.735 733.042 854.199 736.915 849.581 741.752C845.107 746.469 841.459 751.902 838.79 757.826C836.119 763.572 834.594 769.782 834.301 776.11H941.459Z" fill="black"/>
<path d="M724.706 894.154V766.064H592.545V894.174H552.604V605.826H592.545V729.053H724.706V605.826H764.626V894.154H724.706Z" fill="black"/>
<path d="M979.765 838.402C968.787 872.977 937.452 900.223 891.938 900.223C839.476 900.223 793.503 861.999 793.503 795.699C793.503 734.278 837.836 692.375 887.049 692.375C947.259 692.375 981.014 733.859 981.014 794.889C981.035 798.969 980.765 803.046 980.204 807.087H832.908C833.718 842.062 858.944 866.517 891.879 866.517C923.605 866.517 939.472 849.03 946.791 827.053L979.765 838.402ZM941.092 776.172C940.282 748.106 921.985 726.149 887.42 726.149C855.294 726.149 835.768 750.956 834.128 776.172H941.092Z" fill="black"/>
<path d="M1059.28 782.27L1112.15 774.551C1123.96 772.912 1127.21 766.813 1127.21 759.913C1127.21 740.806 1114.6 724.938 1084.92 724.938C1058.07 724.938 1043.01 741.616 1040.56 764.402L1003.97 755.854C1008.03 718.429 1041.79 692.423 1084.1 692.423C1142.65 692.423 1165.44 725.778 1165.44 764.012V861.998C1165.32 872.757 1166.13 883.506 1167.87 894.123H1130.47C1128.97 885.39 1128.29 876.537 1128.43 867.677C1119.89 881.525 1100.36 900.222 1065.39 900.222C1025.53 900.222 999.89 872.566 999.89 841.671C999.89 806.676 1025.53 787.149 1059.28 782.27ZM1127.21 810.336V801.397L1067.41 810.336C1051.14 812.785 1038.94 822.124 1038.94 839.612C1038.94 854.249 1051.14 868.077 1070.67 868.077C1101.98 868.097 1127.21 853.039 1127.21 810.336Z" fill="black"/>
<path d="M1201.57 971.41V698.472H1238.58V728.987C1249.16 709.47 1272.35 694.003 1304.07 694.003C1362.62 694.003 1393.97 739.156 1393.97 796.097C1393.97 854.268 1360.19 899.411 1302.85 899.411C1272.75 899.411 1249.98 885.183 1239.42 867.676V971.41H1201.57ZM1297.15 727.768C1262.18 727.768 1238.99 757.043 1238.99 796.078C1238.99 836.342 1262.18 865.227 1297.15 865.227C1332.55 865.227 1354.91 836.342 1354.91 796.078C1354.91 757.043 1332.96 727.768 1297.15 727.768Z" fill="black"/>
</svg>
