<svg width="160" height="160" xmlns="http://www.w3.org/2000/svg">
 <defs>
  <clipPath id="clip0">
   <rect id="svg_1" fill="white" height="240" width="160"/>
  </clipPath>
 </defs>
 <g>
  <title>background</title>
  <rect fill="none" id="canvas_background" height="602" width="802" y="-1" x="-1"/>
 </g>
 <g>
  <title>Layer 1</title>
  <g id="svg_2" clip-path="url(#clip0)">
   <path id="svg_3" fill="#0B0E35" d="m109.5445,10.3145c-10.5609,0 -20.6893,4.1952 -28.157,11.6626c-7.4677,7.4675 -11.663,17.5956 -11.663,28.1562l0,7.4697l19.91,0l0,-7.4697c0.002,-3.9373 1.1714,-7.7856 3.3603,-11.0584c2.1889,-3.2727 5.2991,-5.823 8.9374,-7.3284c3.6382,-1.5053 7.6412,-1.8982 11.5023,-1.1289c3.862,0.7694 7.409,2.6664 10.192,5.4511c2.783,2.7848 4.679,6.3323 5.446,10.1941c0.768,3.8618 0.373,7.8644 -1.135,11.5018c-1.507,3.6373 -4.059,6.7462 -7.333,8.9334c-3.274,2.1872 -7.123,3.3546 -11.06,3.3546l-59.73,0c-10.5609,0 -20.6893,4.1949 -28.157,11.6629c-7.46769,7.467 -11.663,17.595 -11.663,28.156c0,10.56 4.19531,20.689 11.663,28.156c7.4677,7.467 17.5961,11.663 28.157,11.663l7.46,0l0,-19.91l-7.46,0c-5.2805,0 -10.3447,-2.097 -14.0785,-5.831c-3.7338,-3.734 -5.8315,-8.798 -5.8315,-14.078c0,-5.28 2.0977,-10.344 5.8315,-14.078c3.7338,-3.734 8.798,-5.831 14.0785,-5.831l19.91,0l0,59.728l19.91,0l0,-59.728l19.91,0c5.283,0.083 10.53,-0.885 15.435,-2.849c4.905,-1.964 9.371,-4.884 13.136,-8.59c3.766,-3.706 6.756,-8.125 8.798,-12.9978c2.041,-4.8733 3.092,-10.104 3.092,-15.3874c0,-5.2835 -1.051,-10.5142 -3.092,-15.3875c-2.042,-4.8733 -5.032,-9.2917 -8.798,-12.998c-3.765,-3.7062 -8.231,-6.6263 -13.136,-8.59c-4.905,-1.9638 -10.152,-2.932 -15.435,-2.8483z"/>
  </g>
 </g>
</svg>
