<svg xmlns="http://www.w3.org/2000/svg" viewBox="0 0 256 290.7"><defs><style>.cls-1{fill:#ff282d;}</style></defs><g id="Layer_2" data-name="Layer 2"><g id="Layer_1-2" data-name="Layer 1"><g id="Stopwatch_-_Red" data-name="Stopwatch - Red"><path class="cls-1" d="M151.23,36.84V15.79h7.59V0H96.22V15.79h7.59V37a128,128,0,1,0,47.42-.17ZM131.51,228.46v-7.35h-7.45v7.32a65.79,65.79,0,0,1-61.74-62.21h7.35v-7.44H62.36a65.76,65.76,0,0,1,61.7-61.67v7.32h7.45V97.07a65.8,65.8,0,0,1,62.18,62H186.3v7.45h7.39A65.79,65.79,0,0,1,131.51,228.46Z"/><path class="cls-1" d="M154.89,131.42l-22.82,19.89a12.16,12.16,0,1,0,7.39,7.41l20.16-22.56Z"/></g></g></g></svg>
