<?xml version="1.0" encoding="utf-8"?>
<!-- Generator: Adobe Illustrator 25.2.1, SVG Export Plug-In . SVG Version: 6.00 Build 0)  -->
<svg version="1.1" id="Layer_1" xmlns="http://www.w3.org/2000/svg" xmlns:xlink="http://www.w3.org/1999/xlink" x="0px" y="0px"
	 viewBox="0 0 484 164" style="enable-background:new 0 0 484 164;" xml:space="preserve">
<style type="text/css">
	.st0{fill:#24D6E0;}
	.st1{fill:#0AB7C9;}
</style>
<g>
	<g>
		<g>
			<path class="st0" d="M67.8,82.3c-0.1-4.4-2.7-8-5.8-7.9c-3.1,0.1-5.6,3.7-5.5,8.2c0.1,4.4,2.7,8,5.8,7.9
				C65.4,90.4,67.9,86.7,67.8,82.3z"/>
			<path class="st0" d="M49.1,95.7c-0.7-4.1,0.7-7.8,3.1-8.2c2.5-0.4,5,2.5,5.7,6.6c0.7,4.1-0.7,7.8-3.1,8.2
				C52.4,102.8,49.8,99.8,49.1,95.7z"/>
			<path class="st0" d="M49.6,103.8c-1.1-3.7-3.3-6.2-5.1-5.7c-1.7,0.5-2.3,3.9-1.2,7.5c1.1,3.7,3.3,6.2,5.1,5.7
				C50.1,110.8,50.7,107.4,49.6,103.8z"/>
			<path class="st0" d="M57.3,69c-0.1-4-2-7.2-4.4-7.2c-2.3,0-4.2,3.3-4.1,7.3c0.1,4,2,7.2,4.3,7.2C55.5,76.3,57.3,73,57.3,69z"/>
			<path class="st0" d="M48.9,58.4c-0.1-3.6-1.7-6.4-3.6-6.4c-1.9,0-3.4,3-3.3,6.5c0.1,3.6,1.7,6.4,3.6,6.4
				C47.5,64.9,48.9,61.9,48.9,58.4z"/>
		</g>
		<path class="st1" d="M100,83.7c-0.1-5.7-4.8-10.2-10.5-10.1c-5.7,0.1-10.2,4.8-10.1,10.5c0.1,5.7,4.8,10.2,10.5,10.1
			C95.6,94,100.1,89.4,100,83.7z"/>
		<path class="st1" d="M69.1,92.1c3.2-2,8.1,0.1,10.9,4.6c2.8,4.5,2.5,9.8-0.7,11.8c-3.2,2-8-0.1-10.9-4.6
			C65.6,99.4,65.9,94.1,69.1,92.1z"/>
		<path class="st1" d="M59.2,103.6c2.7-1.1,6.4,1.5,8.2,5.9c1.8,4.4,1.1,8.9-1.6,10c-2.7,1.1-6.4-1.5-8.2-5.9
			C55.8,109.2,56.5,104.8,59.2,103.6z"/>
		<path class="st1" d="M50.3,112.5c1.9-0.7,4.7,2.1,6.2,6.3c1.6,4.2,1.3,8.1-0.6,8.8c-1.9,0.7-4.7-2.1-6.3-6.3
			C48.1,117.1,48.4,113.2,50.3,112.5z"/>
		<path class="st1" d="M76.9,57.1c3.6,1.1,5.3,6,3.8,11.1c-1.5,5.1-5.6,8.4-9.2,7.3c-3.6-1.1-5.3-6-3.9-11.2
			C69.1,59.3,73.3,56,76.9,57.1z"/>
		<path class="st1" d="M63.8,45.3c2.9,0.8,4.1,5.1,2.9,9.7c-1.3,4.6-4.5,7.6-7.4,6.9c-2.8-0.8-4.1-5.1-2.9-9.7
			C57.6,47.6,61,44.5,63.8,45.3z"/>
		<path class="st1" d="M53.9,36.3c2,0.4,2.8,4.3,1.9,8.6c-0.9,4.4-3.3,7.5-5.3,7.1c-2-0.4-2.8-4.3-1.9-8.6
			C49.5,39.1,51.9,35.9,53.9,36.3z"/>
	</g>
	<g>
		<path class="st1" d="M156.6,72h-16.7v28.8h-9.3V72h-16.5v-7.7h42.5V72z"/>
		<path class="st1" d="M201.6,100.8h-36.1V64.3h36.1V72h-26.8v6.9h23.6v7.3h-23.6v7.2h26.8V100.8z"/>
		<path class="st1" d="M257.2,100.8h-9.9l-3.6-7.4h-22.2l-3.7,7.4h-9.6l18.7-36.4h11.5L257.2,100.8z M240.4,86.7L232.8,72L225,86.7
			H240.4z"/>
		<path class="st1" d="M296,100.8h-33V64.3h9.3v28.4H296V100.8z"/>
		<path class="st1" d="M313,100.8h-9.3V64.3h9.3V100.8z"/>
		<path class="st1" d="M366.7,85.5c0,12.1-5.7,15.8-22.4,15.8c-16.7,0-21.9-3.2-21.9-15.8V64.3h9.1v20.6c0,7.7,4.4,8.5,12.8,8.5
			c7.8,0,13.2-1.4,13.2-8.5V64.3h9.2V85.5z"/>
		<path class="st1" d="M434.4,100.8h-9.9L420,72.5l-11.4,28.3H398l-11.1-28.3l-4.6,28.3h-9.6l6.4-36.4h13.8l10.3,26.7l11-26.7h13.7
			L434.4,100.8z"/>
	</g>
	<path class="st1" d="M442,67.7c0,2.2-1.7,3.9-3.9,3.9c-2.2,0-3.9-1.7-3.9-3.9c0-2.1,1.7-3.8,3.9-3.8C440.3,63.9,442,65.6,442,67.7
		 M435.1,67.7c0,1.7,1.3,3,3,3c1.7,0,2.9-1.3,2.9-3c0-1.7-1.2-3.1-2.9-3.1C436.4,64.6,435.1,66,435.1,67.7 M437.5,69.7h-0.9v-3.8
		c0.3-0.1,0.8-0.1,1.5-0.1c0.7,0,1,0.1,1.3,0.3c0.2,0.2,0.4,0.5,0.4,0.8c0,0.4-0.3,0.7-0.8,0.9v0c0.4,0.1,0.6,0.4,0.7,0.9
		c0.1,0.6,0.2,0.8,0.3,1h-1c-0.1-0.1-0.2-0.5-0.3-0.9c-0.1-0.4-0.3-0.6-0.8-0.6h-0.4V69.7z M437.5,67.5h0.4c0.5,0,0.9-0.2,0.9-0.6
		c0-0.3-0.3-0.6-0.8-0.6c-0.2,0-0.4,0-0.5,0V67.5z"/>
</g>
</svg>
