<svg height="60" preserveAspectRatio="xMidYMid meet" width="120" xmlns="http://www.w3.org/2000/svg" xmlns:xlink="http://www.w3.org/1999/xlink"><clipPath id="a"><path d="m4.533 37.877v-21.76l18.847-10.884v21.762l18.848-10.88v21.76l-18.848 10.885zm16.58-36.572-21.113 12.193v27l23.38 13.502 23.38-13.503v-27l-2.266-1.31-21.114-12.187z"/></clipPath><linearGradient id="b" gradientUnits="userSpaceOnUse" x1="23.333" x2="23.333" y1="54.002" y2=".002"><stop offset="0" stop-color="#f37c27"/><stop offset="1" stop-color="#ed3774"/></linearGradient><g transform="matrix(.89234 0 0 .89234 10 3.22979)"><path d="m49.865 37.663v-15.3h-3.365v6.12h-6.84v-6.12h-3.4v15.3h3.4v-6.056h6.84v6.056zm19.575-.023v-3.148h-8.3v-3.092h7.544v-2.993h-7.544v-2.952h8v-3.127h-11.356v15.312zm12.846-15.302-6.862 15.302h3.67l1.115-2.624h7.848l1.115 2.624h3.693l-6.863-15.303zm-.786 9.664 2.644-6.208 2.622 6.208zm24.706-9.665h-7.212v15.303h3.4v-4.328h3.804c3.893-.045 5.86-2.426 5.86-5.487 0-2.95-1.946-5.488-5.86-5.488m0 7.85h-3.804v-4.612h3.804c1.62 0 2.45 1.093 2.45 2.317s-.8 2.295-2.45 2.295" fill="#2d282a"/><path clip-path="url(#a)" d="m0 0h46.762v54h-46.762z" fill="url(#b)" transform="matrix(.571614 0 0 .571614 0 14.56643)"/></g></svg>
