<?xml version="1.0" encoding="UTF-8" standalone="no"?>
<!-- Generator: Adobe Illustrator 23.0.4, SVG Export Plug-In . SVG Version: 6.00 Build 0)  -->

<svg
   version="1.1"
   id="Layer_1"
   x="0px"
   y="0px"
   viewBox="0 0 105960.76 31520.002"
   xml:space="preserve"
   width="105960.76"
   height="31520.002"
   xmlns="http://www.w3.org/2000/svg"
   xmlns:svg="http://www.w3.org/2000/svg"><defs
   id="defs9" />
<style
   type="text/css"
   id="style1">
	.st0{fill:#06AC38;}
</style>
<path
   class="st0"
   d="m 950.5,41.9 -22,62.4 c -4,11.2 -6,17.6 -9.7,28.4 h -0.4 c -2.9,-9.3 -5.5,-16.8 -9.3,-27.8 L 887.7,41.8 h -25.6 l 44.3,115.8 c -1,2.5 -2,5.1 -3.1,7.8 -3.7,9 -12.5,14.9 -22.2,14.9 h -11 V 200 h 11.3 c 18.3,0 34.8,-11.1 41.6,-28.2 14.1,-35.3 38.1,-95.4 51.8,-129.9 z"
   id="path1" /><path
   class="st0"
   d="m 336.2,135.4 c 0,41.9 -19.2,64.6 -58,64.6 -28.9,0 -46.3,-15.2 -52.5,-38.1 h 23.4 c 4,10.6 12.3,20.1 29.5,20.1 26.5,0 35.9,-16.5 35.9,-47.9 -0.2,0 -0.2,-0.2 -0.4,-0.2 -5.7,9.9 -18.5,18.7 -38.8,18.7 -32.6,0 -53.4,-23.6 -53.4,-56.7 0,-34.4 22.5,-57.6 53.6,-57.6 20.1,0 32.2,8.6 38.8,18.1 -0.2,-2.4 -0.2,-4.9 -0.2,-7.3 v -7.3 h 22.1 z m -90,-39.7 c 0,22.5 12.6,38.6 34.2,38.6 19.4,0 34.4,-13.7 34.4,-39.3 0,-22.7 -13.2,-37.9 -34.4,-37.9 -21.2,0 -34.2,15.2 -34.2,38.6 z"
   id="path2" /><path
   class="st0"
   d="m 372.7,105.6 c 0.9,20.3 13.9,36.4 36.4,36.4 15.9,0 23.6,-7.5 29.5,-17.4 h 22.3 c -6.6,20.9 -24.9,35.9 -52.7,35.9 -35.7,0 -58,-24 -58,-60.2 0,-36.2 23.2,-61.7 58,-61.7 37.7,0 55.1,28.7 55.1,59.8 v 7.3 H 372.7 Z M 440.1,88 c -2,-18.3 -13.5,-31.3 -32.4,-31.3 -18.1,0 -32,11.9 -34.2,31.3 z"
   id="path3" /><path
   class="st0"
   d="m 499,41.9 v 14.8 c 3.7,-10.8 15,-17.6 28,-17.6 2.9,0 4.2,0.2 5.7,0.4 v 20.3 c -2,-0.4 -5.3,-0.7 -7.7,-0.7 -20.9,0 -24.9,15.4 -24.9,38.6 v 60 h -22.3 v -95 c 0,-7.3 0,-13.7 -0.2,-20.7 H 499 Z"
   id="path4" /><path
   class="st0"
   d="m 761.7,141.1 c -6,9.9 -17.2,19.4 -36.8,19.4 C 698,160.5 684.8,144 684.8,114 V 41.9 H 707 v 63.7 c 0,22.7 7.5,36.4 25.6,36.4 23.8,0 28,-21.6 28,-47 V 41.9 h 22.3 v 98.3 c 0,6 0,11.7 0.2,17.4 h -21.4 z"
   id="path5" /><path
   class="st0"
   d="m 833,41.9 h 21.6 V 59.1 H 833 v 69.5 c 0,11 5.5,14.3 14.1,14.3 1.5,0 4.2,-0.2 5.5,-0.4 V 159 c -3.3,0.4 -5.7,0.9 -8.6,0.9 -20.5,0 -33.5,-6.8 -33.5,-30 V 59.1 H 793.1 V 41.9 h 17.4 V 10.6 H 833 Z"
   id="path6" /><g
   id="g7">
		<rect
   y="115.6"
   class="st0"
   width="23.1"
   height="42"
   id="rect6"
   x="0" />
		<path
   class="st0"
   d="M 87,7.7 C 74.6,1.1 66,0 45.7,0 H 0 v 95.6 h 23.1 3 19.4 c 18.1,0 31.6,-1.1 43.5,-9 C 102,78 108.7,63.7 108.7,47.2 108.7,29.3 100.4,15 87,7.7 Z M 50.8,75.6 H 23.1 V 20.5 L 49.2,20.3 C 73,20 84.9,28.4 84.9,47.4 84.9,67.8 70.2,75.6 50.8,75.6 Z"
   id="path7" />
	</g><path
   class="st0"
   d="m 546.3,0 h 38.6 c 57.8,0.4 85.6,28.6 85.8,79.2 0.2,43.1 -22.1,77.9 -82,78.5 H 546.4 V 0 Z m 23.4,138 h 13.5 c 41.9,0 63.8,-16 63.8,-58.9 -0.1,-37.7 -21.8,-59.3 -61.6,-59.3 -7.7,0 -15.7,0.2 -15.7,0.2 z"
   id="path8" /><path
   class="st0"
   d="m 189.7,157.7 c -0.7,-4.6 -0.7,-7.5 -1.1,-15.9 -8.8,12.6 -20.5,18.1 -39,18.1 -24.3,0 -41.9,-11.9 -41.9,-33.5 0,-24.9 23.8,-33.1 54.7,-37.3 7.7,-1.1 16.3,-2 23.8,-2.6 0,-22.9 -12.7,-29.8 -26,-29.8 -13.3,0 -23,9.3 -23,21.5 h -21.6 c 0,-23.5 18.5,-39.3 45.1,-39.3 26.6,0 47.1,11 47.1,53.4 v 22.5 c 0,18.7 0.9,32.4 2.9,43 h -21 z m -58,-31.6 c 0,10.8 8.8,17.6 22.9,17.6 20.7,0 31.8,-12.6 31.8,-35.1 0,-2.9 0,-4.9 0.2,-6.2 -37.7,3.9 -54.9,7.6 -54.9,23.7 z"
   id="path9" />
</svg>
