<svg width="97" height="49" viewBox="0 0 97 49" fill="none" xmlns="http://www.w3.org/2000/svg">
<path d="M51.9338 12.2421H49.483L52.1736 2.32371C52.3369 1.76925 52.2722 1.28557 51.9779 0.869723C51.6837 0.419958 51.2601 0.194336 50.7055 0.194336H49.3844C48.3929 0.194336 47.753 0.489262 47.0352 1.07764C46.3496 1.66602 45.8774 2.37533 45.6156 3.20702C44.7329 6.22413 43.8591 9.22503 42.9882 12.2171H41.0553C40.5727 12.2171 40.1564 12.5518 40.052 13.0237L39.1384 17.1453C38.9958 17.7883 39.4841 18.3988 40.1417 18.3988H41.1921C39.8107 23.271 38.3941 28.1579 36.9539 33.0655C36.5244 34.5284 36.8509 35.9396 38.3411 36.4896C38.9516 36.7152 39.6504 36.7226 40.2726 36.7241C41.1082 36.7241 42.3557 36.64 42.7543 35.5709C43.5825 33.3501 47.3779 18.8367 47.3779 18.8367H50.3686C50.8202 18.8367 51.2174 18.5433 51.3498 18.1112C51.7293 16.8755 52.3987 14.6959 52.8223 13.3407C53.1489 12.4825 52.4546 12.2421 51.9338 12.2421Z" fill="#6D2A78"/>
<path d="M37.3934 14.0107L33.0964 29.2305L31.6636 34.3077C31.5606 34.7442 31.3238 35.539 31.2237 35.7145C31.1016 35.9327 30.9501 36.1303 30.7383 36.2675C30.5265 36.4046 30.2867 36.4813 30.0469 36.5432C29.6776 36.6391 29.3025 36.6995 28.9215 36.7158C28.5464 36.732 28.1713 36.7143 27.8006 36.6464C27.4505 36.5816 27.1048 36.4754 26.787 36.3117C26.4899 36.1598 26.2177 35.9563 26.0015 35.7012C25.7852 35.4461 25.6278 35.1335 25.5469 34.8032C25.4527 34.4109 25.4616 33.9995 25.5307 33.6043C25.5601 33.4406 25.5984 33.2784 25.6455 33.1191L30.7339 15.3055C31.1958 13.7556 32.2152 12.4211 34.5028 12.2456C35.5899 12.1615 37.8642 12.2353 37.3919 14.0107H37.3934Z" fill="#6D2A78"/>
<path d="M34.2604 4.28357C33.8412 4.66403 33.4499 5.34384 33.2277 6.06494C33.0071 6.78161 32.9468 7.55727 33.0762 8.10731C33.2351 8.7827 33.9 9.27965 34.6444 9.28997C36.2817 9.31209 38.4486 8.90362 38.7928 7.78732C39.137 6.67102 37.5998 4.8985 36.217 4.1538C35.3902 3.70846 34.7694 3.82054 34.2604 4.28357Z" fill="#6D2A78"/>
<path d="M33.3275 26.4898C33.0759 26.2332 32.7523 26.1787 32.4051 26.3025C32.1168 26.4043 23.617 29.3831 23.617 29.3831H23.5184C24.1716 27.0988 24.8232 24.8309 25.4764 22.5806C26.1619 20.2963 26.8298 18.0107 27.4829 15.7264C27.7433 14.7915 27.6448 13.9613 27.1887 13.2343C26.7651 12.5073 26.0795 12.1445 25.1336 12.1445H12.7031C11.8543 12.1445 11.0717 12.4557 10.3538 13.0795C9.63594 13.6678 9.16225 14.3786 8.93423 15.2088L3.74724 33.0726C3.51923 33.9721 3.63397 34.7861 4.09 35.5131C4.54604 36.2047 5.23155 36.5513 6.14508 36.5513H15.1995L13.5843 42.0561H2.13201C1.87163 42.0561 1.55977 42.0679 1.33175 42.2404C1.0699 42.413 0.97281 42.7138 0.908083 42.991L0.27258 45.0688C0.0107297 46.073 0.14166 46.9033 0.663889 47.5609C1.18612 48.2525 1.92018 48.5991 2.86607 48.5991H15.0524C15.835 48.5991 16.5691 48.3219 17.2546 47.7689C17.9725 47.2498 18.4771 46.6083 18.7713 45.8474C18.7713 45.8135 18.8051 45.7265 18.8698 45.5879C19.3259 44.0307 21.5119 36.3448 21.5119 36.3448C21.5119 36.3448 31.6902 32.7777 31.6917 32.7733C31.952 32.67 32.0433 32.555 32.1315 32.2542C32.4905 31.0347 33.5482 27.382 33.557 27.3466C33.6379 26.9794 33.5717 26.7376 33.3275 26.4898ZM17.1075 29.9582H10.9408L14.1712 18.7421H20.338L17.1075 29.9582Z" fill="#6D2A78"/>
<path d="M88.8384 18.8373H82.6717C82.6717 18.8373 79.0323 31.2744 77.8289 35.4712C77.751 35.7455 77.6259 36.123 77.2611 36.381C76.7124 36.7674 75.54 36.7762 74.5941 36.6598C73.6482 36.5433 72.9479 36.2837 72.4904 35.5567C72.0668 34.8297 71.9844 33.9995 72.2462 33.0646L77.3847 15.3055C77.645 14.4753 78.1349 13.7645 78.8528 13.1761C79.603 12.5524 80.3856 12.2412 81.2021 12.2412H93.6326C94.4814 12.2412 95.1331 12.5524 95.5906 13.1761C96.0805 13.7999 96.2438 14.5431 96.0805 15.4087C96.0481 15.5473 95.9981 15.7199 95.9334 15.9278L94.5638 20.6009C94.3358 21.4312 93.8621 22.1419 93.1442 22.7303C92.4264 23.3187 91.6437 23.6136 90.7949 23.6136H89.3754C88.8531 23.6136 88.4456 23.4057 88.1514 22.9899C87.8911 22.574 87.841 22.1065 88.0043 21.5875L88.8384 18.8373Z" fill="#6D2A78"/>
<path d="M78.8484 26.8378C78.6571 26.6609 78.3717 26.5665 78.0157 26.6815L69.1099 29.386H69.0613L72.3403 18.1714L73.0744 15.6261C73.3024 14.7251 73.1877 13.9303 72.7317 13.2372C72.2756 12.5102 71.5901 12.1475 70.6766 12.1475H58.246C57.4311 12.1475 56.6646 12.4424 55.9468 13.0308C55.2612 13.5838 54.7876 14.2591 54.5272 15.0555C53.5474 18.0667 52.6516 21.0617 51.8351 24.039C51.0202 26.9809 50.1713 29.9759 49.2902 33.0225C49.0283 33.922 49.1107 34.736 49.5344 35.463C50.0257 36.2372 50.7465 36.538 51.9381 36.5527H52.1749C53.3783 36.538 54.6331 36.2283 56.11 35.5043L61.9149 32.4001L61.7192 33.0239C61.4589 33.9234 61.5089 34.7493 62.0134 35.4645C62.4695 36.1103 63.1506 36.4864 64.4525 36.5675C65.8956 36.6574 66.9401 36.3551 67.5447 36.1679C70.1352 35.3627 77.1831 33.1212 77.1831 33.1212C77.4126 33.018 77.5744 32.844 77.673 32.6022L79.0926 27.7211C79.1911 27.3392 79.0925 27.0649 78.8484 26.8378ZM63.9714 25.285L56.6794 29.1795L59.7142 18.7421H65.8794L63.9714 25.285Z" fill="#6D2A78"/>
</svg>
