<svg width="68" height="66" viewBox="0 0 68 66" fill="none" xmlns="http://www.w3.org/2000/svg">
<path fill-rule="evenodd" clip-rule="evenodd" d="M27.3747 21.5469L23.6304 34.7232H30.311L34.0553 21.5469H27.3747Z" fill="#6D2A78"/>
<path fill-rule="evenodd" clip-rule="evenodd" d="M26.7903 0.642126C16.0229 -1.53498 9.48785 1.9592 5.39292 9.07427C2.02388 14.9242 0 24.1021 0 33.1716C0 39.0444 0.848923 44.9567 2.36427 49.9819H25.925L27.6556 44.0094H17.0236C15.7461 44.0094 14.7331 43.5066 14.0667 42.4825V42.4783L14.0626 42.4742C13.4187 41.4355 13.3039 40.2992 13.6176 39.0465L14.4973 35.8598L20.0399 16.4802C20.3516 15.3314 20.9975 14.355 21.9572 13.5573C22.925 12.7076 24.0057 12.2651 25.1888 12.2651H40.6602C41.9786 12.2651 43.0019 12.7907 43.6273 13.873C44.2732 14.9201 44.4003 16.1083 44.0435 17.3963C43.2315 20.2818 42.399 23.1631 41.5439 26.0466C40.818 28.581 40.0942 31.132 39.3683 33.7013L54.3331 27.1787C54.5874 27.0354 54.8704 26.9648 55.1677 27.0229C55.4691 27.0811 55.7214 27.2535 55.9305 27.4779C56.3406 27.9183 56.4493 28.4709 56.2873 29.0546V29.0588L54.53 35.1825C54.4521 35.6666 54.1384 36.001 53.6975 36.1797L36.5529 43.596C36.5529 43.596 35.3821 47.7175 34.9679 49.2195C34.447 51.1141 33.9077 53.0273 33.3479 54.9656C33.3418 54.9842 33.3213 55.0486 33.2926 55.1359C33.2721 55.1961 33.188 55.4226 33.188 55.4226C32.7881 56.4737 32.1012 57.3525 31.1436 58.0546C30.2188 58.8087 29.2058 59.2014 28.1129 59.2014H6.73193C11.2739 64.935 19.394 67.4112 26.8908 65.1385C45.2329 59.5732 68 47.2044 68 33.1737C68 19.1434 44.7633 4.27341 26.7903 0.642126Z" fill="#6D2A78"/>
</svg>
