<svg id="Layer_1" data-name="Layer 1" xmlns="http://www.w3.org/2000/svg" viewBox="0 0 826 153.36"><defs><style>.cls-1{fill:#03363d;}</style></defs><title>golion-z-sourcefile-algae</title><path class="cls-1" d="M516,120.15a31.34,31.34,0,0,0,22.27-8.65l11,11.91c-7.3,7.49-17.4,13.07-33.12,13.07-26.95,0-44.35-17.86-44.35-42.07,0-24,18.34-42.07,41.91-42.07,26.76,0,41.91,20.36,40.61,48.6H491.15c2.24,11.72,10.48,19.21,24.88,19.21M535.3,87.49c-1.68-10.95-8.23-19-21.33-19-12.16,0-20.58,6.91-22.83,19H535.3Z"/><polygon class="cls-1" points="100.77 119.27 149.45 69.82 101.91 69.82 101.91 54.31 172 54.31 172 70.14 123.32 119.59 172.65 119.59 172.65 135.1 100.77 135.1 100.77 119.27"/><path class="cls-1" d="M227.3,120.15a31.34,31.34,0,0,0,22.27-8.65l11,11.91c-7.3,7.49-17.4,13.07-33.12,13.07-26.95,0-44.35-17.86-44.35-42.07,0-24,18.34-42.07,41.91-42.07,26.76,0,41.91,20.36,40.61,48.6H202.42c2.24,11.72,10.48,19.21,24.88,19.21m19.27-32.65c-1.68-10.95-8.23-19-21.33-19-12.16,0-20.58,6.91-22.83,19h44.16Z"/><path class="cls-1" d="M370.76,94.46c0-25.86,19.31-42,40.56-42,10.71,0,20.94,4.69,26.94,12.13V16.89h17.21v118H438.26V123.71c-6.16,7.92-16.39,12.77-27.1,12.77-20.6,0-40.4-16.32-40.4-42m68.48-.16c0-14.38-10.87-26.18-25.64-26.18C399.15,68.12,388,79.59,388,94.29s11.19,26.34,25.64,26.34c14.77,0,25.64-11.8,25.64-26.34"/><path class="cls-1" d="M565.58,117.73l15.57-8.08a23.12,23.12,0,0,0,20.77,11.79c9.74,0,14.77-5,14.77-10.66,0-6.46-9.41-7.92-19.63-10C583.27,97.85,569,93.32,569,76.68c0-12.77,12.17-24.57,31.32-24.4,15.09,0,26.29,6,32.62,15.67l-14.44,7.92c-3.73-5.66-10.06-9.21-18.17-9.21-9.25,0-14,4.53-14,9.7,0,5.82,7.46,7.43,19.15,10,13.3,2.91,28.39,7.27,28.39,24.08,0,11.15-9.73,26.18-32.78,26-16.87,0-28.72-6.79-35.53-18.75"/><polygon class="cls-1" points="680.61 98.98 666.98 113.85 666.98 134.86 649.78 134.86 649.78 16.89 666.98 16.89 666.98 94.13 703.49 54.05 724.42 54.05 692.78 88.64 725.23 134.86 705.76 134.86 680.61 98.98"/><path class="cls-1" d="M318.78,52.42c-20.45,0-37.57,13.25-37.57,35.23v47.2h17.53v-45c0-13.25,7.62-21.18,20.6-21.18s19.48,7.93,19.48,21.18v45h17.53V87.65c0-22-17.12-35.23-37.57-35.23"/></svg>
