<svg width="197" height="150" viewBox="0 0 197 150" fill="none" xmlns="http://www.w3.org/2000/svg">
<path d="M90.9904 39.6306V149.356H0.5849L90.9904 39.6306Z" fill="#03363D"/>
<path d="M90.9904 0.245819C90.9904 12.2977 86.228 23.856 77.7508 32.3779C69.2737 40.8999 57.7762 45.6875 45.7876 45.6875C33.7991 45.6875 22.3016 40.8999 13.8245 32.3779C5.34731 23.856 0.5849 12.2977 0.5849 0.245819H90.9904V0.245819Z" fill="#03363D"/>
<path d="M105.884 149.356C105.884 137.304 110.646 125.745 119.123 117.223C127.601 108.701 139.098 103.914 151.087 103.914C163.075 103.914 174.573 108.701 183.05 117.223C191.527 125.745 196.289 137.304 196.289 149.356H105.884Z" fill="#03363D"/>
<path d="M105.884 109.971V0.245819H196.299L105.884 109.971Z" fill="#03363D"/>
</svg>
