<svg id="Layer_1" data-name="Layer 1" xmlns="http://www.w3.org/2000/svg" viewBox="0 0 500 500"><defs><style>.cls-1{fill:#fc348f;}</style></defs><path class="cls-1" d="M393.27,250,329.39,139.36a26.87,26.87,0,0,0-23.26-13.43H193.87a26.87,26.87,0,0,0-23.26,13.43l-8.13,14.08H305.75L289.86,181H146.59L130.7,208.48H274L258.08,236H114.82l-8.09,14,7.8,13.52H257.8L273.69,291H130.42l15.89,27.52H289.58l15.89,27.52H162.2l8.41,14.57a26.87,26.87,0,0,0,23.26,13.43H306.13a26.87,26.87,0,0,0,23.26-13.43Z"/></svg>
