<svg width="64" height="64" viewBox="0 0 64 64" fill="none" xmlns="http://www.w3.org/2000/svg">
<g clip-path="url(#clip0_1_9)">
<path d="M64 47.3905V36.1143L62.7232 35.3524L32.0798 51.3524L3.03242 36.1143V29.5619L32.0798 44.6476L64.1596 28.0381V16.9143L62.8828 16.1524L32.0798 32.3048L4.14963 17.6762L32.0798 3.04762L54.5835 14.781L56.3392 13.8667V12.6476L32.0798 0L0 16.6095V18.2857L32.0798 35.0476L61.1272 19.8095V26.5143L32.0798 41.7524L1.27681 25.6L0 26.3619V37.6381L32.0798 54.2476L61.1272 39.1619V45.7143L32.0798 60.9524L1.27681 44.9524L0 45.7143V47.3905L32.0798 64L64 47.3905Z" fill="#FF3621"/>
</g>
<defs>
<clipPath id="clip0_1_9">
<rect width="64" height="64" fill="white"/>
</clipPath>
</defs>
</svg>
