<?xml version="1.0" encoding="UTF-8"?>
<svg width="1520px" height="309px" viewBox="0 0 1520 309" version="1.1" xmlns="http://www.w3.org/2000/svg" xmlns:xlink="http://www.w3.org/1999/xlink">
    <!-- Generator: Sketch 62 (91390) - https://sketch.com -->
    <title>svgLogo-black-text</title>
    <desc>Created with Sketch.</desc>
    <defs>
        <radialGradient cx="91.4415775%" cy="100%" fx="91.4415775%" fy="100%" r="82.8770975%" gradientTransform="translate(0.914416,1.000000),scale(0.922247,1.000000),rotate(-114.119289),scale(1.000000,5.411796),translate(-0.914416,-1.000000)" id="radialGradient-1">
            <stop stop-color="#50C6C8" offset="0%"></stop>
            <stop stop-color="#822BBF" offset="100%"></stop>
        </radialGradient>
    </defs>
    <g id="Page-1" stroke="none" stroke-width="1" fill="none" fill-rule="evenodd">
        <g id="Purple-Logo---Dark-Background" fill-rule="nonzero">
            <g id="Release-Text---3" transform="translate(437.000000, 78.000000)" fill="#000000">
                <path d="M0.303525519,152.319277 L0.303525519,25.0512048 C0.303525519,7.4503012 9.70361885,2.03463855 21.7894531,2.03463855 L96.9901998,2.03463855 C125.19048,2.03463855 134.590573,19.6355422 134.590573,49.4216867 C134.590573,80.561747 125.19048,99.5165663 99.6759408,99.5165663 L84.9043655,99.5165663 L84.9043655,100.870482 L137.276314,152.319277 L101.018811,152.319277 L52.6754741,103.578313 C49.9897331,99.5165663 45.9611217,95.4548193 45.9611217,91.3930723 L45.9611217,87.3313253 C45.9611217,81.9156627 49.9897331,76.5 58.046956,76.5 L87.5901065,76.5 C103.704552,76.5 105.047423,65.6686747 105.047423,49.4216867 C105.047423,31.8207831 102.361682,25.0512048 83.5614951,25.0512048 L37.9038989,25.0512048 C29.846676,25.0512048 27.160935,27.7590361 27.160935,35.8825301 L27.160935,152.319277 L0.303525519,152.319277 L0.303525519,152.319277 Z" id="Path"></path>
                <path d="M293.049289,152.319277 L195.019745,152.319277 C182.93391,152.319277 173.533817,146.903614 173.533817,129.302711 L173.533817,23.6972892 C173.533817,6.09638554 182.93391,0.680722892 195.019745,0.680722892 L291.706419,0.680722892 L291.706419,23.6972892 L212.477061,23.6972892 C204.419838,23.6972892 201.734097,26.4051205 201.734097,34.5286145 L201.734097,62.9608434 L290.363548,62.9608434 L290.363548,85.9774096 L201.734097,85.9774096 L201.734097,118.471386 C201.734097,126.59488 204.419838,129.302711 212.477061,129.302711 L293.049289,129.302711 L293.049289,152.319277 Z" id="Path"></path>
                <path d="M350.79272,152.319277 C338.706886,152.319277 329.306792,146.903614 329.306792,129.302711 L329.306792,2.03463855 L357.507072,2.03463855 L357.507072,118.471386 C357.507072,126.59488 360.192813,129.302711 368.250036,129.302711 L448.822265,129.302711 L448.822265,152.319277 L350.79272,152.319277 Z" id="Path"></path>
                <path d="M596.538017,152.319277 L498.508472,152.319277 C486.422638,152.319277 477.022545,146.903614 477.022545,129.302711 L477.022545,23.6972892 C477.022545,6.09638554 486.422638,0.680722892 498.508472,0.680722892 L595.195147,0.680722892 L595.195147,23.6972892 L515.965788,23.6972892 C507.908566,23.6972892 505.222825,26.4051205 505.222825,34.5286145 L505.222825,62.9608434 L593.852276,62.9608434 L593.852276,85.9774096 L505.222825,85.9774096 L505.222825,118.471386 C505.222825,126.59488 507.908566,129.302711 515.965788,129.302711 L596.538017,129.302711 L596.538017,152.319277 Z" id="Path"></path>
                <path d="M674.424505,18.2816265 C679.795987,6.09638554 685.167468,0.680722892 698.596173,0.680722892 C710.682008,0.680722892 717.39636,4.74246988 722.767842,18.2816265 L779.168402,153.673193 L749.625251,153.673193 L734.853676,115.763554 L663.681541,115.763554 L648.909966,153.673193 L619.366815,153.673193 L674.424505,18.2816265 Z M670.395893,94.1009036 L728.139324,94.1009036 L703.967655,33.1746988 C702.624785,30.4668675 701.281914,26.4051205 699.939044,26.4051205 C698.596173,26.4051205 695.910432,30.4668675 695.910432,33.1746988 L670.395893,94.1009036 Z" id="Shape"></path>
                <path d="M801.9972,129.302711 L883.912299,129.302711 C897.341004,129.302711 897.341004,118.471386 897.341004,113.055723 C897.341004,107.64006 895.998133,100.870482 882.569429,95.4548193 L823.483128,76.5 C803.34007,69.7304217 797.968589,57.5451807 797.968589,37.2364458 C797.968589,15.5737952 808.711552,0.680722892 831.54035,0.680722892 L917.484061,0.680722892 L917.484061,23.6972892 L839.597573,23.6972892 C832.883221,23.6972892 827.511739,27.7590361 827.511739,38.5903614 C827.511739,45.3599398 828.854609,52.1295181 840.940444,56.1912651 L895.998133,73.7921687 C917.484061,80.561747 926.884154,90.0391566 926.884154,113.055723 C926.884154,134.718373 917.484061,150.965361 894.655263,150.965361 L800.654329,150.965361 L800.654329,129.302711 L801.9972,129.302711 Z" id="Path"></path>
                <path d="M1082.65713,152.319277 L984.627585,152.319277 C972.54175,152.319277 963.141657,146.903614 963.141657,129.302711 L963.141657,23.6972892 C963.141657,6.09638554 972.54175,0.680722892 984.627585,0.680722892 L1081.31426,0.680722892 L1081.31426,23.6972892 L1002.0849,23.6972892 C994.027678,23.6972892 991.341937,26.4051205 991.341937,34.5286145 L991.341937,62.9608434 L1079.97139,62.9608434 L1079.97139,85.9774096 L991.341937,85.9774096 L991.341937,118.471386 C991.341937,126.59488 994.027678,129.302711 1002.0849,129.302711 L1082.65713,129.302711 L1082.65713,152.319277 Z" id="Path"></path>
            </g>
            <g id="Purple-Logo" fill="url(#radialGradient-1)">
                <path d="M257.6983,0.12512475 L257.6983,53.8207335 L54.1512078,53.8201248 L54.1520187,308.874875 L0.58720782,308.874875 L0.58720782,0.12512475 L257.6983,0.12512475 Z M335.367276,0.12512475 L335.367276,308.874875 L281.802465,308.874875 L281.802208,307.532125 L75.5779431,307.532485 L75.5779431,253.836876 L281.802208,253.836125 L281.802465,0.12512475 L335.367276,0.12512475 Z" id="Combined-Shape"></path>
            </g>
        </g>
    </g>
</svg>