<svg width="420" height="121" viewBox="0 0 420 121" fill="none" xmlns="http://www.w3.org/2000/svg">
<path d="M60.5 121C93.9132 121 121 93.9132 121 60.5C121 27.0868 93.9132 0 60.5 0C27.0868 0 0 27.0868 0 60.5C0 93.9132 27.0868 121 60.5 121Z" fill="#00D1CA"/>
<path d="M39.4564 60.5C39.4564 48.9795 48.9761 39.4565 60.9476 39.4565C67.7914 39.4565 73.8591 42.5787 77.7922 47.4303C80.1447 50.3322 84.4042 50.7775 87.3061 48.425C90.2079 46.0725 90.6532 41.813 88.3007 38.9112C81.8796 30.9906 71.9966 25.9286 60.9476 25.9286C41.7093 25.9286 25.9285 41.3053 25.9285 60.5C25.9285 79.6947 41.7093 95.0714 60.9476 95.0714C71.9966 95.0714 81.8796 90.0094 88.3007 82.0889C90.6532 79.187 90.2079 74.9275 87.3061 72.575C84.4042 70.2225 80.1447 70.6679 77.7922 73.5697C73.8591 78.4213 67.7914 81.5435 60.9476 81.5435C48.9761 81.5435 39.4564 72.0206 39.4564 60.5Z" fill="#1A263E"/>
<path d="M88.3073 67.264C92.043 67.264 95.0713 64.2357 95.0713 60.5C95.0713 56.7644 92.043 53.736 88.3073 53.736C84.5717 53.736 81.5434 56.7644 81.5434 60.5C81.5434 64.2357 84.5717 67.264 88.3073 67.264Z" fill="#1A263E"/>
<path d="M227.983 89L210.733 63.7768V70.7285V89H201.129V10H210.733V57.9092L227.983 33H240.5L221 60L240.5 89H227.983ZM266.891 89C262.702 89 259.228 87.6698 256.47 85.0094C253.711 82.349 252.297 78.646 252.228 73.9004V42.0598H243.22V33H252.228V19.7231H261.864V33H274.433V42.0598H261.864V70.6648C261.864 74.188 262.527 76.5788 263.854 77.8371C265.181 79.0954 266.682 79.7245 268.358 79.7245C269.126 79.7245 269.877 79.6347 270.61 79.4549C271.343 79.2751 272.024 79.0415 272.652 78.7538L275.69 87.5979C273.176 88.5326 270.243 89 266.891 89ZM303.5 33C311.499 33 317.168 35.6788 322.599 40.6458C328.031 45.6127 331.575 53.7633 330.933 63.2568H287.24C287.387 68.4625 289.148 71.4252 292.524 74.6064C295.9 77.7876 299.936 79.3782 304.633 79.3782C311.092 79.3782 316.494 76.0316 319.203 69.8346H329.851C328.413 76.1674 323.146 82.538 318.828 85.2042C314.511 87.8705 309.673 89 304.242 89C296.316 89 289.785 86.3249 284.648 80.9747C279.51 75.6244 276.892 68.3525 276.892 60.1825C276.892 52.0848 279.355 46.466 284.345 41.0796C289.336 35.6932 295.721 33 303.5 33ZM392.341 33.0923C407.616 33.0923 420 45.6077 420 61.0462C420 76.4846 407.616 89 392.341 89C377.065 89 364.681 76.4846 364.681 61.0462C364.681 45.6077 377.065 33.0923 392.341 33.0923ZM168.659 33.0923C183.935 33.0923 196.319 45.6077 196.319 61.0462C196.319 76.4846 183.935 89 168.659 89C153.384 89 141 76.4846 141 61.0462C141 45.6077 153.384 33.0923 168.659 33.0923ZM350.855 19.7231V33H363.424V42.0598H350.855V70.6648C350.855 74.188 351.519 76.5788 352.845 77.8371C354.172 79.0954 355.673 79.7245 357.349 79.7245C358.117 79.7245 358.868 79.6347 359.601 79.4549C360.334 79.2751 361.015 79.0415 361.644 78.7538L364.681 87.5979C362.167 88.5326 359.235 89 355.883 89C351.693 89 348.219 87.6698 345.461 85.0094C342.703 82.349 341.289 78.646 341.219 73.9004V42.0598H332.211V33H341.219V19.7231H350.855ZM392.341 43.0179C382.489 43.0179 374.502 51.0895 374.502 61.0462C374.502 71.0029 382.489 79.0744 392.341 79.0744C402.192 79.0744 410.179 71.0029 410.179 61.0462C410.179 51.0895 402.192 43.0179 392.341 43.0179ZM168.659 43.0179C158.808 43.0179 150.821 51.0895 150.821 61.0462C150.821 71.0029 158.808 79.0744 168.659 79.0744C178.511 79.0744 186.498 71.0029 186.498 61.0462C186.498 51.0895 178.511 43.0179 168.659 43.0179ZM304.21 41.9609C300.358 41.9609 296.547 43.3982 293.769 45.7344C290.991 48.0706 288.557 51.2098 287.668 55.1522H320.679C319.884 51.5507 317.914 48.246 314.77 45.7344C311.626 43.2227 308.877 41.9609 304.21 41.9609Z" fill="#1A263E"/>
</svg>
