<?xml version="1.0" standalone="no"?>
<!DOCTYPE svg PUBLIC "-//W3C//DTD SVG 20010904//EN"
 "http://www.w3.org/TR/2001/REC-SVG-20010904/DTD/svg10.dtd">
<svg version="1.0" xmlns="http://www.w3.org/2000/svg"
 width="300.000000pt" height="300.000000pt" viewBox="0 0 300.000000 300.000000"
 preserveAspectRatio="xMidYMid meet">
<metadata>
Created by potrace 1.10, written by Peter Selinger 2001-2011
</metadata>
<g transform="translate(0.000000,300.000000) scale(0.100000,-0.100000)"
fill="#000000" stroke="none">
<path d="M1185 2908 c-69 -9 -181 -40 -242 -69 -24 -10 -47 -19 -52 -19 -5 0
-11 -7 -15 -15 -3 -8 -11 -15 -19 -15 -7 0 -49 -35 -93 -77 -65 -64 -87 -95
-126 -173 -46 -94 -67 -141 -73 -170 -2 -8 -11 -35 -20 -60 -33 -87 -44 -139
-31 -144 7 -3 7 -5 -2 -5 -7 -1 -10 -5 -7 -11 3 -5 1 -10 -6 -10 -6 0 -9 -8
-6 -20 3 -11 1 -18 -4 -14 -5 3 -9 -5 -9 -18 0 -13 -3 -34 -6 -48 -6 -21 -4
-23 7 -12 7 6 25 12 39 12 23 0 28 -7 44 -58 9 -32 28 -71 42 -87 19 -23 22
-24 14 -7 -7 15 -7 22 0 22 5 0 10 -4 10 -9 0 -5 10 -11 22 -14 20 -6 19 -3
-6 17 -20 16 -27 28 -23 40 4 9 3 15 -1 13 -10 -6 -37 25 -37 43 0 8 -6 18
-15 21 -11 4 -5 11 20 24 40 20 52 34 45 53 -2 6 3 12 11 12 9 0 30 16 47 37
18 20 45 49 60 66 16 16 26 32 23 35 -3 3 -14 -5 -25 -16 -25 -30 -37 -28 -17
3 24 36 11 31 -15 -7 -13 -17 -18 -28 -11 -24 23 14 12 -13 -18 -42 -16 -17
-30 -28 -30 -25 0 5 -84 -59 -88 -68 -1 -3 -14 -4 -28 -1 -21 4 -24 9 -19 26
3 11 7 32 9 46 2 14 5 32 7 40 2 8 -1 14 -7 13 -8 -2 -10 6 -6 20 5 18 7 19
10 5 6 -31 23 -19 18 12 -2 17 0 30 5 30 5 0 9 7 9 15 0 8 4 15 8 15 8 0 33
59 31 76 0 5 -9 -9 -20 -31 -21 -45 -25 -32 -7 26 9 31 14 37 25 28 10 -9 12
-9 8 3 -4 9 3 33 14 53 11 21 18 42 15 47 -3 4 2 8 10 8 9 0 16 5 16 12 0 6 8
21 17 32 17 20 17 20 1 7 -13 -9 -18 -10 -18 -2 0 6 7 14 15 17 8 4 12 10 9
15 -3 5 0 9 6 9 6 0 8 5 4 11 -4 6 1 9 13 7 11 -2 19 2 19 7 -1 6 -7 9 -13 9
-22 -3 -14 16 12 28 14 6 25 15 25 19 0 13 53 59 67 59 7 0 13 6 13 13 0 7 5
18 11 24 12 12 49 6 49 -9 0 -5 -4 -7 -9 -4 -11 7 -131 -108 -131 -126 0 -10
2 -10 9 1 5 7 14 10 21 6 9 -6 9 -9 -1 -16 -7 -4 -10 -11 -7 -14 4 -4 15 3 25
16 40 49 76 84 85 81 5 -1 8 8 6 20 -2 15 4 26 20 34 36 18 50 34 30 34 -9 0
-19 -4 -23 -10 -7 -11 -35 -2 -35 12 0 6 7 7 16 4 9 -4 13 -2 8 5 -4 8 1 9 15
4 16 -5 27 -1 41 15 11 13 21 17 25 10 3 -5 1 -10 -4 -10 -20 0 -11 -16 9 -17
11 -1 20 3 20 8 0 6 5 7 10 4 6 -4 10 -3 9 2 -4 25 3 35 21 30 13 -3 20 0 20
10 0 8 5 11 10 8 6 -4 7 -11 4 -17 -5 -8 6 -9 37 -3 24 4 50 7 57 8 21 1 13
15 -10 20 -13 2 -6 5 17 5 26 1 35 -1 26 -7 -24 -16 5 -20 70 -11 35 5 75 6
88 3 13 -3 33 -7 45 -8 35 -4 37 -5 32 -13 -2 -4 10 -14 27 -21 81 -35 104
-48 132 -76 16 -16 28 -32 26 -35 -2 -3 18 -18 45 -33 53 -31 128 -99 147
-133 7 -12 28 -51 49 -85 41 -72 63 -134 83 -229 18 -82 12 -279 -9 -341 -9
-24 -16 -51 -16 -61 0 -9 -6 -19 -12 -21 -7 -3 -8 -6 -2 -6 6 -1 8 -21 3 -58
-12 -96 -11 -143 4 -143 8 0 34 13 58 30 46 31 86 37 120 20 13 -7 19 -7 19 0
0 5 -7 10 -16 10 -9 0 -14 6 -11 13 5 14 -30 17 -50 4 -8 -5 -13 -4 -13 2 0 6
-5 11 -12 11 -6 0 -8 -3 -5 -6 4 -4 -3 -16 -16 -26 l-22 -20 -6 29 c-7 28 -7
28 -8 -5 0 -19 -5 -31 -11 -27 -17 11 -9 166 12 223 11 28 23 52 28 52 12 0
21 43 10 50 -5 3 -7 16 -3 28 3 12 9 20 13 17 11 -7 0 250 -12 270 -3 6 -13
43 -22 83 -33 144 -98 271 -187 360 -57 56 -57 56 -79 42 -13 -9 -13 -11 0
-20 13 -8 11 -12 -8 -30 -22 -21 -22 -21 -22 -1 0 15 5 19 18 14 14 -5 15 -4
4 8 -11 12 -15 11 -26 -3 -17 -23 -37 -23 -29 -1 4 10 2 14 -5 9 -6 -3 -13 -3
-15 1 -8 13 12 53 25 53 9 0 9 -3 -2 -11 -12 -8 -9 -10 13 -6 15 2 27 0 27 -4
0 -5 7 -6 15 -2 14 5 14 7 0 23 -8 9 -12 20 -8 25 5 4 1 6 -7 3 -12 -4 -49 5
-93 22 -1 1 -19 -6 -40 -15 -22 -9 -36 -11 -32 -5 4 7 -2 14 -14 17 -12 3 -21
11 -21 18 0 18 -120 53 -195 57 -33 2 -87 0 -120 -4z m437 -122 c19 -27 5 -34
-17 -10 -14 15 -25 28 -25 30 0 7 35 -10 42 -20z m-775 -103 c-26 -26 -50 -44
-54 -40 -8 8 73 87 89 87 6 0 -10 -21 -35 -47z"/>
<path d="M1231 2818 c-1 -18 -7 -19 -63 -22 -14 0 -29 -4 -33 -8 -4 -4 14 -5
39 -4 50 3 72 16 63 38 -4 9 -6 7 -6 -4z"/>
<path d="M1272 2812 c-12 -2 -20 -8 -16 -13 3 -5 10 -7 15 -3 6 3 25 8 42 11
18 3 34 7 36 9 5 5 -33 2 -77 -4z"/>
<path d="M1415 2800 c-9 -14 20 -40 44 -40 24 0 36 16 20 26 -8 4 -9 3 -5 -4
10 -17 -22 -15 -39 2 -8 7 -11 16 -8 20 4 3 4 6 0 6 -3 0 -9 -5 -12 -10z"/>
<path d="M1304 2788 c-3 -4 4 -8 15 -8 11 0 23 -5 26 -11 5 -6 12 -4 21 8 8
11 13 13 14 6 0 -7 5 -13 12 -13 9 0 9 3 1 11 -14 14 -82 19 -89 7z"/>
<path d="M1525 2753 c-5 -10 -7 -22 -6 -26 1 -5 -3 -6 -9 -2 -5 3 -10 0 -11
-7 0 -7 -5 -2 -10 11 -7 19 -12 21 -24 11 -11 -10 -18 -9 -30 4 -11 11 -22 13
-33 7 -9 -5 -48 -11 -87 -14 -108 -8 -107 -8 -223 -59 -42 -18 -143 -103 -140
-117 4 -13 -23 -51 -33 -46 -5 4 -8 1 -7 -7 2 -7 -2 -12 -8 -11 -7 1 -10 -5
-8 -15 3 -9 -13 -40 -36 -70 -22 -29 -40 -59 -40 -67 0 -8 -6 -15 -12 -15 -9
0 -8 -4 2 -10 13 -8 12 -10 -2 -10 -20 0 -24 -16 -6 -22 7 -3 6 -7 -5 -11 -9
-3 -17 -2 -17 4 0 6 -5 7 -10 4 -6 -4 -5 -12 4 -21 12 -11 12 -20 3 -44 -6
-16 -14 -30 -18 -30 -4 0 -10 -11 -13 -24 -3 -14 -22 -45 -42 -71 -34 -45 -35
-48 -18 -66 22 -24 20 -26 -41 -37 l-50 -10 40 -1 c30 -1 36 -4 25 -11 -11 -8
-8 -9 13 -4 28 6 35 -4 16 -23 -7 -7 -6 -15 6 -26 9 -9 16 -19 15 -22 0 -3 0
-24 1 -47 0 -32 2 -38 8 -23 5 11 7 23 4 27 -2 4 4 22 13 39 13 26 13 31 2 26
-11 -4 -14 5 -14 39 0 24 5 45 10 47 6 2 4 3 -5 2 -9 -1 -21 6 -27 16 -10 15
-9 17 3 13 10 -4 18 4 26 23 6 15 17 42 24 58 40 89 53 124 47 129 -3 3 0 6 7
6 7 0 10 4 7 8 -3 5 4 23 15 40 22 38 24 46 7 36 -8 -5 -7 -1 2 10 16 20 34
50 49 81 5 11 26 38 47 60 21 22 38 43 39 47 1 17 84 94 98 90 4 -1 7 7 7 19
0 14 5 19 15 16 8 -4 17 -1 21 4 3 6 15 8 26 6 11 -3 17 -3 14 0 -7 8 41 33
63 33 10 0 21 3 25 8 4 4 26 8 49 9 23 0 62 2 87 3 35 1 40 3 25 10 -11 5 -15
9 -8 9 20 2 43 -11 37 -20 -3 -5 -1 -9 5 -9 5 0 13 5 16 11 5 7 13 5 24 -5 10
-9 29 -15 42 -15 13 1 33 -2 44 -7 17 -7 18 -6 8 8 -7 8 -10 18 -6 21 3 4 -1
7 -10 7 -10 0 -17 8 -17 18 0 15 2 15 11 2 9 -12 10 -12 7 -1 -6 22 -25 24
-33 4z"/>
<path d="M997 2736 c-8 -8 -16 -13 -18 -11 -2 2 -21 -14 -43 -36 -21 -21 -33
-39 -28 -39 6 0 19 11 30 25 11 13 22 21 26 18 3 -3 6 -1 6 5 0 7 5 12 11 12
13 0 43 29 36 36 -2 3 -11 -2 -20 -10z"/>
<path d="M1055 2721 c-3 -11 -12 -18 -20 -15 -18 7 -30 -15 -15 -29 10 -9 12
-8 7 6 -4 9 -2 17 3 17 6 0 10 -6 10 -12 0 -7 5 -5 11 5 6 9 14 15 19 12 15
-9 20 12 6 24 -11 10 -16 8 -21 -8z"/>
<path d="M751 2578 c-1 -20 -5 -26 -16 -22 -9 4 -15 0 -15 -9 0 -21 -26 -68
-33 -60 -4 3 -7 0 -7 -8 0 -8 -12 -32 -27 -54 -15 -22 -20 -34 -11 -28 8 7 18
10 21 6 4 -3 8 -1 8 5 1 7 2 16 3 21 1 9 35 56 73 99 22 25 38 66 23 57 -5 -3
-11 1 -13 7 -3 7 -6 1 -6 -14z"/>
<path d="M822 2568 c-7 -7 -12 -15 -12 -19 0 -4 -13 -21 -30 -37 -16 -17 -30
-37 -30 -46 0 -8 -9 -20 -20 -26 -22 -12 -27 -30 -7 -30 12 0 41 37 42 53 0 4
3 7 8 7 4 0 12 0 18 0 7 0 5 -10 -5 -25 -9 -14 -12 -25 -7 -25 5 0 13 9 16 20
3 11 11 20 16 20 5 0 9 6 9 14 0 9 -7 12 -20 9 -26 -7 -26 14 0 22 11 4 18 11
15 16 -4 5 -1 9 5 9 7 0 10 6 7 14 -3 7 0 19 6 25 6 6 9 11 6 11 -3 0 -10 -5
-17 -12z"/>
<path d="M690 2385 c0 -8 -4 -15 -10 -15 -5 0 -10 -9 -10 -19 0 -11 -5 -23
-10 -26 -6 -4 -22 -25 -36 -48 -15 -23 -33 -48 -42 -54 -14 -12 -14 -13 0 -13
14 0 42 39 95 133 6 11 19 24 27 29 9 5 14 13 11 19 -9 14 -25 11 -25 -6z"/>
<path d="M762 2374 c-6 -7 -17 -25 -24 -39 -6 -14 -16 -25 -22 -25 -7 0 -6 -3
1 -8 9 -6 6 -16 -12 -36 -29 -34 -30 -37 -10 -30 8 4 15 10 15 15 0 4 10 17
21 28 14 12 19 26 15 37 -4 11 -2 15 8 11 20 -8 28 4 13 21 -10 13 -9 15 5 10
10 -4 15 -2 14 7 -3 22 -10 24 -24 9z"/>
<path d="M1120 2253 c-8 -3 -26 -14 -39 -24 -13 -11 -32 -19 -41 -19 -18 0
-47 -27 -38 -35 7 -7 70 16 90 33 15 12 24 12 75 -3 32 -10 69 -24 82 -32 14
-9 26 -11 30 -6 3 6 16 15 28 22 19 10 22 9 17 -4 -3 -8 -10 -12 -15 -9 -10 6
-12 -9 -2 -19 9 -9 36 31 28 42 -3 6 -36 8 -73 5 -46 -3 -62 -1 -52 6 12 8 9
10 -13 10 -35 0 -70 18 -62 31 7 10 7 10 -15 2z"/>
<path d="M1362 2178 c6 -17 49 -39 62 -30 6 3 0 9 -12 12 -13 3 -23 10 -22 15
1 6 -6 12 -16 13 -10 3 -15 -1 -12 -10z"/>
<path d="M1403 2130 c-13 -5 -23 -12 -23 -15 0 -4 5 -3 10 0 6 3 10 2 10 -3 0
-17 38 -21 44 -5 6 16 0 33 -12 32 -4 0 -17 -4 -29 -9z"/>
<path d="M1741 2052 c-21 -39 -15 -42 82 -38 50 2 96 5 101 5 5 1 1 11 -10 23
l-19 21 28 -18 c16 -10 27 -13 27 -6 0 6 -12 16 -27 22 -31 12 -142 8 -150 -4
-3 -5 -9 -4 -13 3 -6 9 -11 7 -19 -8z"/>
<path d="M1215 2041 c52 -13 92 -39 113 -75 25 -42 5 -39 -27 5 -12 16 -26 27
-31 24 -4 -3 -10 -1 -12 3 -1 5 -29 12 -61 16 -34 3 -56 3 -53 -3 7 -10 -82
-5 -130 8 -21 6 -34 6 -34 0 0 -5 3 -9 8 -9 4 0 23 -15 42 -34 l35 -34 35 18
c50 26 100 41 100 29 0 -5 -8 -9 -19 -9 -10 0 -24 -7 -32 -16 -11 -13 -9 -14
15 -8 23 5 27 4 24 -12 -2 -11 4 -20 15 -22 9 -2 17 1 17 7 0 6 -4 11 -10 11
-5 0 -10 7 -10 15 0 9 6 12 16 8 9 -3 14 -15 12 -32 -3 -22 -8 -26 -38 -27
-55 -1 -58 -4 -17 -20 47 -16 74 -6 83 33 6 21 1 31 -20 50 -44 37 -4 27 45
-12 45 -36 63 -42 74 -25 19 31 -92 122 -148 119 -17 -1 -15 -3 8 -8z"/>
<path d="M490 1980 c-23 -14 -18 -144 6 -192 l19 -36 0 119 c0 65 -2 119 -5
119 -3 0 -12 -5 -20 -10z"/>
<path d="M1313 1906 c18 -14 24 -32 7 -21 -12 7 -50 -3 -50 -13 0 -9 86 -9 95
-1 7 8 -43 49 -59 49 -6 0 -3 -7 7 -14z"/>
<path d="M1805 1911 c46 -8 85 -27 85 -41 0 -6 5 -10 10 -10 21 0 9 21 -22 40
-20 12 -49 19 -73 19 l-40 -2 40 -6z"/>
<path d="M2345 1890 c-3 -5 -12 -7 -20 -3 -8 3 -15 0 -15 -5 0 -6 9 -14 20
-17 62 -20 43 -93 -48 -187 -50 -53 -72 -68 -94 -68 -35 0 -37 -16 -2 -23 19
-3 35 3 59 25 l34 29 41 -27 c38 -26 40 -29 24 -41 -23 -17 -35 -16 -62 3 -35
24 -36 11 -2 -21 28 -27 31 -27 48 -12 10 9 23 17 28 17 22 0 124 116 182 204
39 60 30 82 -27 71 -51 -9 -57 -20 -27 -46 30 -26 33 -41 9 -60 -9 -8 -14 -9
-11 -4 4 6 2 17 -4 25 -8 12 -9 12 -4 -2 3 -10 1 -18 -5 -18 -6 0 -8 -4 -5 -9
9 -14 -4 -41 -20 -41 -8 0 -13 -3 -13 -7 3 -21 -2 -33 -16 -33 -8 0 -15 -7
-15 -15 0 -26 -28 -28 -65 -5 -38 24 -42 31 -22 52 15 17 33 45 49 76 7 14 17
21 26 17 10 -4 12 -1 7 12 -4 10 -12 42 -18 71 -10 50 -19 63 -32 42z"/>
<path d="M1715 1870 c-46 -18 -58 -61 -19 -66 10 -1 34 -8 52 -15 31 -13 35
-12 48 6 9 11 13 31 10 46 -4 23 -2 25 19 21 33 -6 59 -37 52 -62 -3 -11 -1
-23 4 -26 5 -3 9 0 9 6 0 6 7 18 15 26 24 24 18 38 -25 57 -42 18 -130 22
-165 7z m61 -25 c9 -9 11 -15 4 -15 -6 0 -9 -4 -5 -9 3 -5 0 -13 -6 -16 -11
-8 -38 22 -39 43 0 17 28 15 46 -3z"/>
<path d="M616 1851 c-4 -6 -9 -28 -11 -48 -4 -47 -27 -62 -39 -25 -8 24 -10
25 -17 7 -13 -34 -10 -51 14 -79 19 -22 28 -25 54 -20 27 5 31 4 27 -12 -3
-12 3 -24 16 -32 18 -11 20 -10 20 12 0 15 -11 33 -27 46 -32 25 -35 37 -16
65 17 25 17 56 0 80 -10 13 -16 15 -21 6z"/>
<path d="M1855 1798 c-4 -13 -7 -26 -6 -29 0 -4 -8 -5 -18 -2 -10 3 -22 0 -25
-6 -4 -6 -4 -11 1 -12 4 0 18 -2 29 -3 18 -2 23 4 28 33 6 41 2 52 -9 19z"/>
<path d="M584 1566 c9 -31 41 -54 54 -41 6 6 -47 75 -57 75 -4 0 -3 -15 3 -34z"/>
<path d="M1688 1531 c-2 -38 0 -57 7 -51 8 9 8 100 0 108 -2 2 -5 -24 -7 -57z"/>
<path d="M1455 1514 c-22 -8 -41 -14 -42 -14 -2 0 -3 -4 -3 -10 0 -5 14 -10
30 -10 17 0 30 5 30 11 0 7 12 9 36 4 26 -4 35 -3 32 6 -7 22 -43 27 -83 13z"/>
<path d="M582 1503 c-6 -10 -42 -49 -81 -88 -39 -38 -71 -74 -71 -79 0 -6 7
-1 15 10 14 18 15 18 6 -6 -4 -14 -12 -24 -17 -23 -16 3 -33 -40 -34 -82 0
-30 11 -60 44 -115 64 -111 64 -112 17 -175 -43 -57 -51 -96 -27 -127 15 -20
31 -24 20 -5 -4 6 2 4 14 -7 12 -10 19 -23 15 -29 -3 -6 -1 -7 6 -3 6 4 14 0
18 -10 4 -11 2 -19 -6 -22 -10 -3 -9 -8 1 -21 7 -9 1 -4 -14 13 -15 16 -25 32
-23 34 7 7 -38 38 -49 34 -5 -2 -6 4 -3 13 4 8 2 15 -3 15 -5 0 -6 7 -3 17 4
11 3 14 -6 9 -7 -5 -10 -18 -7 -31 4 -14 0 -27 -8 -34 -8 -7 -13 -24 -11 -39
5 -40 7 -40 14 -2 8 49 32 49 64 2 14 -22 37 -52 51 -67 25 -27 33 -45 20 -45
-4 0 -17 12 -30 26 -13 14 -28 23 -33 19 -5 -3 -13 0 -17 6 -5 8 -3 9 5 4 9
-5 12 -2 9 11 -2 11 -10 18 -17 16 -7 -1 -10 2 -6 8 3 5 2 18 -4 27 -8 14 -9
9 -7 -21 2 -31 10 -46 37 -69 27 -23 30 -28 12 -22 -13 3 -23 2 -23 -3 0 -6
12 -9 28 -7 15 2 34 -1 43 -5 8 -5 20 -6 26 -2 12 8 5 72 -8 72 -4 0 -7 8 -7
18 0 9 -3 26 -6 37 -8 20 -7 20 8 1 19 -24 21 -8 2 17 -11 14 -15 15 -20 5 -3
-7 -4 -3 -2 10 2 12 0 19 -6 16 -5 -3 -12 3 -15 15 -3 12 -10 18 -17 14 -6 -4
-5 1 3 11 12 15 12 17 0 14 -8 -2 -17 -7 -21 -13 -4 -5 -7 -1 -6 10 0 11 -3
29 -7 40 -7 16 -5 15 12 -4 l20 -24 7 44 c6 35 10 40 16 24 4 -11 3 -23 -3
-27 -11 -7 8 -64 26 -75 6 -3 7 -1 3 6 -4 6 -9 34 -11 62 -4 44 -1 52 15 56
11 3 20 9 20 14 0 5 6 9 14 9 8 0 18 5 22 12 5 7 2 8 -7 3 -11 -6 -12 -5 -1 6
22 24 13 31 -33 27 -46 -3 -60 6 -25 17 23 7 27 22 5 22 -8 0 -15 -4 -15 -9 0
-4 -5 -8 -11 -8 -8 0 -7 6 2 17 11 13 11 17 2 20 -16 6 -17 43 -2 43 6 0 4 7
-5 15 -11 12 -14 31 -11 81 4 62 3 66 -15 61 -29 -7 -25 2 5 13 14 5 25 16 24
22 -3 16 33 78 44 78 5 0 5 -5 1 -12 -4 -7 -3 -8 5 -4 9 6 9 11 -1 24 -10 12
-10 14 0 8 7 -4 15 -1 18 8 10 26 21 18 22 -15 0 -18 6 -37 13 -43 9 -8 10 -8
5 1 -5 9 -2 11 8 7 15 -6 17 -11 15 -30 -1 -20 97 -48 105 -30 2 6 5 0 5 -14
1 -14 3 -59 6 -100 5 -88 -6 -118 -52 -140 -20 -9 -33 -23 -33 -34 0 -15 -3
-16 -15 -6 -18 15 -45 6 -45 -15 0 -8 3 -14 8 -14 21 4 42 -2 42 -11 0 -6 -13
-8 -31 -5 -26 5 -30 3 -25 -10 3 -9 6 -19 6 -21 0 -3 9 0 20 6 17 9 22 7 32
-17 6 -15 12 -30 12 -33 4 -15 25 -43 26 -33 0 6 -4 14 -10 18 -5 3 -7 12 -4
19 3 8 1 17 -5 21 -15 8 -14 28 1 23 6 -2 12 -12 14 -23 1 -10 10 -25 20 -34
15 -15 16 -15 11 2 -4 11 -3 16 3 12 6 -3 10 -12 10 -19 0 -19 40 -28 47 -10
7 19 23 8 23 -16 0 -13 -5 -17 -15 -14 -8 4 -15 1 -15 -7 0 -7 3 -9 6 -6 11
10 44 -12 44 -30 0 -14 -3 -14 -22 3 -12 10 -18 13 -14 7 4 -7 3 -13 -3 -13
-5 0 -18 13 -28 30 -13 23 -22 28 -38 24 -27 -9 -35 -24 -28 -51 3 -13 1 -23
-6 -23 -6 0 -8 -7 -5 -15 4 -8 11 -15 16 -15 6 0 8 7 5 15 -4 8 -2 17 3 20 6
4 10 13 10 21 0 9 -5 12 -11 8 -7 -4 -10 -1 -7 7 5 15 40 26 37 12 -4 -26 3
-63 12 -63 7 0 9 10 5 28 -6 26 -6 26 9 8 18 -23 18 -31 5 -57 -7 -13 -7 -19
0 -19 5 0 10 6 10 13 0 8 4 7 10 -3 8 -12 10 -10 11 10 1 14 1 31 0 39 -2 7 2
10 9 6 7 -4 10 -16 7 -26 -3 -10 0 -17 7 -16 6 1 11 -6 11 -15 0 -10 4 -18 8
-18 4 0 9 0 12 0 3 0 -1 13 -9 29 -11 20 -13 37 -7 59 7 23 6 32 -5 36 -8 3
-14 14 -14 23 0 21 -36 56 -49 49 -4 -3 -17 2 -27 12 -30 26 -64 43 -73 37 -5
-3 -7 4 -4 14 3 11 17 24 31 31 15 6 42 23 61 39 l34 28 0 99 c0 54 -3 130 -7
168 l-8 68 -18 -30 c-25 -41 -36 -46 -70 -32 -34 14 -63 77 -58 129 2 27 -1
37 -14 39 -9 2 -21 -5 -26 -15z m-127 -273 c-3 -6 -2 -10 3 -10 5 0 9 -6 9
-12 0 -7 3 -31 6 -53 l7 -40 -13 42 c-14 49 -33 72 -23 28 5 -21 4 -27 -3 -20
-13 13 -18 66 -7 83 4 7 3 12 -3 12 -6 0 -8 7 -4 16 5 14 9 12 20 -10 8 -15
11 -31 8 -36z m101 -222 c4 -6 3 -8 -3 -5 -6 4 -15 -5 -21 -18 -11 -25 -32
-34 -32 -15 0 6 4 10 9 10 5 0 11 9 14 20 6 22 22 26 33 8z"/>
<path d="M1870 1478 c-8 -24 -20 -56 -29 -73 -8 -16 -17 -41 -19 -54 -2 -13
-10 -40 -18 -60 -9 -20 -17 -44 -19 -55 -3 -10 -9 -24 -15 -31 -8 -10 -8 -15
1 -21 8 -4 9 -3 5 4 -4 7 -3 12 2 12 10 0 34 53 58 125 7 22 24 71 38 109 28
75 30 86 18 86 -5 0 -15 -19 -22 -42z"/>
<path d="M654 1501 c-11 -11 -2 -89 12 -109 36 -52 85 1 76 81 -4 31 -6 33
-44 32 -22 0 -41 -2 -44 -4z"/>
<path d="M1614 1480 c-23 -24 -40 -31 -72 -33 -31 -1 -41 -5 -37 -15 3 -7 5
-22 5 -33 0 -10 5 -19 10 -19 6 0 10 6 9 13 -1 6 -1 17 0 23 1 16 63 27 72 13
5 -8 8 -8 13 0 4 6 1 11 -6 11 -7 0 0 11 16 23 16 13 27 29 25 35 -3 8 -16 0
-35 -18z"/>
<path d="M1242 1478 c-7 -7 -12 -18 -12 -25 0 -6 -8 -16 -17 -22 -10 -5 -14
-13 -10 -17 4 -4 16 2 27 14 12 12 17 22 13 22 -4 0 0 5 10 11 17 10 23 29 9
29 -4 0 -13 -5 -20 -12z"/>
<path d="M607 1343 c-4 -3 -7 -15 -7 -26 0 -16 -3 -17 -15 -7 -12 10 -15 10
-15 -2 0 -7 9 -14 19 -15 14 -1 20 6 23 28 5 31 5 32 -5 22z"/>
<path d="M1414 1313 c-92 -50 -122 -63 -145 -63 -35 0 -57 -24 -24 -26 26 -2
108 -39 128 -58 30 -28 66 -44 120 -50 47 -6 63 -4 85 10 31 20 52 44 51 59 0
6 -3 4 -6 -3 -2 -6 -9 -10 -14 -6 -5 3 -9 0 -9 -6 0 -15 -69 -44 -99 -42 -13
1 -30 7 -37 13 -8 6 -14 8 -14 4 0 -4 -6 -2 -13 4 -8 6 -18 7 -22 3 -5 -4 -5
1 -2 11 4 9 2 17 -3 17 -6 0 -10 -5 -10 -11 0 -6 -6 -5 -15 3 -29 26 -40 34
-58 41 -20 7 -18 34 2 30 6 -2 11 2 11 7 0 6 5 10 11 10 5 0 7 -4 4 -10 -3 -5
-2 -10 3 -10 5 0 12 10 15 21 4 16 11 20 27 16 15 -4 20 -2 16 8 -6 18 18 26
34 12 10 -9 11 -9 6 0 -3 6 -1 13 6 15 8 3 7 6 -4 10 -8 4 -28 -1 -44 -9z"/>
<path d="M1552 1313 c-17 -7 -5 -23 17 -23 23 0 46 -26 31 -35 -16 -10 -12
-21 8 -22 9 -1 22 -2 27 -3 6 -1 18 -2 28 -1 29 2 9 21 -23 21 -24 0 -27 3
-23 21 9 33 -29 57 -65 42z"/>
<path d="M590 1245 c-1 -27 -2 -28 -11 -10 -8 17 -9 17 -4 -5 2 -14 5 -29 6
-35 0 -5 4 -1 9 10 8 19 9 19 9 -2 1 -13 5 -23 10 -23 6 0 7 11 1 28 -5 15
-11 36 -13 47 -3 14 -5 11 -7 -10z"/>
<path d="M1380 1241 c0 -5 14 -11 30 -13 19 -3 29 -1 27 6 -4 13 -57 19 -57 7z"/>
<path d="M1462 1239 c-14 -6 -12 -9 12 -18 29 -11 92 -6 101 9 6 10 -90 17
-113 9z"/>
<path d="M2625 1216 c31 -26 71 -35 142 -35 24 0 48 -3 54 -7 7 -4 9 -3 5 4
-3 6 -32 14 -64 17 -31 4 -74 15 -95 26 -56 28 -80 25 -42 -5z"/>
<path d="M2526 1208 c4 -7 23 -36 41 -65 50 -78 64 -132 63 -231 -2 -107 -1
-113 10 -84 15 36 3 181 -19 246 -25 70 -71 146 -89 146 -8 0 -10 -5 -6 -12z"/>
<path d="M1755 1130 c-10 -22 -39 -68 -65 -102 l-47 -62 41 -31 c29 -22 43
-41 47 -65 4 -19 12 -60 18 -90 11 -60 57 -157 72 -152 5 1 9 -4 9 -10 0 -13
36 -39 92 -67 15 -8 30 -22 34 -33 3 -10 14 -18 25 -18 21 0 26 -16 7 -23 -9
-4 -10 -8 -2 -14 6 -4 14 -15 17 -23 4 -11 8 -9 13 9 7 23 8 24 15 5 7 -18 8
-18 8 3 1 12 -6 28 -14 36 -13 13 -12 17 10 31 14 9 25 14 25 11 0 -3 9 -1 20
5 19 10 29 60 13 60 -5 0 -8 30 -8 68 0 109 -42 171 -163 243 -86 50 -106 79
-122 176 -6 40 -15 75 -20 78 -4 2 -15 -13 -25 -35z m-5 -85 c0 -8 4 -15 8
-15 10 0 37 -50 34 -62 -1 -5 4 -8 12 -8 19 0 43 -30 25 -31 -8 0 -2 -6 12
-12 14 -7 34 -19 44 -27 17 -13 18 -13 10 0 -8 13 -7 13 8 1 9 -7 23 -25 30
-40 8 -16 20 -25 32 -24 19 1 19 1 2 -12 -16 -11 -16 -13 -2 -19 9 -3 14 -2
12 2 -3 4 1 13 9 20 12 11 14 9 14 -8 0 -11 7 -23 16 -27 12 -4 13 -8 3 -14
-9 -5 -10 -11 -2 -21 6 -7 14 -24 18 -38 7 -23 7 -24 -10 -10 -18 14 -18 14
-3 -10 10 -16 15 -43 13 -72 -1 -27 2 -48 6 -48 14 0 11 -27 -3 -33 -19 -7
-58 10 -58 25 0 8 -8 21 -17 30 -29 27 -43 46 -44 60 0 11 -2 11 -6 0 -6 -16
-33 3 -33 23 0 7 -7 15 -15 19 -12 4 -13 2 -6 -12 6 -11 6 -24 1 -32 -5 -8 -6
-19 -4 -25 3 -5 -2 -1 -10 9 -9 11 -16 26 -16 33 0 7 -5 13 -11 13 -5 0 -7 -6
-3 -12 5 -10 3 -10 -7 0 -11 10 -11 14 -1 21 10 6 10 10 -2 20 -9 7 -18 27
-21 45 -3 17 -7 45 -10 61 -3 17 -9 46 -12 65 -4 20 -18 45 -35 60 -33 29 -38
54 -8 45 11 -4 20 -2 20 4 0 6 -5 11 -11 11 -5 0 -7 5 -4 10 4 6 11 7 17 4 7
-4 8 -2 4 5 -4 6 -12 9 -17 6 -11 -7 -11 -3 -3 19 8 20 24 21 24 1z m323 -424
c-3 -14 0 -26 7 -31 11 -7 10 -12 -3 -25 -16 -15 -17 -14 -17 19 0 19 -4 38
-10 41 -5 3 -10 11 -10 17 0 7 6 6 15 -2 9 -8 15 -9 15 -2 0 6 -4 14 -10 17
-5 3 -10 11 -10 18 0 6 6 2 14 -9 9 -11 12 -29 9 -43z"/>
<path d="M1900 787 c0 -7 5 -18 11 -24 8 -8 8 -17 -1 -33 -7 -12 -8 -20 -3
-17 10 7 29 -24 36 -58 4 -15 5 -13 6 7 0 15 -4 30 -10 33 -6 4 -8 14 -5 22 7
18 -14 83 -26 83 -4 0 -8 -6 -8 -13z"/>
<path d="M2906 1152 c14 -12 85 -34 91 -29 3 3 -12 13 -32 21 -40 17 -76 22
-59 8z"/>
<path d="M528 1120 c-3 -17 -1 -33 4 -36 4 -3 8 1 8 9 0 8 7 20 15 27 13 11
13 15 3 21 -21 14 -25 11 -30 -21z"/>
<path d="M2805 1134 c11 -8 34 -22 50 -31 30 -15 30 -15 10 4 -11 11 -33 25
-50 31 -28 12 -29 11 -10 -4z"/>
<path d="M568 1081 c-14 -17 -15 -20 -1 -25 21 -9 36 3 24 18 -6 7 -8 16 -4
19 3 4 4 7 2 7 -3 0 -12 -9 -21 -19z"/>
<path d="M1415 1079 c-3 -4 -13 -6 -23 -3 -13 4 -12 2 3 -7 21 -13 125 -19
125 -6 0 4 -4 7 -10 7 -5 0 -11 0 -12 0 -2 1 -20 5 -41 9 -20 5 -39 5 -42 0z"/>
<path d="M767 973 c-8 -44 -3 -51 18 -30 18 19 18 27 1 50 -12 15 -14 14 -19
-20z"/>
<path d="M570 939 c0 -5 -4 -8 -9 -5 -12 8 -9 -27 4 -36 11 -8 25 -1 25 13 0
6 -5 7 -11 3 -8 -4 -9 0 -4 15 3 11 4 21 1 21 -3 0 -6 -5 -6 -11z"/>
<path d="M1598 931 c-7 -12 -18 -21 -25 -21 -7 0 -13 -4 -13 -10 0 -5 4 -10 8
-10 13 0 56 49 49 56 -3 3 -12 -3 -19 -15z"/>
<path d="M635 893 c3 -7 0 -13 -7 -13 -7 0 -2 -7 10 -16 14 -10 22 -25 22 -45
0 -38 15 -38 16 0 1 18 -9 41 -23 58 -14 15 -22 22 -18 16z"/>
<path d="M1605 881 c8 -15 65 -44 72 -37 3 2 -14 14 -37 26 -23 12 -39 17 -35
11z"/>
<path d="M1220 865 c0 -8 48 -25 108 -40 39 -9 63 -10 88 -2 19 6 36 8 39 6 2
-3 5 -22 7 -43 1 -20 6 -40 10 -42 5 -3 5 -10 2 -16 -4 -7 -2 -8 4 -4 7 4 12
1 12 -9 0 -9 -4 -14 -9 -11 -5 4 -7 -3 -4 -15 4 -14 8 -17 13 -9 4 7 8 -11 8
-39 1 -43 -1 -49 -16 -45 -15 5 -16 5 0 -5 20 -13 13 -55 -8 -47 -8 3 -14 0
-14 -6 0 -6 -3 -9 -6 -6 -3 3 -16 -5 -30 -19 -14 -14 -31 -22 -39 -19 -8 3
-15 1 -15 -5 0 -6 -4 -7 -10 -4 -5 3 -10 1 -10 -6 0 -6 -8 -9 -20 -6 -13 3
-18 1 -13 -6 4 -6 0 -8 -9 -4 -9 3 -19 2 -24 -2 -22 -19 -132 -49 -167 -46
-26 2 -40 -1 -44 -11 -7 -19 -23 -18 -23 1 0 15 -3 16 -55 21 -16 1 -41 5 -55
9 -14 3 0 -5 31 -19 72 -32 109 -41 109 -27 0 6 5 11 11 11 5 0 7 -4 4 -10 -3
-5 1 -10 9 -10 9 0 16 5 16 11 0 6 7 8 16 5 28 -11 247 57 327 101 66 36 75
50 67 96 -5 23 -10 60 -14 83 -3 23 -14 65 -25 95 -11 29 -19 54 -17 56 5 6
51 -59 75 -104 25 -50 26 -69 6 -117 -9 -21 -11 -36 -5 -36 5 0 10 7 10 15 0
8 4 15 9 15 6 0 13 19 16 43 7 47 -12 89 -72 161 l-31 39 -96 -2 c-69 -1 -103
2 -125 14 -32 16 -41 18 -41 10z"/>
<path d="M623 848 c-11 -19 -12 -38 -2 -38 6 0 6 -8 -1 -19 -5 -11 -6 -22 -2
-25 5 -3 8 -25 7 -50 0 -26 3 -44 9 -43 6 1 10 -16 10 -40 -1 -39 0 -42 25
-40 17 1 25 -3 23 -12 -2 -7 5 -22 14 -32 9 -10 14 -21 11 -26 -3 -4 13 -9 34
-10 21 -2 39 0 39 2 0 11 -68 74 -74 68 -3 -4 -6 -1 -6 6 0 7 -7 19 -15 28 -9
8 -13 23 -10 33 3 9 -1 30 -10 46 -13 25 -15 26 -15 7 0 -12 5 -23 12 -25 8
-3 8 -9 0 -24 -6 -10 -12 -17 -12 -14 -1 3 -4 14 -7 25 -2 11 -5 36 -6 55 0
19 -5 38 -10 41 -5 4 -5 15 2 27 8 15 8 23 0 28 -6 3 -9 15 -6 25 6 22 2 25
-10 7z"/>
<path d="M1592 848 c4 -11 128 -91 133 -86 2 2 -29 24 -67 50 -38 26 -68 43
-66 36z"/>
<path d="M846 782 c-2 -4 2 -18 10 -32 10 -20 13 -21 14 -7 0 10 5 15 11 12 6
-4 5 2 -3 14 -13 22 -24 26 -32 13z"/>
<path d="M1687 698 c15 -31 30 -56 33 -56 18 0 50 -16 50 -26 0 -13 78 -121
111 -153 12 -12 26 -20 31 -17 4 3 8 -4 8 -15 0 -12 9 -26 20 -33 11 -7 20
-18 20 -25 0 -7 5 -13 11 -13 5 0 7 5 4 10 -3 6 1 10 9 10 10 0 22 -23 37 -69
11 -39 27 -75 35 -82 8 -6 14 -17 14 -24 0 -8 3 -15 8 -17 4 -1 29 -31 56 -65
27 -35 55 -63 63 -63 7 0 16 -7 19 -15 7 -17 44 -21 44 -5 0 5 -3 9 -7 9 -20
-3 -26 2 -13 11 13 8 13 10 -2 10 -19 0 -43 61 -35 91 3 10 1 22 -4 25 -5 3
-9 -1 -10 -8 0 -7 -2 -25 -3 -40 -1 -14 3 -24 8 -21 5 3 6 1 2 -6 -4 -6 -11
-9 -16 -6 -7 4 -22 52 -24 77 -2 14 -59 78 -71 78 -13 0 -25 30 -25 68 0 12
-5 22 -11 22 -5 0 -7 5 -4 10 3 6 2 10 -4 10 -6 0 -13 11 -17 25 -3 14 -10 23
-14 20 -4 -3 -13 2 -20 10 -7 8 -21 15 -31 15 -9 0 -25 7 -33 16 -11 10 -16
11 -16 3 0 -6 -12 5 -26 27 -14 21 -43 55 -63 76 -20 22 -36 44 -36 51 0 7
-12 20 -28 29 -15 10 -26 23 -25 30 2 7 -7 17 -19 23 -13 5 -23 12 -23 15 0 4
-7 15 -15 26 -9 10 -3 -6 12 -38z"/>
<path d="M712 691 c-9 -20 -10 -35 -2 -52 9 -22 10 -22 5 6 -5 34 11 60 40 68
16 4 15 5 -5 6 -19 1 -28 -6 -38 -28z"/>
<path d="M737 678 c-4 -12 -4 -32 -1 -45 5 -17 9 -20 19 -10 7 7 11 15 8 20
-2 4 2 7 11 7 8 0 17 -6 19 -12 4 -10 6 -10 6 0 1 7 5 11 9 8 5 -3 6 9 3 27
l-5 32 -7 -30 c-4 -16 -7 -24 -8 -17 -1 10 -6 10 -21 2 -21 -11 -24 -8 -21 23
3 24 -6 21 -12 -5z"/>
<path d="M2556 669 c-10 -49 -6 -57 9 -19 17 43 17 50 6 50 -5 0 -11 -14 -15
-31z"/>
<path d="M575 615 c-16 -8 -24 -14 -16 -15 7 0 11 -6 7 -15 -3 -8 -1 -15 5
-15 14 0 3 -67 -17 -97 -8 -12 -14 -36 -14 -53 0 -16 -5 -29 -11 -27 -6 1 -16
-7 -22 -18 -7 -10 -22 -36 -34 -57 -26 -42 -29 -55 -10 -40 10 8 13 5 14 -16
1 -15 -1 -21 -4 -14 -6 16 -36 16 -30 0 2 -7 10 -12 16 -11 14 4 15 -14 1 -22
-5 -3 -10 -12 -10 -18 0 -7 4 -6 10 3 8 13 10 13 10 -2 0 -24 -12 -28 -34 -12
-17 12 -17 16 -5 31 13 16 12 17 -4 4 -10 -8 -16 -20 -13 -27 3 -7 0 -14 -6
-16 -7 -3 -8 -10 -3 -18 6 -10 11 -9 21 5 12 16 14 17 20 2 3 -10 4 -23 1 -31
-3 -8 1 -22 8 -33 14 -17 14 -17 15 2 0 17 2 17 10 5 7 -11 10 -11 10 -2 0 7
5 10 12 6 7 -4 8 -3 4 4 -4 7 -2 12 5 12 8 0 9 3 0 14 -9 10 -8 16 4 26 9 7
15 8 15 2 0 -6 -6 -13 -12 -15 -10 -4 -10 -6 -1 -6 17 -1 26 18 15 32 -6 7
-10 16 -10 22 0 5 -5 11 -11 13 -6 2 -11 -2 -11 -9 0 -9 -3 -10 -11 -2 -6 6
-8 21 -4 34 8 23 8 23 16 4 6 -17 8 -16 8 8 1 18 -3 26 -10 22 -7 -5 -9 4 -5
25 6 39 16 52 16 21 0 -12 7 -29 15 -37 13 -14 15 -13 15 6 0 13 -4 19 -12 14
-8 -5 -9 0 -6 14 4 12 2 25 -3 28 -5 3 -9 11 -9 17 0 7 9 1 20 -13 l20 -25 0
53 c0 28 3 52 8 52 8 0 7 -69 -3 -99 -4 -13 -1 -28 5 -36 9 -11 9 -15 1 -15
-7 0 -5 -10 6 -27 10 -15 13 -24 8 -21 -6 3 -15 -4 -22 -18 -10 -21 -9 -23 7
-14 9 5 19 7 22 5 5 -5 6 0 11 46 2 14 7 31 11 38 10 16 -2 64 -14 56 -5 -3
-11 -1 -15 5 -3 5 -3 10 2 10 4 0 7 21 4 48 -4 55 7 53 14 -3 3 -20 9 -44 14
-52 7 -13 9 -12 14 6 3 11 1 21 -3 21 -12 0 -23 113 -15 149 9 43 24 39 20 -6
-2 -36 -2 -36 5 -8 8 28 8 28 8 -10 -1 -22 2 -53 5 -70 4 -16 3 -46 -3 -65 -9
-33 -8 -34 6 -15 12 16 14 37 10 98 -3 43 -11 88 -18 100 -7 12 -11 25 -10 30
3 11 -23 8 -36 -5 -9 -9 -12 -8 -12 5 0 16 10 21 38 18 6 -1 12 5 12 14 0 18
-15 18 -55 0z"/>
<path d="M2092 530 c-12 -10 -28 -20 -35 -23 -9 -3 -9 -8 2 -18 9 -9 11 -9 7
-1 -4 7 -1 12 8 12 9 0 16 -5 16 -11 0 -8 5 -7 15 1 13 11 18 10 30 -6 20 -26
19 -39 -2 -23 -15 11 -14 10 1 -9 24 -28 25 -28 21 3 -4 38 10 30 25 -15 7
-22 17 -40 22 -40 5 0 6 -4 3 -10 -3 -5 -2 -10 3 -10 10 0 26 29 24 43 -3 14
16 7 22 -9 3 -8 10 -13 15 -10 15 10 41 -5 41 -23 -1 -14 -3 -13 -15 3 -8 11
-15 15 -15 9 0 -11 30 -40 37 -35 10 7 20 -1 35 -26 14 -23 15 -31 5 -41 -9
-10 -8 -11 7 -5 15 6 18 4 14 -8 -4 -9 -1 -21 5 -28 9 -10 9 -11 -3 -5 -12 7
-13 6 -4 -6 16 -20 24 -59 12 -59 -5 0 -7 -12 -3 -30 8 -37 -2 -71 -19 -64 -9
3 -12 -4 -9 -28 1 -18 0 -28 -3 -21 -3 7 -12 9 -20 6 -11 -4 -12 -9 -3 -19 8
-10 16 -11 30 -3 10 5 19 6 20 2 0 -4 9 17 20 47 21 60 26 117 14 170 -6 27
-5 32 8 27 11 -4 10 3 -6 28 -12 19 -27 34 -33 35 -13 0 -28 30 -16 30 5 0 13
-5 20 -12 7 -7 12 -8 12 -2 0 15 -62 60 -136 100 -109 57 -134 75 -134 90 0
19 -10 17 -38 -6z"/>
<path d="M366 525 c4 -8 10 -15 15 -15 5 0 9 -7 9 -15 0 -9 12 -18 30 -22 17
-3 33 -10 36 -14 3 -5 16 -9 30 -9 36 0 10 25 -30 28 -18 2 -40 14 -56 32 -29
33 -43 39 -34 15z"/>
<path d="M661 514 c-1 -6 6 -17 14 -24 8 -7 12 -17 8 -22 -3 -6 -7 -27 -8 -47
-1 -20 -5 -56 -9 -81 -6 -33 -5 -41 3 -30 9 13 13 11 28 -10 10 -14 18 -28 19
-32 1 -5 2 -12 3 -17 0 -5 8 -12 17 -15 14 -6 16 -1 10 36 -7 48 -43 89 -57
66 -5 -7 -9 -8 -9 -3 0 19 18 38 29 31 15 -10 14 5 -2 29 -19 27 -27 64 -16
70 4 3 11 -6 15 -20 3 -14 10 -25 16 -25 5 0 7 -3 4 -8 -2 -4 4 -25 14 -47 10
-22 16 -44 13 -49 -4 -5 -1 -6 5 -2 7 4 18 -6 27 -25 20 -37 31 -33 14 5 -11
22 -10 28 5 39 14 11 15 15 3 31 -13 17 -14 17 -20 2 -4 -10 -3 -15 3 -11 6 3
10 2 10 -3 0 -6 -6 -12 -13 -15 -8 -3 -26 26 -51 79 -22 46 -45 84 -52 84 -7
0 -15 6 -17 13 -4 7 -6 8 -6 1z"/>
<path d="M766 500 c-16 -5 -33 -7 -38 -4 -4 3 -8 0 -8 -5 0 -6 5 -11 11 -11 5
0 7 -5 3 -12 -5 -7 -3 -8 6 -3 9 5 11 1 6 -16 -3 -13 -3 -18 0 -10 5 9 11 3
21 -20 9 -19 17 -28 20 -21 8 20 20 14 27 -14 4 -15 13 -24 22 -22 8 2 15 6
15 11 -1 4 -3 6 -5 5 -2 -2 -14 9 -26 25 -12 15 -26 24 -32 21 -6 -4 -9 -1 -6
6 2 8 -4 22 -15 33 -21 21 -16 37 6 19 9 -8 17 -8 23 -2 7 7 25 -4 52 -30 22
-22 38 -40 35 -40 -4 0 9 -16 28 -37 18 -20 29 -33 22 -29 -6 3 -15 1 -18 -4
-5 -8 -14 -5 -28 7 -11 10 -17 13 -14 6 10 -17 -13 -28 -24 -12 -7 11 -9 11
-9 1 0 -15 28 -72 36 -72 2 0 0 9 -6 19 -15 30 -12 38 6 13 16 -23 34 -29 34
-11 0 5 -4 7 -10 4 -5 -3 -10 -2 -10 4 0 5 -3 17 -7 27 -5 13 -3 15 8 8 8 -4
24 -8 36 -9 12 0 25 -4 30 -9 5 -5 2 -6 -6 -1 -9 5 -12 3 -9 -6 3 -8 10 -13
16 -12 6 2 9 -3 6 -10 -6 -17 52 -72 60 -58 4 6 2 11 -3 11 -6 0 -10 3 -9 8 1
4 -6 21 -15 39 -23 42 -21 54 3 24 11 -13 20 -19 20 -14 0 12 -35 45 -41 38
-3 -2 -11 5 -18 17 -10 16 -10 19 1 12 25 -15 -107 112 -134 129 -15 9 -29 17
-30 16 -2 0 -16 -5 -32 -9z"/>
<path d="M2236 338 c16 -18 30 -35 32 -37 1 -2 5 -2 8 2 3 3 -5 17 -20 30 -14
13 -23 27 -19 30 3 4 -2 7 -12 7 -16 0 -14 -5 11 -32z"/>
<path d="M815 280 c9 -46 30 -69 30 -35 0 14 -4 25 -8 25 -5 0 -6 4 -3 9 3 5
-2 15 -10 22 -15 12 -16 10 -9 -21z"/>
<path d="M637 263 c-3 -16 -1 -33 4 -40 7 -7 6 -14 -1 -18 -5 -3 -10 -40 -10
-83 l0 -77 20 30 c20 30 18 65 -4 94 -8 12 -8 13 2 7 11 -6 13 5 10 53 -3 65
-12 79 -21 34z"/>
<path d="M760 269 c0 -26 31 -123 48 -149 10 -14 22 -36 29 -50 8 -17 12 -20
12 -9 1 10 -12 43 -29 74 -16 31 -30 63 -30 70 0 19 -29 83 -30 64z"/>
<path d="M1250 244 l-45 -13 45 5 c45 6 93 24 60 23 -8 -1 -35 -7 -60 -15z"/>
<path d="M799 235 c17 -31 35 -51 54 -58 9 -3 17 -12 17 -19 0 -10 -2 -10 -9
1 -7 10 -10 10 -16 1 -8 -13 13 -32 26 -24 4 2 11 -1 15 -7 4 -7 3 -9 -3 -6
-15 9 -26 -23 -13 -38 5 -6 7 -15 4 -18 -9 -8 16 -67 27 -67 15 0 10 27 -6 34
-8 3 -14 13 -14 23 1 17 2 17 6 0 5 -21 30 -23 30 -3 0 8 -4 14 -9 13 -5 -1
-17 8 -25 21 -18 26 -12 29 12 6 15 -15 15 -14 9 12 -4 16 -16 44 -26 62 -10
18 -16 39 -13 45 3 7 0 5 -7 -5 -11 -15 -15 -13 -41 15 -16 18 -24 23 -18 12z"/>
<path d="M983 212 c1 -16 5 -28 10 -25 7 4 3 -47 -9 -99 -6 -29 -24 -39 -24
-13 0 8 4 15 8 15 11 0 2 61 -10 78 -6 6 -6 12 -1 12 5 0 9 9 10 20 2 19 0 19
-14 4 -13 -13 -14 -20 -5 -35 15 -23 16 -42 2 -34 -5 3 -10 2 -10 -4 0 -5 5
-11 12 -13 7 -3 9 -11 4 -24 -7 -17 -10 -15 -20 14 -18 52 -26 26 -10 -30 9
-27 13 -56 10 -64 -3 -8 -1 -14 4 -14 6 0 10 6 10 13 0 8 3 7 10 -3 8 -13 11
-12 24 5 8 11 13 27 11 36 -2 10 5 25 16 35 11 10 16 21 10 28 -13 18 -20 56
-10 62 5 3 9 -7 9 -22 0 -15 3 -24 6 -21 11 11 13 57 2 63 -6 4 -5 10 3 16 11
8 11 9 -1 5 -8 -2 -23 2 -32 11 -16 13 -17 12 -15 -16z"/>
<path d="M676 192 c-8 -24 29 -110 37 -88 3 8 0 20 -8 26 -7 6 -13 25 -13 41
1 36 -8 48 -16 21z"/>
<path d="M744 195 c-4 -8 -10 -12 -15 -9 -6 3 4 -17 21 -45 18 -28 36 -51 40
-51 5 0 12 -9 15 -21 4 -11 9 -18 12 -15 7 7 -41 88 -61 105 -12 10 -13 18 -5
32 5 10 7 19 4 19 -3 0 -8 -7 -11 -15z"/>
<path d="M531 119 c-30 -27 -32 -32 -19 -46 12 -12 17 -12 23 -2 6 8 4 10 -6
5 -9 -5 -8 -3 2 6 8 7 18 21 22 31 4 10 11 15 17 12 6 -3 7 1 4 9 -8 20 -4 21
-43 -15z"/>
<path d="M416 120 c3 -14 13 -32 20 -41 8 -8 14 -24 15 -35 0 -18 1 -18 8 1 8
19 9 18 13 -5 5 -23 5 -23 7 -2 0 12 6 22 11 22 6 0 10 5 10 11 0 7 -9 9 -23
5 -19 -4 -27 1 -46 32 -16 27 -20 30 -15 12z"/>
<path d="M588 103 c-23 -11 -28 -21 -28 -49 0 -21 4 -33 10 -29 6 3 10 19 10
36 0 16 5 29 10 29 7 0 8 -13 4 -35 -6 -34 -2 -39 32 -34 4 0 11 -5 16 -13 7
-9 8 -7 4 7 -6 19 -5 19 8 1 14 -17 15 -16 14 13 -1 18 -5 34 -9 37 -5 3 -7
-1 -4 -8 3 -7 -4 -19 -15 -26 -18 -11 -20 -10 -22 10 0 13 0 35 1 51 1 15 1
27 -1 26 -2 -1 -15 -8 -30 -16z"/>
<path d="M725 99 c-4 -5 -1 -24 6 -41 11 -27 14 -29 20 -12 12 31 10 44 -7 44
-8 0 -12 5 -9 10 3 6 4 10 1 10 -3 0 -8 -5 -11 -11z"/>
<path d="M2297 80 c4 -16 2 -19 -11 -14 -18 7 -19 -6 -5 -46 9 -25 9 -25 5 2
-2 19 1 28 10 28 16 0 19 36 5 44 -5 4 -7 -3 -4 -14z"/>
<path d="M681 75 c0 -11 4 -29 9 -40 7 -18 9 -18 15 -3 4 10 0 27 -9 40 -15
21 -16 21 -15 3z"/>
<path d="M765 61 c-5 -9 2 -22 20 -37 34 -29 31 -28 31 -5 0 10 -5 17 -11 14
-7 -2 -16 6 -22 18 -7 17 -12 19 -18 10z"/>
</g>
</svg>
