<?xml version="1.0" encoding="utf-8"?>
<!-- Generator: Adobe Illustrator 23.1.1, SVG Export Plug-In . SVG Version: 6.00 Build 0)  -->
<svg version="1.1" id="Layer_1" xmlns="http://www.w3.org/2000/svg" xmlns:xlink="http://www.w3.org/1999/xlink" x="0px" y="0px"
	 viewBox="0 0 80 77.4" style="enable-background:new 0 0 80 77.4;" xml:space="preserve">
<style type="text/css">
	.st0{fill-rule:evenodd;clip-rule:evenodd;fill:#961D59;}
	.st1{fill-rule:evenodd;clip-rule:evenodd;fill:#D62783;}
	.st2{fill:#D62783;}
</style>
<title>Asset 1</title>
<g>
	<g id="Logo">
		<path class="st0" d="M38.6,47c-4.6,0-8.4-3.7-8.4-8.3c0-4.6,3.7-8.4,8.3-8.4c4.6,0,8.3,3.7,8.4,8.3C46.9,43.2,43.2,47,38.6,47
			C38.6,47,38.6,47,38.6,47"/>
		<path class="st1" d="M54.8,42.5c-2.1,0-3.9-1.7-3.9-3.8s1.7-3.9,3.8-3.9s3.9,1.7,3.9,3.8v0C58.7,40.7,57,42.5,54.8,42.5
			C54.8,42.5,54.8,42.5,54.8,42.5"/>
		<path class="st1" d="M68.9,46.1L68.9,46.1c-0.6,1.9-2.7,3-4.6,2.4c-1.9-0.6-3-2.7-2.4-4.6c0.6-1.9,2.7-3,4.6-2.4
			c1.8,0.6,2.9,2.5,2.5,4.3C69,45.9,69,46,68.9,46.1"/>
		<path class="st1" d="M66.2,36.2c-2.1,0.5-4.2-0.7-4.7-2.8c-0.5-2.1,0.7-4.2,2.8-4.7c2.1-0.5,4.2,0.7,4.7,2.8c0,0,0,0,0,0.1
			c0.1,0.5,0.1,1,0,1.5C68.8,34.6,67.6,35.9,66.2,36.2"/>
		<path class="st1" d="M79.9,45.7c-0.4,2.1-2.4,3.5-4.5,3.1s-3.5-2.4-3.1-4.5c0.4-2.1,2.4-3.5,4.5-3.1c2,0.3,3.4,2.1,3.2,4.1
			C80,45.4,79.9,45.5,79.9,45.7"/>
		<path class="st1" d="M76.7,36c-2.1,0.3-4.1-1.1-4.4-3.2c-0.3-2.1,1.1-4.1,3.2-4.4c2.1-0.3,4.1,1.1,4.4,3.2c0,0.3,0,0.7,0,1
			C79.7,34.3,78.4,35.7,76.7,36"/>
		<path class="st1" d="M74.1,59L74.1,59c-1,1.9-3.4,2.6-5.3,1.5c-1.9-1-2.6-3.4-1.5-5.3c1-1.9,3.4-2.6,5.3-1.5
			c1.3,0.7,2.1,2.2,2,3.7C74.5,58,74.3,58.5,74.1,59"/>
		<path class="st1" d="M72.7,23.6c-1.9,1-4.2,0.4-5.3-1.5c-1-1.9-0.4-4.2,1.5-5.3c1.9-1,4.2-0.4,5.3,1.5c0.4,0.7,0.6,1.5,0.5,2.2
			C74.5,21.8,73.8,23,72.7,23.6"/>
		<path class="st2" d="M38.7,77.4c-21.4,0.3-39-16.7-39.3-38.1S16.1,0.3,37.5,0c0.4,0,0.8,0,1.2,0c8.5,0,16.8,2.8,23.5,8l-4.7,6.2
			c-13.6-10.4-33-7.8-43.3,5.8c-4.1,5.4-6.4,12-6.4,18.8c0,17.1,13.9,30.9,31,30.9c6.8,0,13.4-2.2,18.8-6.3l4.7,6.2
			C55.5,74.6,47.2,77.4,38.7,77.4z"/>
	</g>
</g>
</svg>
