<?xml version="1.0" encoding="UTF-8"?>
<svg id="a" xmlns="http://www.w3.org/2000/svg" viewBox="0 0 1770.25 412.26">
  <defs>
    <style>
      .e {
        fill: #e5a324;
      }
    </style>
  </defs>
  <g id="b">
    <g id="c">
      <path id="d" class="e"
        d="M515.53,308.58c8.17-.05,14.76-6.71,14.71-14.89,0-.09,0-.18,0-.27v-68.54c0-57.73,31.77-86.78,70.54-91.5,7.98-.59,14.03-7.44,13.62-15.43,.4-7.96-5.72-14.74-13.68-15.15-.37-.02-.75-.02-1.11-.01-25.15,0-54.47,20.15-68.99,53.56v-37.31c.1-8.22-6.48-14.97-14.71-15.07-.12,0-.24,0-.36,0-8.21,.15-14.8,6.85-14.8,15.07v174.11c-.25,8.27,6.25,15.17,14.52,15.43,.09,0,.19,0,.28,0Zm206.16,2.72c57.5,.71,104.68-45.34,105.39-102.84,0-.73,.01-1.46,0-2.19v-.73c-2.6-57.64-51.43-102.27-109.08-99.67-54.29,2.44-97.64,46.1-99.71,100.4v.82c-.65,56.75,44.82,103.28,101.57,103.94,.73,0,1.46,0,2.19,0l-.36,.27Zm.73-27.23c-41.56-.67-74.7-34.91-74.02-76.47,0-.5,.02-1.01,.04-1.51v-.73c0-42.3,29.87-77.52,73.26-77.52,41.86,.28,75.57,34.44,75.3,76.3,0,.71-.02,1.42-.04,2.14v.82c0,42.22-30.68,77.17-74.17,77.17l-.36-.19Zm231.03,27.23c57.5,.5,104.52-45.71,105.03-103.21,0-.52,0-1.03,0-1.55v-.73c-2.6-57.65-51.43-102.27-109.08-99.68-54.29,2.45-97.64,46.1-99.71,100.41v.82c-.51,56.75,45.09,103.16,101.84,103.67,.76,0,1.52,0,2.28,0l-.36,.27Zm.82-27.23c-41.56-.62-74.74-34.82-74.12-76.38,0-.53,.02-1.07,.04-1.6v-.73c0-42.3,29.87-77.52,73.26-77.52,41.86,.73,75.2,35.26,74.47,77.11,0,.38-.02,.76-.03,1.14v.82c.36,42.4-29.87,77.35-73.26,77.35l-.36-.18Zm205.79,26.15c39.94,0,71.35-22.06,71.35-60.1v-.82c0-36.31-33.32-48.02-64.36-57.37-26.69-8.08-51.56-15.43-51.56-34.5v-.72c0-16.7,15.16-29.14,38.76-29.14,18.5,.61,36.53,5.96,52.38,15.52,2.02,1.02,4.27,1.55,6.54,1.54,7.17,.15,13.1-5.54,13.25-12.71,0-.03,0-.06,0-.1-.08-5.13-2.88-9.83-7.35-12.35-19.51-10.69-41.3-16.54-63.55-17.07-39.58,0-68.27,22.88-68.27,57.37v.73c0,36.86,34.95,47.75,66.36,56.65,26.32,7.35,49.93,15.16,49.93,35.31v.72c0,19.43-17.43,31.77-41.49,31.77-22.86-.48-45.03-7.92-63.54-21.33-2.13-1.55-4.72-2.35-7.35-2.27-7.17-.1-13.06,5.63-13.16,12.8h0c0,4.24,1.99,8.24,5.35,10.81,22.51,15.83,49.2,24.61,76.71,25.24Zm171.3,0c10.1,.15,20.12-1.7,29.5-5.45,5.03-1.66,8.45-6.33,8.53-11.62-.05-7.05-5.75-12.75-12.8-12.8-5.93,1.56-12.02,2.47-18.15,2.73-20.15,0-33.77-9.08-33.77-33.41v-117.38h52.02c7.37,.1,13.43-5.79,13.53-13.16,0-.03,0-.06,0-.09-.29-7.28-6.23-13.07-13.53-13.16h-51.38V58.57c-.15-8.26-6.81-14.93-15.07-15.07-8.17,.05-14.76,6.71-14.71,14.89,0,.06,0,.12,0,.18v47.29h-16.34c-7.25,.05-13.11,5.91-13.16,13.16,.19,7.21,5.96,13.02,13.16,13.26h16.34v120.91c-.45,40.76,23.97,56.65,56.1,56.65l-.27,.36Z" />
      <path class="e"
        d="M1392.17,86.26c12.08,.1,21.96-9.61,22.06-21.69,0-.06,0-.12,0-.18h0c0-12.03-9.76-21.79-21.79-21.79s-21.79,9.76-21.79,21.79h0c-.1,11.98,9.53,21.77,21.51,21.88h0Zm0-2.35c-10.58,.05-19.2-8.48-19.25-19.06,0-.12,0-.25,0-.36h0c.1-10.57,8.67-19.11,19.24-19.16,10.53-.1,19.14,8.35,19.25,18.88,0,.15,0,.31,0,.46h0c-.05,10.61-8.64,19.19-19.25,19.25Zm7.63-8.17c1.4,.1,2.62-.95,2.72-2.35,0-.09,0-.19,0-.28,.06-.74-.2-1.47-.73-2l-3.36-4.09c2.8-1.12,4.59-3.89,4.45-6.9,0-4.99-3.72-7.53-9.08-7.53h-7.9c-1.55,.05-2.77,1.34-2.72,2.9h0v17.52c.05,1.49,1.24,2.68,2.72,2.72,1.51,0,2.72-1.22,2.72-2.72h0v-4.9h3.63l5.27,6.53c.56,.68,1.39,1.08,2.27,1.09Zm-6.35-12.25h-4.81v-6.17h4.81c2.36,0,3.81,1.18,3.81,3.18s-1.18,2.99-3.81,2.99Z" />
    </g>
  </g>
  <g>
    <path class="e"
      d="M231.31,0h-50.36c11.02,19.39,17.31,41.82,17.31,65.71,0,21.46-5.07,41.73-14.09,59.69h43.92c-9.01-17.96-14.08-38.23-14.08-59.69,0-23.89,6.29-46.32,17.31-65.71Z" />
    <path class="e"
      d="M180.95,412.26h50.36c-11.02-19.39-17.31-41.82-17.31-65.71,0-21.46,5.07-41.73,14.08-59.69h-43.92c9.01,17.96,14.09,38.23,14.09,59.69,0,23.9-6.29,46.32-17.3,65.71Z" />
    <path class="e"
      d="M78.18,42.57l-35.61,35.61c21.5,5.92,41.81,17.33,58.7,34.23,15.17,15.17,25.92,33.1,32.25,52.17l31.05-31.05c-19.07-6.32-36.99-17.07-52.16-32.25-16.9-16.9-28.31-37.2-34.23-58.7Z" />
    <path class="e"
      d="M334.08,369.69l35.61-35.61c-21.5-5.92-41.81-17.33-58.7-34.23-15.17-15.17-25.92-33.1-32.25-52.17l-31.05,31.05c19.07,6.32,36.99,17.07,52.17,32.25,16.9,16.9,28.31,37.2,34.23,58.7Z" />
    <path class="e"
      d="M0,180.95v50.36c19.39-11.01,41.82-17.31,65.71-17.31,21.46,0,41.73,5.07,59.69,14.08v-43.92c-17.96,9.01-38.23,14.08-59.69,14.08-23.9,0-46.32-6.29-65.71-17.3Z" />
    <path class="e"
      d="M412.26,231.31v-50.36c-19.39,11.01-41.82,17.31-65.71,17.31-21.46,0-41.73-5.07-59.69-14.08v43.92c17.95-9.01,38.23-14.08,59.69-14.08,23.9,0,46.32,6.29,65.71,17.3Z" />
    <path class="e"
      d="M42.57,334.08l35.61,35.61c5.92-21.5,17.33-41.81,34.23-58.7,15.17-15.17,33.1-25.92,52.16-32.25l-31.05-31.05c-6.32,19.07-17.07,36.99-32.25,52.17-16.9,16.9-37.2,28.31-58.7,34.23Z" />
    <path class="e"
      d="M369.69,78.18l-35.61-35.61c-5.92,21.5-17.33,41.81-34.23,58.7-15.17,15.17-33.1,25.92-52.17,32.25l31.05,31.05c6.32-19.07,17.07-36.99,32.25-52.17,16.89-16.9,37.2-28.31,58.7-34.23Z" />
    <circle class="e" cx="206.15" cy="205.76" r="62.13" transform="translate(-85.12 206.03) rotate(-45)" />
  </g>
  <path class="e"
    d="M1444.29,309.95c-5.34,0-9.74-1.8-13.45-5.51-3.71-3.7-5.51-8.1-5.51-13.45s1.8-9.74,5.51-13.45c3.71-3.71,8.11-5.51,13.45-5.51s9.74,1.8,13.45,5.51c3.71,3.71,5.51,8.11,5.51,13.45s-1.8,9.74-5.51,13.45c-3.71,3.71-8.11,5.51-13.45,5.51Z" />
  <path class="e"
    d="M1672.99,309.95c-2.8,0-5.08-.82-6.99-2.52-2.13-1.89-4.04-4.35-5.7-7.32-1.71-3.05-3.14-6.46-4.25-10.16-1.26-4.21-2.33-7.86-3.27-11.15l-1.05-3.68-2.71,2.71c-2.52,2.52-6.04,5.65-10.45,9.31-4.36,3.61-9.81,7.16-16.2,10.54-6.39,3.38-13.9,6.31-22.32,8.69-8.38,2.38-17.97,3.58-28.51,3.58s-20.08-1.63-27.88-4.84c-7.78-3.21-14.35-7.45-19.52-12.62-5.15-5.15-9-11.05-11.44-17.52-2.46-6.52-3.71-13.19-3.71-19.84,0-10.82,2.22-19.75,6.58-26.55,4.44-6.9,9.91-12.44,16.28-16.48,6.45-4.1,13.44-7.12,20.75-8.98,7.41-1.88,14.2-3.5,20.17-4.8,2.3-.51,6.17-1.28,11.51-2.3,5.55-1.05,11.25-2.09,16.93-3.08,5.82-1.01,11.48-2.05,16.82-3.09,5.36-1.04,9-1.81,11.11-2.34,2.88-.79,5.65-1.56,8.36-2.33,2.75-.79,6.26-1.93,10.74-3.51l1.56-.55-.06-1.66c-.26-6.69-.72-13.23-1.36-19.43-.67-6.46-2.52-12.34-5.5-17.48-3.06-5.27-7.87-9.46-14.3-12.48-6.32-2.96-15.27-4.46-26.6-4.46-5.99,0-12.01,.46-17.89,1.38-5.95,.93-11.58,2.54-16.75,4.79-5.22,2.28-9.97,5.33-14.11,9.07-4.23,3.82-7.47,8.51-9.64,13.95-1.73,4.2-3.62,7.91-5.59,11-1.63,2.55-4.54,3.78-8.9,3.78-3.57,0-6.54-1.13-9.09-3.46-2.49-2.27-3.7-5.07-3.7-8.56,0-2.58,1-6.81,2.96-12.58,1.93-5.67,5.9-11.48,11.79-17.25,5.94-5.81,14.46-11.04,25.32-15.53,10.86-4.49,25.43-6.77,43.3-6.77s33.5,2.09,44.12,6.21c10.46,4.06,18.37,9.71,23.48,16.77,5.15,7.11,8.38,15.59,9.62,25.19,1.27,9.91,1.91,20.71,1.91,32.11,0,2.49-.06,6.7-.19,12.87-.13,6.04-.26,12.41-.39,19.1-.13,6.69-.26,12.92-.38,18.7-.13,5.54-.19,9.76-.19,12.2,0,9.39,.6,16.7,1.8,21.73,1.18,4.99,2.4,8.96,3.71,12.15,.28,1.11,.94,3.32,2.11,7.09,1.08,3.5,1.63,6.71,1.63,9.55,0,2.67-1.31,5.07-4.02,7.34-2.83,2.37-6.07,3.52-9.93,3.52Zm-26.68-108.6c-2.5,1-5.56,2.08-9.11,3.22-3.58,1.15-7.94,2.37-12.97,3.62-11.93,2.79-22.79,5.06-32.24,6.72-9.56,1.68-18.44,3.58-26.4,5.63-5.94,1.62-10.74,3.82-14.31,6.57-3.55,2.73-6.33,5.73-8.27,8.91-1.92,3.16-3.25,6.3-3.94,9.35-.69,3.01-1.02,5.45-1.02,7.44,0,3.85,.76,7.88,2.26,11.96,1.5,4.12,3.87,7.94,7.01,11.36,3.14,3.43,7.35,6.33,12.5,8.63,5.14,2.3,11.42,3.47,18.66,3.47,5.52,0,11.32-.6,17.22-1.78,5.9-1.18,11.75-2.98,17.4-5.34,5.7-2.38,11-5.47,15.75-9.17,4.85-3.77,8.81-8.41,11.77-13.8,3.97-6.88,6.47-15.03,7.4-24.19,.9-8.92,1.36-19.19,1.36-30.5v-3.32l-3.09,1.24Z" />
  <path class="e"
    d="M1753.79,309.95c-3.56,0-6.32-.7-8.21-2.08-1.95-1.42-3.31-3.23-4.17-5.53-.94-2.5-1.54-5.28-1.78-8.26-.25-3.13-.37-6.25-.37-9.27V130.54c0-5.77,.25-10.33,.73-13.55,.44-2.87,1.52-5.32,3.24-7.29,2.88-2.89,6.46-4.3,10.94-4.3,3.72,0,6.46,.63,7.92,1.81,1.7,1.38,3.14,3,4.27,4.84,1.06,1.71,1.65,4.32,1.76,7.76,.13,3.87,.19,7.48,.19,10.73v154.27c0,5.26-.12,9-.37,11.12-.23,1.98-.56,3.54-1,4.64-1.13,3.2-2.88,5.47-5.38,7.01-2.59,1.59-5.14,2.36-7.78,2.36Zm.19-242.21c-4.55,0-8.31-1.6-11.49-4.9-3.21-3.32-4.77-7.16-4.77-11.74s1.55-8.33,4.74-11.52c3.19-3.19,6.96-4.74,11.52-4.74s8.33,1.55,11.52,4.74c3.19,3.19,4.74,6.96,4.74,11.52s-1.56,8.42-4.77,11.74c-3.19,3.3-6.95,4.91-11.5,4.91Z" />
</svg>
