<svg width="509" height="534" viewBox="0 0 509 534" fill="none" xmlns="http://www.w3.org/2000/svg">
<path fill-rule="evenodd" clip-rule="evenodd" d="M257.117 0C378.152 0 479.559 87.0726 506.383 203.396C488.719 177.546 459.278 160.54 426.566 160.54C372.263 160.54 329.084 206.117 329.084 261.898C329.084 318.359 372.918 363.256 426.566 363.256C461.24 363.256 491.99 344.209 509 315.638C486.756 439.445 382.077 533.32 256.463 533.32C115.147 534 0 414.955 0 267.34C0 119.725 115.147 0 257.117 0Z" fill="#2FBF71"/>
<path fill-rule="evenodd" clip-rule="evenodd" d="M264.314 534C139.354 512.232 44.4885 400.67 44.4885 267.34C44.4885 133.33 139.354 22.4484 264.314 0.680237C382.077 4.08151 479.559 89.7936 506.383 204.076C488.719 178.227 459.278 161.22 426.566 161.22C372.264 161.22 329.084 206.797 329.084 262.578C329.084 319.039 372.918 363.936 426.566 363.936C461.24 363.936 491.99 344.889 509 316.318C487.41 438.084 386.657 530.599 264.314 534Z" fill="#2FBE70"/>
<path fill-rule="evenodd" clip-rule="evenodd" d="M306.839 529.238C166.177 527.198 52.9937 410.874 52.9937 267.34C52.9937 123.806 166.177 6.80254 306.839 4.76178C404.976 25.1694 482.83 102.718 506.383 203.396C488.719 177.546 459.278 160.54 426.566 160.54C372.264 160.54 329.084 206.117 329.084 261.898C329.084 318.359 372.918 363.256 426.566 363.256C461.24 363.256 491.99 344.209 509 315.638C490.027 423.799 409.555 508.15 306.839 529.238Z" fill="#33C172"/>
<path fill-rule="evenodd" clip-rule="evenodd" d="M310.111 13.6051C321.887 13.6051 333.663 14.2854 345.44 16.3261C425.257 46.9376 486.102 117.004 506.383 203.396C488.718 177.546 459.278 160.54 426.566 160.54C372.263 160.54 329.084 206.117 329.084 261.898C329.084 318.359 372.918 363.256 426.566 363.256C461.24 363.256 491.99 344.209 509 315.638C491.99 408.833 429.182 485.022 345.44 516.994C333.663 518.354 321.887 519.715 310.111 519.715C172.72 519.715 60.8445 406.112 60.8445 266.66C61.4987 127.208 172.72 13.6051 310.111 13.6051Z" fill="#37C573"/>
<path fill-rule="evenodd" clip-rule="evenodd" d="M310.111 22.4484C334.972 22.4484 359.179 26.53 382.077 33.3325C443.576 69.386 489.373 129.929 506.383 203.396C488.719 177.547 459.278 160.54 426.566 160.54C372.264 160.54 329.084 206.117 329.084 261.898C329.084 318.359 372.918 363.256 426.566 363.256C461.24 363.256 491.99 344.209 509 315.638C494.607 394.548 446.847 461.213 381.423 499.307C358.524 506.79 334.972 510.191 309.456 510.191C176.645 510.191 69.3496 400.67 69.3496 265.98C70.0039 131.969 177.3 22.4484 310.111 22.4484Z" fill="#3BC875"/>
<path fill-rule="evenodd" clip-rule="evenodd" d="M310.111 31.972C348.057 31.972 384.04 41.4956 416.098 57.8217C459.932 93.8752 492.644 144.894 506.383 204.076C488.719 178.227 459.278 161.22 426.566 161.22C372.263 161.22 329.084 206.797 329.084 262.578C329.084 319.039 372.918 363.936 426.566 363.936C461.24 363.936 491.99 344.889 509 316.318C497.224 380.943 463.203 437.404 416.098 476.178C384.694 492.504 348.711 502.028 310.111 502.028C182.533 502.708 78.509 397.269 78.509 267.34C78.509 137.411 182.533 31.972 310.111 31.972Z" fill="#3FCB77"/>
<path fill-rule="evenodd" clip-rule="evenodd" d="M310.111 40.8153C361.796 40.8153 410.21 58.5019 448.156 89.1134C475.634 121.085 496.569 160.54 506.383 204.076C488.719 178.227 459.278 161.22 426.566 161.22C372.263 161.22 329.084 206.797 329.084 262.578C329.084 319.04 372.918 363.936 426.566 363.936C461.24 363.936 491.99 344.889 509 316.319C500.495 365.297 478.251 409.513 447.501 444.887C409.555 474.818 361.796 493.185 309.456 493.185C185.805 493.185 86.3599 391.827 86.3599 266.66C87.0141 142.173 187.113 40.8153 310.111 40.8153Z" fill="#43CE78"/>
<path fill-rule="evenodd" clip-rule="evenodd" d="M310.111 49.6586C378.152 49.6586 438.342 81.6305 477.596 131.289C490.027 153.738 499.841 178.227 506.383 204.076C488.719 178.227 459.278 161.22 426.566 161.22C372.264 161.22 329.084 206.797 329.084 262.578C329.084 319.039 372.918 363.936 426.566 363.936C461.24 363.936 491.99 344.889 509 316.318C503.112 347.61 492.644 376.861 477.596 402.711C438.342 452.369 377.498 484.341 310.111 484.341C191.693 484.341 95.5193 387.065 95.5193 266.66C95.5193 146.935 191.693 49.6586 310.111 49.6586Z" fill="#48D27A"/>
<path fill-rule="evenodd" clip-rule="evenodd" d="M310.111 58.5019C400.396 58.5019 476.942 117.004 505.074 199.315C505.729 200.675 505.729 202.716 506.383 204.076C488.718 178.227 459.278 161.22 426.565 161.22C372.263 161.22 329.084 206.797 329.084 262.578C329.084 319.039 372.918 363.936 426.565 363.936C461.24 363.936 491.99 344.889 509 316.318C507.691 322.441 506.383 328.563 505.074 334.685C477.596 416.996 400.396 476.178 310.111 476.178C196.272 476.178 104.024 382.303 104.024 267.34C104.024 151.697 196.272 58.5019 310.111 58.5019Z" fill="#4CD57C"/>
<path fill-rule="evenodd" clip-rule="evenodd" d="M310.111 67.3452C390.582 67.3452 459.932 115.643 490.681 185.71C473.671 170.064 450.772 160.54 426.566 160.54C372.263 160.54 329.084 206.117 329.084 261.898C329.084 318.359 372.918 363.256 426.566 363.256C454.044 363.256 478.905 351.012 497.224 331.964C470.4 410.194 397.125 465.975 310.765 465.975C201.506 465.975 113.184 376.181 113.184 265.98C112.53 156.459 201.506 67.3452 310.111 67.3452Z" fill="#50D87D"/>
<path fill-rule="evenodd" clip-rule="evenodd" d="M310.111 76.1885C381.423 76.1885 442.922 115.643 475.634 174.145C461.24 165.302 444.23 160.54 426.565 160.54C372.263 160.54 329.084 206.117 329.084 261.898C329.084 318.359 372.918 363.256 426.565 363.256C447.501 363.256 467.129 356.453 482.83 344.889C453.389 410.874 387.311 457.131 310.111 457.131C205.432 457.131 121.035 371.419 121.035 265.98C121.035 161.901 206.086 76.1885 310.111 76.1885Z" fill="#54DB7F"/>
<path fill-rule="evenodd" clip-rule="evenodd" d="M310.11 85.0319C373.572 85.0319 428.528 117.684 461.24 167.343C450.118 163.261 438.996 160.54 426.565 160.54C372.263 160.54 329.083 206.117 329.083 261.898C329.083 318.359 372.918 363.256 426.565 363.256C441.613 363.256 456.006 359.855 469.091 353.052C438.342 410.874 378.806 448.968 310.11 448.968C210.666 448.968 129.54 367.338 129.54 266.66C129.54 166.662 210.666 85.0319 310.11 85.0319Z" fill="#58DF80"/>
<path fill-rule="evenodd" clip-rule="evenodd" d="M310.11 93.8752C366.375 93.8752 416.098 121.085 447.501 163.261C440.959 161.901 433.762 160.54 426.565 160.54C372.263 160.54 329.083 206.117 329.083 261.898C329.083 318.359 372.918 363.256 426.565 363.256C437.033 363.256 446.847 361.896 456.006 358.494C425.257 408.153 371.609 440.125 310.11 440.125C215.245 440.125 138.045 362.576 138.045 266.66C138.699 171.424 215.245 93.8752 310.11 93.8752Z" fill="#5CE281"/>
<path fill-rule="evenodd" clip-rule="evenodd" d="M310.111 102.719C360.487 102.719 404.976 125.167 435.071 161.22C432.454 161.22 429.182 160.54 426.565 160.54C372.263 160.54 329.084 206.117 329.084 261.898C329.084 318.359 372.918 363.256 426.565 363.256C432.454 363.256 437.688 362.576 443.576 361.896C414.135 403.391 365.721 430.601 310.765 430.601C220.479 430.601 147.204 357.134 147.204 266.66C147.204 176.186 219.825 102.719 310.111 102.719Z" fill="#60E684"/>
</svg>
