<?xml version="1.0" encoding="UTF-8"?>
<svg width="92px" height="24px" viewBox="0 0 92 24" version="1.1" xmlns="http://www.w3.org/2000/svg" xmlns:xlink="http://www.w3.org/1999/xlink">
    <title>1-color / sleuth</title>
    <g id="1-color-/-sleuth" stroke="none" stroke-width="1" fill="none" fill-rule="evenodd">
        <g id="sleuth" fill="#1E5ADF" fill-rule="nonzero">
            <path d="M37.3283124,14.1395123 C37.3754441,14.987883 36.9983905,15.8362538 36.2914149,16.3547025 C35.631571,16.920283 34.6889368,17.1559416 33.4635124,17.1559416 C32.4266148,17.1559416 31.436849,16.9674147 30.4942148,16.5432294 L30.4942148,14.4694342 C31.0597953,14.7522245 31.6725075,14.9407513 32.2852197,15.1292781 C32.7094051,15.2706733 33.1807222,15.317805 33.6520392,15.317805 C34.0290929,15.3649367 34.4532783,15.2235416 34.7832002,15.0350147 C35.0659905,14.8464879 35.2073856,14.5165659 35.1602539,14.186644 C35.1602539,13.9981172 35.1131222,13.8095903 34.971727,13.6210635 C34.8303319,13.4325367 34.6418051,13.2911415 34.4532783,13.1497464 C34.0290929,12.8669562 33.5577758,12.6312976 33.0864587,12.4427708 C32.56801,12.2071123 32.0966929,11.924322 31.6253758,11.5944001 C31.2954539,11.3116098 31.0597953,10.9816879 30.8712685,10.6046342 C30.6827417,10.2275806 30.5884782,9.75626348 30.5884782,9.33207811 C30.5413465,8.48370737 30.9184002,7.68246834 31.5311124,7.16401956 C32.1438246,6.64557077 32.9921953,6.36278053 34.1233563,6.36278053 C34.6418051,6.36278053 35.1602539,6.40991224 35.6787027,6.55130736 C36.1971514,6.69270248 36.7156002,6.88122931 37.234049,7.06975614 L36.5270734,8.76649762 C36.0557563,8.57797079 35.631571,8.38944396 35.1602539,8.29518054 C34.8303319,8.20091712 34.4532783,8.15378542 34.0762246,8.15378542 C33.7463027,8.15378542 33.369249,8.24804883 33.0864587,8.43657566 C32.8508002,8.62510249 32.7565368,8.90789274 32.7565368,9.19068298 C32.7565368,9.37920982 32.8036685,9.56773665 32.8979319,9.70913177 C32.9921953,9.8976586 33.1807222,10.0390537 33.3221173,10.1333171 C33.7934344,10.4161074 34.2647514,10.6517659 34.7360685,10.8874245 C35.7258344,11.3587415 36.3856783,11.8300586 36.7627319,12.3013757 C37.1397856,12.9140879 37.3283124,13.5268001 37.3283124,14.1395123 L37.3283124,14.1395123 Z M47.1788393,17.0616782 L47.1788393,15.2235416 L42.9369856,15.2235416 L42.9369856,6.59843907 L40.7217954,6.59843907 L40.7217954,17.1088099 L47.1788393,17.1088099 L47.1788393,17.0616782 L47.1788393,17.0616782 Z M56.5109174,15.2235416 L52.6932491,15.2235416 L52.6932491,12.5370342 L56.2281272,12.5370342 L56.2281272,10.6988976 L52.6932491,10.6988976 L52.6932491,8.38944396 L56.5109174,8.38944396 L56.5109174,6.59843907 L50.4309271,6.59843907 L50.4309271,17.1088099 L56.4637857,17.1088099 L56.4637857,15.2235416 L56.5109174,15.2235416 L56.5109174,15.2235416 Z M66.4557077,6.59843907 L66.4557077,13.0083513 C66.4557077,13.8095903 66.3143126,14.4223025 65.9843907,14.7993562 C65.6544687,15.1764099 65.1360199,15.3649367 64.3819126,15.3649367 C63.6278053,15.3649367 63.1093565,15.1764099 62.7794345,14.7993562 C62.4495126,14.4223025 62.3081175,13.856722 62.3081175,13.0083513 L62.3081175,6.59843907 L60.0929272,6.59843907 L60.0929272,13.3382733 C60.0929272,14.5165659 60.4699809,15.5063318 61.2240882,16.1661757 C61.9781955,16.8731513 63.0150931,17.2030733 64.3819126,17.2030733 C65.1831516,17.2030733 65.9843907,17.0616782 66.6913663,16.7317562 C67.3040785,16.448966 67.8225273,15.9776489 68.1995809,15.4120684 C68.5766346,14.7993562 68.7180297,14.0923806 68.7180297,13.385405 L68.7180297,6.59843907 L66.4557077,6.59843907 Z M76.7775517,8.43657566 L79.6054542,8.43657566 L79.6054542,6.59843907 L71.6873273,6.59843907 L71.6873273,8.43657566 L74.5152297,8.43657566 L74.5152297,17.0616782 L76.73042,17.0616782 L76.73042,8.43657566 L76.7775517,8.43657566 L76.7775517,8.43657566 Z M91.2941176,6.59843907 L89.0789274,6.59843907 L89.0789274,10.6988976 L84.9313371,10.6988976 L84.9313371,6.59843907 L82.7161469,6.59843907 L82.7161469,17.1088099 L84.9313371,17.1088099 L84.9313371,12.5841659 L89.0789274,12.5841659 L89.0789274,17.1088099 L91.2941176,17.1088099 L91.2941176,6.59843907 L91.2941176,6.59843907 Z M5.93859516,13.7624586 C5.75006833,13.1497464 5.60867321,12.4899025 5.60867321,11.8300586 C5.60867321,9.80339518 6.59843907,7.96525859 8.15378542,6.8340976 L5.46727808,1.8381366 C2.16805855,3.95906344 0,7.63533663 0,11.8300586 C0,13.4325367 0.329921953,14.987883 0.895502445,16.4018342 L5.93859516,13.7624586 Z M11.8300586,18.0043123 C12.5841659,18.0043123 13.3382733,17.8629172 13.9981172,17.6272586 L16.6846245,22.6232197 C15.2235416,23.2830636 13.5739318,23.6601172 11.8300586,23.6601172 C8.059522,23.6601172 4.76030247,21.916244 2.59224392,19.182605 L7.30541468,16.0247806 C8.43657566,17.250205 10.0390537,18.0043123 11.8300586,18.0043123 L11.8300586,18.0043123 Z M11.8300586,5.60867321 C11.0759513,5.60867321 10.321844,5.75006833 9.66200006,5.98572687 L6.97549273,1.03689757 C8.43657566,0.377053661 10.0861854,0 11.8300586,0 C15.9776489,0 19.6539221,2.16805855 21.7748489,5.42014638 L16.7788879,8.10665371 C15.6005952,6.59843907 13.856722,5.60867321 11.8300586,5.60867321 L11.8300586,5.60867321 Z M18.0043123,11.8300586 C18.0043123,10.9345562 17.8157855,10.0861854 17.4858635,9.33207811 L22.246166,6.2213854 C23.1416684,7.87099517 23.6601172,9.80339518 23.6601172,11.8300586 C23.6601172,16.0247806 21.4920587,19.7010538 18.1928391,21.8219806 L15.5063318,16.8260196 C17.0145464,15.6948586 18.0043123,13.856722 18.0043123,11.8300586 L18.0043123,11.8300586 Z M12.7726928,11.3116098 C12.5370342,10.8402928 11.924322,10.6517659 11.4058732,10.8874245 L7.58820493,12.8669562 C7.49394151,12.5370342 7.4468098,12.1599806 7.4468098,11.8300586 C7.4468098,9.42634152 9.37920982,7.49394151 11.7829269,7.49394151 C14.186644,7.49394151 16.119044,9.42634152 16.119044,11.8300586 C16.119044,14.2337757 14.186644,16.1661757 11.7829269,16.1661757 C10.6517659,16.1661757 9.61486835,15.7419903 8.86076103,14.987883 L12.4427708,12.6312976 C12.8669562,12.3485074 13.0083513,11.7829269 12.7726928,11.3116098 L12.7726928,11.3116098 Z" id="Shape"></path>
        </g>
    </g>
</svg>
