<svg id="Layer_1" data-name="Layer 1" xmlns="http://www.w3.org/2000/svg" viewBox="0 0 376.22 99.93"><defs><style>.cls-1{fill:#fff;}.cls-2{fill:#1a1b1c;}.cls-3,.cls-4{fill:none;stroke:#1a1b1c;stroke-linejoin:round;stroke-width:0.5px;}.cls-3{stroke-linecap:round;}</style></defs><title>logo_new</title><path class="cls-1" d="M155.76,59.5a11,11,0,0,1-4.18,9.14Q147.41,72,140,72a27.39,27.39,0,0,1-12.13-2.57V61a48.61,48.61,0,0,0,7.34,2.72,21.56,21.56,0,0,0,5.49.79,7.8,7.8,0,0,0,4.58-1.14,3.89,3.89,0,0,0,1.6-3.4,3.75,3.75,0,0,0-.7-2.24,8,8,0,0,0-2.07-1.89,55.12,55.12,0,0,0-5.55-2.9,26.4,26.4,0,0,1-5.89-3.54,13.28,13.28,0,0,1-3.13-4,11.28,11.28,0,0,1-1.17-5.27,11.07,11.07,0,0,1,3.85-8.94Q136,27.95,142.84,28a25,25,0,0,1,6.37.79A44,44,0,0,1,155.55,31L152.62,38a41.75,41.75,0,0,0-5.67-2,18.26,18.26,0,0,0-4.41-.56,5.85,5.85,0,0,0-3.95,1.2,4,4,0,0,0-1.38,3.13,3.9,3.9,0,0,0,.56,2.1,6.09,6.09,0,0,0,1.77,1.73,55.09,55.09,0,0,0,5.76,3c4,1.92,6.75,3.83,8.23,5.76A11.25,11.25,0,0,1,155.76,59.5Z"/><path class="cls-1" d="M169.52,71.4V28.57h9.08V63.9H196v7.5Z"/><path class="cls-1" d="M234.09,71.4H209.42V28.57h24.67V36H218.5v9.4H233v7.44H218.5v11h15.59Z"/><path class="cls-1" d="M283.88,28.57V56.28a15.94,15.94,0,0,1-2.12,8.32,13.85,13.85,0,0,1-6.14,5.48,21.92,21.92,0,0,1-9.49,1.9q-8.26,0-12.83-4.23t-4.57-11.59V28.57h9V54.79q0,5,2,7.26c1.33,1.54,3.53,2.32,6.59,2.32s5.13-.78,6.46-2.33,2-4,2-7.31V28.57Z"/><path class="cls-1" d="M316.9,71.4h-9.09V36.12H296.18V28.57h32.35v7.55H316.9Z"/><path class="cls-1" d="M376.22,71.4h-9.06V52.91h-17V71.4h-9.08V28.57h9.08V45.35h17V28.57h9.06Z"/><path class="cls-2" d="M61.14,48.55l1.8.24c-.06-.35-.13-.7-.2-1Z"/><path class="cls-2" d="M46.05,34.12a14.28,14.28,0,0,0-1.66,1.41,13.77,13.77,0,0,0-2.85,4.53,16,16,0,0,0-1,5.53v.26l4.91.64,3.12-1.3-.16-11.07A13.71,13.71,0,0,0,46.05,34.12Z"/><path class="cls-2" d="M48.42,60.53l.33.2-.09-5.94-4.23,2.12A16.83,16.83,0,0,0,48.42,60.53Z"/><path class="cls-2" d="M59.19,40.28a17.49,17.49,0,0,0-4.38-3.93,15.24,15.24,0,0,0-2.52-1.27l.06,8.53,7.13-3Z"/><path class="cls-2" d="M96.27,31,72.94,42.64a24,24,0,0,1,1,6.44c0,.35,0,.72,0,1.15l25.91,3.39c.09-1.21.15-2.43.15-3.67A49.85,49.85,0,0,0,96.27,31Z"/><path class="cls-2" d="M29.45,44.4a21.63,21.63,0,0,1,1.28-4.87,18.67,18.67,0,0,1,4.12-6.37,16.56,16.56,0,0,1,6.48-4l.18-.07.13,0h0l5.72-2,.16-.05.16-.05.14-.05.17,0,.26-.08L47.88,0a50,50,0,0,0-47,40.65Z"/><path class="cls-2" d="M29.81,52.93a23.84,23.84,0,0,1-.57-5L.38,43.89A49.67,49.67,0,0,0,2.12,64.38Z"/><path class="cls-2" d="M63.16,52.71l-8.07-1.14-2.67,1.34.07,9.47.86.21a12.77,12.77,0,0,0,5.26,0l.24-.05h0a13.66,13.66,0,0,0,3.06-4.48A15.88,15.88,0,0,0,63.16,52.71Z"/><path class="cls-2" d="M52.23,26.17a18,18,0,0,1,3.66.27,19.59,19.59,0,0,1,6.92,2.68,22.54,22.54,0,0,1,5.83,5.22,20.07,20.07,0,0,1,1.39,2l24.06-9.95A50,50,0,0,0,52,0Z"/><path class="cls-2" d="M73.44,54.16c-.13.59-.29,1.2-.49,1.86a19.15,19.15,0,0,1-3,5.89,17.11,17.11,0,0,1-4.84,4.27L59.55,69.4h0A16.89,16.89,0,0,1,55.79,71l-.32.09-.27.07-.07,0-.31.07h0l-.32.07a19.29,19.29,0,0,1-1.92.27l.2,28.25A50,50,0,0,0,99.38,57.8Z"/><path class="cls-2" d="M48.9,71.56c-.62-.07-1.22-.17-1.78-.29a20.51,20.51,0,0,1-6.84-2.91,23.46,23.46,0,0,1-5.72-5.31c-.19-.24-.43-.55-.65-.88L7.07,75.58A50,50,0,0,0,49.31,99.93Z"/><path class="cls-3" d="M48.61,33.91l.16,11.36h0l0,1c0,.22.64.54,1.67.54s1.64-.28,1.66-.52v-.06l0-2.41L52,34.74a13.52,13.52,0,0,0-2.41-.69C49.33,34,49,34,48.61,33.91Z"/><path class="cls-3" d="M49,61l0,3.15v0c0,.34.67.72,1.61.72s1.55-.36,1.6-.7v-.08h0V62.48L52.17,53l-3.26,1.62Z"/><path class="cls-3" d="M54.72,71h0l.31-.08h.07l.27-.08.31-.08a16.8,16.8,0,0,0,3.7-1.59h0l0,0c.21-.12.41-.25.61-.38s.5-.33.73-.5.59-.45.88-.69.39-.33.6-.54.42-.38.68-.65.38-.4.57-.61l0,0a15.33,15.33,0,0,0,1.23-1.57q.28-.41.51-.78c.11-.16.2-.31.29-.47l.17-.29a5.65,5.65,0,0,0,.31-.6,5.76,5.76,0,0,0,.33-.66,1.24,1.24,0,0,0,.1-.2c.09-.19.16-.37.24-.55l0-.08c.09-.22.19-.44.27-.68v0q.16-.42.3-.87h0c.1-.28.18-.56.26-.84l0-.1h0q.15-.57.27-1.14c0-.24.09-.49.13-.73A19.55,19.55,0,0,0,68.29,54c0-.22,0-.44,0-.66a1.09,1.09,0,0,0,0-.17h0c0-.22,0-.42,0-.62s0-.45,0-.67h0c0-.27,0-.54,0-.79a2.44,2.44,0,0,0,0-.28c0-.38-.06-.76-.1-1.15l-.06-.52c-.06-.42-.13-.85-.21-1.28,0-.23-.08-.45-.13-.67-.13-.63-.29-1.25-.48-1.87-.1-.31-.2-.65-.32-1a26.23,26.23,0,0,0-2.65-5.49c-.41-.63-.87-1.28-1.42-2A23.36,23.36,0,0,0,57,31.49a19.74,19.74,0,0,0-4.92-2.23A18.2,18.2,0,0,0,50,28.75c-.6-.11-1.12-.18-1.6-.22a16.72,16.72,0,0,0-5.69.44l-.34.09-.33.09-.12,0a.7.7,0,0,1-.19.06h0l-.15.05-.17.06a16.37,16.37,0,0,0-6.38,4A18.45,18.45,0,0,0,31,39.62a21.25,21.25,0,0,0-1.28,4.93h0a24.27,24.27,0,0,0-.2,2.8v.49a23.21,23.21,0,0,0,.57,5l4.25-1.75a16.4,16.4,0,0,1-.22-2.56c0-.16,0-.31,0-.46a1.69,1.69,0,0,1,0-.23c0-.16,0-.34,0-.52a17.73,17.73,0,0,1,.27-2.13c.05-.26.1-.5.16-.73s0-.25.08-.38l0-.08c0-.07,0-.14,0-.2l.06-.2a13,13,0,0,1,.48-1.39c.12-.29.24-.57.37-.86.06-.13.14-.27.21-.4a14.62,14.62,0,0,1,1-1.67c.11-.15.22-.31.37-.49l.27-.33A5,5,0,0,1,37.8,38a2.6,2.6,0,0,1,.36-.39h0l0,0,.09-.11,0,0,0,0h0l0,0a1.61,1.61,0,0,1,.23-.22,4.89,4.89,0,0,1,.41-.37c.33-.28.65-.53,1-.76a4.94,4.94,0,0,1,.49-.3l0,0a6.34,6.34,0,0,1,.62-.37,6.55,6.55,0,0,1,.65-.33,10.44,10.44,0,0,1,1-.41l.15-.05.23-.08.13,0,.11,0,.12,0,.14,0,.22-.06.27-.07A12.63,12.63,0,0,1,46,33.87a13.68,13.68,0,0,1,2.48,0h0c.45,0,.82.1,1.18.16a14.05,14.05,0,0,1,2.53.73h0a15.15,15.15,0,0,1,2.73,1.37,17.44,17.44,0,0,1,4.44,4l.4.51h0a19,19,0,0,1,2.65,5.09A17.55,17.55,0,0,1,63,47.54h0q.16.68.27,1.38a17.49,17.49,0,0,1,.22,3.31c0,.13,0,.26,0,.39h0a15.88,15.88,0,0,1-1.25,5.54A14,14,0,0,1,59,62.75h0l-.1.09a4.71,4.71,0,0,1-.42.36,10.63,10.63,0,0,1-1.83,1.32,1.46,1.46,0,0,1-.28.15l-.5.27,0,0a13.64,13.64,0,0,1-1.88.72l-.12,0-.12,0-.24.06-.2,0L53,66l-.53.09h-.05a13.14,13.14,0,0,1-2.07.17,14.9,14.9,0,0,1-2.84-.3,15.07,15.07,0,0,1-5.13-2.16A17.89,17.89,0,0,1,38.23,60l-4.1,2c.22.32.44.62.63.85a23,23,0,0,0,5.66,5.25A20.27,20.27,0,0,0,47.17,71a15.19,15.19,0,0,0,1.87.31h0a16.63,16.63,0,0,0,3.38,0h0a13.82,13.82,0,0,0,2-.28Z"/><path class="cls-3" d="M40.35,46.08l-2.75-.36h0l-.12,0c-.41,0-.74.73-.74,1.59a1.8,1.8,0,0,0,.59,1.54l.2,0h0l1.62.23,5.82-2.4Z"/><path class="cls-3" d="M63.2,49.07l-2.5-.33h0l-6.93-.9c-.39,0-.74.75-.74,1.65s.35,1.65.76,1.65l1.29.18,8.32,1.14c0-.08,0-.15,0-.23A17.61,17.61,0,0,0,63.2,49.07Z"/><line class="cls-4" x1="52.04" x2="52.23" y2="26.42"/><line class="cls-4" x1="96.27" y1="30.98" x2="72.75" y2="42.74"/><path class="cls-4" d="M40.49,46.1s-.5-8.47,6.27-12.27"/><line class="cls-4" x1="2.12" y1="64.38" x2="30.05" y2="52.83"/><line class="cls-4" x1="7.07" y1="75.58" x2="34.13" y2="62.05"/><line class="cls-4" x1="36.98" y1="60.64" x2="55.41" y2="51.37"/><line class="cls-4" x1="60.7" y1="48.74" x2="62.97" y2="47.63"/><line class="cls-4" x1="52.1" y1="43.7" x2="59.77" y2="40.53"/><line class="cls-4" x1="44.57" y1="46.83" x2="48.77" y2="45.09"/><line class="cls-4" x1="34.3" y1="51.08" x2="39.12" y2="49.08"/><line class="cls-4" x1="99.85" y1="53.62" x2="73.94" y2="50.23"/><line class="cls-4" x1="99.38" y1="57.8" x2="73.44" y2="54.16"/><line class="cls-4" x1="49.31" y1="99.93" x2="48.9" y2="71.32"/><line class="cls-4" x1="52.75" y1="99.87" x2="52.55" y2="71.37"/><path class="cls-3" d="M73.44,54.16S72,64.54,60.06,68.79"/><path class="cls-3" d="M70,36.3a22.24,22.24,0,0,1,2.91,6.34,26.23,26.23,0,0,1,1,7.59"/><path class="cls-4" d="M40.64,29.63a35.49,35.49,0,0,1,7.62-2.86L47.88,0"/><path class="cls-4" d="M52.39,26.17C64.21,25.91,70,36.3,70,36.3l24.06-9.95"/><path class="cls-3" d="M49,60.88a12.45,12.45,0,0,1-4.42-3.78"/><path class="cls-3" d="M52.24,62.32s4.83,1.34,7.07.16"/><path class="cls-4" d="M48.27,27.2h0a17.34,17.34,0,0,1,2,.22c1.14.24,1.93.36,2,0a.24.24,0,0,0,0-.12V26"/><line class="cls-4" x1="48.26" y1="26.59" x2="48.27" y2="27.2"/><path class="cls-4" d="M74.1,54.25l-2.47-.35c-.54,0-1-.89-1-2s.44-2,1-2l3,.38"/></svg>
