<?xml version="1.0" encoding="UTF-8" standalone="no"?><!DOCTYPE svg PUBLIC "-//W3C//DTD SVG 1.1//EN" "http://www.w3.org/Graphics/SVG/1.1/DTD/svg11.dtd"><svg width="100%" height="100%" viewBox="0 0 32 32" version="1.1" xmlns="http://www.w3.org/2000/svg" xmlns:xlink="http://www.w3.org/1999/xlink" xml:space="preserve" xmlns:serif="http://www.serif.com/" style="fill-rule:evenodd;clip-rule:evenodd;stroke-linejoin:round;stroke-miterlimit:2;"><path d="M16.899,15.526c-0.236,-0.453 -0.795,-0.63 -1.249,-0.394l-3.544,1.846c-0.079,-0.314 -0.125,-0.64 -0.125,-0.978c0,-2.22 1.799,-4.019 4.019,-4.019c2.22,0 4.019,1.799 4.019,4.019c0,2.22 -1.799,4.019 -4.019,4.019c-1.059,0 -2.019,-0.412 -2.737,-1.082l3.327,-2.211c0.387,-0.26 0.529,-0.777 0.309,-1.2Zm4.865,0.474c0,-0.827 -0.177,-1.612 -0.491,-2.323l4.421,-2.878c0.833,1.548 1.306,3.319 1.306,5.201c0,3.897 -2.029,7.318 -5.085,9.272l-2.504,-4.633c1.425,-1.049 2.353,-2.734 2.353,-4.639Zm-5.764,-5.764c-0.709,0 -1.385,0.134 -2.012,0.368l-2.504,-4.634c1.378,-0.621 2.906,-0.97 4.516,-0.97c3.872,0 7.275,2.003 9.235,5.027l-4.657,2.481c-1.053,-1.379 -2.709,-2.272 -4.578,-2.272Zm0,11.528c0.709,0 1.385,-0.134 2.012,-0.368l2.504,4.634c-1.378,0.621 -2.906,0.97 -4.516,0.97c-3.489,0 -6.595,-1.626 -8.611,-4.159l4.394,-2.92c1.052,1.131 2.55,1.843 4.217,1.843Zm-5.474,-3.964c-0.186,-0.567 -0.29,-1.171 -0.29,-1.8c0,-1.905 0.928,-3.59 2.353,-4.639l-2.504,-4.633c-3.056,1.954 -5.085,5.375 -5.085,9.272c0,1.501 0.302,2.932 0.846,4.236l4.68,-2.436Z" style="fill:#3d60ac;fill-rule:nonzero;"/></svg>
