<svg id="Layer_1" data-name="Layer 1" xmlns="http://www.w3.org/2000/svg" viewBox="0 0 1200 500"><defs><style>.cls-1{fill:#090051;}.cls-2{fill:#fc348f;}</style></defs><path class="cls-1" d="M431.8,250c0-41.37,27.15-70,66.05-70,15.19,0,28.86,4.17,39.86,12.33v26c-11.76-11-24.87-16.5-39.1-16.5-26.38,0-43.46,18.59-43.46,48.2,0,29.24,17.08,48.22,43.46,48.22,14.23,0,27.34-5.5,39.1-16.52v26C526.71,315.86,513,320,497.85,320,459,320,431.8,291.38,431.8,250Z"/><path class="cls-1" d="M646.91,275.43H578.77c2.1,16.89,12.54,25.05,30.94,25.05,12.15,0,23.35-3.23,32.09-9.3V311.3C632.88,317,621.29,320,609,320c-31.7,0-51.62-19.55-51.62-50.86,0-30.75,19-51.82,46.5-51.82,25.81,0,43.07,19.55,43.07,49.35Zm-67.75-16.89h47.26c-1.52-14.62-9.3-22.21-22.39-22.21C590.73,236.33,581.82,244.3,579.16,258.54Z"/><path class="cls-1" d="M753.07,253.22V318H731.43V257.4c0-12.34-7-19.74-18.22-19.74a24.26,24.26,0,0,0-21.83,13.86V318H669.74V219.44h20.12v14.23c6.46-10.43,16.89-16.32,29.61-16.32C739.78,217.35,753.07,231.59,753.07,253.22Z"/><path class="cls-1" d="M774,311.3v-22c10.06,8,22,11.76,35.87,11.76,13.09,0,19.17-3.41,19.17-10.63,0-5.69-3.42-9.1-11.19-10.82l-18.61-4.17C783.5,271.83,775,262.14,775,247.72c0-18.79,15.19-30.37,39.85-30.37,12.15,0,22.78,2.66,30.56,7.4v22c-8.53-7-19-10.64-30.93-10.64-12.15,0-18.61,3.79-18.61,10.82,0,5.12,3.42,8.35,10.25,9.86l18.61,4.38c16.71,4,25.42,13.29,25.42,27.71,0,19.36-15.75,31.12-41.37,31.12C795.45,320,783.69,317,774,311.3Z"/><path class="cls-1" d="M930.28,219.44h21.63V318H932.18V303.14C925.72,314,915.47,320,902.57,320c-19.94,0-33.42-14.42-33.42-35.68V219.44h21.64V280c0,12.15,7.22,19.74,18.22,19.74,9.3,0,17.28-5.32,21.27-14.24Z"/><path class="cls-1" d="M974.94,311.3v-22c10.06,8,22,11.76,35.87,11.76,13.09,0,19.16-3.41,19.16-10.63,0-5.69-3.41-9.1-11.18-10.82l-18.61-4.17c-15.75-3.6-24.3-13.29-24.3-27.71,0-18.79,15.2-30.37,39.86-30.37,12.15,0,22.78,2.66,30.56,7.4v22c-8.54-7-19-10.64-30.93-10.64-12.15,0-18.61,3.79-18.61,10.82,0,5.12,3.42,8.35,10.25,9.86l18.61,4.38c16.69,4,25.42,13.29,25.42,27.71,0,19.36-15.75,31.12-41.37,31.12C996.38,320,984.62,317,974.94,311.3Z"/><path class="cls-2" d="M370,250l-49.28-85.35a20.72,20.72,0,0,0-17.94-10.36h-86.6a20.72,20.72,0,0,0-17.94,10.36L192,175.51H302.48l-12.25,21.23H179.71L167.45,218H278L265.72,239.2H155.2L149,250l6,10.43H265.5l12.26,21.22H167.24l12.25,21.23H290l12.26,21.23H191.75l6.49,11.24a20.72,20.72,0,0,0,17.94,10.36h86.6a20.72,20.72,0,0,0,17.94-10.36Z"/></svg>