<svg width="578" height="173" viewBox="0 0 578 173" fill="none" xmlns="http://www.w3.org/2000/svg">
<path fill-rule="evenodd" clip-rule="evenodd" d="M227.123 105.807H216.376C209.58 105.807 204.021 111.39 204.021 118.217V144.485H207.745V120.346C207.745 114.448 212.552 109.621 218.424 109.621H224.808C230.68 109.621 235.486 114.448 235.486 120.346V144.485H239.48V118.217C239.48 111.39 233.919 105.807 227.123 105.807Z" fill="#414343"/>
<path fill-rule="evenodd" clip-rule="evenodd" d="M227.123 105.807H216.376C209.58 105.807 204.021 111.39 204.021 118.217V144.485H207.745V120.346C207.745 114.448 212.552 109.621 218.424 109.621H224.808C230.68 109.621 235.486 114.448 235.486 120.346V144.485H239.48V118.217C239.48 111.39 233.919 105.807 227.123 105.807Z" stroke="#414343" stroke-width="0.5"/>
<path fill-rule="evenodd" clip-rule="evenodd" d="M184.371 105.219H175.793C168.501 105.219 162.535 111.213 162.535 118.536V131.756C162.535 139.079 168.501 145.073 175.793 145.073H184.371C191.663 145.073 197.629 139.079 197.629 131.756V118.536C197.629 111.213 191.663 105.219 184.371 105.219ZM193.621 132.453C193.621 137.299 189.673 141.267 184.846 141.267H175.318C170.493 141.267 166.546 137.299 166.546 132.453V118.141C166.546 113.295 170.493 109.33 175.318 109.33H184.846C189.673 109.33 193.621 113.295 193.621 118.141V132.453Z" fill="#414343"/>
<path fill-rule="evenodd" clip-rule="evenodd" d="M144.743 105.807H133.997C130.595 105.807 127.504 107.206 125.264 109.458V91.6749H121.538V144.485H125.365V120.346C125.365 114.448 130.169 109.621 136.044 109.621H142.426C148.3 109.621 153.104 114.448 153.104 120.346V144.485H157.098V118.217C157.098 111.39 151.539 105.807 144.743 105.807Z" fill="#414343"/>
<path fill-rule="evenodd" clip-rule="evenodd" d="M144.743 105.807H133.997C130.595 105.807 127.504 107.206 125.264 109.458V91.6749H121.538V144.485H125.365V120.346C125.365 114.448 130.169 109.621 136.044 109.621H142.426C148.3 109.621 153.104 114.448 153.104 120.346V144.485H157.098V118.217C157.098 111.39 151.539 105.807 144.743 105.807Z" stroke="#414343" stroke-width="0.5"/>
<path fill-rule="evenodd" clip-rule="evenodd" d="M379.012 105.37H370.433C363.14 105.37 357.174 111.364 357.174 118.687V131.907C357.174 139.232 363.14 145.225 370.433 145.225H379.012C386.303 145.225 392.269 139.232 392.269 131.907V118.687C392.269 111.364 386.303 105.37 379.012 105.37ZM388.26 132.604C388.26 137.451 384.313 141.418 379.488 141.418H369.958C365.133 141.418 361.185 137.451 361.185 132.604V118.292C361.185 113.446 365.133 109.481 369.958 109.481H379.488C384.313 109.481 388.26 113.446 388.26 118.292V132.604Z" fill="#414343"/>
<path fill-rule="evenodd" clip-rule="evenodd" d="M379.012 105.37H370.433C363.14 105.37 357.174 111.364 357.174 118.687V131.907C357.174 139.232 363.14 145.225 370.433 145.225H379.012C386.303 145.225 392.269 139.232 392.269 131.907V118.687C392.269 111.364 386.303 105.37 379.012 105.37ZM388.26 132.604C388.26 137.451 384.313 141.418 379.488 141.418H369.958C365.133 141.418 361.185 137.451 361.185 132.604V118.292C361.185 113.446 365.133 109.481 369.958 109.481H379.488C384.313 109.481 388.26 113.446 388.26 118.292V132.604Z" stroke="#414343" stroke-width="0.5"/>
<path fill-rule="evenodd" clip-rule="evenodd" d="M450.209 106.192H439.587C435.4 106.192 431.687 108.364 429.486 111.65C427.333 108.364 423.705 106.192 419.614 106.192H409.236C402.671 106.192 397.301 111.775 397.301 118.602V144.87H400.898V120.731C400.898 114.833 405.539 110.006 411.211 110.006H417.377C422.195 110.006 426.27 113.491 427.385 118.158C427.38 118.306 427.373 118.453 427.373 118.602V144.87H431.547V118.602C431.547 118.278 431.532 117.957 431.509 117.638C432.822 113.236 436.864 110.006 441.611 110.006H447.92C453.727 110.006 458.476 114.833 458.476 120.731V144.87H462.425V118.602C462.425 111.775 456.927 106.192 450.209 106.192Z" fill="#414343"/>
<path fill-rule="evenodd" clip-rule="evenodd" d="M450.209 106.192H439.587C435.4 106.192 431.687 108.364 429.486 111.65C427.333 108.364 423.705 106.192 419.614 106.192H409.236C402.671 106.192 397.301 111.775 397.301 118.602V144.87H400.898V120.731C400.898 114.833 405.539 110.006 411.211 110.006H417.377C422.195 110.006 426.27 113.491 427.385 118.158C427.38 118.306 427.373 118.453 427.373 118.602V144.87H431.547V118.602C431.547 118.278 431.532 117.957 431.509 117.638C432.822 113.236 436.864 110.006 441.611 110.006H447.92C453.727 110.006 458.476 114.833 458.476 120.731V144.87H462.425V118.602C462.425 111.775 456.927 106.192 450.209 106.192Z" stroke="#414343" stroke-width="0.5"/>
<path fill-rule="evenodd" clip-rule="evenodd" d="M489.477 105.018H480.9C477.31 105.018 474.044 106.471 471.649 108.82V91.4476H467.641V131.553C467.641 138.878 473.607 144.87 480.9 144.87H489.477C496.769 144.87 502.736 138.878 502.736 131.553V118.335C502.736 111.01 496.769 105.018 489.477 105.018ZM498.727 132.252C498.727 137.098 494.778 141.063 489.952 141.063H480.425C475.599 141.063 471.649 137.098 471.649 132.252V117.94C471.649 113.092 475.599 109.127 480.425 109.127H489.952C494.778 109.127 498.727 113.092 498.727 117.94V132.252Z" fill="#414343"/>
<path fill-rule="evenodd" clip-rule="evenodd" d="M489.477 105.018H480.9C477.31 105.018 474.044 106.471 471.649 108.82V91.4476H467.641V131.553C467.641 138.878 473.607 144.87 480.9 144.87H489.477C496.769 144.87 502.736 138.878 502.736 131.553V118.335C502.736 111.01 496.769 105.018 489.477 105.018ZM498.727 132.252C498.727 137.098 494.778 141.063 489.952 141.063H480.425C475.599 141.063 471.649 137.098 471.649 132.252V117.94C471.649 113.092 475.599 109.127 480.425 109.127H489.952C494.778 109.127 498.727 113.092 498.727 117.94V132.252Z" stroke="#414343" stroke-width="0.5"/>
<path fill-rule="evenodd" clip-rule="evenodd" d="M349.105 138.169C347.607 139.946 345.449 141.063 343.059 141.063H334.182C329.685 141.063 326.006 137.098 326.006 132.252V117.941C326.006 113.092 329.685 109.127 334.182 109.127H343.059C345.144 109.127 347.054 109.982 348.5 111.379H353.137C350.956 107.57 347.049 105.018 342.617 105.018H334.623C327.829 105.018 322.27 111.01 322.27 118.335V131.555C322.27 138.878 327.829 144.87 334.623 144.87H342.617C347.181 144.87 351.185 142.164 353.323 138.169H349.105Z" fill="#414343"/>
<path fill-rule="evenodd" clip-rule="evenodd" d="M349.105 138.169C347.607 139.946 345.449 141.063 343.059 141.063H334.182C329.685 141.063 326.006 137.098 326.006 132.252V117.941C326.006 113.092 329.685 109.127 334.182 109.127H343.059C345.144 109.127 347.054 109.982 348.5 111.379H353.137C350.956 107.57 347.049 105.018 342.617 105.018H334.623C327.829 105.018 322.27 111.01 322.27 118.335V131.555C322.27 138.878 327.829 144.87 334.623 144.87H342.617C347.181 144.87 351.185 142.164 353.323 138.169H349.105Z" stroke="#414343" stroke-width="0.5"/>
<path fill-rule="evenodd" clip-rule="evenodd" d="M317.454 105.372L301.396 136.829C301.215 136.772 300.999 136.718 300.737 136.657C299.475 136.361 298.31 135.65 297.359 134.777C295.023 132.628 293.186 129.148 292.295 126.128L286.496 106.464C286.39 106.1 286.298 105.734 286.213 105.372H282.329C282.508 106.35 282.734 107.336 283.023 108.321L288.38 126.482C290.447 133.49 294.875 138.655 299.603 140.341L290.706 157.766H294.548L321.296 105.372H317.454Z" fill="#414343"/>
<path fill-rule="evenodd" clip-rule="evenodd" d="M317.454 105.372L301.396 136.829C301.215 136.772 300.999 136.718 300.737 136.657C299.475 136.361 298.31 135.65 297.359 134.777C295.023 132.628 293.186 129.148 292.295 126.128L286.496 106.464C286.39 106.1 286.298 105.734 286.213 105.372H282.329C282.508 106.35 282.734 107.336 283.023 108.321L288.38 126.482C290.447 133.49 294.875 138.655 299.603 140.341L290.706 157.766H294.548L321.296 105.372H317.454Z" stroke="#414343" stroke-width="0.5"/>
<path fill-rule="evenodd" clip-rule="evenodd" d="M509.762 137.295C509.762 135.464 510.179 134.074 511.009 133.131C511.84 132.189 513.03 131.716 514.583 131.716C516.164 131.716 517.394 132.189 518.281 133.131C519.165 134.074 519.608 135.464 519.608 137.295C519.608 139.074 519.159 140.439 518.26 141.399C517.362 142.356 516.135 142.833 514.583 142.833C513.195 142.833 512.044 142.403 511.131 141.541C510.219 140.681 509.762 139.265 509.762 137.295Z" fill="#414343"/>
<path fill-rule="evenodd" clip-rule="evenodd" d="M509.762 137.295C509.762 135.464 510.179 134.074 511.009 133.131C511.84 132.189 513.03 131.716 514.583 131.716C516.164 131.716 517.394 132.189 518.281 133.131C519.165 134.074 519.608 135.464 519.608 137.295C519.608 139.074 519.159 140.439 518.26 141.399C517.362 142.356 516.135 142.833 514.583 142.833C513.195 142.833 512.044 142.403 511.131 141.541C510.219 140.681 509.762 139.265 509.762 137.295Z" stroke="#414343" stroke-width="0.5"/>
<path fill-rule="evenodd" clip-rule="evenodd" d="M527.38 144.87H530.978V107.447H527.38V144.87Z" fill="#414343"/>
<path fill-rule="evenodd" clip-rule="evenodd" d="M527.38 144.87H530.978V107.447H527.38V144.87Z" stroke="#414343" stroke-width="0.5"/>
<path fill-rule="evenodd" clip-rule="evenodd" d="M528.625 95.0937H529.321C530.444 95.0937 531.361 96.0132 531.361 97.1401V98.9451C531.361 100.073 530.444 100.994 529.321 100.994H528.625C527.505 100.994 526.587 100.073 526.587 98.9451V97.1401C526.587 96.0132 527.505 95.0937 528.625 95.0937Z" fill="#414343"/>
<path fill-rule="evenodd" clip-rule="evenodd" d="M528.625 95.0937H529.321C530.444 95.0937 531.361 96.0132 531.361 97.1401V98.9451C531.361 100.073 530.444 100.994 529.321 100.994H528.625C527.505 100.994 526.587 100.073 526.587 98.9451V97.1401C526.587 96.0132 527.505 95.0937 528.625 95.0937Z" stroke="#414343" stroke-width="0.5"/>
<path fill-rule="evenodd" clip-rule="evenodd" d="M560.723 104.985H552.145C544.852 104.985 538.886 110.979 538.886 118.302V131.522C538.886 138.847 544.852 144.839 552.145 144.839H560.723C568.015 144.839 573.982 138.847 573.982 131.522V118.302C573.982 110.979 568.015 104.985 560.723 104.985ZM569.972 132.219C569.972 137.065 566.023 141.033 561.198 141.033H551.67C546.845 141.033 542.895 137.065 542.895 132.219V117.907C542.895 113.061 546.845 109.096 551.67 109.096H561.198C566.023 109.096 569.972 113.061 569.972 117.907V132.219Z" fill="#414343"/>
<path fill-rule="evenodd" clip-rule="evenodd" d="M560.723 104.985H552.145C544.852 104.985 538.886 110.979 538.886 118.302V131.522C538.886 138.847 544.852 144.839 552.145 144.839H560.723C568.015 144.839 573.982 138.847 573.982 131.522V118.302C573.982 110.979 568.015 104.985 560.723 104.985ZM569.972 132.219C569.972 137.065 566.023 141.033 561.198 141.033H551.67C546.845 141.033 542.895 137.065 542.895 132.219V117.907C542.895 113.061 546.845 109.096 551.67 109.096H561.198C566.023 109.096 569.972 113.061 569.972 117.907V132.219Z" stroke="#414343" stroke-width="0.5"/>
<path fill-rule="evenodd" clip-rule="evenodd" d="M249.832 126.435H268.405C274.154 126.435 278.859 121.981 278.859 116.537V115.268C278.859 109.824 274.154 105.372 268.405 105.372H256.654C251.194 105.372 246.681 109.387 246.239 114.451V131.463C246.239 133.401 246.557 135.315 247.298 137.115C247.98 138.781 248.99 140.314 250.271 141.578C251.514 142.805 253.007 143.774 254.652 144.357C255.842 144.78 257.103 144.997 258.367 144.997H266.217C268.738 144.997 271.084 144.138 273.028 142.675C273.721 142.221 274.371 141.673 274.905 141.04C275.394 140.461 275.829 139.832 276.206 139.171C276.304 138.996 277.172 137.07 277.166 137.068L273.641 136.531C273.164 137.59 272.477 138.528 271.627 139.282C270.258 140.474 268.529 141.193 266.652 141.193H257.931C257.148 141.193 256.367 141.065 255.623 140.82C253.941 140.262 252.5 139.107 251.502 137.647C250.982 136.886 250.582 136.047 250.312 135.164C250.173 134.707 250.067 134.242 249.998 133.769C249.923 133.247 249.822 132.725 249.841 132.198C249.865 131.638 249.832 131.078 249.832 130.518V126.435ZM249.817 114.451C250.015 113.26 250.439 112.135 251.114 111.294C252.288 109.829 254.151 108.94 256.094 108.94H269.12C271.04 108.94 272.879 109.808 274.056 111.239C275.547 113.054 275.817 116.913 275.034 119.07C274.175 121.431 271.759 123.075 269.12 123.075H249.832V114.451H249.817Z" fill="#414343"/>
<path fill-rule="evenodd" clip-rule="evenodd" d="M249.832 126.435H268.405C274.154 126.435 278.859 121.981 278.859 116.537V115.268C278.859 109.824 274.154 105.372 268.405 105.372H256.654C251.194 105.372 246.681 109.387 246.239 114.451V131.463C246.239 133.401 246.557 135.315 247.298 137.115C247.98 138.781 248.99 140.314 250.271 141.578C251.514 142.805 253.007 143.774 254.652 144.357C255.842 144.78 257.103 144.997 258.367 144.997H266.217C268.738 144.997 271.084 144.138 273.028 142.675C273.721 142.221 274.371 141.673 274.905 141.04C275.394 140.461 275.829 139.832 276.206 139.171C276.304 138.996 277.172 137.07 277.166 137.068L273.641 136.531C273.164 137.59 272.477 138.528 271.627 139.282C270.258 140.474 268.529 141.193 266.652 141.193H257.931C257.148 141.193 256.367 141.065 255.623 140.82C253.941 140.262 252.5 139.107 251.502 137.647C250.982 136.886 250.582 136.047 250.312 135.164C250.173 134.707 250.067 134.242 249.998 133.769C249.923 133.247 249.822 132.725 249.841 132.198C249.865 131.638 249.832 131.078 249.832 130.518V126.435ZM249.817 114.451C250.015 113.26 250.439 112.135 251.114 111.294C252.288 109.829 254.151 108.94 256.094 108.94H269.12C271.04 108.94 272.879 109.808 274.056 111.239C275.547 113.054 275.817 116.913 275.034 119.07C274.175 121.431 271.759 123.075 269.12 123.075H249.832V114.451H249.817Z" stroke="#414343" stroke-width="0.5"/>
<mask id="mask0" mask-type="alpha" maskUnits="userSpaceOnUse" x="0" y="88" width="52" height="46">
<path d="M0.0721436 88.7991H51.0304V133.188H0.0721436V88.7991Z" fill="white"/>
</mask>
<g mask="url(#mask0)">
<path fill-rule="evenodd" clip-rule="evenodd" d="M38.2739 88.7991L51.0312 110.993L38.2739 133.188H12.7587L0.000793457 110.993L12.7587 88.7991H38.2739Z" fill="#F7931D"/>
</g>
<path fill-rule="evenodd" clip-rule="evenodd" d="M92.5996 48.9705L108.103 75.9403L92.5996 102.913H61.5932L46.0879 75.9403L61.5932 48.9705H92.5996Z" fill="#8CC63F"/>
<path fill-rule="evenodd" clip-rule="evenodd" d="M92.016 118.836L107.519 145.806L92.016 172.778H61.0101L45.5048 145.806L61.0101 118.836H92.016Z" fill="#FDB912"/>
<path fill-rule="evenodd" clip-rule="evenodd" d="M161.836 0L182.27 35.5497L161.836 71.0988H120.966L100.532 35.5497L120.966 0H161.836Z" fill="#25BDBE"/>
</svg>
