<?xml version="1.0" encoding="UTF-8" standalone="no"?>
<!DOCTYPE svg PUBLIC "-//W3C//DTD SVG 1.1//EN" "http://www.w3.org/Graphics/SVG/1.1/DTD/svg11.dtd">
<svg width="100%" height="100%" viewBox="0 0 381 122" version="1.1" xmlns="http://www.w3.org/2000/svg" xmlns:xlink="http://www.w3.org/1999/xlink" xml:space="preserve" xmlns:serif="http://www.serif.com/" style="fill-rule:evenodd;clip-rule:evenodd;stroke-linejoin:round;stroke-miterlimit:2;">
    <g transform="matrix(1,0,0,1,-0.00195315,0)">
        <path d="M130.911,72.061C129.376,60.879 127.058,49.569 125.403,42.055C123.416,33.094 116.312,26.691 107.718,26.128C99.275,25.564 85.323,24.889 66.735,24.889C48.147,24.889 34.18,25.564 25.752,26.128C17.158,26.707 10.054,33.11 8.067,42.055C6.397,49.569 4.094,60.879 2.559,72.061C1.505,79.638 0.662,88.567 0.045,98.623C-0.301,104.222 1.43,109.627 4.937,113.81C8.444,118.01 13.275,120.455 18.528,120.729C30.087,121.308 47.816,122 66.735,122C85.654,122 103.383,121.308 114.942,120.729C120.195,120.471 125.026,118.01 128.533,113.81C132.04,109.627 133.771,104.222 133.425,98.623C132.808,88.567 131.965,79.638 130.926,72.061L130.911,72.061ZM121.685,107.278C119.834,109.499 117.275,110.786 114.506,110.931C103.052,111.51 85.458,112.186 66.72,112.186C47.982,112.186 30.403,111.51 18.934,110.931C16.15,110.786 13.606,109.499 11.755,107.278C9.904,105.074 8.986,102.227 9.166,99.266C9.768,89.468 10.581,80.797 11.589,73.492C13.079,62.649 15.337,51.644 16.947,44.308C17.986,39.578 21.749,36.199 26.279,35.893C34.587,35.346 48.343,34.687 66.705,34.687C85.067,34.687 98.823,35.346 107.131,35.893C111.661,36.199 115.424,39.578 116.463,44.308C118.088,51.644 120.331,62.649 121.821,73.492C122.829,80.797 123.642,89.468 124.244,99.266C124.424,102.227 123.506,105.074 121.655,107.278L121.685,107.278ZM241.955,86.042L241.955,70.018L249.646,70.018L249.646,60.155L241.955,60.155L241.955,47.413L232.729,47.413L232.729,54.814C232.729,58.096 230.803,60.155 228.5,60.155L225.038,60.155L225.038,70.018L231.57,70.018L231.57,86.46C231.57,95.92 235.799,100.441 243.49,100.441C247.328,100.441 250.414,99.202 250.414,99.202L250.414,89.742C250.414,89.742 248.878,90.563 246.576,90.563C243.882,90.563 241.955,88.503 241.955,86.042ZM318.864,71.24C318.864,69.599 320.399,67.958 323.484,67.958C327.337,67.958 329.64,71.24 329.64,71.24L335.028,64.66C335.028,64.66 330.799,58.498 321.949,58.498C313.099,58.498 307.335,65.078 307.335,71.24C307.335,84.562 324.643,81.521 324.643,87.683C324.643,89.742 323.108,91.383 319.646,91.383C314.65,91.383 311.564,86.862 311.564,86.862L305.8,93.024C305.8,93.024 310.42,100.425 321.182,100.425C330.799,100.425 336.187,94.665 336.187,87.683C336.187,74.12 318.879,77 318.879,71.24L318.864,71.24ZM380,78.641C380,67.138 371.918,58.498 361.156,58.498C350.395,58.498 341.545,67.958 341.545,79.462C341.545,90.965 350.395,100.425 361.548,100.425C371.933,100.425 377.697,93.443 377.697,93.443L372.309,86.042C372.309,86.042 368.847,90.981 362.315,90.981C356.551,90.981 353.089,87.281 352.322,83.178L379.624,83.178C379.624,83.178 380.015,81.537 380.015,78.657L380,78.641ZM181.195,58.498C173.881,58.498 170.043,64.258 170.043,64.258L170.043,42.056L159.658,42.056L159.658,99.605L170.043,99.605L170.043,94.665C170.043,94.665 173.881,100.425 181.195,100.425C190.813,100.425 199.271,91.383 199.271,79.462C199.271,67.54 190.813,58.498 181.195,58.498ZM269.633,64.258L269.633,59.319L259.248,59.319L259.248,99.605L269.633,99.605L269.633,80.283C269.633,73.3 273.095,69.6 278.483,69.6C280.786,69.6 281.945,70.018 281.945,70.018L281.945,58.917L280.409,58.917C273.486,58.917 269.648,64.258 269.648,64.258L269.633,64.258ZM217.723,59.318L207.338,59.318L207.338,99.604L217.723,99.604L217.723,59.318ZM298.47,59.318L288.085,59.318L288.085,99.604L298.47,99.604L298.47,59.318ZM66.735,99.106C74.938,99.106 81.575,92.01 81.575,83.242L51.895,83.242C51.895,92.01 58.532,99.106 66.735,99.106ZM179.269,90.563C174.272,90.563 170.043,86.042 170.043,79.462C170.043,72.882 174.272,68.361 179.269,68.361C184.266,68.361 188.495,72.882 188.495,79.462C188.495,86.042 184.266,90.563 179.269,90.563ZM352.307,75.359C353.466,71.256 356.536,67.958 361.156,67.958C365.777,67.958 368.847,71.24 369.615,75.359L352.307,75.359ZM33.563,63.647C28.506,63.647 24.397,68.039 24.397,73.445L42.729,73.445C42.729,68.039 38.62,63.647 33.563,63.647ZM99.967,63.647C94.91,63.647 90.801,68.039 90.801,73.445L109.133,73.445C109.133,68.039 105.024,63.647 99.967,63.647ZM293.097,41.653C289.636,41.653 287.333,44.115 287.333,47.815C287.333,51.516 289.636,53.977 293.097,53.977C296.935,53.977 299.253,51.516 299.253,47.815C299.253,44.115 296.95,41.653 293.097,41.653ZM212.335,41.653C208.874,41.653 206.571,44.115 206.571,47.815C206.571,51.516 208.874,53.977 212.335,53.977C216.173,53.977 218.491,51.516 218.491,47.815C218.491,44.115 216.188,41.653 212.335,41.653ZM66.735,14.657C70.528,14.657 73.598,11.375 73.598,7.336C73.598,3.298 70.528,0 66.735,0C62.942,0 59.872,3.282 59.872,7.336C59.872,11.391 62.942,14.657 66.735,14.657Z" style="fill:#6A3C98;fill-rule:nonzero;"/>
    </g>
</svg>
