<?xml version="1.0" encoding="UTF-8" standalone="no"?>
<!DOCTYPE svg PUBLIC "-//W3C//DTD SVG 1.1//EN" "http://www.w3.org/Graphics/SVG/1.1/DTD/svg11.dtd">
<svg width="100%" height="100%" viewBox="0 0 161 138" version="1.1" xmlns="http://www.w3.org/2000/svg" xmlns:xlink="http://www.w3.org/1999/xlink" xml:space="preserve" xmlns:serif="http://www.serif.com/" style="fill-rule:evenodd;clip-rule:evenodd;stroke-linejoin:round;stroke-miterlimit:2;">
    <g transform="matrix(1,0,0,1,-0.760742,-0.483398)">
        <path d="M158.2,81.557C156.354,68.977 153.566,56.252 151.575,47.799C149.186,37.717 140.642,30.513 130.306,29.879C120.152,29.246 103.372,28.485 81.018,28.485C58.663,28.485 41.866,29.246 31.729,29.879C21.394,30.531 12.85,37.735 10.461,47.799C8.452,56.252 5.682,68.977 3.836,81.557C2.569,90.083 1.555,100.128 0.813,111.442C0.397,117.741 2.478,123.822 6.696,128.529C10.913,133.253 16.724,136.004 23.041,136.312C36.942,136.964 58.265,137.742 81.018,137.742C103.771,137.742 125.093,136.964 138.995,136.312C145.312,136.022 151.122,133.253 155.34,128.529C159.557,123.822 161.639,117.741 161.223,111.442C160.481,100.128 159.467,90.083 158.218,81.557L158.2,81.557ZM147.104,121.18C144.878,123.678 141.8,125.126 138.47,125.289C124.695,125.94 103.535,126.701 81,126.701C58.464,126.701 37.322,125.94 23.53,125.289C20.181,125.126 17.122,123.678 14.895,121.18C12.669,118.7 11.565,115.496 11.782,112.166C12.506,101.142 13.484,91.386 14.696,83.168C16.488,70.968 19.203,58.587 21.14,50.333C22.389,45.011 26.914,41.21 32.363,40.866C42.354,40.251 58.899,39.509 80.982,39.509C103.065,39.509 119.609,40.251 129.6,40.866C135.049,41.21 139.574,45.011 140.823,50.333C142.778,58.587 145.475,70.968 147.267,83.168C148.48,91.386 149.457,101.142 150.181,112.166C150.398,115.496 149.294,118.7 147.068,121.18L147.104,121.18ZM81.017,111.985C90.882,111.985 98.865,104.002 98.865,94.137L63.17,94.137C63.17,104.002 71.152,111.985 81.017,111.985ZM41.123,72.09C35.041,72.09 30.1,77.031 30.1,83.113L52.146,83.113C52.146,77.031 47.205,72.09 41.123,72.09ZM120.984,72.09C114.902,72.09 109.961,77.031 109.961,83.113L132.008,83.113C132.008,77.031 127.066,72.09 120.984,72.09ZM81.018,16.973C85.579,16.973 89.272,13.281 89.272,8.737C89.272,4.194 85.579,0.483 81.018,0.483C76.456,0.483 72.764,4.176 72.764,8.737C72.764,13.299 76.456,16.973 81.018,16.973Z" style="fill:white;fill-rule:nonzero;"/>
    </g>
</svg>
