<svg width="256" height="256" viewBox="0 0 256 256" fill="none" xmlns="http://www.w3.org/2000/svg">
<rect width="256" height="256" fill="#1957DB"/>
<path d="M132.594 133.636V85.3754C132.594 84.9474 132.506 84.524 132.338 84.1305C132.17 83.737 131.924 83.3815 131.615 83.0852C131.306 82.7889 130.941 82.5581 130.541 82.4064C130.14 82.2546 129.714 82.1852 129.286 82.2022C81.3001 83.8901 42.7073 122.496 41.0025 170.482C40.9855 170.909 41.0548 171.336 41.2065 171.736C41.3582 172.136 41.5891 172.502 41.8854 172.811C42.1817 173.119 42.5373 173.365 42.9308 173.534C43.3243 173.702 43.7477 173.789 44.1757 173.79H210.578C211.751 173.79 212.875 173.324 213.705 172.495C214.534 171.665 215 170.54 215 169.368V85.3965C215.001 84.9719 214.916 84.5514 214.751 84.16C214.587 83.7687 214.345 83.4144 214.041 83.1181C213.737 82.8218 213.376 82.5895 212.981 82.4351C212.585 82.2807 212.163 82.2073 211.738 82.2191C195.124 82.8066 178.982 87.9016 165.04 96.9587C151.099 106.016 139.884 118.694 132.594 133.636Z" fill="white"/>
</svg>
