<svg xmlns="http://www.w3.org/2000/svg" xmlns:xlink="http://www.w3.org/1999/xlink" viewBox="0 0 452 150"><defs><style>.cls-1{fill:#253858;}.cls-2{fill:url(#linear-gradient);}.cls-3{fill:#2684ff;}</style><linearGradient id="linear-gradient" x1="55.27" y1="53.47" x2="26.67" y2="82.07" gradientUnits="userSpaceOnUse"><stop offset="0.2" stop-color="#0052cc"/><stop offset="1" stop-color="#2684ff"/></linearGradient></defs><g id="Logos"><path class="cls-1" d="M141,99.77c-3.6,2.38-9.32,3.43-15.31,3.43C106.7,103.2,96,91.76,96,73.55,96,56,106.7,43.63,125.53,43.63c5.63,0,11.26,1,15.4,4v7.65c-4.14-2.64-8.71-4-15.4-4-13.55,0-21.65,9-21.65,22.27S112.24,95.64,126,95.64a32.33,32.33,0,0,0,15-3.53Z"/><path class="cls-1" d="M148.32,80.24c0-13.2,7.74-22.8,20.94-22.8S190,67,190,80.24s-7.66,23-20.77,23S148.32,93.43,148.32,80.24Zm7.39,0c0,8.36,4.14,15.92,13.55,15.92s13.38-7.56,13.38-15.92-4-15.76-13.38-15.76S155.71,71.88,155.71,80.24Z"/><path class="cls-1" d="M236.23,102.32h-7.57V75.75c0-7.92-3.17-11.44-10.38-11.44-7,0-11.88,4.66-11.88,13.55v24.46h-7.57v-44h7.57v7.22a15.43,15.43,0,0,1,13.9-8.1c7.48,0,12.59,3.79,14.79,10.74,2.46-6.78,8.36-10.74,15.66-10.74,9.85,0,15.31,6.69,15.31,19.1v25.78h-7.57V77.86c0-9.06-3.17-13.55-10.38-13.55-7,0-11.88,4.66-11.88,13.55Z"/><path class="cls-1" d="M286,94.58v24.9h-7.57V58.32H286v7.92c2.81-5.8,8.1-8.8,14.87-8.8,11.7,0,17.6,10,17.6,22.88,0,12.41-6.16,22.88-18.48,22.88C293.52,103.2,288.59,100.3,286,94.58Zm12.85-30.1C292,64.48,286,68.8,286,78.56v3.52c0,9.77,5.54,14.08,12,14.08,8.53,0,12.93-5.63,12.93-15.84C310.85,69.76,306.63,64.48,298.8,64.48Z"/><path class="cls-1" d="M357.05,94.4c-2.81,5.81-8.09,8.8-14.87,8.8-11.7,0-17.6-9.94-17.6-22.88,0-12.4,6.16-22.88,18.48-22.88,6.42,0,11.35,2.91,14,8.63V58.32h7.57v44h-7.57ZM344.2,96.16c6.78,0,12.85-4.31,12.85-14.08V78.56c0-9.76-5.54-14.08-12-14.08-8.53,0-12.93,5.64-12.93,15.84C332.15,90.88,336.37,96.16,344.2,96.16Z"/><path class="cls-1" d="M389.88,103.2A34,34,0,0,1,374.56,100v-8a34.42,34.42,0,0,0,15.67,4.31c5.81,0,8.8-2.38,8.8-5.81s-2.56-5.28-10.91-7.3c-9.77-2.38-13.91-6.16-13.91-13.38,0-7.65,5.9-12.32,15.93-12.32a31.27,31.27,0,0,1,14.17,3.17v7.83c-5.28-2.64-9.59-4-14.26-4-5.54,0-8.53,1.93-8.53,5.36,0,3.08,2.11,5,10.2,7,9.77,2.37,14.7,6,14.7,13.63C406.42,97.66,401.67,103.2,389.88,103.2Z"/><path class="cls-1" d="M429,103.2A33.89,33.89,0,0,1,413.64,100v-8a34.37,34.37,0,0,0,15.66,4.31c5.81,0,8.8-2.38,8.8-5.81s-2.55-5.28-10.91-7.3c-9.77-2.38-13.91-6.16-13.91-13.38,0-7.65,5.9-12.32,15.93-12.32a31.27,31.27,0,0,1,14.17,3.17v7.83c-5.28-2.64-9.59-4-14.26-4-5.54,0-8.53,1.93-8.53,5.36,0,3.08,2.11,5,10.21,7,9.76,2.37,14.69,6,14.69,13.63C445.49,97.66,440.74,103.2,429,103.2Z"/><path class="cls-2" d="M41.29,67.33V84.24H24.62V67.33H41.29V50.43H10.88a2.94,2.94,0,0,0-2.92,3v44.8a2.94,2.94,0,0,0,2.92,3H55a2.94,2.94,0,0,0,2.92-3V67.33Z"/><path class="cls-3" d="M41.29,33.52V50.43H58v16.9H74.62V36.48a2.94,2.94,0,0,0-2.92-3Z"/></g></svg>