<svg version="1.1" id="Layer_1" xmlns="http://www.w3.org/2000/svg" xmlns:xlink="http://www.w3.org/1999/xlink" x="0px" y="0px"
	 width="100%" viewBox="0 0 2031 512" enable-background="new 0 0 2031 512" xml:space="preserve">
<path fill="#000000" opacity="1.000000" stroke="none"
	d="
M1349.000000,513.000000
	C899.333313,513.000000 450.166656,513.000000 1.000000,513.000000
	C1.000000,342.333344 1.000000,171.666672 1.000000,1.000000
	C678.000000,1.000000 1355.000000,1.000000 2032.000000,1.000000
	C2032.000000,171.666672 2032.000000,342.333344 2032.000000,513.000000
	C1804.500000,513.000000 1577.000000,513.000000 1349.000000,513.000000
M227.962845,363.262787
	C227.920700,362.514191 227.878571,361.765594 227.988876,360.100739
	C227.936768,356.075378 227.884674,352.050018 227.980148,347.142578
	C227.931641,344.763458 227.883148,342.384338 227.977280,339.126740
	C227.928131,336.753693 227.878983,334.380646 227.972000,331.173859
	C228.004425,329.486084 228.036850,327.798279 228.985779,326.016144
	C233.323486,325.955048 237.661194,325.893951 242.926682,325.975861
	C251.617340,325.928131 260.308014,325.880371 269.926483,325.975555
	C286.284485,325.927917 302.642487,325.880310 319.919891,325.973175
	C327.961578,325.019073 336.003265,324.064941 344.881897,323.014954
	C351.624634,321.025482 358.367401,319.036011 365.876648,317.004608
	C371.621185,314.354340 377.365692,311.704071 383.825592,308.994263
	C390.564026,304.368134 397.302490,299.742004 404.661682,294.835175
	C411.187683,288.809113 418.604340,283.610016 423.053772,275.799133
	C417.408905,270.766144 412.149872,266.087616 406.902557,261.395966
	C400.417603,255.597687 393.994507,249.727722 387.391296,244.067673
	C386.640869,243.424423 384.397278,243.372421 383.702454,243.997787
	C378.332947,248.830551 373.174438,253.897705 367.232758,258.991486
	C360.155609,262.716248 353.078461,266.441010 345.230194,270.036957
	C338.153778,271.746582 331.077332,273.456207 323.073151,275.023041
	C314.715881,275.070923 306.358612,275.118774 297.073547,275.023529
	C288.715912,275.071136 280.358307,275.118774 271.072906,275.023773
	C256.743927,274.982330 242.414948,274.940857 228.014496,274.080383
	C227.950150,272.710480 227.885803,271.340576 227.944016,269.059540
	C227.911865,265.369049 227.879730,261.678589 227.970398,257.106598
	C227.928558,254.734268 227.886719,252.361923 227.972122,249.161865
	C227.924759,247.770386 227.877396,246.378891 227.963470,244.096436
	C227.919693,241.395462 227.875916,238.694489 227.968857,235.251053
	C227.922180,234.500702 227.875519,233.750366 227.971497,232.077179
	C227.925491,227.384888 227.879486,222.692581 227.974411,217.080093
	C227.927109,212.719910 227.879807,208.359726 227.973343,203.072998
	C227.926300,197.381470 227.879257,191.689941 227.973831,185.088226
	C228.686874,178.409561 229.399918,171.730896 230.776520,164.657486
	C234.054153,156.687027 237.331772,148.716583 240.955154,140.133530
	C246.319992,133.796295 251.684814,127.459061 257.667480,120.834465
	C264.230042,116.186325 270.792603,111.538185 278.159485,106.927238
	C286.119812,104.325737 294.080139,101.724243 302.930725,99.015221
	C305.072327,98.964447 307.217834,98.805168 309.354797,98.882484
	C316.905792,99.155693 324.453918,99.509888 332.822540,99.975182
	C337.011627,101.034439 341.178650,102.199516 345.404633,103.082047
	C346.527252,103.316498 348.432617,103.108658 348.950043,102.376732
	C351.527435,98.731194 353.761658,94.843063 356.735168,90.726913
	C363.155365,80.674095 369.575531,70.621284 376.042206,60.495686
	C355.687653,51.254017 334.924500,46.449551 312.112091,47.020561
	C303.057220,48.305786 294.002319,49.591011 284.127686,50.980358
	C277.069519,53.282562 270.011353,55.584766 262.201172,57.997547
	C254.835678,61.883930 247.470169,65.770317 239.557053,69.986595
	C233.688812,74.621727 227.820557,79.256866 221.334320,84.162392
	C215.539886,90.739227 209.745468,97.316055 203.326248,104.211884
	C199.006149,111.566124 194.686066,118.920364 190.030701,126.918373
	C187.646835,133.266937 185.262970,139.615494 182.217255,146.365356
	C181.439743,150.229706 180.662231,154.094040 179.201279,158.394821
	C178.522797,162.811234 177.844299,167.227646 177.023865,172.490524
	C177.071671,177.993683 177.119476,183.496826 177.024933,189.927704
	C177.072296,205.283173 177.119644,220.638641 177.022461,236.900986
	C177.072876,240.263016 177.123306,243.625061 177.026443,247.878250
	C177.077148,250.581070 177.127853,253.283905 177.030945,256.811310
	C177.075165,258.204315 177.119400,259.597321 177.021439,261.881134
	C177.073044,264.581635 177.124649,267.282135 177.033295,270.795380
	C177.008041,272.171051 176.982803,273.546753 176.216385,274.988525
	C175.477081,275.048309 174.737778,275.108093 173.070770,275.026703
	C163.713501,275.073730 154.356232,275.120728 144.071396,275.026520
	C135.713791,275.406403 127.356194,275.786255 118.182396,276.027527
	C109.828476,278.558441 101.474556,281.089355 92.506218,283.942841
	C85.989281,287.924500 79.472336,291.906128 72.259956,295.996979
	C67.491295,300.627747 62.722641,305.258514 57.330086,310.207245
	C54.537109,314.769073 51.744137,319.330872 48.303375,324.192200
	C45.591103,330.462433 42.878834,336.732666 40.005524,343.793457
	C38.964645,349.515625 37.923767,355.237823 36.164314,361.439423
	C36.165363,366.293213 36.166416,371.146973 36.023891,376.856873
	C36.976398,382.250946 37.928909,387.645020 38.985401,393.847382
	C42.044899,409.221313 49.415478,422.438660 59.644669,434.074951
	C69.607430,445.408081 81.473976,454.319244 95.608566,459.831757
	C104.066826,463.130554 112.618042,466.415192 122.760651,466.234100
	C128.877701,466.173767 134.994736,466.113464 141.978302,466.008087
	C146.318497,465.283203 150.658691,464.558319 155.780701,463.962158
	C160.519684,462.252350 165.258682,460.542511 170.705154,458.765656
	C175.473602,456.122314 180.242035,453.478973 185.607971,450.848602
	C185.834747,450.519470 186.061523,450.190338 186.723221,449.756836
	C186.723221,449.756836 186.894562,449.343689 187.438065,449.015625
	C191.641357,445.379333 195.844650,441.743042 200.671890,437.832703
	C205.403320,431.359131 210.134735,424.885559 215.411072,418.028534
	C218.218277,411.019440 221.025482,404.010376 224.196808,396.288269
	C225.407471,387.193451 226.618118,378.098633 227.971893,368.178009
	C227.921219,366.785828 227.870529,365.393677 227.962845,363.262787
M1380.778809,276.642578
	C1384.372192,261.296692 1390.474487,247.267181 1402.780273,235.999130
	C1404.783691,234.993637 1406.743164,233.886276 1408.797974,232.999954
	C1418.715210,228.722031 1428.906738,229.318726 1439.107300,231.622681
	C1441.761719,232.222214 1442.610962,231.508636 1443.041382,228.928619
	C1445.518311,214.082611 1448.143555,199.261368 1450.716187,184.445709
	C1425.672974,175.840652 1394.699951,180.558487 1377.200806,223.588135
	C1376.388794,216.868149 1375.611450,210.434143 1374.974731,203.157593
	C1374.649780,200.413010 1374.175903,197.676437 1374.027466,194.922348
	C1373.553467,186.126633 1373.465454,185.996445 1364.577759,185.996643
	C1361.246582,185.996719 1357.915405,185.996780 1354.584229,185.996780
	C1346.152832,185.996811 1337.721558,185.996796 1329.165894,185.996796
	C1329.165894,191.399948 1329.165894,196.199921 1329.022705,201.927505
	C1329.070679,210.284103 1329.118652,218.640717 1329.021729,227.925140
	C1329.070190,241.616226 1329.118530,255.307297 1329.021851,269.925964
	C1329.070190,288.283203 1329.118530,306.640472 1329.022461,325.925446
	C1329.022461,347.169891 1329.022461,368.414307 1329.022461,389.672363
	C1345.967285,389.672363 1362.343140,389.672363 1378.833496,389.672363
	C1378.833496,369.898071 1378.833496,350.447906 1378.972656,330.069916
	C1379.354492,312.393341 1379.736328,294.716797 1380.778809,276.642578
M1861.973267,353.069611
	C1861.926636,335.378754 1861.880127,317.687866 1861.972778,299.069183
	C1861.982178,285.340149 1861.828613,271.607910 1862.097290,257.883972
	C1862.181274,253.594482 1863.404663,249.327301 1864.736694,244.768188
	C1865.137329,244.253372 1865.572998,243.761780 1865.933594,243.220306
	C1873.364868,232.058777 1880.694946,220.946686 1895.624756,218.647614
	C1904.130859,217.337738 1914.100098,220.851852 1917.724365,228.204422
	C1921.776855,236.425842 1922.075195,245.162674 1922.020020,254.924423
	C1922.068848,274.281982 1922.117676,293.639557 1922.020508,313.924683
	C1922.020508,339.168762 1922.020508,364.412842 1922.020508,389.671936
	C1938.966553,389.671936 1955.344971,389.671936 1971.833130,389.671936
	C1971.833130,366.564636 1971.833130,343.780975 1971.972046,320.069397
	C1971.925903,300.045197 1971.879883,280.020966 1971.974121,259.069183
	C1971.982666,251.086716 1972.370972,243.079987 1971.863037,235.130508
	C1971.537842,230.042786 1969.889282,225.039642 1968.974243,219.222015
	C1965.242188,205.861298 1957.729736,195.365585 1945.871704,187.929474
	C1936.933960,182.324692 1927.236328,180.996109 1916.903809,180.883133
	C1895.637573,180.650620 1878.821289,189.432343 1864.320801,205.170731
	C1861.991577,208.011047 1859.662354,210.851364 1857.205444,213.847305
	C1856.064941,211.529587 1854.950317,209.264175 1853.777710,206.313507
	C1848.328003,197.946487 1841.584961,190.889587 1832.626831,186.285492
	C1819.272583,179.421951 1805.113159,179.581833 1790.951294,182.607040
	C1780.704224,184.796005 1771.306274,189.158676 1763.189819,197.002579
	C1758.193604,201.377670 1753.197388,205.752777 1748.918213,209.499954
	C1748.128174,204.179489 1746.832031,197.045197 1746.110962,189.853256
	C1745.799316,186.744019 1744.650879,185.925232 1741.802490,185.958649
	C1732.837769,186.063828 1723.871216,185.997513 1714.905273,185.997559
	C1710.665283,185.997574 1706.425415,185.997559 1702.166748,185.997559
	C1702.166748,199.797287 1702.166748,212.897003 1702.020630,226.924408
	C1702.069336,245.948318 1702.118164,264.972229 1702.020996,284.923920
	C1702.069580,304.281677 1702.118286,323.639435 1702.022339,343.924988
	C1702.022339,359.172852 1702.022339,374.420746 1702.022339,389.677612
	C1718.970215,389.677612 1735.343994,389.677612 1751.834351,389.677612
	C1751.834351,375.904114 1751.834351,362.450592 1751.973999,348.069397
	C1751.927368,328.711273 1751.880859,309.353180 1751.973511,289.067535
	C1751.982666,276.807037 1751.973267,264.546478 1752.026245,252.286179
	C1752.032471,250.853134 1751.965942,249.169815 1752.649658,248.033875
	C1755.311890,243.611725 1758.262573,239.363312 1761.730469,234.773926
	C1764.106079,232.060669 1766.175415,228.978745 1768.914917,226.703445
	C1777.013306,219.976929 1786.388184,216.264175 1796.845215,219.189056
	C1805.865479,221.712097 1809.347778,229.462006 1811.054199,238.843369
	C1811.368896,240.756973 1811.941406,242.668411 1811.957397,244.584503
	C1812.086426,260.055298 1812.110840,275.527008 1812.020996,291.925812
	C1812.069946,310.616302 1812.118896,329.306793 1812.022949,348.925079
	C1812.022949,362.507202 1812.022949,376.089294 1812.022949,389.679016
	C1828.970215,389.679016 1845.342651,389.679016 1861.833130,389.679016
	C1861.833130,377.572662 1861.833130,365.784973 1861.973267,353.069611
M811.021545,234.925537
	C811.070068,255.616348 811.118530,276.307159 811.022461,297.925690
	C811.015015,310.242126 810.791321,322.563782 811.090942,334.872742
	C811.241577,341.061890 811.835754,347.334625 813.108154,353.384735
	C817.255859,373.106842 828.092163,387.346710 847.950439,393.428650
	C858.806641,396.753540 869.875610,396.512268 881.109009,395.174683
	C893.129150,393.743408 903.857483,389.425934 913.012695,381.854279
	C919.136902,376.789398 924.247559,370.498901 930.252747,364.301697
	C930.844360,370.879333 931.723694,377.305145 931.897644,383.750000
	C932.016724,388.158722 932.923279,390.492554 938.027100,390.098236
	C943.652527,389.663635 949.337341,389.998627 954.996277,389.998535
	C961.915833,389.998413 968.835449,389.998535 975.833801,389.998535
	C975.833801,364.549225 975.833801,339.773193 975.971924,314.069214
	C975.925842,290.712250 975.879822,267.355286 975.973206,243.070312
	C975.973206,224.151062 975.973206,205.231812 975.973206,186.312592
	C959.042297,186.312592 942.658691,186.312592 926.166809,186.312592
	C926.166809,204.084244 926.166809,221.541260 926.022034,239.925888
	C926.070435,263.282867 926.118835,286.639832 926.022278,310.924377
	C926.014343,314.254272 925.681946,317.622253 926.067261,320.905975
	C926.821472,327.332794 925.190247,332.841980 920.791992,337.554718
	C919.658508,338.769318 918.411804,339.893494 917.390686,341.195374
	C908.311829,352.770599 896.641602,359.018951 881.744141,357.927368
	C873.214966,357.302460 866.390259,353.288757 863.535461,344.854248
	C861.991394,340.292297 861.322327,335.293610 861.103821,330.453766
	C860.691406,321.316223 860.889709,312.151154 860.972778,302.069611
	C860.926697,281.379028 860.880615,260.688446 860.973938,239.069946
	C860.973938,221.485733 860.973938,203.901505 860.973938,186.313385
	C844.034912,186.313385 827.653870,186.313385 811.166382,186.313385
	C811.166382,202.418289 811.166382,218.208069 811.021545,234.925537
M1082.973022,170.069122
	C1082.973022,146.799622 1082.973022,123.530106 1082.973022,99.534157
	C1065.969482,101.421669 1049.607422,103.237984 1033.166992,105.062981
	C1033.166992,126.052315 1033.166992,146.524506 1033.020386,167.924271
	C1033.069214,190.282150 1033.117920,212.640045 1033.021118,235.925476
	C1033.069824,260.949707 1033.118530,285.973938 1033.022217,311.925751
	C1033.348877,327.486389 1032.577026,343.169739 1034.297974,358.574615
	C1036.180542,375.427612 1046.394287,387.076294 1062.531860,392.969421
	C1074.621338,397.384308 1087.094727,396.785339 1099.442749,394.653076
	C1105.186890,393.661102 1110.676514,391.194672 1116.338989,389.378174
	C1112.532959,376.803558 1109.077271,365.386322 1105.615845,353.950287
	C1102.818115,354.515045 1100.421509,354.900726 1098.075928,355.489960
	C1089.396973,357.670288 1083.076660,352.863129 1083.004761,343.933075
	C1082.929810,334.621582 1082.888550,325.309845 1082.970825,315.070007
	C1082.924927,290.045898 1082.879028,265.021790 1082.972046,239.069717
	C1082.925903,216.378784 1082.879883,193.687836 1082.973022,170.069122
M1643.971558,263.068481
	C1643.982544,239.084061 1643.919434,215.099167 1644.079590,191.115738
	C1644.105469,187.246872 1643.089722,185.826691 1639.023804,185.907898
	C1627.036377,186.147308 1615.041016,185.992599 1603.048828,185.992188
	C1600.113647,185.992081 1597.178589,185.992172 1594.166138,185.992172
	C1594.166138,211.749023 1594.166138,236.872620 1594.019287,262.923828
	C1594.013550,282.013550 1593.661377,301.112732 1594.181763,320.188080
	C1594.375488,327.291901 1592.290894,332.851379 1587.270996,338.258423
	C1579.786255,348.852234 1569.999878,356.220245 1556.953125,357.851990
	C1548.886353,358.860901 1540.163696,358.496460 1534.983765,351.097717
	C1531.787964,346.533112 1530.807861,340.417389 1528.972778,334.070099
	C1528.926147,311.711761 1528.879517,289.353424 1528.971680,266.067474
	C1528.983154,241.083420 1528.923828,216.098938 1529.080811,191.115799
	C1529.104980,187.253067 1528.101562,185.821335 1524.029785,185.903305
	C1512.042236,186.144623 1500.046753,185.991043 1488.054443,185.991943
	C1485.118896,185.992172 1482.183350,185.991974 1479.166748,185.991974
	C1479.166748,212.415146 1479.166748,238.204865 1479.020142,264.922577
	C1479.068970,286.947693 1479.117676,308.972778 1479.022095,331.924011
	C1479.685425,339.756226 1479.520264,347.769257 1481.181763,355.383636
	C1484.819458,372.054108 1493.943237,385.083496 1510.259888,391.548462
	C1525.980957,397.777374 1542.232178,397.728638 1558.429443,393.163239
	C1569.797852,389.958923 1579.708740,384.087433 1587.866455,375.534576
	C1591.388550,371.841705 1594.381470,367.644165 1597.670288,363.607727
	C1598.562988,372.492218 1599.427368,381.093445 1600.289551,389.673828
	C1614.970947,389.673828 1629.347046,389.673828 1643.832520,389.673828
	C1643.832520,374.565216 1643.832520,359.781097 1643.971558,344.069153
	C1643.925537,317.378235 1643.879395,290.687286 1643.971558,263.068481
M640.021423,156.924561
	C640.070068,176.949173 640.118713,196.973770 640.022461,217.925980
	C640.070923,236.283096 640.119446,254.640198 640.023499,273.925140
	C640.023499,312.501282 640.023499,351.077454 640.023499,389.672852
	C657.631592,389.672852 674.679993,389.672852 691.833923,389.672852
	C691.833923,353.228363 691.833923,317.112732 692.325806,280.259033
	C700.733826,279.839508 709.141418,279.096405 717.550049,279.083252
	C727.798340,279.067200 738.045654,279.769745 748.297119,279.964447
	C756.729797,280.124603 765.167969,279.997131 773.706909,279.997131
	C773.706909,266.757965 773.706909,254.045074 773.706909,240.858353
	C746.379211,240.858353 719.341919,240.858353 691.834045,240.858353
	C691.834045,233.922684 691.834045,227.460129 691.973328,220.069656
	C691.927002,201.711945 691.880737,183.354233 692.018188,164.139847
	C693.639709,163.758987 695.260437,163.049667 696.882812,163.045990
	C726.364624,162.979187 755.846741,162.997253 786.062012,162.997253
	C787.875061,150.087173 789.670410,137.303070 791.496765,124.298386
	C740.431946,124.298386 690.376160,124.298386 640.166504,124.298386
	C640.166504,135.064011 640.166504,145.530334 640.021423,156.924561
M1192.683594,246.767593
	C1196.409058,241.062088 1199.154419,234.262573 1204.056763,229.870880
	C1215.476807,219.640442 1229.570679,218.542831 1244.098633,221.574158
	C1254.568359,223.758682 1263.843628,228.605133 1272.399658,235.283646
	C1280.052612,224.889587 1287.516357,214.752396 1295.814209,203.482483
	C1285.194336,197.737183 1275.532959,191.734985 1265.245728,187.130966
	C1250.670532,180.607925 1234.922363,180.457016 1219.260498,181.029205
	C1207.063110,181.474808 1195.452026,184.861694 1184.668213,190.250229
	C1172.482910,196.339081 1162.048218,205.107132 1154.383179,216.393570
	C1149.416382,223.706772 1145.994751,232.069397 1141.228516,240.336945
	C1141.146606,240.825745 1141.150024,241.348557 1140.970581,241.798462
	C1133.211182,261.255371 1132.392944,281.637787 1133.076538,302.181885
	C1133.197510,305.817200 1134.257324,309.421234 1134.979980,313.900391
	C1136.983521,322.068054 1138.397461,330.437439 1141.109619,338.362579
	C1147.332764,356.546906 1158.440063,371.551208 1174.699707,381.739349
	C1198.949097,396.933899 1225.618408,399.255188 1253.154541,393.344696
	C1268.665161,390.015350 1282.390381,382.748108 1294.925049,372.447266
	C1287.527344,361.913696 1280.099854,351.337524 1272.549683,340.586761
	C1270.847900,341.616516 1269.634521,342.405731 1268.371826,343.106445
	C1256.173340,349.876465 1243.942749,355.390411 1229.212402,355.265350
	C1207.493042,355.080902 1191.927856,339.010040 1188.703491,317.217010
	C1188.101807,312.727661 1187.013550,308.240692 1186.991943,303.748535
	C1186.932983,291.472321 1186.860107,279.161255 1187.721069,266.929382
	C1188.190918,260.253143 1190.545166,253.709518 1192.683594,246.767593
M405.368073,58.118286
	C404.904572,58.467201 404.295990,58.721733 403.998627,59.178734
	C394.934052,73.107986 385.900116,87.057144 376.768524,101.146507
	C388.102142,107.230659 398.054657,114.367912 405.988922,124.342232
	C420.996521,143.208603 428.339600,164.122787 426.140594,188.464828
	C424.796936,203.338394 420.227570,216.833359 412.137146,229.180252
	C410.433594,231.780060 410.296356,233.172409 412.649048,235.209824
	C423.728760,244.805084 434.709106,254.515244 445.706818,264.204956
	C447.722870,265.981201 449.336090,265.860168 450.818756,263.527893
	C452.653229,260.642273 454.677765,257.876251 456.479431,254.971283
	C469.583435,233.842468 477.084991,210.755234 477.709381,186.010361
	C478.029175,173.337479 476.462799,160.341446 473.755127,147.926270
	C468.460236,123.647713 456.525360,102.639259 439.234741,84.591667
	C429.344238,74.268158 418.107574,65.881592 405.368073,58.118286
z"/>
<path fill="#3E69FA" opacity="1.000000" stroke="none"
	d="
M860.834106,302.997528
	C860.889709,312.151154 860.691406,321.316223 861.103821,330.453766
	C861.322327,335.293610 861.991394,340.292297 863.535461,344.854248
	C866.390259,353.288757 873.214966,357.302460 881.744141,357.927368
	C896.641602,359.018951 908.311829,352.770599 917.390686,341.195374
	C918.411804,339.893494 919.658508,338.769318 920.791992,337.554718
	C925.190247,332.841980 926.821472,327.332794 926.067261,320.905975
	C925.681946,317.622253 926.014343,314.254272 926.459229,310.380920
	C935.734253,310.356628 944.602234,310.583588 953.401184,311.484222
	C960.919800,312.253754 968.359314,313.796448 975.833801,314.997162
	C975.833801,339.773193 975.833801,364.549225 975.833801,389.998535
	C968.835449,389.998535 961.915833,389.998413 954.996277,389.998535
	C949.337341,389.998627 943.652527,389.663635 938.027100,390.098236
	C932.923279,390.492554 932.016724,388.158722 931.897644,383.750000
	C931.723694,377.305145 930.844360,370.879333 930.252747,364.301697
	C924.247559,370.498901 919.136902,376.789398 913.012695,381.854279
	C903.857483,389.425934 893.129150,393.743408 881.109009,395.174683
	C869.875610,396.512268 858.806641,396.753540 847.950439,393.428650
	C828.092163,387.346710 817.255859,373.106842 813.108154,353.384735
	C811.835754,347.334625 811.241577,341.061890 811.090942,334.872742
	C810.791321,322.563782 811.015015,310.242126 811.487061,297.552155
	C828.245850,299.118256 844.539978,301.057892 860.834106,302.997528
z"/>
<path fill="#E73D3D" opacity="1.000000" stroke="none"
	d="
M405.674469,58.320198
	C418.107574,65.881592 429.344238,74.268158 439.234741,84.591667
	C456.525360,102.639259 468.460236,123.647713 473.755127,147.926270
	C476.462799,160.341446 478.029175,173.337479 477.709381,186.010361
	C477.084991,210.755234 469.583435,233.842468 456.479431,254.971283
	C454.677765,257.876251 452.653229,260.642273 450.818756,263.527893
	C449.336090,265.860168 447.722870,265.981201 445.706818,264.204956
	C434.709106,254.515244 423.728760,244.805084 412.649048,235.209824
	C410.296356,233.172409 410.433594,231.780060 412.137146,229.180252
	C420.227570,216.833359 424.796936,203.338394 426.140594,188.464828
	C428.339600,164.122787 420.996521,143.208603 405.988922,124.342232
	C398.054657,114.367912 388.102142,107.230659 376.768524,101.146507
	C385.900116,87.057144 394.934052,73.107986 403.998627,59.178734
	C404.295990,58.721733 404.904572,58.467201 405.674469,58.320198
z"/>
<path fill="#319CF6" opacity="1.000000" stroke="none"
	d="
M1811.166748,237.996964
	C1809.347778,229.462006 1805.865479,221.712097 1796.845215,219.189056
	C1786.388184,216.264175 1777.013306,219.976929 1768.914917,226.703445
	C1766.175415,228.978745 1764.106079,232.060669 1761.099609,234.724487
	C1752.776855,233.117447 1745.125732,231.303101 1737.382202,230.069672
	C1728.432495,228.644058 1719.405151,227.696915 1710.402832,226.614014
	C1707.672241,226.285538 1704.912964,226.195801 1702.166748,225.996735
	C1702.166748,212.897003 1702.166748,199.797287 1702.166748,185.997559
	C1706.425415,185.997559 1710.665283,185.997574 1714.905273,185.997559
	C1723.871216,185.997513 1732.837769,186.063828 1741.802490,185.958649
	C1744.650879,185.925232 1745.799316,186.744019 1746.110962,189.853256
	C1746.832031,197.045197 1748.128174,204.179489 1748.918213,209.499954
	C1753.197388,205.752777 1758.193604,201.377670 1763.986816,196.989090
	C1773.471313,197.735504 1782.184937,198.275513 1790.839111,199.312164
	C1801.169678,200.549622 1811.428833,202.378113 1821.756470,203.645050
	C1832.426147,204.953934 1843.140625,205.896164 1853.835571,206.998779
	C1854.950317,209.264175 1856.064941,211.529587 1857.205444,213.847305
	C1859.662354,210.851364 1861.991577,208.011047 1864.893433,205.293823
	C1870.743530,206.602463 1875.966064,208.234634 1881.308594,208.889694
	C1897.252441,210.844589 1913.268188,212.215179 1929.207764,214.200043
	C1942.451782,215.849258 1955.627808,218.044968 1968.833862,219.998596
	C1969.889282,225.039642 1971.537842,230.042786 1971.863037,235.130508
	C1972.370972,243.079987 1971.982666,251.086716 1971.520752,259.503510
	C1954.766968,257.957458 1938.466553,255.977081 1922.166138,253.996704
	C1922.075195,245.162674 1921.776855,236.425842 1917.724365,228.204422
	C1914.100098,220.851852 1904.130859,217.337738 1895.624756,218.647614
	C1880.694946,220.946686 1873.364868,232.058777 1865.933594,243.220306
	C1865.572998,243.761780 1865.137329,244.253372 1864.051270,244.751160
	C1845.966187,242.488403 1828.566528,240.242691 1811.166748,237.996964
z"/>
<path fill="#3B76F9" opacity="1.000000" stroke="none"
	d="
M1528.833130,334.997986
	C1530.807861,340.417389 1531.787964,346.533112 1534.983765,351.097717
	C1540.163696,358.496460 1548.886353,358.860901 1556.953125,357.851990
	C1569.999878,356.220245 1579.786255,348.852234 1588.042969,338.116333
	C1607.154175,340.315155 1625.493286,342.656067 1643.832520,344.996979
	C1643.832520,359.781097 1643.832520,374.565216 1643.832520,389.673828
	C1629.347046,389.673828 1614.970947,389.673828 1600.289551,389.673828
	C1599.427368,381.093445 1598.562988,372.492218 1597.670288,363.607727
	C1594.381470,367.644165 1591.388550,371.841705 1587.866455,375.534576
	C1579.708740,384.087433 1569.797852,389.958923 1558.429443,393.163239
	C1542.232178,397.728638 1525.980957,397.777374 1510.259888,391.548462
	C1493.943237,385.083496 1484.819458,372.054108 1481.181763,355.383636
	C1479.520264,347.769257 1479.685425,339.756226 1479.547852,331.461365
	C1489.166992,331.451324 1498.532471,330.718109 1507.269165,332.724121
	C1514.523926,334.389893 1521.569824,334.958221 1528.833130,334.997986
z"/>
<path fill="#3D6FF9" opacity="1.000000" stroke="none"
	d="
M1188.844604,318.004852
	C1191.927856,339.010040 1207.493042,355.080902 1229.212402,355.265350
	C1243.942749,355.390411 1256.173340,349.876465 1268.371826,343.106445
	C1269.634521,342.405731 1270.847900,341.616516 1272.549683,340.586761
	C1280.099854,351.337524 1287.527344,361.913696 1294.925049,372.447266
	C1282.390381,382.748108 1268.665161,390.015350 1253.154541,393.344696
	C1225.618408,399.255188 1198.949097,396.933899 1174.699707,381.739349
	C1158.440063,371.551208 1147.332764,356.546906 1141.109619,338.362579
	C1138.397461,330.437439 1136.983521,322.068054 1135.352539,313.490479
	C1147.856445,314.709808 1159.964111,316.558075 1172.129639,317.869598
	C1177.642090,318.463837 1183.269409,317.992676 1188.844604,318.004852
z"/>
<path fill="#3A77F9" opacity="1.000000" stroke="none"
	d="
M640.167908,272.997314
	C640.119446,254.640198 640.070923,236.283096 640.431763,217.365860
	C643.441589,214.369537 646.289246,213.473083 649.883911,214.618378
	C651.712524,215.200989 653.852173,214.715881 655.800171,215.030136
	C667.819519,216.969131 679.824402,218.998337 691.834045,220.997574
	C691.834045,227.460129 691.834045,233.922684 691.834045,240.858353
	C719.341919,240.858353 746.379211,240.858353 773.706909,240.858353
	C773.706909,254.045074 773.706909,266.757965 773.706909,279.997131
	C765.167969,279.997131 756.729797,280.124603 748.297119,279.964447
	C738.045654,279.769745 727.798340,279.067200 717.550049,279.083252
	C709.141418,279.096405 700.733826,279.839508 691.684814,280.620270
	C687.990356,280.323212 684.962280,279.495056 681.879150,279.035736
	C667.983887,276.965790 654.073120,275.000397 640.167908,272.997314
z"/>
<path fill="#358DF7" opacity="1.000000" stroke="none"
	d="
M1141.880859,239.961792
	C1145.994751,232.069397 1149.416382,223.706772 1154.383179,216.393570
	C1162.048218,205.107132 1172.482910,196.339081 1184.668213,190.250229
	C1195.452026,184.861694 1207.063110,181.474808 1219.260498,181.029205
	C1234.922363,180.457016 1250.670532,180.607925 1265.245728,187.130966
	C1275.532959,191.734985 1285.194336,197.737183 1295.814209,203.482483
	C1287.516357,214.752396 1280.052612,224.889587 1272.399658,235.283646
	C1263.843628,228.605133 1254.568359,223.758682 1244.098633,221.574158
	C1229.570679,218.542831 1215.476807,219.640442 1204.056763,229.870880
	C1199.154419,234.262573 1196.409058,241.062088 1192.033325,246.700592
	C1185.696899,245.748962 1180.025146,244.753860 1174.321289,244.003479
	C1163.517578,242.582108 1152.695435,241.301102 1141.880859,239.961792
z"/>
<path fill="#3E6BFA" opacity="1.000000" stroke="none"
	d="
M640.095703,273.461212
	C654.073120,275.000397 667.983887,276.965790 681.879150,279.035736
	C684.962280,279.495056 687.990356,280.323212 691.438843,280.989288
	C691.833923,317.112732 691.833923,353.228363 691.833923,389.672852
	C674.679993,389.672852 657.631592,389.672852 640.023499,389.672852
	C640.023499,351.077454 640.023499,312.501282 640.095703,273.461212
z"/>
<path fill="#358EF7" opacity="1.000000" stroke="none"
	d="
M640.166504,155.996658
	C640.166504,145.530334 640.166504,135.064011 640.166504,124.298386
	C690.376160,124.298386 740.431946,124.298386 791.496765,124.298386
	C789.670410,137.303070 787.875061,150.087173 786.062012,162.997253
	C755.846741,162.997253 726.364624,162.979187 696.882812,163.045990
	C695.260437,163.049667 693.639709,163.758987 691.513062,164.566650
	C681.796021,163.928986 672.485229,163.380829 663.402161,161.642914
	C655.600952,160.150299 646.991577,161.570374 640.166504,155.996658
z"/>
<path fill="#3D6CFA" opacity="1.000000" stroke="none"
	d="
M1082.832520,315.998199
	C1082.888550,325.309845 1082.929810,334.621582 1083.004761,343.933075
	C1083.076660,352.863129 1089.396973,357.670288 1098.075928,355.489960
	C1100.421509,354.900726 1102.818115,354.515045 1105.615845,353.950287
	C1109.077271,365.386322 1112.532959,376.803558 1116.338989,389.378174
	C1110.676514,391.194672 1105.186890,393.661102 1099.442749,394.653076
	C1087.094727,396.785339 1074.621338,397.384308 1062.531860,392.969421
	C1046.394287,387.076294 1036.180542,375.427612 1034.297974,358.574615
	C1032.577026,343.169739 1033.348877,327.486389 1033.540161,311.462341
	C1037.187622,311.203094 1040.329102,311.295074 1043.444458,311.630981
	C1056.578125,313.047119 1069.703857,314.535950 1082.832520,315.998199
z"/>
<path fill="#3491F7" opacity="1.000000" stroke="none"
	d="
M1329.166504,226.997314
	C1329.118652,218.640717 1329.070679,210.284103 1329.458252,201.382355
	C1332.788086,200.462845 1335.737671,199.530212 1338.566772,199.810928
	C1350.675171,201.012344 1362.748169,202.571472 1374.833984,204.000153
	C1375.611450,210.434143 1376.388794,216.868149 1377.200806,223.588135
	C1394.699951,180.558487 1425.672974,175.840652 1450.716187,184.445709
	C1448.143555,199.261368 1445.518311,214.082611 1443.041382,228.928619
	C1442.610962,231.508636 1441.761719,232.222214 1439.107300,231.622681
	C1428.906738,229.318726 1418.715210,228.722031 1408.797974,232.999954
	C1406.743164,233.886276 1404.783691,234.993637 1402.152466,235.788910
	C1397.874146,234.719360 1394.264893,233.503922 1390.564575,233.076157
	C1383.254517,232.231079 1375.686646,232.705368 1368.599609,231.040817
	C1355.562134,227.978699 1342.535889,226.176498 1329.166504,226.997314
z"/>
<path fill="#3491F7" opacity="1.000000" stroke="none"
	d="
M1479.166748,263.994598
	C1479.166748,238.204865 1479.166748,212.415146 1479.166748,185.991974
	C1482.183350,185.991974 1485.118896,185.992172 1488.054443,185.991943
	C1500.046753,185.991043 1512.042236,186.144623 1524.029785,185.903305
	C1528.101562,185.821335 1529.104980,187.253067 1529.080811,191.115799
	C1528.923828,216.098938 1528.983154,241.083420 1528.584717,266.656067
	C1526.652710,268.094604 1525.087524,269.697845 1523.566162,269.657166
	C1518.438599,269.519928 1513.305176,268.957794 1508.213501,268.266083
	C1498.516846,266.948792 1488.847412,265.429810 1479.166748,263.994598
z"/>
<path fill="#397DF8" opacity="1.000000" stroke="none"
	d="
M1141.554688,240.149384
	C1152.695435,241.301102 1163.517578,242.582108 1174.321289,244.003479
	C1180.025146,244.753860 1185.696899,245.748962 1191.716309,246.869843
	C1190.545166,253.709518 1188.190918,260.253143 1187.721069,266.929382
	C1186.860107,279.161255 1186.932983,291.472321 1186.991943,303.748535
	C1187.013550,308.240692 1188.101807,312.727661 1188.774048,317.610931
	C1183.269409,317.992676 1177.642090,318.463837 1172.129639,317.869598
	C1159.964111,316.558075 1147.856445,314.709808 1135.304321,313.060120
	C1134.257324,309.421234 1133.197510,305.817200 1133.076538,302.181885
	C1132.392944,281.637787 1133.211182,261.255371 1140.970581,241.798462
	C1141.150024,241.348557 1141.146606,240.825745 1141.554688,240.149384
z"/>
<path fill="#3784F8" opacity="1.000000" stroke="none"
	d="
M1643.902100,344.533081
	C1625.493286,342.656067 1607.154175,340.315155 1588.347412,337.964722
	C1592.290894,332.851379 1594.375488,327.291901 1594.181763,320.188080
	C1593.661377,301.112732 1594.013550,282.013550 1594.546265,262.460938
	C1607.364014,262.993988 1619.697754,263.645142 1631.921997,265.172974
	C1636.200806,265.707764 1640.109497,267.195648 1643.833252,263.996368
	C1643.879395,290.687286 1643.925537,317.378235 1643.902100,344.533081
z"/>
<path fill="#3395F6" opacity="1.000000" stroke="none"
	d="
M1643.902344,263.532410
	C1640.109497,267.195648 1636.200806,265.707764 1631.921997,265.172974
	C1619.697754,263.645142 1607.364014,262.993988 1594.619629,261.997131
	C1594.166138,236.872620 1594.166138,211.749023 1594.166138,185.992172
	C1597.178589,185.992172 1600.113647,185.992081 1603.048828,185.992188
	C1615.041016,185.992599 1627.036377,186.147308 1639.023804,185.907898
	C1643.089722,185.826691 1644.105469,187.246872 1644.079590,191.115738
	C1643.919434,215.099167 1643.982544,239.084061 1643.902344,263.532410
z"/>
<path fill="#397CF8" opacity="1.000000" stroke="none"
	d="
M1082.901611,315.534119
	C1069.703857,314.535950 1056.578125,313.047119 1043.444458,311.630981
	C1040.329102,311.295074 1037.187622,311.203094 1033.612671,310.998535
	C1033.118530,285.973938 1033.069824,260.949707 1033.486572,235.552063
	C1044.900391,236.476700 1055.838135,237.875610 1066.801636,239.029327
	C1072.120605,239.589035 1077.487793,239.689377 1082.833130,239.997696
	C1082.879028,265.021790 1082.924927,290.045898 1082.901611,315.534119
z"/>
<path fill="#3783F8" opacity="1.000000" stroke="none"
	d="
M1971.833130,320.997314
	C1971.833130,343.780975 1971.833130,366.564636 1971.833130,389.671936
	C1955.344971,389.671936 1938.966553,389.671936 1922.020508,389.671936
	C1922.020508,364.412842 1922.020508,339.168762 1922.447510,313.543213
	C1930.126099,314.769684 1937.319824,316.750336 1944.644287,317.890594
	C1953.650146,319.292572 1962.765259,319.993408 1971.833130,320.997314
z"/>
<path fill="#3A7AF8" opacity="1.000000" stroke="none"
	d="
M975.902832,314.533203
	C968.359314,313.796448 960.919800,312.253754 953.401184,311.484222
	C944.602234,310.583588 935.734253,310.356628 926.531738,309.917114
	C926.118835,286.639832 926.070435,263.282867 926.539917,239.462524
	C930.193787,239.204987 933.341797,239.299561 936.463745,239.636032
	C949.591309,241.050735 962.711121,242.537766 975.833740,243.998306
	C975.879822,267.355286 975.925842,290.712250 975.902832,314.533203
z"/>
<path fill="#358AF7" opacity="1.000000" stroke="none"
	d="
M1082.902588,239.533707
	C1077.487793,239.689377 1072.120605,239.589035 1066.801636,239.029327
	C1055.838135,237.875610 1044.900391,236.476700 1033.559326,235.088287
	C1033.117920,212.640045 1033.069214,190.282150 1033.547119,167.461212
	C1044.266846,168.134293 1054.445190,169.434631 1064.658325,170.344345
	C1070.688354,170.881470 1076.773438,170.800125 1082.833740,170.996902
	C1082.879883,193.687836 1082.925903,216.378784 1082.902588,239.533707
z"/>
<path fill="#3298F6" opacity="1.000000" stroke="none"
	d="
M1082.903320,170.533020
	C1076.773438,170.800125 1070.688354,170.881470 1064.658325,170.344345
	C1054.445190,169.434631 1044.266846,168.134293 1033.620361,166.997406
	C1033.166992,146.524506 1033.166992,126.052315 1033.166992,105.062981
	C1049.607422,103.237984 1065.969482,101.421669 1082.973022,99.534157
	C1082.973022,123.530106 1082.973022,146.799622 1082.903320,170.533020
z"/>
<path fill="#3881F8" opacity="1.000000" stroke="none"
	d="
M1479.093506,264.458588
	C1488.847412,265.429810 1498.516846,266.948792 1508.213501,268.266083
	C1513.305176,268.957794 1518.438599,269.519928 1523.566162,269.657166
	C1525.087524,269.697845 1526.652710,268.094604 1528.515381,267.119873
	C1528.879517,289.353424 1528.926147,311.711761 1528.902954,334.534058
	C1521.569824,334.958221 1514.523926,334.389893 1507.269165,332.724121
	C1498.532471,330.718109 1489.166992,331.451324 1479.620117,330.998291
	C1479.117676,308.972778 1479.068970,286.947693 1479.093506,264.458588
z"/>
<path fill="#3A78F9" opacity="1.000000" stroke="none"
	d="
M860.903442,302.533569
	C844.539978,301.057892 828.245850,299.118256 811.559326,297.088287
	C811.118530,276.307159 811.070068,255.616348 811.545410,234.462204
	C828.324402,235.998535 844.579468,237.998184 860.834534,239.997849
	C860.880615,260.688446 860.926697,281.379028 860.903442,302.533569
z"/>
<path fill="#3C72F9" opacity="1.000000" stroke="none"
	d="
M1378.833496,330.997772
	C1378.833496,350.447906 1378.833496,369.898071 1378.833496,389.672363
	C1362.343140,389.672363 1345.967285,389.672363 1329.022461,389.672363
	C1329.022461,368.414307 1329.022461,347.169891 1329.523193,325.462158
	C1332.329224,325.245209 1334.638672,325.456635 1336.938721,325.743500
	C1350.904907,327.485352 1364.868774,329.244446 1378.833496,330.997772
z"/>
<path fill="#3491F7" opacity="1.000000" stroke="none"
	d="
M1971.902588,320.533356
	C1962.765259,319.993408 1953.650146,319.292572 1944.644287,317.890594
	C1937.319824,316.750336 1930.126099,314.769684 1922.520508,313.079407
	C1922.117676,293.639557 1922.068848,274.281982 1922.093018,254.460571
	C1938.466553,255.977081 1954.766968,257.957458 1971.450562,259.967285
	C1971.879883,280.020966 1971.925903,300.045197 1971.902588,320.533356
z"/>
<path fill="#3491F7" opacity="1.000000" stroke="none"
	d="
M1702.093750,226.460571
	C1704.912964,226.195801 1707.672241,226.285538 1710.402832,226.614014
	C1719.405151,227.696915 1728.432495,228.644058 1737.382202,230.069672
	C1745.125732,231.303101 1752.776855,233.117447 1760.787354,234.862671
	C1758.262573,239.363312 1755.311890,243.611725 1752.649658,248.033875
	C1751.965942,249.169815 1752.032471,250.853134 1752.026245,252.286179
	C1751.973267,264.546478 1751.982666,276.807037 1751.468018,289.532410
	C1741.889160,289.126709 1732.795776,288.422089 1723.748901,287.333069
	C1716.525635,286.463623 1709.358765,285.126007 1702.166870,283.996155
	C1702.118164,264.972229 1702.069336,245.948318 1702.093750,226.460571
z"/>
<path fill="#3784F8" opacity="1.000000" stroke="none"
	d="
M1702.093994,284.460022
	C1709.358765,285.126007 1716.525635,286.463623 1723.748901,287.333069
	C1732.795776,288.422089 1741.889160,289.126709 1751.398438,289.996155
	C1751.880859,309.353180 1751.927368,328.711273 1751.475830,348.533844
	C1743.506470,348.053864 1736.037720,347.087952 1728.562988,346.170502
	C1719.766968,345.090790 1710.965820,344.053131 1702.166870,342.997192
	C1702.118286,323.639435 1702.069580,304.281677 1702.093994,284.460022
z"/>
<path fill="#3784F8" opacity="1.000000" stroke="none"
	d="
M640.093994,156.460602
	C646.991577,161.570374 655.600952,160.150299 663.402161,161.642914
	C672.485229,163.380829 681.796021,163.928986 691.421265,164.994980
	C691.880737,183.354233 691.927002,201.711945 691.903687,220.533615
	C679.824402,218.998337 667.819519,216.969131 655.800171,215.030136
	C653.852173,214.715881 651.712524,215.200989 649.883911,214.618378
	C646.289246,213.473083 643.441589,214.369537 640.504150,216.902069
	C640.118713,196.973770 640.070068,176.949173 640.093994,156.460602
z"/>
<path fill="#3786F8" opacity="1.000000" stroke="none"
	d="
M975.903442,243.534302
	C962.711121,242.537766 949.591309,241.050735 936.463745,239.636032
	C933.341797,239.299561 930.193787,239.204987 926.612305,238.998703
	C926.166809,221.541260 926.166809,204.084244 926.166809,186.312592
	C942.658691,186.312592 959.042297,186.312592 975.973206,186.312592
	C975.973206,205.231812 975.973206,224.151062 975.903442,243.534302
z"/>
<path fill="#3786F8" opacity="1.000000" stroke="none"
	d="
M1812.167725,347.997284
	C1812.118896,329.306793 1812.069946,310.616302 1812.450439,291.545105
	C1816.868530,292.118774 1820.818970,293.296204 1824.852661,293.985870
	C1837.162476,296.090454 1849.504150,298.007172 1861.833496,299.997009
	C1861.880127,317.687866 1861.926636,335.378754 1861.496826,353.524078
	C1853.514771,353.313019 1846.008179,352.657562 1838.504639,351.971252
	C1837.358521,351.866425 1836.226562,351.610474 1835.085938,351.438843
	C1827.446899,350.289490 1819.807251,349.144012 1812.167725,347.997284
z"/>
<path fill="#3392F7" opacity="1.000000" stroke="none"
	d="
M1861.903076,299.533081
	C1849.504150,298.007172 1837.162476,296.090454 1824.852661,293.985870
	C1820.818970,293.296204 1816.868530,292.118774 1812.523560,291.081390
	C1812.110840,275.527008 1812.086426,260.055298 1811.957397,244.584503
	C1811.941406,242.668411 1811.368896,240.756973 1811.110474,238.420166
	C1828.566528,240.242691 1845.966187,242.488403 1863.736328,244.892029
	C1863.404663,249.327301 1862.181274,253.594482 1862.097290,257.883972
	C1861.828613,271.607910 1861.982178,285.340149 1861.903076,299.533081
z"/>
<path fill="#387FF8" opacity="1.000000" stroke="none"
	d="
M1378.903076,330.533844
	C1364.868774,329.244446 1350.904907,327.485352 1336.938721,325.743500
	C1334.638672,325.456635 1332.329224,325.245209 1329.595459,324.998291
	C1329.118530,306.640472 1329.070190,288.283203 1329.423096,269.545837
	C1332.527100,269.612152 1335.226440,270.080505 1337.933350,270.501404
	C1351.993896,272.687622 1366.056396,274.861847 1380.118164,277.040222
	C1379.736328,294.716797 1379.354492,312.393341 1378.903076,330.533844
z"/>
<path fill="#3689F7" opacity="1.000000" stroke="none"
	d="
M1380.448486,276.841400
	C1366.056396,274.861847 1351.993896,272.687622 1337.933350,270.501404
	C1335.226440,270.080505 1332.527100,269.612152 1329.495605,269.082031
	C1329.118530,255.307297 1329.070190,241.616226 1329.094116,227.461227
	C1342.535889,226.176498 1355.562134,227.978699 1368.599609,231.040817
	C1375.686646,232.705368 1383.254517,232.231079 1390.564575,233.076157
	C1394.264893,233.503922 1397.874146,234.719360 1401.785889,235.843384
	C1390.474487,247.267181 1384.372192,261.296692 1380.448486,276.841400
z"/>
<path fill="#3E67FA" opacity="1.000000" stroke="none"
	d="
M319.000488,325.832703
	C302.642487,325.880310 286.284485,325.927917 269.387878,325.568359
	C267.901947,323.624725 267.215607,321.823547 265.967041,320.592621
	C252.620834,307.434784 239.163086,294.390137 225.806290,281.242981
	C224.311935,279.772095 223.251770,277.860107 222.386505,276.109253
	C224.550491,275.677032 226.318237,275.288239 228.085968,274.899414
	C242.414948,274.940857 256.743927,274.982330 271.561890,275.452515
	C274.103516,278.551880 275.882874,281.499115 278.256836,283.844543
	C287.808105,293.281189 297.677368,302.398193 307.149933,311.911285
	C311.436798,316.216522 315.070496,321.172119 319.000488,325.832703
z"/>
<path fill="#3784F8" opacity="1.000000" stroke="none"
	d="
M860.904236,239.533905
	C844.579468,237.998184 828.324402,235.998535 811.617859,233.998352
	C811.166382,218.208069 811.166382,202.418289 811.166382,186.313385
	C827.653870,186.313385 844.034912,186.313385 860.973938,186.313385
	C860.973938,203.901505 860.973938,221.485733 860.904236,239.533905
z"/>
<path fill="#30A2F5" opacity="1.000000" stroke="none"
	d="
M1968.904053,219.610306
	C1955.627808,218.044968 1942.451782,215.849258 1929.207764,214.200043
	C1913.268188,212.215179 1897.252441,210.844589 1881.308594,208.889694
	C1875.966064,208.234634 1870.743530,206.602463 1865.208496,205.154236
	C1878.821289,189.432343 1895.637573,180.650620 1916.903809,180.883133
	C1927.236328,180.996109 1936.933960,182.324692 1945.871704,187.929474
	C1957.729736,195.365585 1965.242188,205.861298 1968.904053,219.610306
z"/>
<path fill="#2EA7F5" opacity="1.000000" stroke="none"
	d="
M169.997665,458.832703
	C165.258682,460.542511 160.519684,462.252350 155.314972,463.565338
	C153.873993,461.872284 153.088455,460.358521 151.892410,459.315552
	C144.784286,453.117126 137.523773,447.093323 130.421997,440.887817
	C115.831909,428.138947 101.305298,415.317413 86.760841,402.516388
	C73.453979,390.804626 60.226379,379.001251 46.804070,367.423462
	C43.842262,364.868713 40.207661,363.093933 36.882881,360.959991
	C37.923767,355.237823 38.964645,349.515625 40.420475,343.471924
	C45.743145,347.221130 50.701126,351.233063 55.547710,355.375305
	C64.458138,362.990906 73.252182,370.743622 82.223869,378.285614
	C83.765572,379.581604 85.947105,380.116486 88.000343,381.343567
	C93.543686,399.330292 105.108894,410.538025 123.085739,415.486755
	C136.168900,427.238861 149.219345,438.610016 162.118896,450.149780
	C165.015869,452.741455 167.385345,455.922821 169.997665,458.832703
z"/>
<path fill="#3A7AF8" opacity="1.000000" stroke="none"
	d="
M1702.094604,343.461090
	C1710.965820,344.053131 1719.766968,345.090790 1728.562988,346.170502
	C1736.037720,347.087952 1743.506470,348.053864 1751.406006,348.997681
	C1751.834351,362.450592 1751.834351,375.904114 1751.834351,389.677612
	C1735.343994,389.677612 1718.970215,389.677612 1702.022339,389.677612
	C1702.022339,374.420746 1702.022339,359.172852 1702.094604,343.461090
z"/>
<path fill="#397CF8" opacity="1.000000" stroke="none"
	d="
M1812.095337,348.461182
	C1819.807251,349.144012 1827.446899,350.289490 1835.085938,351.438843
	C1836.226562,351.610474 1837.358521,351.866425 1838.504639,351.971252
	C1846.008179,352.657562 1853.514771,353.313019 1861.426758,353.987915
	C1861.833130,365.784973 1861.833130,377.572662 1861.833130,389.679016
	C1845.342651,389.679016 1828.970215,389.679016 1812.022949,389.679016
	C1812.022949,376.089294 1812.022949,362.507202 1812.095337,348.461182
z"/>
<path fill="#2DABF5" opacity="1.000000" stroke="none"
	d="
M36.523598,361.199707
	C40.207661,363.093933 43.842262,364.868713 46.804070,367.423462
	C60.226379,379.001251 73.453979,390.804626 86.760841,402.516388
	C101.305298,415.317413 115.831909,428.138947 130.421997,440.887817
	C137.523773,447.093323 144.784286,453.117126 151.892410,459.315552
	C153.088455,460.358521 153.873993,461.872284 154.924057,463.500977
	C150.658691,464.558319 146.318497,465.283203 141.286804,465.812195
	C131.234558,457.414978 121.805740,449.289825 112.530334,440.993134
	C100.920120,430.608002 89.552849,419.949158 77.862480,409.656281
	C67.404114,400.448059 56.712692,391.500092 45.985020,382.605072
	C42.964077,380.100220 39.453472,378.185913 36.167465,376.000763
	C36.166416,371.146973 36.165363,366.293213 36.523598,361.199707
z"/>
<path fill="#2BB2F4" opacity="1.000000" stroke="none"
	d="
M121.999435,465.833191
	C112.618042,466.415192 104.066826,463.130554 95.608566,459.831757
	C81.473976,454.319244 69.607430,445.408081 59.644669,434.074951
	C49.415478,422.438660 42.044899,409.221313 39.288216,393.498260
	C40.912045,393.811523 42.437572,394.236908 43.522419,395.172974
	C54.271160,404.447876 64.934814,413.821259 75.646637,423.139099
	C87.754425,433.671265 99.982819,444.067688 111.951439,454.755310
	C115.649422,458.057495 118.669159,462.119232 121.999435,465.833191
z"/>
<path fill="#2DAAF5" opacity="1.000000" stroke="none"
	d="
M284.947449,50.876236
	C294.002319,49.591011 303.057220,48.305786 312.563690,47.462162
	C313.666748,49.357872 313.967926,51.165131 315.023315,52.212051
	C326.920197,64.013367 338.907654,75.724045 350.946594,87.380730
	C352.445679,88.832214 354.382599,89.831490 356.116638,91.040298
	C353.761658,94.843063 351.527435,98.731194 348.950043,102.376732
	C348.432617,103.108658 346.527252,103.316498 345.404633,103.082047
	C341.178650,102.199516 337.011627,101.034439 332.386108,99.552711
	C329.489258,96.365082 327.126770,93.504745 324.549683,90.853012
	C317.442932,83.540382 310.259766,76.301743 303.081177,69.059219
	C297.055328,62.979679 290.993408,56.935860 284.947449,50.876236
z"/>
<path fill="#3786F8" opacity="1.000000" stroke="none"
	d="
M93.120636,283.620270
	C101.474556,281.089355 109.828476,278.558441 118.673569,276.419983
	C121.385704,278.984192 123.518410,281.255737 125.842201,283.311249
	C139.212296,295.137878 152.671509,306.864197 165.985580,318.753204
	C168.273270,320.796051 170.008316,323.457794 171.534698,325.904053
	C161.046814,325.927399 151.022873,325.880371 140.917191,325.510345
	C133.772247,318.509369 126.926346,311.580780 119.589195,305.218689
	C110.989502,297.761871 101.962372,290.797974 93.120636,283.620270
z"/>
<path fill="#2CAFF4" opacity="1.000000" stroke="none"
	d="
M122.380043,466.033630
	C118.669159,462.119232 115.649422,458.057495 111.951439,454.755310
	C99.982819,444.067688 87.754425,433.671265 75.646637,423.139099
	C64.934814,413.821259 54.271160,404.447876 43.522419,395.172974
	C42.437572,394.236908 40.912045,393.811523 39.236221,393.094116
	C37.928909,387.645020 36.976398,382.250946 36.095676,376.428833
	C39.453472,378.185913 42.964077,380.100220 45.985020,382.605072
	C56.712692,391.500092 67.404114,400.448059 77.862480,409.656281
	C89.552849,419.949158 100.920120,430.608002 112.530334,440.993134
	C121.805740,449.289825 131.234558,457.414978 140.853546,465.834717
	C134.994736,466.113464 128.877701,466.173767 122.380043,466.033630
z"/>
<path fill="#387FF8" opacity="1.000000" stroke="none"
	d="
M171.998627,325.833679
	C170.008316,323.457794 168.273270,320.796051 165.985580,318.753204
	C152.671509,306.864197 139.212296,295.137878 125.842201,283.311249
	C123.518410,281.255737 121.385704,278.984192 119.081665,276.489258
	C127.356194,275.786255 135.713791,275.406403 144.649506,275.402832
	C149.508896,279.643127 153.778580,283.520050 158.073685,287.368561
	C170.118362,298.160950 182.237045,308.872498 194.145004,319.813507
	C195.650360,321.196655 196.071381,323.760040 196.529022,325.830170
	C189.692230,325.962067 183.321198,326.040405 176.536911,326.068726
	C174.748642,325.957062 173.373627,325.895386 171.998627,325.833679
z"/>
<path fill="#30A1F5" opacity="1.000000" stroke="none"
	d="
M1853.806641,206.656143
	C1843.140625,205.896164 1832.426147,204.953934 1821.756470,203.645050
	C1811.428833,202.378113 1801.169678,200.549622 1790.839111,199.312164
	C1782.184937,198.275513 1773.471313,197.735504 1764.334229,196.966675
	C1771.306274,189.158676 1780.704224,184.796005 1790.951294,182.607040
	C1805.113159,179.581833 1819.272583,179.421951 1832.626831,186.285492
	C1841.584961,190.889587 1848.328003,197.946487 1853.806641,206.656143
z"/>
<path fill="#3D6DF9" opacity="1.000000" stroke="none"
	d="
M319.460205,325.902954
	C315.070496,321.172119 311.436798,316.216522 307.149933,311.911285
	C297.677368,302.398193 287.808105,293.281189 278.256836,283.844543
	C275.882874,281.499115 274.103516,278.551880 272.025757,275.523834
	C280.358307,275.118774 288.715912,275.071136 297.618561,275.417725
	C299.413391,277.345551 300.536560,279.007538 301.936646,280.388794
	C306.190887,284.585907 310.592987,288.632965 314.861389,292.816101
	C320.055786,297.906738 325.253204,302.998871 330.299622,308.234680
	C334.983826,313.094666 339.471008,318.144531 344.044952,323.110809
	C336.003265,324.064941 327.961578,325.019073 319.460205,325.902954
z"/>
<path fill="#358DF7" opacity="1.000000" stroke="none"
	d="
M92.813431,283.781555
	C101.962372,290.797974 110.989502,297.761871 119.589195,305.218689
	C126.926346,311.580780 133.772247,318.509369 140.457596,325.580811
	C129.988297,325.369049 120.365204,327.407013 110.963501,330.777191
	C109.210762,328.423370 107.768799,326.140350 105.814850,324.448700
	C97.825706,317.532166 89.643166,310.839569 81.611534,303.971283
	C78.613998,301.407928 75.834373,298.589783 72.955391,295.887787
	C79.472336,291.906128 85.989281,287.924500 92.813431,283.781555
z"/>
<path fill="#3880F8" opacity="1.000000" stroke="none"
	d="
M190.365967,126.274597
	C194.686066,118.920364 199.006149,111.566124 203.866150,104.300903
	C216.473831,116.508659 228.541611,128.627396 240.609390,140.746124
	C237.331772,148.716583 234.054153,156.687027 230.152374,164.681183
	C227.958084,163.242523 226.344147,161.824127 224.824951,160.310623
	C215.245850,150.767532 205.697708,141.193375 196.114197,131.654755
	C194.254990,129.804230 192.284897,128.065109 190.365967,126.274597
z"/>
<path fill="#358AF7" opacity="1.000000" stroke="none"
	d="
M240.782272,140.439819
	C228.541611,128.627396 216.473831,116.508659 204.178543,104.141403
	C209.745468,97.316055 215.539886,90.739227 221.817169,84.320099
	C232.353348,94.396713 242.468353,104.254524 252.406097,114.287918
	C254.311554,116.211693 255.519775,118.826065 257.049652,121.121834
	C251.684814,127.459061 246.319992,133.796295 240.782272,140.439819
z"/>
<path fill="#3D6FF9" opacity="1.000000" stroke="none"
	d="
M221.990265,276.152649
	C223.251770,277.860107 224.311935,279.772095 225.806290,281.242981
	C239.163086,294.390137 252.620834,307.434784 265.967041,320.592621
	C267.215607,321.823547 267.901947,323.624725 268.923981,325.496887
	C260.308014,325.880371 251.617340,325.928131 242.380936,325.580261
	C239.686691,322.464478 237.790466,319.489899 235.347183,317.066956
	C222.969040,304.791840 210.426651,292.682465 198.012543,280.443268
	C196.764923,279.213226 195.992706,277.500946 195.467590,275.978394
	C204.620300,276.013763 213.305283,276.083191 221.990265,276.152649
z"/>
<path fill="#2BB2F4" opacity="1.000000" stroke="none"
	d="
M356.425903,90.883606
	C354.382599,89.831490 352.445679,88.832214 350.946594,87.380730
	C338.907654,75.724045 326.920197,64.013367 315.023315,52.212051
	C313.967926,51.165131 313.666748,49.357872 313.008789,47.535759
	C334.924500,46.449551 355.687653,51.254017 376.042206,60.495686
	C369.575531,70.621284 363.155365,80.674095 356.425903,90.883606
z"/>
<path fill="#30A2F5" opacity="1.000000" stroke="none"
	d="
M284.537567,50.928295
	C290.993408,56.935860 297.055328,62.979679 303.081177,69.059219
	C310.259766,76.301743 317.442932,83.540382 324.549683,90.853012
	C327.126770,93.504745 329.489258,96.365082 331.976379,99.481812
	C324.453918,99.509888 316.905792,99.155693 309.354797,98.882484
	C307.217834,98.805168 305.072327,98.964447 302.409698,98.726303
	C295.940216,92.301003 289.966949,86.188423 284.049713,80.022095
	C276.992462,72.667778 269.983215,65.267395 262.953186,57.886971
	C270.011353,55.584766 277.069519,53.282562 284.537567,50.928295
z"/>
<path fill="#3881F8" opacity="1.000000" stroke="none"
	d="
M404.040924,295.115875
	C397.302490,299.742004 390.564026,304.368134 383.219055,308.796326
	C371.667572,297.491516 360.698486,286.408142 349.806061,275.249969
	C348.340088,273.748230 347.260040,271.869751 346.001282,270.165741
	C353.078461,266.441010 360.155609,262.716248 367.776245,259.227600
	C369.588074,260.525970 370.921509,261.520264 372.114227,262.661591
	C380.032684,270.238770 388.001892,277.765930 395.778229,285.487000
	C398.769958,288.457428 401.300323,291.892517 404.040924,295.115875
z"/>
<path fill="#358AF7" opacity="1.000000" stroke="none"
	d="
M404.351318,294.975525
	C401.300323,291.892517 398.769958,288.457428 395.778229,285.487000
	C388.001892,277.765930 380.032684,270.238770 372.114227,262.661591
	C370.921509,261.520264 369.588074,260.525970 368.135132,259.177979
	C373.174438,253.897705 378.332947,248.830551 383.702454,243.997787
	C384.397278,243.372421 386.640869,243.424423 387.391296,244.067673
	C393.994507,249.727722 400.417603,255.597687 406.902557,261.395966
	C412.149872,266.087616 417.408905,270.766144 423.053772,275.799133
	C418.604340,283.610016 411.187683,288.809113 404.351318,294.975525
z"/>
<path fill="#319BF6" opacity="1.000000" stroke="none"
	d="
M262.577179,57.942261
	C269.983215,65.267395 276.992462,72.667778 284.049713,80.022095
	C289.966949,86.188423 295.940216,92.301003 301.964569,98.780060
	C294.080139,101.724243 286.119812,104.325737 277.587524,106.551926
	C274.261475,102.870949 271.671478,99.409477 268.715149,96.295799
	C264.170471,91.509193 259.487366,86.839714 254.652481,82.347061
	C249.940796,77.968880 244.964691,73.875259 240.104675,69.656708
	C247.470169,65.770317 254.835678,61.883930 262.577179,57.942261
z"/>
<path fill="#3392F7" opacity="1.000000" stroke="none"
	d="
M239.830872,69.821655
	C244.964691,73.875259 249.940796,77.968880 254.652481,82.347061
	C259.487366,86.839714 264.170471,91.509193 268.715149,96.295799
	C271.671478,99.409477 274.261475,102.870949 277.185394,106.533325
	C270.792603,111.538185 264.230042,116.186325 257.358582,120.978149
	C255.519775,118.826065 254.311554,116.211693 252.406097,114.287918
	C242.468353,104.254524 232.353348,94.396713 222.126160,84.184906
	C227.820557,79.256866 233.688812,74.621727 239.830872,69.821655
z"/>
<path fill="#3A7AF8" opacity="1.000000" stroke="none"
	d="
M196.994781,325.776611
	C196.071381,323.760040 195.650360,321.196655 194.145004,319.813507
	C182.237045,308.872498 170.118362,298.160950 158.073685,287.368561
	C153.778580,283.520050 149.508896,279.643127 145.113281,275.473450
	C154.356232,275.120728 163.713501,275.073730 173.541565,275.465057
	C174.636581,277.389069 174.928070,279.175415 175.947739,280.303680
	C178.936478,283.610657 182.186569,286.684937 185.385239,289.797974
	C195.761093,299.895966 206.222595,309.907532 216.474274,320.129730
	C217.837372,321.488892 218.179565,323.871857 218.528534,325.832611
	C211.039932,325.848541 204.017349,325.812592 196.994781,325.776611
z"/>
<path fill="#358EF7" opacity="1.000000" stroke="none"
	d="
M223.832687,397.001282
	C221.025482,404.010376 218.218277,411.019440 214.748398,418.101715
	C213.210495,417.725128 212.202011,417.428802 211.480362,416.802155
	C203.024460,409.459900 194.594482,402.087433 186.194946,394.680695
	C182.269638,391.219330 178.425171,387.666321 174.738052,383.826782
	C175.678040,378.332306 176.424026,373.165955 177.580750,368.001709
	C183.478119,369.685272 189.826553,370.152649 194.268448,373.305817
	C202.990738,379.497437 210.613129,387.229187 218.789795,394.207489
	C220.222214,395.429993 222.139389,396.084473 223.832687,397.001282
z"/>
<path fill="#3B74F9" opacity="1.000000" stroke="none"
	d="
M344.463440,323.062866
	C339.471008,318.144531 334.983826,313.094666 330.299622,308.234680
	C325.253204,302.998871 320.055786,297.906738 314.861389,292.816101
	C310.592987,288.632965 306.190887,284.585907 301.936646,280.388794
	C300.536560,279.007538 299.413391,277.345551 298.082458,275.489319
	C306.358612,275.118774 314.715881,275.070923 323.611969,275.430359
	C326.430786,278.388794 328.587036,281.064728 331.011902,283.469788
	C342.337402,294.702972 353.737030,305.861420 365.110168,317.046570
	C358.367401,319.036011 351.624634,321.025482 344.463440,323.062866
z"/>
<path fill="#3E67FA" opacity="1.000000" stroke="none"
	d="
M177.167007,235.994110
	C177.119644,220.638641 177.072296,205.283173 177.419678,189.545654
	C179.108002,190.173737 180.519180,191.065277 181.676361,192.212921
	C190.154541,200.621429 198.235931,209.469940 207.141205,217.394470
	C213.563797,223.109741 218.581055,230.951401 227.828857,233.000015
	C227.875519,233.750366 227.922180,234.500702 227.491760,235.588470
	C218.957291,235.325806 210.898376,234.234650 202.842941,234.259720
	C194.282593,234.286362 185.725510,235.371307 177.167007,235.994110
z"/>
<path fill="#3395F6" opacity="1.000000" stroke="none"
	d="
M174.544052,384.154877
	C178.425171,387.666321 182.269638,391.219330 186.194946,394.680695
	C194.594482,402.087433 203.024460,409.459900 211.480362,416.802155
	C212.202011,417.428802 213.210495,417.725128 214.475952,418.293457
	C210.134735,424.885559 205.403320,431.359131 200.208328,437.655518
	C195.860901,433.516510 192.179611,429.327789 188.050446,425.640686
	C179.792618,418.266876 171.289474,411.167816 163.028290,403.640137
	C166.960648,396.934937 170.752350,390.544891 174.544052,384.154877
z"/>
<path fill="#3A7AF8" opacity="1.000000" stroke="none"
	d="
M365.493408,317.025574
	C353.737030,305.861420 342.337402,294.702972 331.011902,283.469788
	C328.587036,281.064728 326.430786,278.388794 324.075867,275.501770
	C331.077332,273.456207 338.153778,271.746582 345.615723,270.101349
	C347.260040,271.869751 348.340088,273.748230 349.806061,275.249969
	C360.698486,286.408142 371.667572,297.491516 382.861389,308.826111
	C377.365692,311.704071 371.621185,314.354340 365.493408,317.025574
z"/>
<path fill="#3B74F9" opacity="1.000000" stroke="none"
	d="
M218.994553,325.780701
	C218.179565,323.871857 217.837372,321.488892 216.474274,320.129730
	C206.222595,309.907532 195.761093,299.895966 185.385239,289.797974
	C182.186569,286.684937 178.936478,283.610657 175.947739,280.303680
	C174.928070,279.175415 174.636581,277.389069 174.005417,275.535645
	C174.737778,275.108093 175.477081,275.048309 176.925842,275.197723
	C183.423492,275.608765 189.211670,275.810638 194.999863,276.012482
	C195.992706,277.500946 196.764923,279.213226 198.012543,280.443268
	C210.426651,292.682465 222.969040,304.791840 235.347183,317.066956
	C237.790466,319.489899 239.686691,322.464478 241.917053,325.508728
	C237.661194,325.893951 233.323486,325.955048 228.076416,326.021942
	C224.442886,325.945374 221.718719,325.863037 218.994553,325.780701
z"/>
<path fill="#30A1F5" opacity="1.000000" stroke="none"
	d="
M87.833069,381.002930
	C85.947105,380.116486 83.765572,379.581604 82.223869,378.285614
	C73.252182,370.743622 64.458138,362.990906 55.547710,355.375305
	C50.701126,351.233063 45.743145,347.221130 40.500992,343.076660
	C42.878834,336.732666 45.591103,330.462433 48.800804,324.334595
	C59.609970,333.701447 69.828438,343.034027 80.301392,352.071655
	C82.804939,354.232086 86.156593,355.409729 89.065445,357.451172
	C86.556351,365.471130 86.667824,373.210175 87.833069,381.002930
z"/>
<path fill="#3395F6" opacity="1.000000" stroke="none"
	d="
M72.607674,295.942383
	C75.834373,298.589783 78.613998,301.407928 81.611534,303.971283
	C89.643166,310.839569 97.825706,317.532166 105.814850,324.448700
	C107.768799,326.140350 109.210762,328.423370 110.805565,331.083771
	C106.429375,335.155151 102.135742,338.577271 97.489311,341.973267
	C95.009140,340.711243 92.639687,339.760345 90.794159,338.192657
	C79.780373,328.837158 68.887451,319.339325 57.953979,309.889282
	C62.722641,305.258514 67.491295,300.627747 72.607674,295.942383
z"/>
<path fill="#3A78F9" opacity="1.000000" stroke="none"
	d="
M190.198334,126.596481
	C192.284897,128.065109 194.254990,129.804230 196.114197,131.654755
	C205.697708,141.193375 215.245850,150.767532 224.824951,160.310623
	C226.344147,161.824127 227.958084,163.242523 229.820587,164.878571
	C229.399918,171.730896 228.686874,178.409561 227.580444,185.462143
	C225.656296,184.588882 224.009338,183.458923 222.613724,182.075424
	C213.909561,173.446991 205.438080,164.574310 196.516388,156.179077
	C192.406082,152.311325 187.451096,149.341202 182.879105,145.964066
	C185.262970,139.615494 187.646835,133.266937 190.198334,126.596481
z"/>
<path fill="#30A2F5" opacity="1.000000" stroke="none"
	d="
M170.351410,458.799194
	C167.385345,455.922821 165.015869,452.741455 162.118896,450.149780
	C149.219345,438.610016 136.168900,427.238861 123.513397,415.413940
	C132.031769,417.374908 139.841278,414.991516 147.803497,413.540436
	C160.906708,425.724030 173.900635,437.533844 186.894562,449.343689
	C186.894562,449.343689 186.723221,449.756836 186.274109,449.954773
	C185.553482,450.380371 185.281967,450.607971 185.010468,450.835571
	C180.242035,453.478973 175.473602,456.122314 170.351410,458.799194
z"/>
<path fill="#319CF6" opacity="1.000000" stroke="none"
	d="
M187.166321,449.179657
	C173.900635,437.533844 160.906708,425.724030 148.120117,413.440674
	C153.180878,409.963196 158.034256,406.959259 162.887634,403.955322
	C171.289474,411.167816 179.792618,418.266876 188.050446,425.640686
	C192.179611,429.327789 195.860901,433.516510 199.896362,437.792542
	C195.844650,441.743042 191.641357,445.379333 187.166321,449.179657
z"/>
<path fill="#3D6CFA" opacity="1.000000" stroke="none"
	d="
M227.900177,232.538605
	C218.581055,230.951401 213.563797,223.109741 207.141205,217.394470
	C198.235931,209.469940 190.154541,200.621429 181.676361,192.212921
	C180.519180,191.065277 179.108002,190.173737 177.490845,189.081802
	C177.119476,183.496826 177.071671,177.993683 177.506958,172.146423
	C179.048462,172.227966 180.354828,172.392181 181.124496,173.122223
	C185.671356,177.434967 190.103546,181.869064 194.555542,186.281281
	C204.422333,196.059891 214.259140,205.868912 224.166489,215.606201
	C225.187180,216.609375 226.601700,217.211868 227.833481,218.000290
	C227.879486,222.692581 227.925491,227.384888 227.900177,232.538605
z"/>
<path fill="#319BF6" opacity="1.000000" stroke="none"
	d="
M57.642033,310.048279
	C68.887451,319.339325 79.780373,328.837158 90.794159,338.192657
	C92.639687,339.760345 95.009140,340.711243 97.464828,342.314362
	C94.901505,347.467529 92.009850,352.253448 89.118195,357.039368
	C86.156593,355.409729 82.804939,354.232086 80.301392,352.071655
	C69.828438,343.034027 59.609970,333.701447 49.124699,324.184845
	C51.744137,319.330872 54.537109,314.769073 57.642033,310.048279
z"/>
<path fill="#3D6FF9" opacity="1.000000" stroke="none"
	d="
M227.903946,217.540192
	C226.601700,217.211868 225.187180,216.609375 224.166489,215.606201
	C214.259140,205.868912 204.422333,196.059891 194.555542,186.281281
	C190.103546,181.869064 185.671356,177.434967 181.124496,173.122223
	C180.354828,172.392181 179.048462,172.227966 177.577927,171.723206
	C177.844299,167.227646 178.522797,162.811234 179.901215,158.212708
	C181.340179,158.370361 182.245758,158.539597 182.793793,159.074905
	C195.981857,171.956345 209.147598,184.860794 222.271225,197.807877
	C224.242508,199.752625 225.984451,201.929855 227.832504,203.999542
	C227.879807,208.359726 227.927109,212.719910 227.903946,217.540192
z"/>
<path fill="#3B74F9" opacity="1.000000" stroke="none"
	d="
M227.902924,203.536270
	C225.984451,201.929855 224.242508,199.752625 222.271225,197.807877
	C209.147598,184.860794 195.981857,171.956345 182.793793,159.074905
	C182.245758,158.539597 181.340179,158.370361 180.242950,157.994476
	C180.662231,154.094040 181.439743,150.229706 182.548187,146.164703
	C187.451096,149.341202 192.406082,152.311325 196.516388,156.179077
	C205.438080,164.574310 213.909561,173.446991 222.613724,182.075424
	C224.009338,183.458923 225.656296,184.588882 227.509644,185.917236
	C227.879257,191.689941 227.926300,197.381470 227.902924,203.536270
z"/>
<path fill="#3392F7" opacity="1.000000" stroke="none"
	d="
M1374.904297,203.578873
	C1362.748169,202.571472 1350.675171,201.012344 1338.566772,199.810928
	C1335.737671,199.530212 1332.788086,200.462845 1329.529907,200.918549
	C1329.165894,196.199921 1329.165894,191.399948 1329.165894,185.996796
	C1337.721558,185.996796 1346.152832,185.996811 1354.584229,185.996780
	C1357.915405,185.996780 1361.246582,185.996719 1364.577759,185.996643
	C1373.465454,185.996445 1373.553467,186.126633 1374.027466,194.922348
	C1374.175903,197.676437 1374.649780,200.413010 1374.904297,203.578873
z"/>
<path fill="#3786F8" opacity="1.000000" stroke="none"
	d="
M224.014740,396.644775
	C222.139389,396.084473 220.222214,395.429993 218.789795,394.207489
	C210.613129,387.229187 202.990738,379.497437 194.268448,373.305817
	C189.826553,370.152649 183.478119,369.685272 177.508850,367.605438
	C177.075653,366.137146 177.125076,365.067261 177.588104,364.008118
	C182.432968,364.536102 186.857239,365.124939 191.296799,365.556824
	C203.470688,366.741119 215.651016,367.859406 227.828781,369.003815
	C226.618118,378.098633 225.407471,387.193451 224.014740,396.644775
z"/>
<path fill="#296FED" opacity="1.000000" stroke="none"
	d="
M227.832565,348.024658
	C227.884674,352.050018 227.936768,356.075378 227.492767,360.551941
	C210.389114,359.343201 193.781586,357.683258 177.097168,355.573120
	C177.070724,352.085876 177.121140,349.048859 177.617432,346.010071
	C194.653076,346.680450 211.242813,347.352570 227.832565,348.024658
z"/>
<path fill="#2043D7" opacity="1.000000" stroke="none"
	d="
M227.847580,257.988098
	C227.879730,261.678589 227.911865,265.369049 227.425690,269.518494
	C210.330338,269.979187 193.753296,269.980927 177.176254,269.982635
	C177.124649,267.282135 177.073044,264.581635 177.490326,261.348145
	C179.088058,260.566345 180.208923,260.148010 181.346985,260.094299
	C196.845795,259.362732 212.346985,258.681641 227.847580,257.988098
z"/>
<path fill="#3761F7" opacity="1.000000" stroke="none"
	d="
M177.094727,236.447540
	C185.725510,235.371307 194.282593,234.286362 202.842941,234.259720
	C210.898376,234.234650 218.957291,235.325806 227.423401,235.959702
	C227.875916,238.694489 227.919693,241.395462 227.511169,244.456177
	C220.490677,244.494766 213.891876,243.619598 207.361435,243.980774
	C197.274292,244.538666 187.233932,245.942200 177.173737,246.987091
	C177.123306,243.625061 177.072876,240.263016 177.094727,236.447540
z"/>
<path fill="#235CE1" opacity="1.000000" stroke="none"
	d="
M227.906357,347.583618
	C211.242813,347.352570 194.653076,346.680450 177.542908,345.570343
	C177.073181,342.751678 177.123840,340.371002 177.571472,338.081482
	C179.589249,338.441284 181.204926,338.905487 182.831665,338.948181
	C197.831589,339.342072 212.833389,339.663055 227.834656,340.005249
	C227.883148,342.384338 227.931641,344.763458 227.906357,347.583618
z"/>
<path fill="#2043D7" opacity="1.000000" stroke="none"
	d="
M227.905975,339.565979
	C212.833389,339.663055 197.831589,339.342072 182.831665,338.948181
	C181.204926,338.905487 179.589249,338.441284 177.499146,337.650879
	C177.078812,335.086304 177.127762,333.043457 177.634277,331.000000
	C194.671188,331.335510 211.250504,331.671539 227.829834,332.007568
	C227.878983,334.380646 227.928131,336.753693 227.905975,339.565979
z"/>
<path fill="#2E5AEE" opacity="1.000000" stroke="none"
	d="
M177.100082,247.432678
	C187.233932,245.942200 197.274292,244.538666 207.361435,243.980774
	C213.891876,243.619598 220.490677,244.494766 227.444458,244.901672
	C227.877396,246.378891 227.924759,247.770386 227.495087,249.569763
	C223.246994,249.764328 219.380341,248.908997 215.722092,249.453537
	C202.835617,251.371750 190.020645,253.770370 177.178558,255.986725
	C177.127853,253.283905 177.077148,250.581070 177.100082,247.432678
z"/>
<path fill="#274FE4" opacity="1.000000" stroke="none"
	d="
M177.104752,256.399017
	C190.020645,253.770370 202.835617,251.371750 215.722092,249.453537
	C219.380341,248.908997 223.246994,249.764328 227.431473,249.983643
	C227.886719,252.361923 227.928558,254.734268 227.908997,257.547363
	C212.346985,258.681641 196.845795,259.362732 181.346985,260.094299
	C180.208923,260.148010 179.088058,260.566345 177.561417,260.902740
	C177.119400,259.597321 177.075165,258.204315 177.104752,256.399017
z"/>
<path fill="#1B34C8" opacity="1.000000" stroke="none"
	d="
M177.104767,270.389008
	C193.753296,269.980927 210.330338,269.979187 227.364410,269.974060
	C227.885803,271.340576 227.950150,272.710480 228.050232,274.489899
	C226.318237,275.288239 224.550491,275.677032 222.386505,276.109253
	C213.305283,276.083191 204.620300,276.013763 195.467590,275.978394
	C189.211670,275.810638 183.423492,275.608765 177.296417,275.164673
	C176.982803,273.546753 177.008041,272.171051 177.104767,270.389008
z"/>
<path fill="#1B34C8" opacity="1.000000" stroke="none"
	d="
M227.900909,331.590698
	C211.250504,331.671539 194.671188,331.335510 177.562363,330.598145
	C177.005310,328.837433 176.977737,327.478088 176.950180,326.118713
	C183.321198,326.040405 189.692230,325.962067 196.529022,325.830170
	C204.017349,325.812592 211.039932,325.848541 218.528534,325.832581
	C221.718719,325.863037 224.442886,325.945374 227.618164,326.069122
	C228.036850,327.798279 228.004425,329.486084 227.900909,331.590698
z"/>
<path fill="#3881F8" opacity="1.000000" stroke="none"
	d="
M227.900330,368.590912
	C215.651016,367.859406 203.470688,366.741119 191.296799,365.556824
	C186.857239,365.124939 182.432968,364.536102 177.516510,363.612122
	C177.082138,362.136322 177.132965,361.067261 177.579300,360.090637
	C179.104370,360.435364 180.225128,360.852448 181.364899,360.913239
	C188.957993,361.318207 196.562836,361.530609 204.148834,362.032867
	C212.047989,362.555817 219.930206,363.334595 227.819855,364.001526
	C227.870529,365.393677 227.921219,366.785828 227.900330,368.590912
z"/>
<path fill="#387FF8" opacity="1.000000" stroke="none"
	d="
M227.891342,363.632141
	C219.930206,363.334595 212.047989,362.555817 204.148834,362.032867
	C196.562836,361.530609 188.957993,361.318207 181.364899,360.913239
	C180.225128,360.852448 179.104370,360.435364 177.507416,359.697174
	C177.084717,358.148621 177.129395,357.085938 177.174057,356.023285
	C193.781586,357.683258 210.389114,359.343201 227.416534,361.010071
	C227.878571,361.765594 227.920700,362.514191 227.891342,363.632141
z"/>
<path fill="#319CF6" opacity="1.000000" stroke="none"
	d="
M185.309204,450.842102
	C185.281967,450.607971 185.553482,450.380371 186.056641,450.006958
	C186.061523,450.190338 185.834747,450.519470 185.309204,450.842102
z"/>
<path fill="#000000" opacity="1.000000" stroke="none"
	d="
M177.097168,355.573120
	C177.129395,357.085938 177.084717,358.148621 177.111908,359.604736
	C177.132965,361.067261 177.082138,362.136322 177.102905,363.601379
	C177.125076,365.067261 177.075653,366.137146 177.098114,367.603302
	C176.424026,373.165955 175.678040,378.332306 174.738052,383.826782
	C170.752350,390.544891 166.960648,396.934937 163.028290,403.640137
	C158.034256,406.959259 153.180878,409.963196 148.010864,413.066895
	C139.841278,414.991516 132.031769,417.374908 123.426132,415.093933
	C105.108894,410.538025 93.543686,399.330292 88.000351,381.343567
	C86.667824,373.210175 86.556351,365.471130 89.065460,357.451172
	C92.009850,352.253448 94.901505,347.467529 97.817635,342.340485
	C102.135742,338.577271 106.429375,335.155151 110.880951,331.426483
	C120.365204,327.407013 129.988297,325.369049 140.539322,325.903809
	C151.022873,325.880371 161.046814,325.927399 171.534698,325.904053
	C173.373627,325.895386 174.748642,325.957062 176.536911,326.068726
	C176.977737,327.478088 177.005310,328.837433 177.104797,330.598694
	C177.127762,333.043457 177.078812,335.086304 177.102173,337.559753
	C177.123840,340.371002 177.073181,342.751678 177.097031,345.572083
	C177.121140,349.048859 177.070724,352.085876 177.097168,355.573120
z"/>
</svg>
