<svg width="262" height="65" viewBox="0 0 262 65" fill="none" xmlns="http://www.w3.org/2000/svg">
<path d="M16.2914 58.6818C9.71393 58.6818 4.36377 53.3317 4.36377 46.7542C4.36377 40.1767 9.71393 34.8325 16.2914 34.8325H28.219V46.7602C28.219 53.3317 22.8689 58.6818 16.2914 58.6818ZM16.2914 41.1121C13.1754 41.1121 10.6434 43.6442 10.6434 46.7602C10.6434 49.8761 13.1754 52.4082 16.2914 52.4082C19.4074 52.4082 21.9395 49.8761 21.9395 46.7602V41.1121H16.2914Z" fill="url(#paint0_linear_3404_163208)"/>
<g style="mix-blend-mode:multiply" opacity="0.8">
<path d="M28.219 41.1118H21.9395V46.7599H28.219V41.1118Z" fill="url(#paint1_linear_3404_163208)"/>
</g>
<path fill-rule="evenodd" clip-rule="evenodd" d="M52.6471 34.8973C49.4532 38.6949 44.6685 41.1123 39.3301 41.1123H21.9331V23.7153C21.9331 14.1232 29.7379 6.31836 39.3301 6.31836C41.9743 6.31836 44.4827 6.91146 46.7292 7.97159L43.2848 13.3296C42.0555 12.8608 40.7223 12.6039 39.3301 12.6039C33.1994 12.6039 28.2127 17.5906 28.2127 23.7213V34.8327H28.2187H39.3301C42.8128 34.8327 45.9264 33.2233 47.9663 30.7092L52.6471 34.8973Z" fill="url(#paint2_linear_3404_163208)"/>
<path fill-rule="evenodd" clip-rule="evenodd" d="M50.4108 7.7002L47 13.0059C50.6715 14.8214 53.2016 18.6049 53.2016 22.9717C53.2016 25.3909 52.4251 27.632 51.1082 29.4588L55.869 33.5731C58.1331 30.636 59.4812 26.9582 59.4812 22.9717C59.4812 16.3938 55.8109 10.6565 50.4108 7.7002Z" fill="#E73D3D"/>
<g style="mix-blend-mode:multiply">
<path d="M28.219 29.1846H21.9395V34.8326H28.219V29.1846Z" fill="url(#paint3_linear_3404_163208)" fill-opacity="0.8"/>
</g>
<path d="M92.0521 49V15.832H110.82L110.148 20.536H98.3881V30.472H108.612V35.176H98.3881V49H92.0521ZM133.914 49H128.586L128.25 45.448C127.322 46.888 126.218 47.96 124.938 48.664C123.69 49.368 122.202 49.72 120.474 49.72C118.202 49.72 116.442 49.032 115.194 47.656C113.978 46.248 113.37 44.312 113.37 41.848V23.608H119.514V41.08C119.514 42.52 119.754 43.544 120.234 44.152C120.746 44.76 121.546 45.064 122.634 45.064C124.586 45.064 126.298 43.864 127.77 41.464V23.608H133.914V49ZM147.313 49.72C145.361 49.72 143.825 49.16 142.705 48.04C141.617 46.888 141.073 45.272 141.073 43.192V13.432L147.217 12.76V43C147.217 44.184 147.697 44.776 148.657 44.776C149.137 44.776 149.617 44.696 150.097 44.536L151.393 48.856C150.113 49.432 148.753 49.72 147.313 49.72ZM165.459 22.888C167.123 22.888 168.611 23.128 169.923 23.608C171.267 24.088 172.531 24.84 173.715 25.864L170.979 29.56C170.115 28.92 169.283 28.456 168.483 28.168C167.683 27.88 166.803 27.736 165.843 27.736C162.035 27.736 160.131 30.632 160.131 36.424C160.131 39.368 160.627 41.496 161.619 42.808C162.611 44.088 164.019 44.728 165.843 44.728C166.739 44.728 167.555 44.584 168.291 44.296C169.059 44.008 169.955 43.544 170.979 42.904L173.715 46.792C171.315 48.744 168.579 49.72 165.507 49.72C163.075 49.72 160.963 49.192 159.171 48.136C157.379 47.048 156.003 45.512 155.043 43.528C154.083 41.544 153.603 39.208 153.603 36.52C153.603 33.832 154.083 31.464 155.043 29.416C156.003 27.336 157.379 25.736 159.171 24.616C160.963 23.464 163.059 22.888 165.459 22.888ZM190.685 22.936C191.613 22.936 192.461 23.048 193.229 23.272L192.173 29.224C191.405 29.032 190.653 28.936 189.917 28.936C188.413 28.936 187.229 29.48 186.365 30.568C185.501 31.624 184.813 33.256 184.301 35.464V49H178.157V23.608H183.485L184.061 28.6C184.669 26.776 185.549 25.384 186.701 24.424C187.853 23.432 189.181 22.936 190.685 22.936ZM217.352 49H212.024L211.688 45.448C210.76 46.888 209.656 47.96 208.376 48.664C207.128 49.368 205.64 49.72 203.912 49.72C201.64 49.72 199.88 49.032 198.632 47.656C197.416 46.248 196.808 44.312 196.808 41.848V23.608H202.952V41.08C202.952 42.52 203.192 43.544 203.672 44.152C204.184 44.76 204.984 45.064 206.072 45.064C208.024 45.064 209.736 43.864 211.208 41.464V23.608H217.352V49ZM251.679 22.888C253.727 22.888 255.359 23.592 256.575 25C257.791 26.376 258.399 28.248 258.399 30.616V49H252.255V31.576C252.255 28.856 251.327 27.496 249.471 27.496C248.479 27.496 247.615 27.816 246.879 28.456C246.175 29.064 245.439 30.024 244.671 31.336V49H238.527V31.576C238.527 28.856 237.599 27.496 235.743 27.496C234.719 27.496 233.839 27.816 233.103 28.456C232.399 29.064 231.663 30.024 230.895 31.336V49H224.751V23.608H230.079L230.559 26.92C232.479 24.232 234.927 22.888 237.903 22.888C239.375 22.888 240.639 23.272 241.695 24.04C242.783 24.776 243.567 25.816 244.047 27.16C245.071 25.784 246.191 24.728 247.407 23.992C248.655 23.256 250.079 22.888 251.679 22.888Z" fill="url(#paint4_linear_3404_163208)"/>
<defs>
<linearGradient id="paint0_linear_3404_163208" x1="9.38724" y1="54.7043" x2="48.2238" y2="10.0003" gradientUnits="userSpaceOnUse">
<stop stop-color="#2BB3F4"/>
<stop offset="0.5" stop-color="#3F64FA"/>
<stop offset="1" stop-color="#2BB3F4"/>
</linearGradient>
<linearGradient id="paint1_linear_3404_163208" x1="25.0769" y1="46.7579" x2="25.0769" y2="41.1112" gradientUnits="userSpaceOnUse">
<stop stop-color="#2BB3F4" stop-opacity="0"/>
<stop offset="1" stop-color="#3F42B7"/>
</linearGradient>
<linearGradient id="paint2_linear_3404_163208" x1="12.3794" y1="56.2017" x2="51.596" y2="16.3535" gradientUnits="userSpaceOnUse">
<stop stop-color="#2BB3F4"/>
<stop offset="0.5" stop-color="#3F64FA"/>
<stop offset="1" stop-color="#2BB3F4"/>
</linearGradient>
<linearGradient id="paint3_linear_3404_163208" x1="25.0769" y1="29.185" x2="25.0769" y2="34.8318" gradientUnits="userSpaceOnUse">
<stop stop-color="#2BB3F4" stop-opacity="0"/>
<stop offset="1" stop-color="#3F42B7"/>
</linearGradient>
<linearGradient id="paint4_linear_3404_163208" x1="96.5" y1="91.5" x2="108.673" y2="-3.68395" gradientUnits="userSpaceOnUse">
<stop stop-color="#2BB3F4"/>
<stop offset="0.5" stop-color="#3F64FA"/>
<stop offset="1" stop-color="#2BB3F4"/>
</linearGradient>
</defs>
</svg>
