<svg width="34" height="34" viewBox="0 0 34 34" fill="none" xmlns="http://www.w3.org/2000/svg">
<path d="M8.65296 30.9082C5.15868 30.9082 2.31641 28.066 2.31641 24.5717C2.31641 21.0774 5.15868 18.2383 8.65296 18.2383H14.9895V24.5748C14.9895 28.066 12.1472 30.9082 8.65296 30.9082ZM8.65296 21.5743C6.99761 21.5743 5.65244 22.9195 5.65244 24.5748C5.65244 26.2302 6.99761 27.5754 8.65296 27.5754C10.3083 27.5754 11.6535 26.2302 11.6535 24.5748V21.5743H8.65296Z" fill="#6BA6FF"/>
<g style="mix-blend-mode:multiply" opacity="0.8">
<path d="M14.9884 21.5742H11.6523V24.5747H14.9884V21.5742Z" fill="url(#paint0_linear_1018_11556)"/>
</g>
<path fill-rule="evenodd" clip-rule="evenodd" d="M27.9692 18.2743C26.2725 20.2918 23.7305 21.5761 20.8945 21.5761H11.6523V12.3339C11.6523 7.2381 15.7986 3.0918 20.8945 3.0918C22.2992 3.0918 23.6319 3.40689 24.8253 3.97011L22.9955 6.81656C22.3424 6.56746 21.6341 6.43099 20.8945 6.43099C17.6376 6.43099 14.9884 9.08019 14.9884 12.3371V18.24H14.9915H20.8945C22.7447 18.24 24.3988 17.385 25.4825 16.0494L27.9692 18.2743Z" fill="#6BA6FF"/>
<path fill-rule="evenodd" clip-rule="evenodd" d="M26.7807 3.82422L24.9688 6.64287C26.9193 7.60736 28.2634 9.61734 28.2634 11.9373C28.2634 13.2224 27.8509 14.413 27.1514 15.3834L29.6805 17.5691C30.8833 16.0088 31.5995 14.055 31.5995 11.9373C31.5995 8.44273 29.6496 5.39474 26.7807 3.82422Z" fill="#E73D3D"/>
<g style="mix-blend-mode:multiply">
<path d="M14.9923 15.2383H11.6562V18.2388H14.9923V15.2383Z" fill="url(#paint1_linear_1018_11556)" fill-opacity="0.8"/>
</g>
<defs>
<linearGradient id="paint0_linear_1018_11556" x1="13.3191" y1="24.5737" x2="13.3191" y2="21.5739" gradientUnits="userSpaceOnUse">
<stop stop-color="#2BB3F4" stop-opacity="0"/>
<stop offset="1" stop-color="#9BC3FF"/>
</linearGradient>
<linearGradient id="paint1_linear_1018_11556" x1="13.323" y1="15.2385" x2="13.323" y2="18.2383" gradientUnits="userSpaceOnUse">
<stop stop-color="#2BB3F4" stop-opacity="0"/>
<stop offset="1" stop-color="#9BC3FF"/>
</linearGradient>
</defs>
</svg>
