<svg width="48" height="48" viewBox="0 0 48 48" fill="none" xmlns="http://www.w3.org/2000/svg">
<path d="M0 31.996C0 31.1051 1.07714 30.6589 1.70711 31.2889L6.29049 35.8723C6.92046 36.5023 6.47429 37.5794 5.58339 37.5794H0.999999C0.447715 37.5794 0 37.1317 0 36.5794V31.996ZM0 27.1682C0 27.4334 0.105357 27.6878 0.292893 27.8753L9.70411 37.2865C9.89164 37.474 10.146 37.5794 10.4112 37.5794H15.5804C16.4713 37.5794 16.9175 36.5023 16.2875 35.8723L1.70711 21.2919C1.07714 20.6619 0 21.1081 0 21.999V27.1682ZM0 17.1712C0 17.4364 0.105357 17.6908 0.292893 17.8783L19.7011 37.2865C19.8886 37.474 20.143 37.5794 20.4082 37.5794H25.5774C26.4683 37.5794 26.9145 36.5023 26.2845 35.8723L1.70711 11.2949C1.07715 10.6649 0 11.1111 0 12.002V17.1712ZM9.997 17.1712C9.997 17.4364 10.1024 17.6908 10.2899 17.8783L28.2839 35.8723C28.9139 36.5023 29.991 36.0561 29.991 35.1652V29.996C29.991 29.7308 29.8856 29.4764 29.6981 29.2889L11.7041 11.2949C11.0741 10.6649 9.997 11.1111 9.997 12.002V17.1712ZM21.7011 11.2949C21.0711 10.6649 19.994 11.1111 19.994 12.002V17.1712C19.994 17.4364 20.0994 17.6908 20.2869 17.8783L28.2839 25.8753C28.9139 26.5053 29.991 26.0591 29.991 25.1682V19.999C29.991 19.7338 29.8856 19.4794 29.6981 19.2919L21.7011 11.2949Z" fill="#F9BD2B"/>
<path d="M42.5248 32.1186L33.1121 22.7058C32.4821 22.0758 31.405 22.522 31.405 23.4129V36.5793C31.405 37.1316 31.8527 37.5793 32.405 37.5793H46.9856C47.5379 37.5793 47.9856 37.1316 47.9856 36.5793V35.3803C47.9856 34.828 47.536 34.387 46.9883 34.3157C45.3076 34.0968 43.7355 33.3292 42.5248 32.1186ZM36.2035 34.3803C35.3206 34.3803 34.604 33.6637 34.604 32.7808C34.604 31.8978 35.3206 31.1812 36.2035 31.1812C37.0865 31.1812 37.8031 31.8978 37.8031 32.7808C37.8031 33.6637 37.0865 34.3803 36.2035 34.3803Z" fill="black"/>
<path d="M0 36.5793C0 37.1316 0.447715 37.5793 1 37.5793H5.58339C6.47429 37.5793 6.92046 36.5022 6.2905 35.8722L1.70711 31.2888C1.07714 30.6588 0 31.105 0 31.9959V36.5793Z" fill="#1D4AFF"/>
<path d="M9.997 19.5848L1.70711 11.2949C1.07714 10.6649 0 11.1111 0 12.002V17.1712C0 17.4364 0.105357 17.6908 0.292893 17.8783L9.997 27.5824V19.5848Z" fill="#1D4AFF"/>
<path d="M1.70711 21.292C1.07714 20.662 0 21.1082 0 21.9991V27.1683C0 27.4335 0.105357 27.6878 0.292893 27.8754L9.997 37.5795V29.5819L1.70711 21.292Z" fill="#1D4AFF"/>
<path d="M19.994 19.999C19.994 19.7338 19.8887 19.4794 19.7011 19.2919L11.7041 11.2949C11.0742 10.6649 9.99701 11.1111 9.99701 12.002V17.1712C9.99701 17.4364 10.1024 17.6908 10.2899 17.8783L19.994 27.5824V19.999Z" fill="#F54E00"/>
<path d="M9.99701 37.5794H15.5804C16.4713 37.5794 16.9175 36.5023 16.2875 35.8723L9.99701 29.5818V37.5794Z" fill="#F54E00"/>
<path d="M9.99701 19.585V27.1684C9.99701 27.4336 10.1024 27.6879 10.2899 27.8755L19.994 37.5796V29.9962C19.994 29.731 19.8887 29.4766 19.7011 29.2891L9.99701 19.585Z" fill="#F54E00"/>
</svg>
