<svg xmlns="http://www.w3.org/2000/svg" viewBox="0 0 26 23"><defs><linearGradient x1="50.001%" y1="-.005%" x2="50.001%" y2="99.839%" id="svg101050257-a"><stop stop-color="#4387FD" offset="0%"/><stop stop-color="#4683EA" offset="100%"/></linearGradient></defs><g fill-rule="nonzero" fill="none"><path d="M5.558 21.651l-5.232-9.1a2.306 2.306 0 010-2.3L5.558 1.15A2.284 2.284 0 017.54 0h10.464c.818 0 1.573.437 1.982 1.15l5.232 9.1c.41.714.41 1.587 0 2.3l-5.232 9.101a2.297 2.297 0 01-1.982 1.15H7.54a2.297 2.297 0 01-1.982-1.15z" fill="url(#svg101050257-a)"/><path d="M24.142 14.516l-6.345-6.371-1.17.244-2.91-2.922-.928 1.747-.505 2.023.857.86-1.643.334-2.252-2.26-1.528 1.477 2.814 2.826-2.98 2.383 8.007 8.041 3.901-.038z" opacity=".07" fill="#000"/><g transform="translate(7.1 5.071)" fill="#FFF"><ellipse cx="9.958" cy="3.841" rx="1.062" ry="1.066"/><ellipse cx="1.381" cy="3.841" rx="1.062" ry="1.066"/><ellipse cx="5.673" cy="11.298" rx="1.062" ry="1.066"/><path d="M5.427 6.75l.49-.85 4.286 2.486-.49.85z"/><path d="M1.141 8.389l4.287-2.486.49.851L1.63 9.24z"/><path d="M5.178 1.351h1v4.971h-1z"/><ellipse cx="5.673" cy="6.326" rx="1.714" ry="1.721"/><ellipse cx="1.381" cy="8.812" rx="1.349" ry="1.355"/><ellipse cx="9.958" cy="8.812" rx="1.349" ry="1.355"/><ellipse cx="5.673" cy="1.355" rx="1.349" ry="1.355"/></g></g></svg>
