<?xml version="1.0" encoding="UTF-8" standalone="no"?>
<!-- Created with Inkscape (http://www.inkscape.org/) -->

<svg
   width="500"
   height="500"
   viewBox="0 0 132.29167 132.29167"
   version="1.1"
   id="svg1"
   inkscape:version="1.3.2 (091e20e, 2023-11-25)"
   sodipodi:docname="P.svg"
   xmlns:inkscape="http://www.inkscape.org/namespaces/inkscape"
   xmlns:sodipodi="http://sodipodi.sourceforge.net/DTD/sodipodi-0.dtd"
   xmlns="http://www.w3.org/2000/svg"
   xmlns:svg="http://www.w3.org/2000/svg">
  <sodipodi:namedview
     id="namedview1"
     pagecolor="#ffffff"
     bordercolor="#000000"
     borderopacity="0.25"
     inkscape:showpageshadow="2"
     inkscape:pageopacity="0.0"
     inkscape:pagecheckerboard="0"
     inkscape:deskcolor="#d1d1d1"
     inkscape:document-units="mm"
     inkscape:zoom="0.27093971"
     inkscape:cx="555.47413"
     inkscape:cy="55.36287"
     inkscape:window-width="1312"
     inkscape:window-height="449"
     inkscape:window-x="0"
     inkscape:window-y="38"
     inkscape:window-maximized="0"
     inkscape:current-layer="layer1" />
  <defs
     id="defs1" />
  <g
     inkscape:label="Layer 1"
     inkscape:groupmode="layer"
     id="layer1">
    <g
       id="g7"
       inkscape:export-filename="P.svg"
       inkscape:export-xdpi="96"
       inkscape:export-ydpi="96"
       transform="matrix(0.66734392,0,0,0.66734392,33.204318,13.883517)">
		<rect
   y="115.6"
   class="st0"
   width="23.1"
   height="42"
   id="rect6"
   x="0"
   style="fill:#06ac38" />

		<path
   class="st0"
   d="M 87,7.7 C 74.6,1.1 66,0 45.7,0 H 0 v 95.6 h 23.1 3 19.4 c 18.1,0 31.6,-1.1 43.5,-9 C 102,78 108.7,63.7 108.7,47.2 108.7,29.3 100.4,15 87,7.7 Z M 50.8,75.6 H 23.1 V 20.5 L 49.2,20.3 C 73,20 84.9,28.4 84.9,47.4 84.9,67.8 70.2,75.6 50.8,75.6 Z"
   id="path7"
   style="fill:#06ac38" />

	</g>
  </g>
</svg>
