<?xml version="1.0" encoding="utf-8"?>
<!-- Generator: Adobe Illustrator 24.1.3, SVG Export Plug-In . SVG Version: 6.00 Build 0)  -->
<svg version="1.1" id="Layer_1" xmlns="http://www.w3.org/2000/svg" xmlns:xlink="http://www.w3.org/1999/xlink" x="0px" y="0px"
	 viewBox="0 0 400 400" style="enable-background:new 0 0 400 400;" xml:space="preserve">
<style type="text/css">
	.st0{fill:#FF5500;}
</style>
<path class="st0" d="M396.9,39c0,26.5,0.4,49.8-0.4,73.2c-0.2,4.2-5.5,9-9.5,11.8c-18.7,14.1-37.6,27.7-56.8,41.1
	c-5.3,3.2-8.5,9.9-7.9,16.8c0.4,17.3-0.2,34.6,0.2,51.9c0.2,8.8-2.6,14.1-8.9,18.7c-48.3,34.6-96.4,69.7-144.9,104.3
	c-3.9,2.1-8.3,2.1-12.2-0.2c-47.9-34.2-95.4-69-143.1-103.2c-7.5-5.3-10.3-11.5-9.9-21.5c0.6-16.2,0-32.3,0.2-48.5
	c0-4.2,0.4-8.1,0.8-13.8c2.8,0.9,5.5,2.3,8.1,3.7c45.9,33.5,92.1,66.7,137.6,100.6c8.3,6.2,14.8,8.1,23.9,0.9
	c17.3-13.8,35.5-25.8,53.4-39c2.2-1.8,4.1-3.9,5.9-6c-4.3-3.5-7.9-6.7-11.6-9.5c-44.7-32.5-89.7-64.8-134.6-97.2
	c-6.3-4.6-9.1-9.9-8.9-18.7c0.4-17.3,0-34.6,0.2-51.9c0-3.7,0.6-7.4,1.2-12.9c6.3,3.9,11,6.9,15.8,10.2
	c44.4,32.1,88.7,63.9,132.7,96.5c7.7,5.5,13,5.1,20.3-0.2c45.7-33.7,91.7-66.7,137.6-100.2C388.8,43.8,391.6,42.2,396.9,39z"/>
</svg>
