<?xml version="1.0" encoding="utf-8"?>
<!-- Generator: Adobe Illustrator 24.1.3, SVG Export Plug-In . SVG Version: 6.00 Build 0)  -->
<svg version="1.1" id="Layer_1" xmlns="http://www.w3.org/2000/svg" xmlns:xlink="http://www.w3.org/1999/xlink" x="0px" y="0px"
	 viewBox="0 0 982.9 241.2" style="enable-background:new 0 0 982.9 241.2;" xml:space="preserve">
<style type="text/css">
	.st0{fill:#FF4E00;}
	.st1{fill:#FF5500;}
	.st2{font-family:'AvenirNext-Bold';}
	.st3{font-size:180px;}
</style>
<path class="st0" d="M945,83.1c0.2,7.5-0.1,15,0.1,22.5c0.1,3.8-1.3,6.1-4.5,8.1c-24.5,15-48.9,30.2-73.5,45.2
	c-2,0.9-4.2,0.9-6.2-0.1c-24.3-14.8-48.4-29.9-72.6-44.7c-3.8-2.3-5.2-5-5-9.3c0.3-7,0-14,0.1-21c0-1.8,0.2-3.5,0.4-6
	c1.4,0.4,2.8,1,4.1,1.6c23.3,14.5,46.6,28.9,69.8,43.6c4.2,2.7,7.5,3.5,12.1,0.4c8.8-6,18-11.2,27.1-16.9c1.1-0.8,2.1-1.7,3-2.6
	c-2.2-1.5-4-2.9-5.9-4.1c-22.7-14.1-45.5-28.1-68.3-42.1c-3.2-2-4.6-4.3-4.5-8.1c0.2-7.5,0-15,0.1-22.5c0-1.6,0.3-3.2,0.6-5.6
	c3.2,1.7,5.6,3,8,4.4c22.5,13.9,45,27.7,67.3,41.8c3.9,2.4,6.6,2.2,10.3-0.1c23.2-14.6,46.5-28.9,69.8-43.4c1.4-0.8,2.8-1.5,5.4-2.9
	c0,11.5,0.2,21.6-0.2,31.7c-0.1,1.8-2.8,3.9-4.8,5.1c-9.5,6.1-19.1,12-28.8,17.8C946.3,77.2,944.7,80.1,945,83.1z"/>
<path class="st1" d="M982.9,21.2c0,11.5,0.2,21.6-0.2,31.7c-0.1,1.8-2.8,3.9-4.8,5.1c-9.5,6.1-19.1,12-28.8,17.8
	c-2.7,1.4-4.3,4.3-4,7.3c0.2,7.5-0.1,15,0.1,22.5c0.1,3.8-1.3,6.1-4.5,8.1c-24.5,15-48.9,30.2-73.5,45.2c-2,0.9-4.2,0.9-6.2-0.1
	c-24.3-14.8-48.4-29.9-72.6-44.7c-3.8-2.3-5.2-5-5-9.3c0.3-7,0-14,0.1-21c0-1.8,0.2-3.5,0.4-6c1.4,0.4,2.8,1,4.1,1.6
	c23.3,14.5,46.7,28.9,69.8,43.6c4.2,2.7,7.5,3.5,12.1,0.4c8.8-6,18-11.2,27.1-16.9c1.1-0.8,2.1-1.7,3-2.6c-2.2-1.5-4-2.9-5.9-4.1
	c-22.7-14.1-45.5-28.1-68.3-42.1c-3.2-2-4.6-4.3-4.5-8.1c0.2-7.5,0-15,0.1-22.5c0-1.6,0.3-3.2,0.6-5.6c3.2,1.7,5.6,3,8,4.4
	c22.5,13.9,45,27.7,67.3,41.8c3.9,2.4,6.6,2.2,10.3-0.1c23.2-14.6,46.5-28.9,69.8-43.4C978.8,23.3,980.2,22.6,982.9,21.2z"/>
<text transform="matrix(1 0 0 1 0 153.72)" class="st1 st2 st3">ctrlstack</text>
</svg>
