<?xml version="1.0" encoding="utf-8"?>
<!-- Generator: Adobe Illustrator 26.3.1, SVG Export Plug-In . SVG Version: 6.00 Build 0)  -->
<svg version="1.1" id="Layer_1" xmlns="http://www.w3.org/2000/svg" xmlns:xlink="http://www.w3.org/1999/xlink" x="0px" y="0px"
	 viewBox="0 0 1522.2 226.8" style="enable-background:new 0 0 1522.2 226.8;" xml:space="preserve">
<style type="text/css">
	.st0{fill:#202060;}
</style>
<g>
	<g>
		<g>
			<path class="st0" d="M688.7,36.7c-27.9,0.1-52.3,18.7-59.9,45.6c-1.6,5.3-2.6,10.7-2.6,16.2v28.3c0.1,5.3,0.9,10.5,2.5,15.5
				c9,33.1,42.9,52.7,76,43.7c21.2-5.8,37.8-22.4,43.5-43.7c1.4-5.1,2.1-10.3,2.2-15.5V98.5c0-5.5-0.8-11-2.2-16.2
				C740.7,55.5,716.4,36.8,688.7,36.7 M711.9,126.8c0,5.5-2,10.8-5.6,14.9c-4.4,5.3-10.8,8.4-17.6,8.5c-7.1-0.1-13.9-3.2-18.5-8.5
				c-3.7-4.1-5.9-9.4-6.1-14.9v-27c0.3-6.3,3.1-12.3,7.7-16.6c9.2-9.2,24.1-9.2,33.4,0c4.4,4.4,6.8,10.3,6.7,16.6L711.9,126.8"/>
			<path class="st0" d="M1264.6,36.7c-27.9,0.1-52.2,18.7-59.8,45.6c-1.6,5.3-2.5,10.7-2.6,16.2v28.3c0.1,5.3,0.9,10.5,2.5,15.5
				c9.1,33.1,43.1,52.6,76.1,43.5c21-5.8,37.5-22.4,43.3-43.5c1.4-5.1,2.1-10.3,2.1-15.5V98.5c0-5.5-0.7-11-2.2-16.2
				C1316.7,55.4,1292.4,36.8,1264.6,36.7 M1287.8,126.8c0,5.5-2,10.8-5.6,14.9c-4.4,5.4-10.9,8.5-17.9,8.5c-7-0.1-13.8-3.2-18.4-8.5
				c-3.7-4.1-5.9-9.4-6-14.9v-27c0.2-6.4,3-12.4,7.7-16.6c9.2-9.2,24.1-9.2,33.4,0c4.6,4.3,7.1,10.3,7.1,16.6v27"/>
			<path class="st0" d="M607.7,40.2h-36.2v67.5l-34.4-60.2c-2.6-4.3-7.1-7-12.1-7.3h-36.1V185h22.4c7.6-0.1,13.6-6.3,13.5-13.9l0,0
				v-67.2l46.9,81.1h22.5c7.5,0,13.6-6.2,13.5-13.8V40.2L607.7,40.2z"/>
			<path class="st0" d="M1139.4,149V40.2h-35.9V185h68.9c7.5-0.2,13.5-6.5,13.4-14c0-0.2,0-0.5,0-0.7v-21L1139.4,149L1139.4,149z"/>
			<path class="st0" d="M1034.6,40.2H965V185h22.4c7.6,0,13.7-6.2,13.6-13.8v-28.7h33.7c28.1,0,50.9-22.9,50.9-51.1
				S1062.6,40.2,1034.6,40.2 M1034.6,105.7h-33.7V76.9h33.6c7.9,0,14.3,6.5,14.3,14.4S1042.4,105.7,1034.6,105.7L1034.6,105.7"/>
			<path class="st0" d="M815.1,185c6.8,0.3,12.9-4.2,14.8-10.8c0.5-1.2,10.7-35.7,20.4-68.9l19.3,65.2l4.8,14.5h18.7
				c5.4-0.4,10.1-3.7,12.2-8.8c0.6-1.1,1.1-2.3,1.5-3.5c0.8-2.4,38.7-132.1,38.7-132.1h-38.7l-19,65.6
				c-7.7-26.4-15.5-51.9-16.3-54.9c-1.3-6.1-6.3-10.6-12.5-11.1h-28.3l-19,65.3c-7.7-26.3-15.5-51.6-16.5-54.4
				c-1.5-6.4-7.1-10.8-13.6-10.9h-27.3L797,184.9L815.1,185L815.1,185z"/>
			<path class="st0" d="M1391.3,185c6.8,0.2,12.9-4.2,14.8-10.8c0.5-1.2,10.6-35.7,20.4-68.9l19.3,65.2l4.4,14.5h18.6
				c5.6-0.2,10.7-3.6,12.9-8.8c0.5-1.1,1-2.3,1.4-3.5c0.8-2.4,39.1-132.1,39.1-132.1h-38.7l-19.1,65.6
				c-7.7-26.4-15.5-51.9-16.3-54.9c-1.5-6.1-6.8-10.5-13-10.7h-28.4l-19,65.3c-7.7-26.3-15.5-51.6-16.5-54.4
				c-1.6-6.5-7.4-10.9-14-10.7H1330l43,144.7L1391.3,185L1391.3,185z"/>
			<path class="st0" d="M464.3,119.6c-4.7-6.2-10.9-11.2-18.1-14.3c-8.9-3.9-18.1-7.1-27.5-9.4c-6.9-1.9-13.7-4-20.4-6.7
				c-4.5-1.9-8.3-3.1-8.3-6.7c-0.3-2.4,0.9-4.8,3-6c4.6-2.4,9.7-3.5,14.9-3.2c5-0.2,10,1,14.3,3.6c1.9,1.1,3.6,2.6,4.6,4.5h39.7
				v-2.2c-0.5-7.5-3.2-14.7-7.7-20.7c-5.3-6.8-12.4-12.2-20.4-15.5c-9.6-4.3-20-6.4-30.5-6.1c-10.1-0.3-20,1.6-29.4,5.3
				c-8.2,3.2-15.3,8.5-20.7,15.5c-5,6.8-7.7,14.9-7.7,23.3c-0.2,7.9,1.9,15.7,6,22.4c4.3,6.3,10.3,11.3,17.2,14.7
				c8.3,4,16.9,7.2,25.8,9.5c10,2.8,17.6,5.1,22.4,7c2.9,1,5.5,2.6,7.7,4.6c1.1,1.1,1.1,1.4,1.1,3.3c0.2,2.9-1.2,5.6-3.6,7
				c-11.4,5-24.2,5-35.6,0c-2.3-1.4-4.3-3.5-5.4-6h-39.3c0,0,0,0.6,0,0.9l0,0c0.5,8.2,3.4,15.9,8.5,22.3
				c5.9,7.1,13.5,12.4,22.1,15.5c10.1,4,20.9,5.8,31.7,5.6c15.4,0.7,30.6-3.3,43.7-11.6c11.6-7.8,18.5-21,18.2-35
				C470.9,133.7,468.6,126.1,464.3,119.6"/>
			<path class="st0" d="M250.8,102.4l-52.5-91.5C194.1,4.4,187,0.3,179.3,0H74.1c-7.7,0.2-14.8,4.4-18.9,10.9L2.6,102.4
				c-3.5,6.9-3.5,15.1,0,22l52.6,91.5c4.2,6.5,11.2,10.6,18.9,11h105.2c7.7-0.3,14.7-4.4,18.8-11l52.6-91.5
				C254.3,117.5,254.3,109.3,250.8,102.4 M191.7,14.7l19.2,33.4l-33.6,57.8l-22.1-37.8c-0.7-1.2-1.9-1.9-3.2-1.9h-43.6l33.4-58.4
				h37.6c5,0.3,9.5,3,12.3,7.1 M129.1,109.8l-20.8-36.1h41.6l21,36.1H129.1z M122.2,113.5l-20.7,35.7l-20.8-35.8l20.7-35.6
				C101.4,77.7,122.2,113.5,122.2,113.5z M128.9,117.4h41.3l-20.6,35.4h-41.3L128.9,117.4z M61.9,14.7c2.8-4,7.3-6.6,12.2-6.9h58.8
				L99.5,66.2H32.2L61.9,14.7z M9.2,106.2l18.6-32.4h67.1L73,111.4c-0.7,1.2-0.7,2.6,0,3.8l21.9,37.7H27.8L9.2,120.5
				C7,116,7,110.7,9.2,106.2 M74.1,219.1c-5-0.3-9.5-3-12.2-7.1l-29.7-51.4h67.1l33.7,58.6C133,219.1,74.1,219.1,74.1,219.1z
				 M191.7,211.9c-2.8,4.1-7.4,6.8-12.3,7.1h-37.5l-33.5-58.7h43.9c1.3,0,2.6-0.7,3.2-1.9l21.9-37.5l33.3,57.7L191.7,211.9z
				 M244.3,120.4l-29.3,51l-33.4-57.7l33.7-58l29,50.5C246.4,110.7,246.4,116,244.3,120.4"/>
		</g>
	</g>
</g>
</svg>
