<?xml version="1.0" encoding="utf-8"?>
<!-- Generator: Adobe Illustrator 26.3.1, SVG Export Plug-In . SVG Version: 6.00 Build 0)  -->
<svg version="1.1" id="Layer_1" xmlns="http://www.w3.org/2000/svg" xmlns:xlink="http://www.w3.org/1999/xlink" x="0px" y="0px"
	 viewBox="0 0 2000 2000" style="enable-background:new 0 0 2000 2000;" xml:space="preserve">
<style type="text/css">
	.st0{fill:#202060;}
</style>
<g>
	<g>
		<g>
			<path class="st0" d="M1807.3,928.1l-341.5-595.2c-27.3-42.3-73.5-69-123.6-70.9H657.9c-50.1,1.3-96.3,28.6-122.9,70.9
				L192.8,928.1c-22.8,44.9-22.8,98.2,0,143.1l342.2,595.2c27.3,42.3,72.9,69,122.9,71.6h684.3c50.1-2,95.6-28.6,122.3-71.6
				l342.2-595.2C1830.1,1026.3,1830.1,973,1807.3,928.1 M1422.9,357.6l124.9,217.3l-218.6,376L1185.4,705
				c-4.6-7.8-12.4-12.4-20.8-12.4H881l217.3-379.9h244.6c32.5,2,61.8,19.5,80,46.2 M1015.7,976.3L880.4,741.4H1151l136.6,234.8
				H1015.7z M970.8,1000.3l-134.6,232.2L700.8,999.7l134.6-231.6C835.5,767.5,970.8,1000.3,970.8,1000.3z M1014.4,1025.7H1283
				L1149,1256H880.4L1014.4,1025.7z M578.5,357.6c18.2-26,47.5-42.9,79.4-44.9h382.5L823.1,692.6H385.3L578.5,357.6z M235.7,952.8
				l121-210.8h436.5L650.7,986.7c-4.6,7.8-4.6,16.9,0,24.7l142.5,245.2H356.7l-121-210.8C221.4,1016.6,221.4,982.1,235.7,952.8
				 M657.9,1687.2c-32.5-2-61.8-19.5-79.4-46.2l-193.2-334.3h436.5l219.2,381.2C1041,1687.2,657.9,1687.2,657.9,1687.2z
				 M1422.9,1640.4c-18.2,26.7-48.1,44.2-80,46.2h-243.9L881,1304.8h285.6c8.5,0,16.9-4.6,20.8-12.4l142.5-243.9l216.6,375.3
				L1422.9,1640.4z M1765,1045.2L1574.4,1377l-217.3-375.3l219.2-377.3L1765,952.8C1778.7,982.1,1778.7,1016.6,1765,1045.2"/>
		</g>
	</g>
</g>
</svg>
