<?xml version="1.0" encoding="utf-8"?>
<!-- Generator: Adobe Illustrator 26.3.1, SVG Export Plug-In . SVG Version: 6.00 Build 0)  -->
<svg version="1.1" id="Layer_1" xmlns="http://www.w3.org/2000/svg" xmlns:xlink="http://www.w3.org/1999/xlink" x="0px" y="0px"
	 viewBox="0 0 2000 2000" style="enable-background:new 0 0 2000 2000;" xml:space="preserve">
<style type="text/css">
	.st0{fill:#202060;}
</style>
<g>
	<g>
		<g>
			<path class="st0" d="M927.6,923.2c-27.9,0.1-52.3,18.7-59.9,45.6c-1.6,5.3-2.6,10.7-2.6,16.2v28.3c0.1,5.3,0.9,10.5,2.5,15.5
				c9,33.1,42.9,52.7,76,43.7c21.2-5.8,37.8-22.4,43.5-43.7c1.4-5.1,2.1-10.3,2.2-15.5V985c0-5.5-0.8-11-2.2-16.2
				C979.6,942,955.3,923.3,927.6,923.2 M950.8,1013.3c0,5.5-2,10.8-5.6,14.9c-4.4,5.3-10.8,8.4-17.6,8.5c-7.1-0.1-13.9-3.2-18.5-8.5
				c-3.7-4.1-5.9-9.4-6.1-14.9v-27c0.3-6.3,3.1-12.3,7.7-16.6c9.2-9.2,24.1-9.2,33.4,0c4.4,4.4,6.8,10.3,6.7,16.6L950.8,1013.3"/>
			<path class="st0" d="M1503.5,923.2c-27.9,0.1-52.2,18.7-59.8,45.6c-1.6,5.3-2.5,10.7-2.6,16.2v28.3c0.1,5.3,0.9,10.5,2.5,15.5
				c9.1,33.1,43.1,52.6,76.1,43.5c21-5.8,37.5-22.4,43.3-43.5c1.4-5.1,2.1-10.3,2.1-15.5V985c0-5.5-0.7-11-2.2-16.2
				C1555.6,942,1531.3,923.3,1503.5,923.2 M1526.7,1013.3c0,5.5-2,10.8-5.6,14.9c-4.4,5.4-10.9,8.5-17.9,8.5
				c-7-0.1-13.8-3.2-18.4-8.5c-3.7-4.1-5.9-9.4-6-14.9v-27c0.2-6.4,3-12.4,7.7-16.6c9.2-9.2,24.1-9.2,33.4,0
				c4.6,4.3,7.1,10.3,7.1,16.6v27"/>
			<path class="st0" d="M846.6,926.8h-36.2v67.5L776,934c-2.6-4.3-7.1-7-12.1-7.3h-36.1v144.8h22.4c7.6-0.1,13.6-6.3,13.5-13.9l0,0
				v-67.2l46.9,81.1h22.5c7.5,0,13.6-6.2,13.5-13.8V926.8L846.6,926.8z"/>
			<path class="st0" d="M1378.3,1035.6V926.8h-35.9v144.8h68.9c7.5-0.2,13.5-6.5,13.4-14c0-0.2,0-0.5,0-0.7v-21L1378.3,1035.6
				L1378.3,1035.6z"/>
			<path class="st0" d="M1273.5,926.8h-69.6v144.8h22.4c7.6,0,13.7-6.2,13.6-13.8v-28.7h33.7c28.1,0,50.9-22.9,50.9-51.1
				S1301.5,926.8,1273.5,926.8 M1273.5,992.2h-33.7v-28.8h33.6c7.9,0,14.3,6.5,14.3,14.4C1287.7,985.8,1281.3,992.2,1273.5,992.2
				L1273.5,992.2"/>
			<path class="st0" d="M1054,1071.6c6.8,0.3,12.9-4.2,14.8-10.8c0.5-1.2,10.7-35.7,20.4-68.9l19.3,65.2l4.8,14.5h18.7
				c5.4-0.4,10.1-3.7,12.2-8.8c0.6-1.1,1.1-2.3,1.5-3.5c0.8-2.4,38.7-132.1,38.7-132.1h-38.7l-19,65.6
				c-7.7-26.4-15.5-51.9-16.3-54.9c-1.3-6.1-6.3-10.6-12.5-11.1h-28.3l-19,65.3c-7.7-26.3-15.5-51.6-16.5-54.4
				c-1.5-6.4-7.1-10.8-13.6-10.9h-27.3l42.7,144.7L1054,1071.6L1054,1071.6z"/>
			<path class="st0" d="M1630.2,1071.6c6.8,0.2,12.9-4.2,14.8-10.8c0.5-1.2,10.6-35.7,20.4-68.9l19.3,65.2l4.4,14.5h18.6
				c5.6-0.2,10.7-3.6,12.9-8.8c0.5-1.1,1-2.3,1.4-3.5c0.8-2.4,39.1-132.1,39.1-132.1h-38.7l-19.1,65.6
				c-7.7-26.4-15.5-51.9-16.3-54.9c-1.5-6.1-6.8-10.5-13-10.7h-28.4l-19,65.3c-7.7-26.3-15.5-51.6-16.5-54.4
				c-1.6-6.5-7.4-10.9-14-10.7h-27.2l43,144.7L1630.2,1071.6L1630.2,1071.6z"/>
			<path class="st0" d="M703.2,1006.2c-4.7-6.2-10.9-11.2-18.1-14.3c-8.9-3.9-18.1-7.1-27.5-9.4c-6.9-1.9-13.7-4-20.4-6.7
				c-4.5-1.9-8.3-3.1-8.3-6.7c-0.3-2.4,0.9-4.8,3-6c4.6-2.4,9.7-3.5,14.9-3.2c5-0.2,10,1,14.3,3.6c1.9,1.1,3.6,2.6,4.6,4.5h39.7
				v-2.2c-0.5-7.5-3.2-14.7-7.7-20.7c-5.3-6.8-12.4-12.2-20.4-15.5c-9.6-4.3-20-6.4-30.5-6.1c-10.1-0.3-20,1.6-29.4,5.3
				c-8.2,3.2-15.3,8.5-20.7,15.5c-5,6.8-7.7,14.9-7.7,23.3c-0.2,7.9,1.9,15.7,6,22.4c4.3,6.3,10.3,11.3,17.2,14.7
				c8.3,4,16.9,7.2,25.8,9.5c10,2.8,17.6,5.1,22.4,7c2.9,1,5.5,2.6,7.7,4.6c1.1,1.1,1.1,1.4,1.1,3.3c0.2,2.9-1.2,5.6-3.6,7
				c-11.4,5-24.2,5-35.6,0c-2.3-1.4-4.3-3.5-5.4-6h-39.3c0,0,0,0.6,0,0.9l0,0c0.5,8.2,3.4,15.9,8.5,22.3
				c5.9,7.1,13.5,12.4,22.1,15.5c10.1,4,20.9,5.8,31.7,5.6c15.4,0.7,30.6-3.3,43.7-11.6c11.6-7.8,18.5-21,18.2-35
				C709.8,1020.2,707.5,1012.7,703.2,1006.2"/>
			<path class="st0" d="M489.7,989l-52.5-91.5c-4.2-6.5-11.3-10.6-19-10.9H313c-7.7,0.2-14.8,4.4-18.9,10.9L241.5,989
				c-3.5,6.9-3.5,15.1,0,22l52.6,91.5c4.2,6.5,11.2,10.6,18.9,11h105.2c7.7-0.3,14.7-4.4,18.8-11l52.6-91.5
				C493.2,1004,493.2,995.8,489.7,989 M430.6,901.2l19.2,33.4l-33.6,57.8l-22.1-37.8c-0.7-1.2-1.9-1.9-3.2-1.9h-43.6l33.4-58.4h37.6
				c5,0.3,9.5,3,12.3,7.1 M368,996.3l-20.8-36.1h41.6l21,36.1H368z M361.1,1000l-20.7,35.7l-20.8-35.8l20.7-35.6
				C340.3,964.2,361.1,1000,361.1,1000z M367.8,1004h41.3l-20.6,35.4h-41.3L367.8,1004z M300.8,901.2c2.8-4,7.3-6.6,12.2-6.9h58.8
				l-33.4,58.4h-67.3L300.8,901.2z M248.1,992.8l18.6-32.4h67.1L311.9,998c-0.7,1.2-0.7,2.6,0,3.8l21.9,37.7h-67.1l-18.6-32.4
				C245.9,1002.5,245.9,997.2,248.1,992.8 M313,1105.7c-5-0.3-9.5-3-12.2-7.1l-29.7-51.4h67.1l33.7,58.6
				C371.9,1105.7,313,1105.7,313,1105.7z M430.6,1098.4c-2.8,4.1-7.4,6.8-12.3,7.1h-37.5l-33.5-58.7h43.9c1.3,0,2.6-0.7,3.2-1.9
				l21.9-37.5l33.3,57.7L430.6,1098.4z M483.2,1007l-29.3,51l-33.4-57.7l33.7-58l29,50.5C485.3,997.2,485.3,1002.5,483.2,1007"/>
		</g>
	</g>
</g>
</svg>
