<svg width="665" height="208" viewBox="0 0 665 208" fill="none" xmlns="http://www.w3.org/2000/svg">
<path d="M342.191 79.3552V90.0435C342.191 91.9031 340.1 92.9474 338.591 91.8663C333.406 88.1518 327.43 86.2571 320.734 86.2571C314.229 86.2571 308.83 88.3393 304.538 92.499C300.245 96.6619 298.17 101.933 298.17 108.175C298.17 114.417 300.246 119.688 304.538 123.851C308.83 128.013 314.227 130.093 320.734 130.093C327.508 130.093 333.48 128.218 338.58 124.54C340.09 123.451 342.192 124.489 342.192 126.355V137.011C342.192 137.722 341.871 138.406 341.304 138.832C335.623 143.086 328.445 145.213 319.766 145.213C308.969 145.213 299.97 141.744 292.633 134.669C285.295 127.594 281.696 118.855 281.696 108.173C281.696 97.4916 285.295 88.7526 292.633 81.6777C299.97 74.6029 308.969 71.1335 319.766 71.1335C328.312 71.1335 335.486 73.2623 341.284 77.5181C341.861 77.9457 342.191 78.6376 342.191 79.3552Z" fill="#25074D"/>
<path d="M349.064 108.316C349.064 97.9108 352.803 89.0324 360.139 81.9576C367.477 74.8827 376.475 71.2756 387.134 71.2756C397.793 71.2756 406.792 74.8827 414.129 81.9576C421.467 89.0324 425.204 97.9108 425.204 108.316C425.204 118.719 421.467 127.597 414.129 134.672C406.792 141.747 397.793 145.354 387.134 145.354C376.475 145.354 367.477 141.747 360.139 134.672C352.803 127.597 349.064 118.719 349.064 108.316ZM402.501 123.99C406.653 119.689 408.729 114.558 408.729 108.316C408.729 102.074 406.652 96.9385 402.501 92.7788C398.347 88.4766 393.225 86.3976 387.134 86.3976C380.905 86.3976 375.782 88.4782 371.63 92.7788C367.615 96.9401 365.539 102.074 365.539 108.316C365.539 114.558 367.615 119.691 371.63 123.99C375.784 128.153 380.905 130.232 387.134 130.232C393.225 130.232 398.347 128.153 402.501 123.99Z" fill="#25074D"/>
<path d="M525.271 108.316C525.271 97.3555 528.594 88.4772 535.377 81.8188C542.159 75.0227 550.88 71.6926 561.402 71.6926C571.507 71.6926 579.676 75.0227 585.903 81.8188C592.271 88.4772 595.457 96.8013 595.457 106.65C595.457 107.954 595.402 109.256 595.327 110.491C595.255 111.689 594.261 112.617 593.064 112.617H541.745C542.3 123.715 550.466 130.79 562.788 130.79C571.691 130.79 578.85 129.043 584.342 125.474C585.855 124.49 587.843 125.552 587.843 127.361V137.05C587.843 137.817 587.468 138.549 586.822 138.964C580.205 143.226 571.964 145.356 562.094 145.356C551.158 145.356 542.159 142.028 535.377 135.509C528.594 128.849 525.271 119.97 525.271 109.011V108.316ZM578.568 100.825C578.568 96.8013 576.908 93.1942 573.585 90.2806C570.263 87.3687 566.248 85.8423 561.403 85.8423C556.281 85.8423 551.85 87.3687 548.115 90.2806C544.376 93.1942 542.439 96.6619 542.161 100.825H578.568Z" fill="#25074D"/>
<path d="M596.097 139.68L619.964 106.373L598.511 76.969C597.416 75.4698 598.486 73.3586 600.34 73.3586H612.72C613.445 73.3586 614.125 73.7062 614.552 74.2925L629.102 94.3045L643.513 74.3005C643.938 73.7094 644.622 73.3586 645.349 73.3586H657.852C659.707 73.3586 660.777 75.473 659.677 76.9722L638.237 106.234L662.115 139.683C663.187 141.185 662.116 143.274 660.272 143.274H647.98C647.251 143.274 646.567 142.923 646.141 142.329L629.099 118.582L612.057 142.329C611.632 142.922 610.948 143.274 610.217 143.274H597.936C596.093 143.274 595.022 141.182 596.097 139.68Z" fill="#25074D"/>
<path d="M436.503 143.274C435.251 143.274 434.238 142.257 434.238 141.004V95.1374V91.0657C434.238 81.2856 442.15 73.3586 451.908 73.3586H469.43C470.682 73.3586 471.695 74.3757 471.695 75.6283V86.2093C471.695 87.4635 470.68 88.479 469.43 88.479H456.941C453.482 88.479 450.682 91.2964 450.696 94.7626L450.711 98.3281V141.004C450.711 142.259 449.696 143.274 448.446 143.274H436.503Z" fill="#25074D"/>
<path d="M504.245 88.4782H517.192C518.443 88.4782 519.456 87.4612 519.456 86.2086V75.6276C519.456 74.3734 518.441 73.3579 517.192 73.3579H504.245V49.5435C504.245 48.0507 502.832 46.9647 501.393 47.3507L489.45 50.5606C488.461 50.8265 487.772 51.7266 487.772 52.7533V73.39H481.024C479.772 73.39 478.759 74.4071 478.759 75.6596V86.2407C478.759 87.4948 479.774 88.5103 481.024 88.5103H487.772V121.496V125.568C487.772 135.348 495.684 143.275 505.442 143.275H517.192C518.443 143.275 519.456 142.258 519.456 141.005V130.424C519.456 129.17 518.441 128.155 517.192 128.155H510.475C507.017 128.155 504.216 125.337 504.23 121.871L504.245 118.306V88.4782Z" fill="#25074D"/>
<path d="M142.245 31.7811L157.937 16.0554C159.707 14.2823 159.707 11.4073 157.937 9.6342L153.043 4.72973C151.274 2.95663 148.405 2.95663 146.635 4.72973L130.943 20.4554C123.41 28.0042 113.375 32.1623 102.685 32.1623C91.9972 32.1623 81.9628 28.0042 74.4298 20.4554L58.7372 4.72973C56.9678 2.95663 54.0988 2.95663 52.3294 4.72973L47.4353 9.6342C45.6659 11.4073 45.6659 14.2823 47.4353 16.0554L63.1279 31.7811C73.6802 42.3556 87.7281 48.1779 102.684 48.1779C117.646 48.1795 131.694 42.3556 142.245 31.7811ZM157.937 201.166C159.707 199.393 159.707 196.517 157.937 194.744L142.245 179.019C131.692 168.444 117.644 162.622 102.687 162.622C87.7313 162.622 73.6833 168.446 63.131 179.019L47.4384 194.744C45.6691 196.517 45.6691 199.393 47.4384 201.166L52.3326 206.07C54.102 207.843 56.9711 207.843 58.7404 206.07L74.433 190.344C81.966 182.796 92.0005 178.637 102.689 178.637C113.378 178.637 123.413 182.796 130.946 190.344L146.638 206.07C148.408 207.843 151.277 207.843 153.046 206.07L157.937 201.166ZM176.152 145.04L191.845 160.766C193.614 162.539 196.483 162.539 198.252 160.766L203.147 155.861C204.916 154.088 204.916 151.213 203.147 149.44L187.454 133.714C179.921 126.165 175.772 116.11 175.772 105.397C175.772 94.6868 179.921 84.6313 187.454 77.0824L203.147 61.3568C204.916 59.5837 204.916 56.7086 203.147 54.9355L198.252 50.031C196.483 48.2579 193.614 48.2579 191.845 50.031L176.152 65.7567C165.6 76.3312 159.79 90.4086 159.79 105.396C159.79 120.388 165.601 134.465 176.152 145.04ZM7.67792 205.516L4.08964 201.918L2.78376 200.611C2.27389 200.1 1.92867 199.495 1.71289 198.854C1.17744 197.27 1.5227 195.454 2.7822 194.19C4.77054 192.198 7.54364 189.419 10.6924 186.263C20.1418 176.794 32.9782 163.929 38.184 158.712L40.5256 156.367C40.5271 156.366 40.5304 156.362 40.5336 156.361C68.5654 128.257 68.5671 82.5426 40.5304 54.4389C40.5288 54.4373 40.5288 54.4373 40.5272 54.4357L35.3901 49.2878C34.9889 48.8874 34.5733 48.471 34.1274 48.0241L2.7822 16.6112C1.01282 14.8381 1.01282 11.9631 2.7822 10.19L7.67636 5.2855C9.22516 3.73344 11.6131 3.53965 13.3713 4.7025C13.6222 4.86908 13.862 5.06286 14.0825 5.2855L42.1431 33.4052L44.3216 35.5883C46.4043 37.6754 48.1833 39.4581 49.4844 40.7619L51.8243 43.1084C51.8259 43.11 51.826 43.11 51.8276 43.1116C65.4135 56.723 83.4717 64.2174 102.684 64.2174C121.896 64.2174 139.957 56.7198 153.542 43.1068L191.287 5.28393C193.056 3.51083 195.925 3.51083 197.695 5.28393L202.589 10.1884C204.358 11.9615 204.358 14.8365 202.589 16.6096L164.845 54.4325C164.842 54.4357 164.84 54.4374 164.837 54.4406C151.258 68.0551 143.779 86.1497 143.779 105.399C143.779 124.652 151.261 142.751 164.845 156.364L183.717 175.275L202.589 194.187C202.811 194.408 203.004 194.648 203.171 194.9C204.333 196.662 204.137 199.056 202.59 200.608L197.696 205.513C195.927 207.286 193.058 207.286 191.288 205.513L153.543 167.69C153.54 167.687 153.537 167.682 153.532 167.679C125.487 139.593 79.8754 139.589 51.8323 167.682C51.8291 167.685 51.8275 167.687 51.8243 167.69L46.5274 172.998C46.1773 173.35 45.8113 173.717 45.4277 174.101L14.0809 205.513C12.3163 207.289 9.4473 207.289 7.67792 205.516ZM74.5913 127.999C73.6978 131.392 76.7522 134.453 80.1375 133.557C94.8982 129.655 110.476 129.655 125.235 133.556C128.622 134.451 131.676 131.389 130.78 127.995C128.826 120.601 127.84 113.002 127.84 105.401C127.84 97.8005 128.825 90.2037 130.778 82.8118C131.675 79.4161 128.617 76.352 125.229 77.2505C117.852 79.2062 110.271 80.1945 102.689 80.1945C95.1028 80.1945 87.5202 79.2062 80.1423 77.2505C76.7554 76.352 73.6993 79.4128 74.5928 82.8069C78.4848 97.5987 78.4848 113.207 74.5913 127.999ZM7.12488 160.766C8.89426 162.539 11.7632 162.539 13.5326 160.766L29.2253 145.04C39.7776 134.465 45.5876 120.388 45.5876 105.399C45.5876 90.4119 39.776 76.3344 29.2253 65.7599L13.5326 50.0342C11.7632 48.2611 8.89426 48.2611 7.12488 50.0342L2.23072 54.9387C0.461343 56.7118 0.461343 59.5869 2.23072 61.36L17.9233 77.0856C25.4563 84.6345 29.6057 94.69 29.6057 105.401C29.6057 116.113 25.4563 126.169 17.9233 133.717L2.23072 149.443C0.461343 151.216 0.461343 154.091 2.23072 155.864L7.12488 160.766Z" fill="#25074D"/>
</svg>
