<svg width="918" height="316" viewBox="0 0 918 316" fill="none" xmlns="http://www.w3.org/2000/svg">
<path d="M316.101 165.514C316.101 139.077 299.709 115.965 275.042 106.973C276.128 101.399 276.693 95.8275 276.693 90.0235C276.693 40.8809 236.712 0.899514 187.561 0.899514C158.853 0.899514 132.145 14.6675 115.362 37.8675C107.112 31.4648 96.9783 27.9582 86.4063 27.9582C60.321 27.9582 39.0983 49.1795 39.0983 75.2662C39.0983 81.0302 40.1263 86.5475 42.0556 91.7528C17.533 100.602 0.670288 124.257 0.670288 150.526C0.670288 177.098 17.1423 200.314 41.921 209.243C40.8676 214.751 40.2943 220.437 40.2943 226.185C40.2943 275.215 80.1809 315.101 129.21 315.101C157.992 315.101 184.684 301.277 201.369 277.981C209.677 284.503 219.834 288.082 230.365 288.082C256.452 288.082 277.674 266.867 277.674 240.782C277.674 235.018 276.645 229.493 274.716 224.288C299.24 215.446 316.101 191.784 316.101 165.514Z" fill="white"/>
<path d="M124.683 136.219L193.703 167.684L263.34 106.668C264.348 101.635 264.842 96.6159 264.842 91.3639C264.842 48.4333 229.92 13.5053 186.99 13.5053C161.307 13.5053 137.352 26.1506 122.791 47.3546L111.208 107.449L124.683 136.219Z" fill="#FDD10B"/>
<path d="M53.2387 209.308C52.2307 214.342 51.7147 219.563 51.7147 224.846C51.7147 267.887 86.7374 302.908 129.785 302.908C155.679 302.908 179.751 290.146 194.288 268.723L205.785 208.832L190.443 179.515L121.149 147.932L53.2387 209.308Z" fill="#24BBB1"/>
<path d="M52.8016 89.8639L100.102 101.032L110.466 47.2533C104.002 42.3133 96.023 39.6092 87.8163 39.6092C67.2603 39.6092 50.543 56.3346 50.543 76.8892C50.543 81.4306 51.3016 85.7839 52.8016 89.8639Z" fill="#EF5098"/>
<path d="M48.6953 101.13C27.562 108.132 12.8687 128.391 12.8687 150.674C12.8687 172.37 26.2873 191.744 46.4287 199.411L112.791 139.427L100.607 113.392L48.6953 101.13Z" fill="#18A8E0"/>
<path d="M206.421 268.721C212.908 273.708 220.849 276.428 228.954 276.428C249.509 276.428 266.226 259.709 266.226 239.155C266.226 234.621 265.469 230.268 263.968 226.188L216.706 215.129L206.421 268.721Z" fill="#92C83E"/>
<path d="M216.037 202.741L268.067 214.91C289.208 207.923 303.901 187.657 303.901 165.366C303.901 143.709 290.451 124.358 270.271 116.714L202.219 176.331L216.037 202.741Z" fill="#0479A1"/>
<path d="M435.833 174.472C435.833 161.143 433.694 151.725 429.421 146.219C425.146 140.713 418.192 137.959 408.557 137.959C398.92 137.959 391.677 140.86 386.825 146.653C381.969 152.449 379.469 161.723 379.326 174.472H435.833ZM441.701 221.632L448.004 220.981L448.438 233.804C431.921 236.119 417.794 237.28 406.058 237.28C390.41 237.28 379.326 232.755 372.806 223.697C366.286 214.644 363.026 200.552 363.026 181.427C363.026 143.321 378.165 124.268 408.449 124.268C423.082 124.268 434.02 128.363 441.266 136.547C448.51 144.733 452.133 157.595 452.133 175.123L451.264 187.511H379.544C379.544 199.54 381.717 208.449 386.064 214.243C390.41 220.04 397.98 222.937 408.776 222.937C419.568 222.937 430.542 222.501 441.701 221.632" fill="#231F20"/>
<path d="M474.863 93.3961H491.163V236.443H474.863V93.3961Z" fill="#231F20"/>
<path d="M526.873 203.594C526.873 216.926 532.379 223.589 543.391 223.589C553.243 223.589 562.951 221.925 572.513 218.59L577.512 216.85V180.992L545.347 184.034C538.827 184.616 534.117 186.5 531.22 189.684C528.32 192.873 526.873 197.509 526.873 203.594ZM593.812 159.258V214.074C593.812 219.505 607.339 219.289 607.339 219.289L606.507 233.69C595.06 233.69 585.581 234.64 579.887 229.134C566.847 234.93 553.823 237.281 540.783 237.281C530.785 237.281 523.179 234.456 517.963 228.805C512.747 223.154 510.139 215.041 510.139 204.462C510.139 193.889 512.817 186.098 518.18 181.1C523.539 176.101 531.944 173.025 543.391 171.864L577.512 168.604V159.258C577.512 151.869 575.916 146.581 572.731 143.393C569.541 140.208 565.196 138.612 559.691 138.612L516.864 138.648V124.268H558.604C570.917 124.268 579.865 127.093 585.445 132.742C591.021 138.394 593.812 147.233 593.812 159.258Z" fill="#231F20"/>
<path d="M657.431 138.829C641.636 138.829 633.741 144.337 633.741 155.346C633.741 160.419 635.551 164.006 639.175 166.103C642.795 168.206 651.053 170.379 663.951 172.625C676.845 174.871 685.972 178.023 691.335 182.078C696.693 186.135 699.376 193.743 699.376 204.898C699.376 216.057 695.791 224.241 688.617 229.457C681.445 234.673 670.976 237.281 657.213 237.281C648.228 237.281 618.248 233.954 618.248 233.954L619.117 219.829C636.349 221.49 648.808 222.719 657.213 222.719C665.615 222.719 672.025 221.381 676.447 218.698C680.865 216.019 683.076 211.526 683.076 205.225C683.076 198.921 681.191 194.649 677.425 192.402C673.656 190.157 665.397 188.021 652.649 185.99C639.897 183.963 630.841 180.991 625.483 177.078C620.121 173.167 617.441 165.923 617.441 155.346C617.441 144.771 621.169 136.947 628.633 131.874C636.095 126.803 645.403 124.267 656.561 124.267C665.397 124.267 696.064 126.514 696.064 126.514V140.726C679.932 139.99 666.701 138.829 657.431 138.829Z" fill="#231F20"/>
<path d="M777.991 140.567H743.435V192.51C743.435 204.974 744.338 213.156 746.153 217.068C747.962 220.982 752.271 222.936 759.083 222.936L778.426 221.632L779.513 235.107C769.803 236.7 762.414 237.498 757.345 237.498C746.043 237.498 738.219 234.748 733.873 229.239C729.526 223.735 727.353 213.231 727.353 197.726V140.567H711.922V126.44H727.353V93.1883H743.435V126.44H777.991V140.567Z" fill="#231F20"/>
<path d="M800.652 126.441H816.952V236.443H800.652V126.441ZM800.652 93.6494H816.952V112.557H800.652V93.6494Z" fill="#231F20"/>
<path d="M887.554 124.268C892.336 124.268 900.449 125.137 911.896 126.876L917.112 127.528L916.46 140.785C904.866 139.481 896.32 138.829 890.814 138.829C878.498 138.829 870.13 141.762 865.713 147.63C861.292 153.5 859.084 164.365 859.084 180.232C859.084 196.096 861.149 207.146 865.277 213.374C869.408 219.605 877.992 222.72 891.032 222.72L916.677 220.764L917.329 234.238C903.854 236.265 893.782 237.281 887.12 237.281C870.168 237.281 858.466 232.934 852.021 224.24C845.572 215.548 842.349 200.877 842.349 180.232C842.349 159.584 845.826 145.097 852.781 136.764C859.736 128.434 871.326 124.268 887.554 124.268Z" fill="#231F20"/>
</svg>
