<svg width="500" height="447" viewBox="0 0 500 447" fill="none" xmlns="http://www.w3.org/2000/svg">
<path d="M289.667 24.7852C285.643 17.8169 279.857 12.0309 272.892 8.0082C265.926 3.98554 258.026 1.86786 249.983 1.86786C241.941 1.86786 234.041 3.98554 227.075 8.0082C220.109 12.0309 214.324 17.8169 210.3 24.7852L144.967 138.036L161.633 147.61C207.445 174.126 245.982 211.583 273.803 256.637C301.623 301.69 317.861 352.938 321.067 405.803H275.2C272.025 360.954 257.904 317.57 234.077 279.453C210.25 241.336 177.444 209.65 138.533 187.173L121.867 177.632L61 283.545L77.6667 293.119C97.8656 304.992 115.102 321.307 128.072 340.829C141.043 360.351 149.407 382.569 152.533 405.803H47.7667C46.4264 405.825 45.1044 405.49 43.9358 404.833C42.7672 404.175 41.794 403.219 41.1158 402.062C40.4377 400.905 40.0789 399.588 40.0761 398.247C40.0733 396.906 40.4267 395.587 41.1 394.427L70.3 343.823C60.4368 335.501 49.1413 329.047 36.9667 324.776L8.0667 375.28C4.04783 382.253 1.9334 390.161 1.93582 398.211C1.93825 406.26 4.05745 414.168 8.08052 421.138C12.1036 428.108 17.8888 433.896 24.8551 437.921C31.8213 441.945 39.7231 444.064 47.7667 444.064H191.933V424.95C191.943 394.726 184.773 364.932 171.014 338.026C157.255 311.12 137.302 287.873 112.8 270.201L135.733 230.439C167.135 252.191 192.803 281.232 210.544 315.077C228.284 348.922 237.567 386.565 237.6 424.783V443.931H359.767V424.817C359.711 365.152 344.797 306.441 316.373 253.993C287.948 201.545 246.909 157.014 196.967 124.426L243.333 43.9328C243.998 42.783 244.953 41.8284 246.103 41.1647C247.252 40.5011 248.556 40.1517 249.883 40.1517C251.211 40.1517 252.514 40.5011 253.664 41.1647C254.814 41.8284 255.769 42.783 256.433 43.9328L458.633 394.427C459.307 395.587 459.66 396.906 459.657 398.247C459.655 399.588 459.296 400.905 458.618 402.062C457.939 403.219 456.966 404.175 455.798 404.833C454.629 405.49 453.307 405.825 451.967 405.803H404.667C405.267 418.579 405.333 431.355 404.667 444.098H452.133C460.177 444.097 468.079 441.979 475.045 437.954C482.011 433.93 487.796 428.142 491.82 421.171C495.843 414.201 497.962 406.294 497.964 398.244C497.967 390.195 495.852 382.286 491.833 375.313L289.667 24.7852Z" fill="#221F20"/>
</svg>
