<svg width="601" height="134" viewBox="0 0 601 134" fill="none" xmlns="http://www.w3.org/2000/svg">
<path d="M372.56 85.76L328.07 28.33H317V105.33H328.22V46.33L373.96 105.33H383.78V28.33H372.56V85.76ZM260.56 71.49H300.4V61.49H260.52V38.31H305.52V28.31H249.07V105.31H306.07V95.31H260.52L260.56 71.49ZM213.72 61.71C198.15 57.99 193.89 55.02 193.89 47.87C193.89 41.41 199.6 37.06 208.11 37.06C215.2 37.06 222.18 39.57 229.41 44.73L235.47 36.19C227.47 30.06 218.82 27.19 208.34 27.19C193.09 27.19 182.45 36.19 182.45 49.11C182.45 62.95 191.45 67.74 207.95 71.74C222.46 75.09 226.88 78.24 226.88 85.24C226.88 92.24 220.88 96.62 211.53 96.62C202.46 96.62 194.72 93.62 186.53 86.8L179.74 94.88C188.47 102.406 199.624 106.525 211.15 106.48C227.64 106.48 238.29 97.61 238.29 83.88C238.27 72.23 231.38 66 213.68 61.71H213.72ZM587.62 28.34L564.43 64.65L541.43 28.34H528L558.51 74.88V105.35H570.07V74.53L600.57 28.34H587.62ZM392.87 38.76H418.1V105.34H429.67V38.76H454.9V28.33H392.9L392.87 38.76ZM508.4 75.28C520.04 72.07 526.4 63.91 526.4 52.28C526.4 37.5 515.56 28.28 498.12 28.28H464V105.28H475.45V77.62H494.87L514.41 105.34H527.78L506.68 75.76L508.4 75.28ZM475.4 67.76V38.53H497C508.27 38.53 514.74 43.84 514.74 53.09C514.74 62 507.82 67.76 497.12 67.76H475.4ZM86.9 7.43C85.6928 5.34108 83.9572 3.60656 81.8676 2.40067C79.7779 1.19477 77.4077 0.559937 74.995 0.559937C72.5823 0.559937 70.2122 1.19477 68.1225 2.40067C66.0328 3.60656 64.2972 5.34108 63.09 7.43L43.49 41.38L48.49 44.25C62.2336 52.1989 73.7947 63.4276 82.1408 76.9337C90.487 90.4397 95.3584 105.802 96.32 121.65H82.56C81.6074 108.205 77.3713 95.1999 70.2232 83.7733C63.075 72.3468 53.2331 62.8481 41.56 56.11L36.56 53.25L18.3 85L23.3 87.87C29.3597 91.4294 34.5306 96.3202 38.4217 102.172C42.3128 108.025 44.8222 114.685 45.76 121.65H14.33C13.9279 121.657 13.5313 121.556 13.1807 121.359C12.8302 121.162 12.5382 120.876 12.3348 120.529C12.1313 120.182 12.0237 119.787 12.0228 119.385C12.022 118.983 12.128 118.588 12.33 118.24L21.09 103.07C18.131 100.575 14.7424 98.6403 11.09 97.36L2.42001 112.5C1.21435 114.59 0.580023 116.961 0.58075 119.374C0.581478 121.787 1.21724 124.158 2.42416 126.247C3.63108 128.337 5.36666 130.072 7.45652 131.278C9.54639 132.485 11.9169 133.12 14.33 133.12H57.58V127.39C57.5829 118.329 55.4318 109.398 51.3041 101.332C47.1765 93.2665 41.1906 86.2975 33.84 81L40.72 69.08C50.1404 75.6008 57.841 84.3066 63.1631 94.4527C68.4851 104.599 71.2702 115.883 71.28 127.34V133.08H107.93V127.35C107.913 109.464 103.439 91.8637 94.9118 76.1411C86.3844 60.4185 74.0727 47.0691 59.09 37.3L73 13.17C73.1994 12.8253 73.4859 12.5392 73.8308 12.3402C74.1757 12.1413 74.5668 12.0365 74.965 12.0365C75.3632 12.0365 75.7544 12.1413 76.0993 12.3402C76.4442 12.5392 76.7307 12.8253 76.93 13.17L137.59 118.24C137.792 118.588 137.898 118.983 137.897 119.385C137.896 119.787 137.789 120.182 137.585 120.529C137.382 120.876 137.09 121.162 136.739 121.359C136.389 121.556 135.992 121.657 135.59 121.65H121.4C121.58 125.48 121.6 129.31 121.4 133.13H135.64C138.053 133.13 140.424 132.495 142.514 131.288C144.603 130.082 146.339 128.347 147.546 126.257C148.753 124.168 149.389 121.797 149.389 119.384C149.39 116.971 148.756 114.6 147.55 112.51L86.9 7.43Z" fill="#221F20"/>
</svg>
