<?xml version="1.0" encoding="utf-8"?>
<!-- Generator: Adobe Illustrator 25.3.1, SVG Export Plug-In . SVG Version: 6.00 Build 0)  -->
<svg version="1.1" id="Layer_1" xmlns="http://www.w3.org/2000/svg" xmlns:xlink="http://www.w3.org/1999/xlink" x="0px" y="0px"
	 viewBox="0 0 1920 1080" style="enable-background:new 0 0 1920 1080;" xml:space="preserve">
<style type="text/css">
	.st0{fill:#1E61F0;}
</style>
<g id="logo_x5F_white_11_">
	<path class="st0" d="M336.73,479.6c3.95,12,8.25,26.87,12.81,44.21c-17.28-0.27-34.77-0.46-51.7-0.66l-8.57-0.1
		c9.69-37.87,21.5-66.6,30.14-73.39c0.55-0.35,1.41-0.77,2.35-0.77c1.13,0,2.16,0.62,3.06,1.81
		C327.06,454.21,330.96,462.06,336.73,479.6z M506.22,540.18c0,89.57-72.61,162.19-162.19,162.19s-162.19-72.61-162.19-162.19
		s72.61-162.19,162.19-162.19S506.22,450.6,506.22,540.18z M464.63,535.96c0-4.19-2.95-7.69-6.93-8.48
		c-0.02-0.01-0.05-0.01-0.07-0.02c-0.05-0.01-0.09-0.02-0.14-0.03l-0.16-0.01c-0.42-0.07-0.85-0.11-1.29-0.12l-1.15-0.11
		c-27.35-1.96-55.48-2.73-81.88-3.26l-0.05-0.19c-12.85-48.19-28.89-97.45-50.53-97.45c-20.16,0.09-38.34,32.46-54.03,96.22
		c-11.09-0.14-21.2-0.29-30.73-0.46c-0.54-0.01-1.03-0.01-1.46-0.01c-2.03,0-3.02,0.08-3.52,0.15c-5.37,0.95-9.26,5.64-9.26,11.14
		c0,5.61,4.19,10.43,9.65,11.21l0.11,0.11h30.4c-2.78,12.71-5.22,25.28-7.25,37.4l-0.89,5.33l-0.01,0.26
		c0.02,4.11,3.38,7.46,7.49,7.46c2.61,0,4.97-1.36,6.32-3.48l0.22,0.17l14.73-47.13h70.94c5.42,20.48,11.04,41.62,18.47,61.47
		c3.97,10.61,13.27,35.46,28.82,35.59l0.15,0c23.76,0,33.02-38.38,39.15-63.78c1.32-5.47,2.46-10.19,3.53-13.65l0.43-1.43l0,0
		c0.2-0.66,0.22-1.41-0.01-2.17c-0.39-1.28-1.49-2.26-2.8-2.5c-1.87-0.35-3.55,0.72-4.15,2.32l-0.01,0l-0.51,1.42
		c-2.02,5.58-3.88,10.86-5.53,15.54l-0.12,0.35c-10.28,29.12-14.98,42.42-24.17,42.42l0.05,0l-0.13,0.02l-0.23-0.01
		c-11.96,0-23.22-48.62-27.46-66.92c-0.73-3.17-1.41-6.08-2.03-8.64c0,0,77.22,0,77.34,0c1.45,0,2.82-0.36,4.02-0.99
		c0.01,0,0.01-0.01,0.02-0.01c0.12-0.06,0.24-0.13,0.36-0.2c0.13-0.08,0.26-0.15,0.38-0.23c0.06-0.04,0.12-0.08,0.18-0.12
		c0.19-0.13,0.37-0.26,0.54-0.41c0.01-0.01,0.02-0.02,0.04-0.03C463.39,541.06,464.63,538.64,464.63,535.96z M671.1,580.48
		l12.91,31.92H721l-70.91-166.1h-33.03l-71.15,166.1h37.23l12.91-31.92H671.1z M658.08,549.21h-49l24.26-60.4L658.08,549.21z
		 M880.49,492.57c-18.23,0-29.89,5.09-42.28,16.49c-9.23-10.67-22.36-16.49-37.18-16.49c-13.61,0-21.39,3.88-28.68,10.67v-6.79
		h-33.22V612.4H773v-76.16c6.79-9.22,14.07-13.1,20.61-13.1c16.01,0,24.98,9.95,24.98,28.38v60.88h33.22V548.6
		c0-4.37-0.48-8.49-0.97-12.61c7.03-9.7,14.79-12.86,21.83-12.86c15.76,0,24.74,9.95,24.74,28.38v60.88h33.87V548.6
		C931.28,514.64,908.92,492.57,880.49,492.57z M1022.39,494.03c-13.16,0-24.12,3.39-33.14,9.2v-6.78h-33.87v171.96h33.87v-62.73
		c9.02,5.81,19.98,9.2,33.14,9.2c32.17,0,57.99-26.64,57.99-60.31C1080.39,520.43,1054.56,494.03,1022.39,494.03z M1016.66,586.34
		c-9.95,0-19.89-3.4-27.41-13.34v-37.11c7.52-10.19,17.46-13.58,27.41-13.58c17.46,0,30.08,15.04,30.08,32.26
		C1046.74,571.54,1034.13,586.34,1016.66,586.34z M1132.55,440.44h-33.87V612.4h33.87V440.44z M1182.98,474.76
		c11.16,0,20.13-8.25,20.13-19.4c0-11.4-8.98-19.89-20.13-19.89c-11.4,0-20.37,8.49-20.37,19.89
		C1162.6,466.51,1171.58,474.76,1182.98,474.76z M1166.42,496.45V612.4h33.87V496.45H1166.42z M1318.96,582.36
		c-6.63,1.7-13.5,3.15-19.88,3.15c-12.52,0-20.62-6.06-20.62-19.16v-41.24h41.69v-28.66h-42.34v-41.69h-33.22v41.69h-24.75v28.66
		h24.75v41.48c0,30.08,18.65,49.97,47.12,49.97c11.05,0,17.43-0.97,31.66-5.34L1318.96,582.36z M1457.58,496.45h-33.87v74.71
		c-7.72,9.46-16.88,14.55-25.32,14.55c-15.67,0-24.84-9.95-24.84-28.38v-60.88h-33.87v64.04c0,33.72,20.34,55.79,50.85,55.79
		c13.08,0,23.73-4.37,33.17-11.89v8h33.87V496.45z M1600.88,440.44h-33.87v62.73c-9.02-5.81-19.98-9.2-33.14-9.2
		c-32.17,0-58.24,26.64-58.24,60.31c0,34.15,26.07,60.55,58.24,60.55c13.16,0,24.12-3.39,33.14-9.2v6.78h33.87V440.44z
		 M1539.6,586.58c-17.71,0-30.08-15.04-30.08-32.26c0-16.98,12.37-31.78,30.08-31.78c9.95,0,19.89,3.4,27.41,13.34v37.11
		C1559.49,583.18,1549.55,586.58,1539.6,586.58z M1738.86,551.9c0-36.15-24.91-59.84-58.38-59.84c-36.88,0-62.04,26.14-62.04,62.29
		c0,34.93,25.4,62.04,63.02,62.04c27.6,0,49.58-15.39,55.94-37.86h-35.42c-3.66,5.86-10.26,8.79-19.78,8.79
		c-18.56,0-27.6-10.75-30.29-24.43h86.22C1738.62,559.47,1738.86,556.79,1738.86,551.9z M1680.71,520.79
		c13.58,0,22.32,8,24.26,22.56h-52.64C1655.48,530.25,1664.46,520.79,1680.71,520.79z"/>
</g>
</svg>
