<svg width="32" height="32" viewBox="0 0 32 32" fill="none" xmlns="http://www.w3.org/2000/svg">
<g clip-path="url(#clip0_20649_63676)">
<path d="M32 0H0V32H32V0Z" fill="#C925D1"/>
<path fill-rule="evenodd" clip-rule="evenodd" d="M19.1833 17.4178L20.5629 12.8231C20.6249 12.6196 20.5858 12.3985 20.4589 12.2274C20.332 12.0562 20.1309 11.9565 19.9176 11.9565H18.9848L20.3347 9.26081H23.7068L22.6511 12.4174C22.5837 12.6223 22.6174 12.8487 22.7456 13.0239C22.8712 13.2005 23.075 13.3043 23.2923 13.3043H24.1279L19.1833 17.4178ZM26.6266 12.3999C26.5294 12.1344 26.277 11.9565 25.9921 11.9565H24.2278L25.2835 8.79985C25.3509 8.59498 25.3172 8.36855 25.189 8.19198C25.0621 8.01677 24.8596 7.91298 24.6422 7.91298H19.9176C19.6611 7.91298 19.4289 8.0572 19.3142 8.28498L17.2893 12.3285C17.1854 12.5374 17.1949 12.7854 17.3177 12.9835C17.4419 13.183 17.6592 13.3043 17.8928 13.3043H19.0105L17.2462 19.1754C17.1611 19.4611 17.2718 19.7671 17.5215 19.9315C17.6349 20.0056 17.7632 20.0434 17.8928 20.0434C18.0466 20.0434 18.1992 19.9908 18.3247 19.887L26.4241 13.1479C26.6414 12.966 26.7238 12.6681 26.6266 12.3999ZM19.7799 23.5046C19.7799 24.1205 17.7038 25.3188 13.8984 25.3188C10.093 25.3188 8.01689 24.1205 8.01689 23.5046V22.0826C9.39919 22.9048 11.6576 23.3267 13.8984 23.3267C16.1392 23.3267 18.3976 22.9048 19.7799 22.0826V23.5046ZM19.7799 20.1647C19.7799 20.7806 17.7038 21.9789 13.8984 21.9789C10.093 21.9789 8.01689 20.7806 8.01689 20.1647C8.01689 20.0366 8.11543 19.8843 8.28282 19.7266C9.61652 20.4221 11.663 20.8319 13.8984 20.8319C13.9254 20.8319 15.9934 20.7887 15.9934 20.7887V19.4409C15.9664 19.4409 13.8984 19.484 13.8984 19.484C11.6954 19.484 9.66242 19.0514 8.59465 18.3573C8.23422 18.12 8.01824 17.864 8.01689 17.6699V16.2479C9.39919 17.0701 11.6576 17.4933 13.8984 17.4933C14.2534 17.4933 15.7802 17.3855 16.2567 17.3518L16.285 16.6738L16.1608 16.0067C15.7019 16.039 14.2386 16.1455 13.8984 16.1455C10.093 16.1455 8.01689 14.9459 8.01689 14.33C8.01689 14.1965 8.12218 14.0375 8.30037 13.8744C9.35869 14.3421 11.4294 14.8677 16.4241 14.9284L16.4403 13.5806C12.373 13.5321 9.79201 13.1762 8.59465 12.5212C8.23422 12.284 8.01824 12.0279 8.01689 11.8338V10.4132C9.39919 11.2354 11.6576 11.6572 13.8984 11.6572C14.0023 11.6572 16.6414 11.6087 16.7453 11.6047L16.6873 10.2582C16.5442 10.2636 14.0253 10.3094 13.8984 10.3094C10.093 10.3094 8.01689 9.1112 8.01689 8.49524C8.01689 7.87929 10.093 6.68107 13.8984 6.68107C15.66 6.68107 17.3339 6.95738 18.4894 7.44125L19.0118 6.19721C17.6768 5.64056 15.8612 5.33325 13.8984 5.33325C10.3063 5.33325 6.66834 6.41825 6.66699 8.49255V11.8419C6.66699 11.8419 6.78983 12.6142 7.20155 13.0765C6.78443 13.5401 6.66699 13.9917 6.66699 14.3286V17.6833C6.66834 18.0136 6.78983 18.4583 7.1975 18.9166C6.78443 19.3789 6.66699 19.8291 6.66699 20.1647V23.5113C6.67374 25.5829 10.309 26.6666 13.8984 26.6666C17.4918 26.6666 21.1298 25.5816 21.1298 23.5073V20.1647H19.7799Z" fill="white"/>
</g>
<defs>
<clipPath id="clip0_20649_63676">
<rect width="32" height="32" fill="white"/>
</clipPath>
</defs>
</svg>
