<svg xmlns="http://www.w3.org/2000/svg" xmlns:xlink="http://www.w3.org/1999/xlink" viewBox="0 0 115.198 34.396" fill="#fff" fill-rule="evenodd" stroke="#000" stroke-linecap="round" stroke-linejoin="round"><use xlink:href="#A" x=".698" y=".698"/><symbol id="A" overflow="visible"><path d="M46.743 20.767H45.22c-.102 0-.198.048-.26.13-.885 1.308-2.38 2.168-4.08 2.168-2.72 0-4.923-2.204-4.923-4.923s2.204-4.923 4.923-4.923a4.92 4.92 0 0 1 4.08 2.169c.062.08.158.13.26.13h1.524a.33.33 0 0 0 .293-.475 6.89 6.89 0 0 0-6.156-3.792c-3.806 0-6.893 3.086-6.893 6.893s3.086 6.893 6.893 6.893a6.89 6.89 0 0 0 6.155-3.792c.024-.046.036-.096.036-.147a.33.33 0 0 0-.329-.328zM51.338 8.95c0 1.75-2.626 1.75-2.626 0s2.626-1.75 2.626 0zm-.327 15.426v-12.8h-1.97v12.8a.33.33 0 0 0 .328.328h1.313a.33.33 0 0 0 .328-.328zm8.54-13.12c-1.986.094-3.573 1.043-4.6 2.492v-1.844a.33.33 0 0 0-.328-.328H53.3a.33.33 0 0 0-.328.328v12.472c0 .18.146.328.328.328h1.313a.33.33 0 0 0 .328-.328V18.14a4.93 4.93 0 0 1 4.595-4.912.33.33 0 0 0 .329-.329v-1.316a.33.33 0 0 0-.323-.328zm13.08 9.5h-1.524c-.102 0-.198.048-.26.13-.885 1.308-2.38 2.168-4.08 2.168-2.72 0-4.923-2.204-4.923-4.923s2.204-4.923 4.923-4.923c1.698 0 3.194.86 4.08 2.17.062.08.158.13.26.13h1.534a.33.33 0 0 0 .329-.328.32.32 0 0 0-.036-.147 6.89 6.89 0 0 0-6.155-3.792c-3.807 0-6.893 3.086-6.893 6.893s3.086 6.893 6.893 6.893a6.89 6.89 0 0 0 6.155-3.792c.024-.046.036-.096.036-.147a.33.33 0 0 0-.329-.328zM76.57 7.3h-1.313a.33.33 0 0 0-.328.328v16.74a.33.33 0 0 0 .328.328h1.313a.33.33 0 0 0 .328-.328V7.637a.33.33 0 0 0-.328-.328zm9.2 3.94c-3.807 0-6.893 3.086-6.893 6.893s3.086 6.893 6.893 6.893a6.89 6.89 0 0 0 6.155-3.792c.113-.218-.047-.478-.292-.475H90.1c-.105 0-.203.05-.265.135-.885 1.304-2.38 2.162-4.075 2.162-2.496 0-4.558-1.858-4.88-4.267h11.434a.33.33 0 0 0 .327-.312l.01-.345c0-3.807-3.086-6.893-6.892-6.893zm-4.745 5.58c.575-2.08 2.48-3.6 4.745-3.6a4.93 4.93 0 0 1 4.745 3.6zm30.702-9.847c-2.626 0-2.626 3.94 0 3.94s2.626-3.94 0-3.94zm1.64 4.595v12.8a.33.33 0 0 1-.328.328h-2.626a.33.33 0 0 1-.328-.328v-12.8zM101.5 25.033c3.218 0 5.917-2.205 6.678-5.185a.3.3 0 0 0 .008-.067.33.33 0 0 0-.328-.328H105.1a.33.33 0 0 0-.298.192c-.572 1.242-1.825 2.105-3.282 2.105a3.61 3.61 0 1 1 3.281-5.114.33.33 0 0 0 .298.191h2.778a.33.33 0 0 0 .328-.328c0-.022-.003-.044-.008-.066-.76-2.98-3.46-5.186-6.678-5.186-3.806 0-6.893 3.086-6.893 6.893s3.087 6.893 6.893 6.893zm-89.797-9.027a3.8 3.8 0 0 1 3.81-3.81 3.8 3.8 0 0 1 3.81 3.81 3.8 3.8 0 0 1-3.81 3.81 3.8 3.8 0 0 1-3.81-3.81zm3.8-16c-7.456 0-13.72 5.1-15.497 12a.78.78 0 0 0-.026.19.76.76 0 0 0 .762.762h6.452a.75.75 0 0 0 .69-.447c.12-.273.01-.018.014-.028a8.38 8.38 0 0 1 7.607-4.861c4.63 0 8.383 3.752 8.383 8.38a8.38 8.38 0 0 1-8.381 8.381c-3.37 0-6.275-1.992-7.607-4.86-.004-.01-.014-.028-.014-.028a.76.76 0 0 0-.691-.447H.763a.76.76 0 0 0-.762.762.75.75 0 0 0 .027.19c1.777 6.9 8.042 12 15.497 12 8.838-.015 16.015-7.164 16.015-16s-7.164-16-16-16z" stroke="none" fill="#161616" fill-rule="nonzero"/></symbol></svg>