<svg xmlns="http://www.w3.org/2000/svg" xmlns:xlink="http://www.w3.org/1999/xlink" viewBox="0 0 112 23" fill="#fff" fill-rule="evenodd" stroke="#000" stroke-linecap="round" stroke-linejoin="round"><use xlink:href="#A" x=".5" y=".5"/><symbol id="A" overflow="visible"><g stroke="none"><path d="M9.892 7.763L7.04 8.51C5.14 6.812 2.694 5.68 0 5.41c2.105-1.494 6.7-4.255 13.286-4.278l-1.63 1.494s6.95-.25 8.7-2.626c-.023.226-.158.52-.226.724-.498 1.45-1.403 2.626-2.535 3.53-1.086.883-2.354 1.516-3.6 2.037-1.3.543-2.58 1.04-3.916 1.426a.42.42 0 0 1-.18.045m10.932-.045s-6.44-.474-13.14 1.63c.886.912 1.633 1.949 2.218 3.078 3.508-1.924 8.374-4.368 10.9-4.708m-10.407 5.65c.407 1.064.68 2.173.77 3.35l6.02-6.337z" fill="#f99d1c"/><path d="M29.382 16.943l-.25-1.403c-.543.475-1.11.86-1.72 1.177-.61.294-1.245.453-1.9.453a4.31 4.31 0 0 1-1.222-.158c-.362-.113-.702-.272-.973-.52-.294-.226-.498-.52-.656-.86s-.25-.77-.25-1.222c0-.566.113-1.086.34-1.54s.61-.837 1.132-1.177 1.222-.61 2.06-.815a22.37 22.37 0 0 1 3.146-.498v-.917c0-.747-.204-1.3-.61-1.652s-.95-.543-1.675-.543a6.89 6.89 0 0 0-1.788.25c-.604.163-1.188.391-1.743.679l-.136-.973c.588-.272 1.177-.475 1.765-.656a7.46 7.46 0 0 1 1.924-.249c1.04 0 1.856.272 2.4.792s.837 1.3.837 2.31v7.514zm-.272-5.726c-1.064.113-1.946.272-2.67.453s-1.3.385-1.743.634c-.43.25-.747.543-.95.86a2.44 2.44 0 0 0-.294 1.154c0 .656.204 1.154.61 1.47s.905.475 1.494.475c.543 0 1.154-.158 1.765-.453a6.51 6.51 0 0 0 1.765-1.222v-3.372zm12.992.25c0 .95-.136 1.788-.385 2.5s-.61 1.313-1.04 1.765c-.453.475-.95.815-1.516 1.04s-1.177.34-1.81.34a7.73 7.73 0 0 1-1.471-.136c-.475-.09-.905-.226-1.313-.385v4.2l-1.04.226V6.531h.747l.272 1.516a7.27 7.27 0 0 1 1.426-1.222c.521-.339 1.154-.52 1.9-.52.566 0 1.11.113 1.63.317s.973.52 1.358.95a4.62 4.62 0 0 1 .928 1.607c.204.656.317 1.403.317 2.286m-1.086.045c0-1.403-.294-2.444-.905-3.17s-1.38-1.086-2.31-1.086a3.07 3.07 0 0 0-1.72.52c-.52.34-1.04.815-1.54 1.403v6.386a6.02 6.02 0 0 0 1.313.475 6.06 6.06 0 0 0 1.45.158c.52 0 .996-.09 1.45-.272a2.94 2.94 0 0 0 1.177-.86c.34-.385.588-.883.792-1.47s.294-1.267.294-2.082m12.403-.045c0 .95-.136 1.788-.385 2.5s-.61 1.313-1.04 1.765c-.453.475-.95.815-1.516 1.04s-1.177.34-1.81.34a7.73 7.73 0 0 1-1.471-.136c-.475-.09-.905-.226-1.313-.385v4.2l-1.04.226V6.531h.747l.272 1.516a7.27 7.27 0 0 1 1.426-1.222c.521-.339 1.154-.52 1.9-.52.566 0 1.11.113 1.63.317s.973.52 1.358.95a4.62 4.62 0 0 1 .928 1.607c.204.656.317 1.403.317 2.286m-1.086.045c0-1.403-.294-2.444-.905-3.17s-1.38-1.086-2.31-1.086a3.07 3.07 0 0 0-1.72.52c-.52.34-1.04.815-1.54 1.403v6.386a6.02 6.02 0 0 0 1.313.475 6.06 6.06 0 0 0 1.45.158c.52 0 .996-.09 1.45-.272a2.94 2.94 0 0 0 1.177-.86c.34-.385.588-.883.792-1.47s.294-1.267.294-2.082m13.082-.113c0 .86-.136 1.652-.385 2.33s-.61 1.267-1.064 1.743a4.48 4.48 0 0 1-1.63 1.086c-.61.25-1.313.385-2.06.385a5.53 5.53 0 0 1-2.037-.385 4.61 4.61 0 0 1-1.607-1.086c-.453-.476-.792-1.064-1.04-1.743s-.385-1.45-.385-2.33c0-.86.136-1.652.385-2.33a5.01 5.01 0 0 1 1.064-1.743 4.98 4.98 0 0 1 1.607-1.109c.61-.25 1.3-.385 2.037-.385s1.426.136 2.037.385a4.65 4.65 0 0 1 1.607 1.11c.453.476.815 1.064 1.064 1.743.272.702.407 1.47.407 2.33m-2.626 0c0-.996-.226-1.788-.656-2.422s-1.04-.95-1.856-.95-1.403.317-1.833.928c-.407.634-.61 1.45-.61 2.444 0 .973.204 1.765.634 2.422.407.634 1.02.95 1.81.95.837 0 1.47-.317 1.88-.928.43-.61.634-1.426.634-2.444m14.17-.226c0 .996-.136 1.856-.385 2.603s-.588 1.335-1.02 1.81-.905.815-1.47 1.04-1.132.34-1.765.34c-.52 0-.973-.045-1.38-.113l-1.086-.294v4.074l-2.626.385V6.078h2.24l.25 1.47c.385-.43.837-.815 1.358-1.177.52-.34 1.154-.52 1.9-.52a3.93 3.93 0 0 1 1.562.317 3.73 3.73 0 0 1 1.267.973c.362.43.656.996.86 1.652a9.26 9.26 0 0 1 .294 2.377m-2.648.158c0-1.04-.18-1.81-.566-2.33s-.883-.77-1.47-.77c-.475 0-.905.136-1.3.407a4.49 4.49 0 0 0-1.11 1.11v4.618a6.02 6.02 0 0 0 .928.362c.294.068.656.113 1.11.113.68 0 1.267-.294 1.72-.86.453-.588.68-1.47.68-2.648m9.846 5.794l.724-.113-.34-2.24c-.226.068-.498.09-.86.09-.52 0-.883-.113-1.11-.34s-.317-.566-.317-.996V8.433h2.558l-.34-2.173h-2.222V2.458l-2.648.407V6.26h-1.516v2.173h1.516v5.5c0 .61.09 1.11.25 1.54.18.407.407.747.724.996a2.99 2.99 0 0 0 1.109.543c.43.113.928.158 1.45.158l1.02-.045m5.477-14.237c0 .453-.158.815-.475 1.086s-.68.43-1.11.43a1.57 1.57 0 0 1-1.132-.43c-.317-.272-.475-.656-.475-1.086 0-.453.158-.837.475-1.132a1.57 1.57 0 0 1 1.132-.43 1.56 1.56 0 0 1 1.11.43c.318.294.475.68.475 1.132zm-2.912 14.055h2.67V6.193h-2.67zm11.656-.226c.566-.158 1.132-.43 1.675-.815l-.362-2.263c-.498.385-.973.656-1.403.792a4.49 4.49 0 0 1-1.358.226 2.71 2.71 0 0 1-2.014-.815c-.52-.543-.792-1.358-.792-2.467 0-1.064.25-1.856.747-2.422.498-.543 1.132-.837 1.9-.837a4.3 4.3 0 0 1 1.45.25c.454.16.905.407 1.358.747l.385-2.377c-.43-.272-.905-.475-1.45-.656a6.76 6.76 0 0 0-1.88-.25c-.703 0-1.38.113-1.992.362-.634.226-1.177.588-1.63 1.064-.475.475-.837 1.064-1.11 1.765s-.407 1.516-.407 2.444c0 .86.136 1.652.385 2.33s.61 1.267 1.04 1.72c.453.475.973.815 1.607 1.064.61.25 1.3.362 2.037.362.611.007 1.22-.069 1.811-.226m11.634-3.123c0-.498-.068-.928-.204-1.3a2.31 2.31 0 0 0-.679-.951c-.317-.272-.724-.498-1.222-.68s-1.086-.385-1.788-.543c-.815-.204-1.358-.407-1.607-.588-.272-.18-.407-.43-.407-.702a.81.81 0 0 1 .362-.702c.25-.18.634-.272 1.132-.272.543 0 1.11.09 1.72.272s1.177.407 1.72.702l.362-2.218c-1.11-.498-2.377-.747-3.802-.747-1.267 0-2.263.294-2.942.883-.702.588-1.04 1.335-1.04 2.263 0 .498.068.905.204 1.245a2.33 2.33 0 0 0 .656.905c.294.25.68.475 1.154.68.475.18 1.04.362 1.698.52l1.086.294c.294.09.498.204.68.317.158.113.272.226.34.385.068.136.09.317.09.498 0 .34-.158.61-.453.815-.317.204-.747.294-1.335.294-.68 0-1.358-.113-2.037-.34s-1.335-.543-1.9-.928l-.362 2.218c.52.272 1.154.52 1.9.724s1.516.317 2.31.317c1.426 0 2.535-.294 3.26-.883.747-.588 1.11-1.426 1.11-2.5" fill="#444"/></g></symbol></svg>
