<svg width="722" height="135" viewBox="0 0 722 135" fill="none" xmlns="http://www.w3.org/2000/svg">
<path d="M211.288 89.152L209.56 106H166.504L150.808 96.352L156.424 42.928L174.136 33.28H200.488L216.184 42.928L212.44 77.344H172.408L171.256 89.152H211.288ZM175.288 50.128L173.992 62.512H194.296L195.592 50.128H175.288ZM222.582 106L252.534 69.28L230.934 34H252.39L264.342 54.304L280.614 34H302.07L272.838 69.28L295.446 106H274.278L261.174 84.4L243.75 106H222.582ZM354.361 89.872L358.537 50.128H333.913L329.737 89.872H354.361ZM380.137 33.28L372.361 106.72H362.857L353.209 100.816L342.409 106.72H324.985L309.289 97.072L315.049 42.928L332.761 33.28H350.185L359.689 39.184L370.633 33.28H380.137ZM501.922 42.928L495.298 106H475.57L481.33 50.128H460.306L454.546 106H434.818L440.578 50.128H419.554L413.794 106H394.066L401.698 33.28H417.97L420.706 39.184L431.65 33.28H445.474L458.002 41.056L472.402 33.28H486.226L501.922 42.928ZM565.503 106.72H546.639L536.991 100.816L533.391 134.8H513.663L524.463 33.28H540.735L543.471 39.184L554.415 33.28H573.279L588.975 42.928L583.215 97.072L565.503 106.72ZM542.319 50.128L538.143 89.872H564.207L568.383 50.128H542.319ZM620.723 106L605.027 96.352L614.963 0.879997H634.691L625.475 89.152H639.875L638.147 106H620.723ZM712.616 89.152L710.888 106H667.832L652.136 96.352L657.752 42.928L675.464 33.28H701.816L717.512 42.928L713.768 77.344H673.736L672.584 89.152H712.616ZM676.616 50.128L675.32 62.512H695.624L696.92 50.128H676.616Z" fill="#A51E1E"/>
<circle cx="67" cy="68" r="67" fill="#A51E1E"/>
<ellipse cx="85.5" cy="91.5" rx="29.5" ry="28.5" fill="white"/>
</svg>
