<svg width="500" height="500" viewBox="0 0 500 500" fill="none" xmlns="http://www.w3.org/2000/svg">
<g clip-path="url(#clip0)">
<path d="M-1.14587e-05 177.891C0.914051 176.524 2.28124 175.61 3.64843 174.703C21.4219 162.399 40.1094 151 59.2578 140.516C82.0469 128.211 105.742 117.274 130.352 108.156C151.773 99.9533 173.648 93.5705 195.977 88.1017L221.953 82.633L246.109 78.5314C250.664 77.6174 255.68 78.0783 260.172 77.1642C266.094 75.7971 272.023 76.7111 277.945 75.3439H278.859L317.609 73.9767C318.246 73.9561 318.877 74.113 319.43 74.4299L306.664 86.2814L293.445 98.133C289.344 102.235 284.789 105.422 280.68 110.438C282.5 110.438 283.867 110.891 285.234 110.438C287.516 109.985 289.336 109.985 291.617 109.985C299.82 109.985 308.492 109.07 316.617 107.703L330.68 106.336L352.102 103.149L373.977 99.5002L414.602 89.8439C424.03 87.1331 433.314 83.9387 442.414 80.2736C454.266 75.258 465.656 69.7892 475.695 61.5861C479.797 58.3986 483.898 55.2033 487.102 51.1017C488.016 50.1877 488.469 48.8205 489.836 48.8205C490.289 50.1877 489.836 51.5549 489.383 52.9221C482.547 73.4299 474.344 93.0314 461.57 110.735C452.444 123.582 441.893 135.355 430.117 145.828C408.242 164.969 384.086 179.11 358.102 191.406C342.602 198.695 327.109 205.078 311.617 211.461C292.086 219.211 271.961 226.961 251.461 232.883C237.903 236.954 224.222 240.601 210.437 243.82C198.133 247.008 185.828 249.742 173.516 253.844H173.062C168.047 255.211 168.508 255.211 164.406 252.024C149.82 239.258 133.937 227.867 117.008 218.297C99.2344 207.813 80.4687 199.61 60.9375 192.774C49.0859 188.672 36.7812 185.485 24.0156 183.203C16.2656 181.836 8.51561 180.469 0.773426 179.555C1.68749 179.102 0.773426 178.641 -0.140636 177.735L-1.14587e-05 177.891ZM500 230.235C498.633 231.602 497.719 232.055 496.352 232.055C479.477 234.789 463.539 240.258 447.586 245.727L403.836 263.5L378.836 274.906L310.922 308.633L258.578 336.445L244.516 344.195C242.695 345.11 241.328 346.016 239.047 346.93C238.133 344.649 236.766 342.828 235.859 341.008C234.953 339.188 233.578 337.36 232.672 335.539C224.469 320.5 214.898 306.367 204.414 292.695L188.672 274.531C187.955 273.866 187.342 273.097 186.852 272.25C186.398 271.336 186.852 270.883 187.305 270.43C188.219 269.977 189.125 269.516 190.039 269.516L239.258 255.844L287.57 245.36L311.273 241.711L339.531 237.61L353.594 236.242C359.062 235.328 364.531 235.789 370 234.422H370.914L391.883 233.055L417.859 231.235H496.875C498.242 230.32 499.156 230.32 500.062 230.32L500 230.235ZM414.844 300.953C414.844 302.32 413.477 303.235 412.562 304.141L365.687 352.453L284.867 435.938L271.195 450.524C270.742 450.977 270.281 451.438 269.828 450.977C269.375 450.516 269.375 450.063 268.914 449.61C266.633 424.61 260.711 400.844 252.039 377.141C252.039 376.688 251.586 376.227 251.586 375.774C250.219 371.672 250.219 371.672 253.867 370.305L308.555 346.602L360.508 324.258L404.258 305.117C406.992 304.203 409.273 302.836 412.008 301.93C412.922 301.016 413.828 300.563 414.742 301.016L414.844 300.953ZM414.844 300.953C414.844 300.5 414.844 300.039 415.297 300.039C416.211 300.953 414.844 300.492 414.844 300.953Z" fill="#F99E21"/>
</g>
<defs>
<clipPath id="clip0">
<rect width="500" height="500" fill="white"/>
</clipPath>
</defs>
</svg>
