<svg version="1.1" id="Hero_logo" xmlns="http://www.w3.org/2000/svg" xmlns:xlink="http://www.w3.org/1999/xlink" x="0px" y="0px" viewBox="0 0 1972 1061.6" style="enable-background:new 0 0 1972 1061.6;" xml:space="preserve">
 <style type="text/css">
  .st0{fill:url(#Fill-1_1_);}
	.st1{fill:#77CFFD;}
	.st2{fill:#3195E3;}
	.st3{fill:url(#path-3-2_1_);}
	.st4{fill:#2285E1;}
	.st5{fill:none;}
 </style>
 <g id="logo-d.grey_8_">
  <g id="Page-1_15_">
   <linearGradient id="Fill-1_1_" gradientUnits="userSpaceOnUse" x1="3109.8884" y1="1471.5159" x2="3109.3184" y2="1471.156" gradientTransform="matrix(354 0 0 -321 -1100142 472927)">
    <stop offset="0" style="stop-color:#3C9FE6">
    </stop>
    <stop offset="1" style="stop-color:#77CFFD">
    </stop>
   </linearGradient>
   <polygon id="Fill-1_15_" class="st0" points="375.5,728.8 375.5,848.8 729.5,647.8 729.5,527.8 		">
   </polygon>
   <polygon id="Fill-2_15_" class="st1" points="375.5,443.8 729.5,644.8 729.5,524.8 375.5,323.8 		">
   </polygon>
   <g id="Fill-3_15_">
    <polygon id="path-3_15_" class="st2" points="216.5,536.8 570.5,737.8 570.5,617.8 216.5,416.8 			">
    </polygon>
    <linearGradient id="path-3-2_1_" gradientUnits="userSpaceOnUse" x1="3109.7209" y1="1470.8875" x2="3108.7209" y2="1471.5176" gradientTransform="matrix(354 0 0 -321 -1100301 472816)">
     <stop offset="0.36" style="stop-color:#2285E1">
     </stop>
     <stop offset="0.79" style="stop-color:#2581CB">
     </stop>
    </linearGradient>
    <polygon id="path-3-2_15_" class="st3" points="216.5,536.8 570.5,737.8 570.5,617.8 216.5,416.8 			">
    </polygon>
   </g>
   <polygon id="Fill-4_15_" class="st2" points="570.5,212.8 216.5,413.8 216.5,533.8 570.5,332.8 		">
   </polygon>
   <path id="Fill-5_15_" class="st4" d="M570.5,618.1v119.7l-105.4-59.9L570.5,618.1z M375.5,443.5V323.8l105.4,59.9L375.5,443.5z">
   </path>
  </g>
  <g id="Page-1-2_15_">
   <g>
    <path id="Fill-1-2_15_" d="M1755.4,443v-46.4h-44.4v-90.8h-50.8v90.8h-36.6V443h36.6v224.1h50.8V443H1755.4z M1538.2,667h50.8
				V396.6h-50.8V667z M1538.2,365.4h50.8v-59.6h-50.8V365.4z M1424.4,667h50.8V305.8h-50.8V667z M1324.9,532.3
				c0,51.8-38.1,95.2-91.3,95.2c-53.7,0-91.8-43.9-91.8-96.2c0-50.8,38.1-95.7,90.3-95.7C1284.4,435.6,1324.9,481,1324.9,532.3z
				 M1375.7,535.2c0-81.5-56.6-146-140.1-146c-38.6,0-73.7,16.6-96.2,48.8h-1v-41.5h-46.4v360.8h50.8V628h1
				c19.5,32.2,59.1,45.9,95.2,45.9C1316.6,673.9,1375.7,611.9,1375.7,535.2L1375.7,535.2z M1051.1,587.5c0-52.2-37.1-74.2-81.5-87.9
				c-18.5-5.9-42-11.2-42-35.2c0-18.1,14.7-28.8,31.7-28.8c20.5,0,32.2,13.2,34.7,32.7h50.8c-1-46.9-36.6-79.1-83-79.1
				c-44.4,0-84.9,31.7-84.9,78.1c0,95.7,123.5,66.4,123.5,123c0,23.4-16.6,37.1-39,37.1c-30.3,0-43.9-21.5-45.9-49.3h-50.9
				c0,42.5,21,75.2,61,89.3c11.1,4,22.8,6.2,34.7,6.3C1012,673.9,1051.1,640.7,1051.1,587.5z">
    </path>
   </g>
  </g>
 </g>
 <g id="pads">
  <rect y="848.8" class="st5" width="212.8" height="212.8">
  </rect>
  <rect class="st5" width="212.8" height="212.8">
  </rect>
  <rect x="1759.2" y="848.8" class="st5" width="212.8" height="212.8">
  </rect>
  <rect x="1759.2" class="st5" width="212.8" height="212.8">
  </rect>
 </g>
</svg>
