<svg version="1.1" id="Hero_logo" xmlns="http://www.w3.org/2000/svg" xmlns:xlink="http://www.w3.org/1999/xlink" x="0px" y="0px" viewBox="0 0 942.6 1061.6" style="enable-background:new 0 0 942.6 1061.6;" xml:space="preserve">
 <style type="text/css">
  .st0{fill:url(#Fill-1_1_);}
	.st1{fill:#77CFFD;}
	.st2{fill:#3195E3;}
	.st3{fill:url(#path-3-2_1_);}
	.st4{fill:#2285E1;}
	.st5{fill:none;}
 </style>
 <g id="logo-d.grey_8_">
  <g id="Page-1_15_">
   <linearGradient id="Fill-1_1_" gradientUnits="userSpaceOnUse" x1="3454.9109" y1="-428.5751" x2="3454.3408" y2="-428.2152" gradientTransform="matrix(354 0 0 321 -1222280 138143)">
    <stop offset="0" style="stop-color:#3C9FE6">
    </stop>
    <stop offset="1" style="stop-color:#77CFFD">
    </stop>
   </linearGradient>
   <polygon id="Fill-1_15_" class="st0" points="375.5,728.8 375.5,848.8 729.5,647.8 729.5,527.8 		">
   </polygon>
   <polygon id="Fill-2_15_" class="st1" points="375.5,443.8 729.5,644.8 729.5,524.8 375.5,323.8 		">
   </polygon>
   <g id="Fill-3_15_">
    <polygon id="path-3_15_" class="st2" points="216.5,536.8 570.5,737.8 570.5,617.8 216.5,416.8 			">
    </polygon>
    <linearGradient id="path-3-2_1_" gradientUnits="userSpaceOnUse" x1="3454.7437" y1="-427.9466" x2="3453.7437" y2="-428.5768" gradientTransform="matrix(354 0 0 321 -1222439 138032)">
     <stop offset="0.36" style="stop-color:#2285E1">
     </stop>
     <stop offset="0.79" style="stop-color:#2581CB">
     </stop>
    </linearGradient>
    <polygon id="path-3-2_15_" class="st3" points="216.5,536.8 570.5,737.8 570.5,617.8 216.5,416.8 			">
    </polygon>
   </g>
   <polygon id="Fill-4_15_" class="st2" points="570.5,212.8 216.5,413.8 216.5,533.8 570.5,332.8 		">
   </polygon>
   <path id="Fill-5_15_" class="st4" d="M570.5,618.1v119.7l-105.4-59.9L570.5,618.1z M375.5,443.5V323.8l105.4,59.9L375.5,443.5z">
   </path>
  </g>
 </g>
 <g id="pads">
  <rect y="848.8" class="st5" width="212.8" height="212.8">
  </rect>
  <rect class="st5" width="212.8" height="212.8">
  </rect>
  <rect x="729.8" y="848.8" class="st5" width="212.8" height="212.8">
  </rect>
  <rect x="729.8" class="st5" width="212.8" height="212.8">
  </rect>
 </g>
</svg>
