<?xml version="1.0" encoding="UTF-8"?>
<svg width="799px" height="183px" viewBox="0 0 799 183" version="1.1" xmlns="http://www.w3.org/2000/svg" xmlns:xlink="http://www.w3.org/1999/xlink">
    <!-- Generator: Sketch 48.1 (47250) - http://www.bohemiancoding.com/sketch -->
    <title>Group</title>
    <desc>Created with Sketch.</desc>
    <defs></defs>
    <g id="Page-1" stroke="none" stroke-width="1" fill="none" fill-rule="evenodd">
        <g id="Group">
            <path d="M295.91,91.325 C295.91,111.666 279.362,128.214 259.022,128.214 C238.682,128.214 222.133,111.666 222.133,91.325 C222.133,70.985 238.682,54.437 259.022,54.437 C279.362,54.437 295.91,70.985 295.91,91.325 Z M259.022,36.961 C245.227,36.961 232.218,42.082 222.133,51.431 L222.133,36.836 L204.657,36.836 L204.657,183 L222.133,183 L222.133,131.221 C232.218,140.57 245.227,145.69 259.022,145.69 C288.999,145.69 313.386,121.302 313.386,91.325 C313.386,61.349 288.999,36.961 259.022,36.961 Z" id="Fill-1" fill="#2A2C35"></path>
            <path d="M345.341,82.462 C349.335,66.077 364.213,54.312 381.183,54.312 C397.934,54.312 411.965,65.826 415.705,82.462 L345.341,82.462 Z M381.183,36.836 C351.207,36.836 326.819,61.224 326.819,91.2 C326.819,121.177 351.207,145.565 381.183,145.565 C397.972,145.565 413.382,139.28 423.462,128.322 L429.377,121.891 L416.515,110.06 L410.6,116.491 C403.919,123.754 392.922,128.089 381.183,128.089 C364.213,128.089 349.335,116.323 345.341,99.938 L434.141,99.938 L434.141,91.2 C434.141,60.715 410.879,36.836 381.183,36.836 Z" id="Fill-2" fill="#2A2C35"></path>
            <path d="M500.245,36.836 C487.768,36.836 475.885,41.552 466.529,50.167 L466.529,36.836 L449.053,36.836 L449.053,146.42 L466.529,146.42 L466.529,90.497 C466.529,70.544 481.654,54.312 500.245,54.312 C518.836,54.312 533.961,70.544 533.961,90.497 L533.961,146.42 L551.437,146.42 L551.437,90.497 C551.437,60.908 528.472,36.836 500.245,36.836" id="Fill-3" fill="#2A2C35"></path>
            <path d="M657.487,91.931 C657.487,112.271 640.939,128.819 620.599,128.819 C600.258,128.819 583.71,112.271 583.71,91.931 C583.71,71.59 600.258,55.041 620.599,55.041 C640.939,55.041 657.487,71.59 657.487,91.931 Z M658.487,0.256 L657.487,0.256 L657.487,52.035 C647.402,42.686 634.394,37.565 620.599,37.565 C590.622,37.565 566.234,61.953 566.234,91.931 C566.234,121.907 590.622,146.295 620.599,146.295 C634.394,146.295 647.402,141.174 657.487,131.825 L657.487,146.42 L674.963,146.42 L674.963,0.256 L658.487,0.256 Z" id="Fill-4" fill="#2A2C35"></path>
            <path d="M781.36,91.931 C781.36,112.271 764.812,128.819 744.471,128.819 C724.131,128.819 707.583,112.271 707.583,91.931 C707.583,71.59 724.131,55.041 744.471,55.041 C764.812,55.041 781.36,71.59 781.36,91.931 Z M744.471,37.565 C714.495,37.565 690.107,61.953 690.107,91.931 C690.107,121.907 714.495,146.295 744.471,146.295 C774.448,146.295 798.836,121.907 798.836,91.931 C798.836,61.953 774.448,37.565 744.471,37.565 Z" id="Fill-5" fill="#2A2C35"></path>
            <polyline id="Fill-6" fill="#EC2059" points="82.062 18.875 0 100.937 82.062 100.937 82.062 183 164.125 100.937 164.125 18.875 82.062 18.875"></polyline>
        </g>
    </g>
</svg>
