<svg width="250" height="250" viewBox="0 0 250 250" fill="none" xmlns="http://www.w3.org/2000/svg">
<path d="M250 0H0V250H250V0Z" fill="#02238F"/>
<path d="M185.449 77.7326C183.123 74.9937 180.496 72.6301 177.683 70.529C175.169 68.6906 172.505 67.0773 169.616 65.7641C168.228 65.1263 166.765 64.601 165.226 64.1133C163.013 63.4004 160.612 62.9127 158.135 62.5H126.92L106.284 86.0243V83.2854V62.9877H62.5V187.1H106.284V133.861V103.358H112.362H124.556H146.88H147.405L150.819 103.283V187.062H194.604V109.436C194.604 102.833 193.966 96.9422 192.69 91.7646C191.414 86.6246 189.013 81.9722 185.449 77.7326Z" fill="white"/>
</svg>
