<svg width="250" height="92" viewBox="0 0 250 92" fill="none" xmlns="http://www.w3.org/2000/svg">
<path d="M85.3764 31.2599C81.9002 27.4439 77.6007 25.5228 72.4909 25.5228C69.3414 25.5228 66.4402 26.124 63.7742 27.3393C61.1083 28.5547 58.8082 30.2013 56.861 32.3054C54.9269 34.4225 53.3979 36.8793 52.274 39.7283C51.1501 42.5641 50.5881 45.6352 50.5881 48.9546C50.5881 52.2087 51.1109 55.1752 52.1433 57.8543C53.1888 60.5202 54.6394 62.8072 56.5212 64.7152C58.4031 66.6232 60.6378 68.113 63.2254 69.1846C65.8129 70.2562 68.6488 70.792 71.7329 70.792C73.1313 70.792 74.425 70.6875 75.6012 70.4915C76.7774 70.2954 77.9013 69.9687 78.9729 69.5244C80.0445 69.067 81.09 68.492 82.1354 67.7994C83.1678 67.0937 84.2525 66.205 85.3764 65.1465V76.4768H85.3634V77.5746H71.0926L60.3634 89.6499V91.7278H100.627V86.8271V26.7121H85.3764V31.2599ZM85.3372 52.0257C84.8014 53.228 84.0957 54.2866 83.2332 55.1883C82.3576 56.09 81.3252 56.7826 80.1229 57.2923C78.9206 57.802 77.6399 58.0503 76.2938 58.0503C74.8824 58.0503 73.5756 57.802 72.3733 57.2923C71.171 56.7826 70.1255 56.09 69.2499 55.1883C68.3743 54.2866 67.6948 53.228 67.1851 52.0257C66.6754 50.8234 66.4271 49.5035 66.4271 48.1052C66.4271 46.7591 66.6885 45.4915 67.2243 44.3153C67.7601 43.1391 68.4658 42.1198 69.3806 41.2442C70.2823 40.3686 71.3147 39.676 72.4909 39.1402C73.6671 38.6044 74.9347 38.343 76.2808 38.343C77.5745 38.343 78.816 38.5913 80.0314 39.101C81.2337 39.5976 82.2923 40.3033 83.194 41.205C84.0957 42.1067 84.8014 43.1391 85.3503 44.3153C85.8861 45.4915 86.1475 46.7852 86.1475 48.1966C86.1344 49.5427 85.873 50.8234 85.3372 52.0257Z" fill="#02238F"/>
<path d="M42.8254 31.9656C42.0152 31.0116 41.1004 30.1883 40.1202 29.4564C39.2446 28.8161 38.3168 28.2541 37.3105 27.7967C36.827 27.5746 36.3173 27.3916 35.7815 27.2217C35.0105 26.9734 34.1741 26.8035 33.3116 26.6598H22.4386L15.2509 34.8537V33.8997V26.8297H0V70.0602H15.2509V51.516V40.8914H17.368H21.6153H29.391H29.574L30.7632 40.8652V70.0471H46.0141V43.0085C46.0141 40.7084 45.792 38.6567 45.3476 36.8532C44.9033 35.0628 44.0669 33.4423 42.8254 31.9656Z" fill="#02238F"/>
<path d="M145.478 26.7119H134.174C134.174 26.7119 130.136 26.7119 128.842 26.7119L122.229 34.1609V26.7119H106.965V69.9424H122.256L122.269 41.0088H127.287H133.364L145.478 27.3131V26.7119Z" fill="#02238F"/>
<path d="M227.888 46.6806L248.745 27.4438V26.712H228.646L212.65 42.3027V0H197.399V69.9294H212.65V52.3262L229.417 69.9294H250V69.1061L227.888 46.6806Z" fill="#02238F"/>
<path d="M185.481 31.6387C183.155 29.587 180.397 27.9926 177.222 26.8426C174.046 25.6926 170.609 25.1176 166.897 25.1176C163.134 25.1176 159.658 25.7056 156.495 26.8818C153.319 28.058 150.588 29.6785 148.275 31.7171C145.975 33.7689 144.171 36.1866 142.878 38.9701C141.584 41.7537 140.943 44.7464 140.943 47.9482C140.943 51.4897 141.584 54.7046 142.878 57.5927C144.171 60.4809 145.949 62.9639 148.236 65.0418C150.51 67.1196 153.215 68.7271 156.364 69.851C159.514 70.9748 162.938 71.5368 166.649 71.5368C170.413 71.5368 173.902 70.9748 177.143 69.851C180.371 68.7271 183.142 67.1458 185.442 65.081C187.742 63.0292 189.558 60.5854 190.878 57.7495C192.198 54.9137 192.865 51.7903 192.865 48.3533C192.865 44.9294 192.211 41.7929 190.93 38.9571C189.624 36.1343 187.807 33.6905 185.481 31.6387ZM175.954 52.104C175.418 53.3063 174.712 54.3648 173.85 55.2665C172.974 56.1683 171.942 56.8609 170.74 57.3706C169.524 57.8802 168.257 58.1285 166.911 58.1285C165.565 58.1285 164.284 57.8802 163.068 57.3706C161.866 56.8609 160.821 56.1683 159.958 55.2665C159.083 54.3648 158.39 53.3063 157.854 52.104C157.318 50.9017 157.057 49.5687 157.057 48.105C157.057 46.759 157.318 45.4913 157.854 44.3152C158.39 43.139 159.083 42.1066 159.958 41.2049C160.834 40.3031 161.866 39.5974 163.068 39.1008C164.284 38.5912 165.551 38.3429 166.911 38.3429C168.257 38.3429 169.537 38.5912 170.74 39.1008C171.942 39.5974 172.987 40.3031 173.85 41.2049C174.726 42.1066 175.418 43.1651 175.954 44.3674C176.49 45.5697 176.751 46.8504 176.751 48.1965C176.751 49.5948 176.49 50.9017 175.954 52.104Z" fill="#02238F"/>
</svg>
