<svg width="800" height="142" viewBox="0 0 800 142" fill="none" xmlns="http://www.w3.org/2000/svg">
<path d="M578.6 37.2H560.2C555 37.2 551.4 38.2 549.2 40.4C547 42.5 545.9 46.2 545.9 51.2V114.8H534.9V50.4C535 45.5 535.8 40.2 538.4 36.2C543.1 28.7 552.1 27.3 558.8 27.3H578.7V37.2H578.6Z" fill="#1A1A1A"/>
<path d="M507.6 104.8C502.4 104.8 498.8 103.8 496.6 101.6C494.4 99.5 493.3 96 493.3 91V37.2H516.4V27.3H493.3V1H482.3V91.6C482.4 96.5 483.2 101.8 485.8 105.8C490.5 113.3 499.5 114.7 506.2 114.7H526.1V104.8H507.6Z" fill="#1A1A1A"/>
<path d="M219.3 1V27.2H196.2C182.2 27.2 173.7 31.4 168.4 36.5C160.3 44.4 160.3 55.7 160.3 56.9C160.3 58.3 160.3 83.7 160.3 85.1C160.3 86.3 160.3 97.6 168.4 105.5C173.6 110.6 182.1 114.8 196.2 114.8H206.5C213.2 114.8 222.2 113.3 226.9 105.9C229.4 101.9 230.3 96.6 230.4 91.7V1H219.3ZM216 101.7C213.8 103.8 210.2 104.9 205 104.9H195C185.9 104.9 180.2 102.3 176.8 98.9C172.7 94.9 171.3 89.6 171.3 85.5V56.6C171.3 52.5 172.7 47.2 176.8 43.2C180.3 39.8 185.9 37.2 195 37.2H219.2V91.1C219.3 96 218.2 99.5 216 101.7Z" fill="#1A1A1A"/>
<path d="M678.2 43.2C681.7 39.8 687.3 37.2 696.4 37.2H722.9V27.3H697.5C683.5 27.3 675 31.5 669.7 36.6C661.6 44.5 661.6 55.8 661.6 57C661.6 57.8 661.6 84.4 661.6 85.2C661.6 86.4 661.6 97.7 669.7 105.6C674.9 110.7 683.4 114.9 697.5 114.9H722.9V105H696.4C687.3 105 681.6 102.4 678.2 99C674.1 95 672.7 89.7 672.7 85.6V56.6C672.7 52.5 674.1 47.1 678.2 43.2Z" fill="#1A1A1A"/>
<path d="M470.9 56.9C470.9 55.7 470.9 44.4 462.8 36.5C457.6 31.4 449.1 27.2 435 27.2H410.5V37.1H436.1C445.2 37.1 450.9 39.7 454.3 43.1C458.4 47.1 459.8 52.4 459.8 56.5V65H424.7C418 65 409 66.5 404.3 73.9C401.8 77.9 400.9 83.2 400.8 88.1V91.6C400.9 96.5 401.7 101.8 404.3 105.8C409 113.3 418 114.7 424.7 114.7H447C453.7 114.7 462.7 113.2 467.4 105.8C469.9 101.8 470.8 96.5 470.9 91.6C470.9 91.6 470.9 62.6 470.9 56.9ZM456.6 101.7C454.4 103.8 450.8 104.9 445.6 104.9H426.2C421 104.9 417.4 103.9 415.2 101.7C413 99.5 412 96 412 91.1V88.7C412 83.7 413.1 80.2 415.3 78.1C417.5 76 421.1 74.9 426.3 74.9H459.9V91.1C459.9 96 458.8 99.5 456.6 101.7Z" fill="#1A1A1A"/>
<path d="M652.9 56.9C652.9 55.7 652.9 44.4 644.8 36.5C639.6 31.4 631.1 27.2 617 27.2H592.5V37.1H618.1C627.2 37.1 632.9 39.7 636.3 43.1C640.4 47.1 641.8 52.4 641.8 56.5V65H606.7C600 65 591 66.5 586.3 73.9C583.8 77.9 582.9 83.2 582.8 88.1V91.6C582.9 96.5 583.7 101.8 586.3 105.8C591 113.3 600 114.7 606.7 114.7H629C635.7 114.7 644.7 113.2 649.4 105.8C651.9 101.8 652.8 96.5 652.9 91.6C652.9 91.6 652.9 62.6 652.9 56.9ZM638.6 101.7C636.4 103.8 632.8 104.9 627.6 104.9H608.2C603 104.9 599.4 103.9 597.2 101.7C595 99.5 594 96 594 91.1V88.7C594 83.7 595.1 80.2 597.3 78.1C599.5 76 603.1 74.9 608.3 74.9H641.9V91.1C641.9 96 640.8 99.5 638.6 101.7Z" fill="#1A1A1A"/>
<path d="M317.8 27.2H306.3L278.4 99.8L250.5 27.2H239.1L272.7 114.7L262.6 141H274.1L317.8 27.2Z" fill="#1A1A1A"/>
<path d="M392.2 56.9C392.2 55.7 392.2 44.4 384.2 36.5C379.1 31.5 371 27.4 357.8 27.2H356.6C343.4 27.4 335.3 31.5 330.2 36.5C322.2 44.4 322.2 55.7 322.2 56.9C322.2 58.3 322.2 110.3 322.2 114.8H333.2V56.6C333.2 52.5 334.5 47.2 338.6 43.2C342 39.9 348.5 37.3 357.2 37.2C365.9 37.3 372.4 39.9 375.8 43.2C379.8 47.2 381.2 52.5 381.2 56.6V114.8H392.2C392.2 110.3 392.2 58.3 392.2 56.9Z" fill="#1A1A1A"/>
<path d="M791 36.5C785.9 31.5 777.8 27.4 764.6 27.2H763.4C750.2 27.4 742.1 31.5 737 36.5C729 44.4 729 55.7 729 56.9V85.1C729 86.3 729 97.6 737 105.5C742.1 110.5 750.2 114.6 763.4 114.8H789.4V104.8H764C755.3 104.7 748.8 102.1 745.4 98.8C741.4 94.8 740 89.5 740 85.4V75.1H799V56.9C799.1 55.7 799.1 44.4 791 36.5ZM740.1 65.2V56.6C740.1 52.5 741.4 47.2 745.5 43.2C748.9 39.9 755.4 37.3 764.1 37.2C772.8 37.3 779.3 39.9 782.7 43.2C786.7 47.2 788.1 52.5 788.1 56.6V65.2H740.1Z" fill="#1A1A1A"/>
<path d="M47.7 12.7C45.9 22.2 43.7 36.3 42.5 50.6C40.4 75.8 41.7 92.7 41.7 92.7L6.2 126.4C6.2 126.4 3.5 107.5 2.1 86.2C1.3 73 1 61.4 1 54.4C1 54 1.2 53.6 1.2 53.2C1.2 52.7 1.8 48 6.4 43.6C11.4 38.8 48.3 9.9 47.7 12.7Z" fill="#1496FF"/>
<path d="M47.7 12.7C45.9 22.2 43.7 36.3 42.5 50.6C42.5 50.6 3.2 45.9 1 55.4C1 54.9 1.7 49.1 6.3 44.7C11.3 39.9 48.3 9.89999 47.7 12.7Z" fill="#1284EA"/>
<path d="M0.99999 53.1C0.99999 53.8 0.99999 54.5 0.99999 55.3C1.39999 53.6 2.09999 52.4 3.49999 50.5C6.39999 46.8 11.1 45.8 13 45.6C22.6 44.3 36.8 42.8 51.1 42.4C76.4 41.6 93.1 43.7 93.1 43.7L128.6 9.99999C128.6 9.99999 110 6.49999 88.8 3.99999C74.9 2.29999 62.7 1.39999 55.8 0.999994C55.3 0.999994 50.4 0.399994 45.8 4.79999C40.8 9.59999 15.4 33.7 5.19999 43.4C0.59999 47.8 0.99999 52.7 0.99999 53.1Z" fill="#B4DC00"/>
<path d="M127.3 96.2C117.7 97.5 103.5 99.1 89.2 99.6C63.9 100.4 47.1 98.3 47.1 98.3L11.6 132.1C11.6 132.1 30.4 135.8 51.6 138.2C64.6 139.7 76.1 140.5 83.1 140.9C83.6 140.9 84.4 140.5 84.9 140.5C85.4 140.5 90.3 139.6 94.9 135.2C99.9 130.4 130.1 95.9 127.3 96.2Z" fill="#6F2DA8"/>
<path d="M127.3 96.2C117.7 97.5 103.5 99.1 89.2 99.6C89.2 99.6 91.9 139.1 82.4 140.8C82.9 140.8 89.4 140.5 94 136.1C99 131.3 130.1 95.9 127.3 96.2Z" fill="#591F91"/>
<path d="M84.5 141C83.8 141 83.1 140.9 82.3 140.9C84.1 140.6 85.3 140 87.2 138.6C91 135.9 92.2 131.2 92.6 129.3C94.3 119.8 96.6 105.7 97.7 91.4C99.7 66.2 98.5 49.4 98.5 49.4L134 15.6C134 15.6 136.6 34.4 138.1 55.7C139 69.6 139.3 81.9 139.4 88.7C139.4 89.2 139.8 94.1 135.2 98.5C130.2 103.3 104.8 127.5 94.7 137.2C89.9 141.6 85 141 84.5 141Z" fill="#73BE28"/>
</svg>
