<svg width="589" height="595" viewBox="0 0 589 595" fill="none" xmlns="http://www.w3.org/2000/svg">
<path d="M198.725 49.9303C191.075 90.2718 181.725 150.147 176.625 210.872C167.7 317.883 173.225 389.649 173.225 389.649L22.35 532.755C22.35 532.755 10.875 452.496 4.925 362.046C1.525 305.993 0.25 256.734 0.25 227.008C0.25 225.31 1.1 223.611 1.1 221.913C1.1 219.789 3.65 199.831 23.2 181.146C44.45 160.763 201.275 38.0401 198.725 49.9303Z" fill="#1496FF"/>
<path d="M198.725 49.9302C191.075 90.2718 181.725 150.147 176.625 210.872C176.625 210.872 9.6 190.913 0.25 231.255C0.25 229.132 3.225 204.502 22.775 185.818C44.025 165.434 201.275 38.0401 198.725 49.9302Z" fill="#1284EA"/>
<path d="M0.249958 221.488C0.249958 224.461 0.249958 227.433 0.249958 230.83C1.94996 223.611 4.92496 218.515 10.875 210.447C23.2 194.735 43.175 190.489 51.25 189.639C92.05 184.119 152.4 177.749 213.175 176.051C320.7 172.653 391.675 181.571 391.675 181.571L542.55 38.4648C542.55 38.4648 463.5 23.6021 373.4 12.9859C314.325 5.76688 262.475 1.94505 233.15 0.246458C231.025 0.246458 210.2 -2.30143 190.65 16.3831C169.4 36.7662 61.45 139.106 18.1 180.297C-1.45004 198.982 0.249958 219.789 0.249958 221.488Z" fill="#B4DC00"/>
<path d="M537.025 404.511C496.225 410.032 435.875 416.826 375.1 418.949C267.575 422.346 196.175 413.429 196.175 413.429L45.2999 556.96C45.2999 556.96 125.2 572.672 215.3 582.863C270.55 589.233 319.425 592.63 349.175 594.329C351.3 594.329 354.7 592.63 356.825 592.63C358.95 592.63 379.775 588.808 399.325 570.124C420.575 549.741 548.925 403.237 537.025 404.511Z" fill="#6F2DA8"/>
<path d="M537.025 404.511C496.225 410.032 435.875 416.826 375.1 418.949C375.1 418.949 386.575 586.685 346.2 593.904C348.325 593.904 375.95 592.63 395.5 573.946C416.75 553.563 548.925 403.237 537.025 404.511Z" fill="#591F91"/>
<path d="M355.125 594.754C352.15 594.754 349.175 594.329 345.775 594.329C353.425 593.055 358.525 590.507 366.6 584.562C382.75 573.097 387.85 553.138 389.55 545.07C396.775 504.728 406.55 444.853 411.225 384.128C419.725 277.117 414.625 205.776 414.625 205.776L565.5 62.2451C565.5 62.2451 576.55 142.079 582.925 232.529C586.75 291.555 588.025 343.787 588.45 372.663C588.45 374.786 590.15 395.594 570.6 414.278C549.35 434.661 441.4 537.426 398.475 578.617C378.075 597.301 357.25 594.754 355.125 594.754Z" fill="#73BE28"/>
</svg>
